<svg version="1.1" id="Layer_1" xmlns:amcharts="http://amcharts.com/ammap"
	 xmlns="http://www.w3.org/2000/svg" xmlns:xlink="http://www.w3.org/1999/xlink" x="0px" y="0px" viewBox="419 345.9 208 228"
	 enable-background="new 419 345.9 208 228" xml:space="preserve">
<path id="africa" fill="#CCCCCC" stroke="#FFFFFF" stroke-width="0.1" d="M602.4,498.4L602.4,498.4l-0.2-0.2l-0.1,0.1l0.1,0.2l0,0.1
	l0,0.2l0,0.2l0.1,0.1l0.2,0V499l0.1-0.2l0-0.1l0-0.2L602.4,498.4z M619.7,433.2l-0.3-0.2l0,0.1l0,0.1l-0.3,0.1l-0.1,0l0-0.1l0.1,0
	l0-0.1l0.1-0.2l0-0.2l0-1.2l-0.1-0.7l0.2-0.5l0.2-0.4l0-0.2l0.1-0.2l-0.2,0l-1.1-0.4l-0.4,0.1l-0.3,0.3l-0.2,0.3l-1,0.6l-1.3,0.2
	l-0.7,0.3l-0.9,0.2l-0.3,0l-0.1,0l-0.6-0.2l-0.3,0l-0.4,0.1l-1.2,0.4l-0.9,0.1l-0.7-0.2h-0.2l-0.5,0.2l-0.7,0.5l-1.2,0.5l-0.3,0
	l-0.6-0.1l-0.6,0l-0.6-0.1l-0.3,0.1l-1,0.4l-1.1,0.6l-1.6,0l-0.3-0.1l-0.3-0.2l-0.9-0.7l-0.6-0.7l-0.5-0.9l-0.5-0.4l-0.2-0.2
	l-0.3-0.1l-0.4,0l-0.3,0.1l-0.4,0.1l-0.2,0l-0.1,0l0-0.2l0.3,0l0.5-0.5l0.7-0.3l0.6-0.4l0.2-0.2l0.1-0.2l0.1-0.3l-0.2-0.5l-0.2-0.3
	l-0.5-0.6l0-0.1l-0.1-0.3l-0.2-0.2l-0.1,0.3l-0.5-0.2l-0.2-0.4l-0.6-0.6l-0.3,0l-0.2-0.5l-0.3-0.5l-1.7-1.1l-0.5-0.8l-0.8-1.1
	l-1.1-0.4l-0.5-0.4l-0.2-0.1l-0.3-0.1l-0.4,0l-0.3-0.1l-0.3-0.4l-0.1-0.2l0-0.3l-0.2-0.2l-0.3-0.2l-0.1,0.2l-0.1,0.3l0.1,0.2l0,0.1
	l-0.1,0.2l-0.2-0.3l-0.2-0.7l-0.2-0.2l-0.2,0l-0.2-0.7l-0.3-0.4l-0.2-0.8l-0.2-1.6l-0.3-1l-0.3-1l-0.8-1.7l-0.1-0.2l-0.7-0.4
	l-0.1-0.2l-0.1,0.1l-0.1,0l-0.2-0.2l-0.2-0.2l-0.4-0.4l-0.5-0.4l-0.4-0.1l-0.2-0.1l-0.2-0.2l-0.3-0.8l-0.3-1.5l0-0.6l-0.2-1l0-0.8
	l0.1-0.5l-0.2-0.5l0-0.5l0-0.3l0-0.4l0.2,0.1l0.1,0.1l0-0.1l0-0.1l-0.1-0.2l-0.4-0.4l-0.4-0.8l-0.1-0.5l0-0.7v-0.1l-0.1-0.2
	l-1.2-0.9l-0.5-0.7l-0.9-0.3l-0.2-0.1l-0.1-0.2l-0.3-0.3l-0.4-1l-0.1-0.5l0-1l0-0.2l0.1-0.2l0.2-0.1l0.1,0l0.4,0l-0.5-0.4l-0.4-0.3
	l-0.2-0.4l-0.6-0.6l-1-2l-0.5-0.9l-0.3-0.8l-0.7-1l-0.8-1.6l-0.2-0.3l-0.2-1.2l-0.1-0.4l-0.1-0.3l-0.3-0.2l-0.1-0.3l-0.3-0.6l0-0.3
	l0-0.6l-0.2-0.2l-0.3-0.2l-0.5-0.5l-0.5-0.7l-0.3-0.4l-0.1-0.2l-0.1-0.2l-0.1-0.3l-0.3-0.5l-0.1-0.2l0-0.6l-0.1-0.5l-0.1-0.2
	l-0.5-0.5l-0.1-0.3l0.1-0.4l0.2-0.3l0-0.2l0.3-0.2l0.2,0.6l0.2,0.9l0.1,0.2l0.1,0.2l0.2,0.4l0.6,0.7l0.2,0.3l0.2,0.6v0.3l0.1,0.4
	l0.5,0.6l0.5,0.4l0.5,0.7l0.8,0.7l0.5,0.2l0.3-0.4l0.2-0.4l0.1-0.3l0-0.8l0.5-1.3l0.3-1.6l0.3-0.5l0.2-0.1l-0.1-0.3l-0.2-0.8
	l-0.2-0.5l-0.2-0.7l-0.4-0.8l0-0.2l-0.1-0.3l-0.2-0.8l-0.2-0.5l-0.2-0.7l-0.1-0.3l0-0.1l-0.1,0.1l-0.8,0.4l-0.7,0.2h-0.8l-0.5,0.1
	l-0.1-0.1l-0.1-0.1l-0.6,0.2l-0.1,0l-0.5,0.1l-0.2,0l-0.2-0.1l-0.6-0.5l-0.2-0.1h-0.1l0.1,0.1l0.1,0.1l-0.2,0.3l-0.3,0.1l-0.1-0.2
	l-0.2-0.2l-0.3-0.1l-0.4-0.2l0.3-0.4l0-0.2l0.5,0.5l0.2,0l-0.5-0.5l-0.2-0.1l-0.1,0l-0.7,0.2l-0.2,0l-0.9-0.4l-0.3,0l-0.1,0
	l-0.1,0.3l-0.1,0.1l-0.5,0.1l-0.4,0.1l-0.4,0l0.9-0.3l0.1-0.1l-1,0.3l-0.5,0l-0.1,0.2l-0.1,0.1l-0.1,0.1l-0.1,0.2l-0.3,0l-0.2,0
	l-0.3,0.1l-1,0.7l-0.5,0.3l-0.4,0.2l-0.3,0.1l-0.2,0l-0.3-0.1l-0.5-0.3l-0.8-0.4l-1.5-0.1l-0.4-0.3l-0.6,0l-0.2-0.1l-0.8-0.5
	l-1.3-0.3l-0.9-0.1l-1.6-0.4l-1.4,0.4l-0.4-0.1l-0.2-0.4l-0.1-0.2l-0.2-0.6l-0.2-0.2l-0.2-0.1l-0.5-0.1l-0.6,0.1l-1,0l-0.2-0.1
	l-0.4-0.3l-0.3-0.1l-1.4-0.2l-0.5-0.4l0-0.2l0-0.2l-0.1-0.6l-0.5-0.2l-0.5-0.2l-0.7-0.2l-0.5-0.3l-0.4-0.1l-1,0l-0.3-0.1l-0.2,0
	l-0.6,0.5l-0.3,0.1l-0.7,0l-1.2,0.6l-0.7,0.5l-0.7,0.7l-0.2,0.4l-0.2,0.4l-0.1,0.6l0.1,0.9l0.2,0.5l0.2,0.4l0.1,0.3l0,0.4l-0.1,0.4
	l-0.3,0.5l-0.8,1l-0.3,0.2l-0.8,0.4l-0.5,0.1l-0.5-0.1l-0.8-0.4l-1.3-1.2l-0.7-0.2l-0.3-0.2l-1.3-0.5l-1.6-0.4l-0.9,0l-0.9-0.1
	l-0.8-0.3l-0.3-0.2l-0.3-0.3l-0.3-0.4l-0.2-0.6l-0.1-0.5l0-0.6l-0.3-0.5l-0.2-0.3l-1.9-0.4l-0.2-0.1l-0.5-0.4l-0.2-0.1l-0.9-0.3
	l-0.5,0l-0.3-0.1l-0.7-0.3l-0.4,0.1l-1.1,0.3l-0.9-0.1l-0.4-0.1l-1.3-0.8l-0.4-0.1l-0.4-0.2l-0.3-0.1l-0.2,0l-0.3-0.1l-0.1,0
	l0.1-0.1l0.1,0l0-0.1l-0.3-0.2l-0.2-0.6l-0.4-0.2l-0.2,0.3l-0.2,0l-0.3,0l0-0.3l0-0.3l-0.7,0.1l-0.4-0.2l-0.4-0.4l-0.3-0.7l0-0.3
	l0.1-0.2l0.1-0.2l0.2-0.2l0.9-0.7l0.4-0.5l0.5-0.7l0.2-0.5l0.5-0.7l-0.2-0.3l0-0.4l-0.1-0.3l0-0.3l-0.6-0.5l-0.3-0.1l-0.3-0.3
	l-0.2-0.5l-0.1-0.5l0-0.3l0.1-0.2l0.3-0.3l0.4-0.2l0.5-0.9l0.2-0.3l0.2-0.1l-0.1-0.3l-0.1-0.4l-0.3,0l-0.5,0.5l-0.5,0.2l-0.1,0.3
	l-0.3,0.2l-0.3-0.2l0.1-0.3l-0.4-0.6l0-0.6l-0.3-0.2l-0.3,0l-0.3,0l0,0.1l0,0.1l-0.2,0.2l-0.1-0.3l0.1-0.1l0.1-0.2l-0.2-0.1l-0.2,0
	l-1.5,0.5l-0.2,0.1l-0.7,0.5l-0.7,0.2l-1.3,0.1l-0.6,0.2l-0.3-0.1l-0.5-0.4l-0.5-0.2l-0.6-0.1l0.1,0.4l-0.3,0.1l-0.6,0.1l-1-0.3
	l-0.2-0.3l-0.5,0.1l-0.2,0.4l-0.5,0.3l-1,0.2l-0.8,0.4l-0.4,0.1l-0.3-0.1l-0.6-0.5l-0.3-0.2l-0.3-0.1h-2.8l-0.7,0.4l-1.5,0l-0.4,0.2
	l-0.7,0.5l-0.7,0l-1,0.1l-2,0.2l-0.8,0.3l-0.5,0.3l-0.8,0.3l-0.6,0.3l-0.5,0.3l-0.3,0.6l-0.3,0.2l-0.4,0l-0.5-0.1l-0.2,0l-1.4,0.7
	l-0.5,0.3l-0.3,0.3l-0.4,0.5l-0.4,0.2l-0.5,0.4l-0.7,0.3l-0.3,0l-0.6-0.1l-0.6-0.1l-0.6,0l-0.3-0.1l-0.3,0l-0.1-0.1l-0.2-0.4
	l-0.1-0.1l0-0.2l0-0.1l-0.2,0.3l-0.4,0.3l-0.5,0.1l-0.5-0.1l-0.3-0.2l-0.3,0.1l-0.5,0l-1,0.3l-0.8-0.1l-0.6-0.3l-0.8-0.6l-0.4-0.5
	l-0.2-0.5v-0.4l0.2-0.2l-0.3-0.1l-0.4,0.2l-0.3,0.1l-0.4,0l-0.5,0.1l-0.1,0.4l-1.1,3.1l-1.1,2.2l-0.4,0.5l-0.7,0.5l-1.2,0.6
	l-2.1,0.9l-0.6,0.4l-0.2,0.2l-0.7,0.9l-1.1,1.2l0,0.3l-0.1,0.8l-0.2,0.5l-0.9,1.2l-0.4,0.9l-0.1,1.2v0.7l-0.1,0.4l0.1,0.2l0.2,0.1
	l0.3,0.5l0.1,0.3l-0.1,0.8l-0.2,0.5l-0.3,0.5l-0.4,0.5L447,377l-0.8,1l-0.5,0.4l-1.1,0.6l-0.6,0.6l-0.4,0.5l-0.3,0.2l-1.2,0.6
	l-1.4,0.4l-0.9,0.1l-0.4,0.2l-0.3,0.5l-0.4,0.4v0l-0.2,0.7l-0.4,0.9l-0.2,0.9l-0.2,0.4l-0.3,0.3l-0.7,0.5l-0.6,0.2l-0.4,0.4
	l-0.3,0.1l-0.2,0.3l-0.1,0.7l-0.2,0.4l-0.3,0.8l-0.2,0.4l-0.1,0.6l0,1.1l-0.1,0.5l-0.4,0.5l-0.4,0.2l-1.1,1.2l-0.5,0.4l-0.3,0.3
	l-0.1,0.3l-0.1,0.2l0.2-0.2l0.2-0.2l0.1-0.1l0,0.1l0,0.1L431,395l-0.1,0.4l-0.3,0.6l-0.3,0.4l0.1,0.2l-0.1,0.3l-0.3,0.3l-0.1,0.7
	l-0.4,0.8l-0.5,0.2l-0.3,0.4l-0.4,0.8l-0.2,1.4l0,0.1l-0.2,1.6l0.1,0.1l0.1-0.7l0.1-0.1l0.1-0.1l0.1,0.1l0.4,0.8l0.3,0.5l0.2,0.1
	l0.1-0.1l0-0.2l0.1,0.1l0.1,0.1l0.3,0.7l0.4,0.6l-0.1,0.3l0,0.4l-0.1,0.6l-0.5,0.9l0.4-0.1l-0.2,0.3l-0.3,0.1l-0.1,0.1l0.1,0.2
	l0.5,0.4l0.3,0.4l0.2,0.8l0.2,0.6l0.1,0.9l0,1l-0.1,1l-0.4,1l-0.4,0.8l-0.3,1l0,0.4l-0.1,0.5v1.3l-0.1,0.3l-0.8,1.3l-0.9,1.1
	l-0.7,0.4l-0.4,0.1l0.2,0.3l0.1-0.2l0.2,0l0.2,0.1l0.3,0.2l0.2,0.5l0.3,0.2l0.3,0.6l0.2,0.3l0,0.3h0.1l0.2-0.1l0.1,0l-0.1,0.1
	l-0.3,0.1l-0.1,0.2l0.1,0.2l0.3,0.2l0.2,0.2l0.1,0.3l0.1,0.4l0.2,0.3l0.2,0l0.6-0.3l0.8,0l0.8-0.1l0.4,0l0,0l-0.1,0h-0.4l-0.5,0.1
	l-0.5,0l-0.5,0.1l-0.1,0.2l0,0.1l-0.2,0l-0.4,0.1l-0.4-0.1l-0.1-0.1l0-0.2l-0.1-0.1l-0.2,0.1l-0.2,0.2l0.2,0.5l0,0.2l0,0.2l0,0.3
	l0,0.5l0,0.1l0,0.1l0.1,0.1l0.1,0l0.1,0l0.1-0.2l0.1-0.1l0.1,0.1l0.3,0.1l0,0l0,0.1h-0.1l-0.2-0.1l-0.4,0.1l-0.2,0.1l-0.1,0.1
	l0.1,0.2l0.1,0.1l0.8,0.4l0.4-0.1l0.2,0l0,0.1l-0.2,0.2l0,0.3l0.1,0.2l0.4,0.2l0.5-0.1l0.1,0.1l0,0l-0.1,0.4l0.3,0.1l0.5-0.2
	l0.4-0.3l0.2-0.1l0.7,0l0.2-0.1h0.1l0,0.1l-0.1,0.1l-0.1,0l-0.2,0.1h-0.6l-0.1,0.1l-0.1,0.2v0.2l0.2,0.3l0.1,0l0.1-0.1l0.2,0
	l0.3,0.1l0.1,0.2l-0.3,0l-0.2,0l-0.5,0.2l-0.1,0.2l0.1,0.1l0.1,0l0.1,0l0,0l-0.1,0.1l0,0.2l0,0.1l0.2,0.2l0.1,0l0.1,0l0,0.4l0.1,0
	l0.2-0.3l0.1,0l-0.1,0.4l0.1,0.2l0,0.3l0.1,0.1h0.1l0.1-0.4l0.1-0.1l0.1,0l0.2,0.1l0,0.2l0.2,0.3l0,0.1l0.2-0.2l0,0.1l-0.1,0.3
	l0,0.2l0.5,0.9l0.7,0.3h0.2l0.1,0l0,0.1l0,0.2l0.2,0.2l0.4,0.2l0.2,0l0.1-0.1l0.1,0l0,0.2l0.1,0.2v0.4l-0.1,0.3l0.4,0l0.4,0.4
	l0.1,0.2l0,0.1l0.3,0.3l0.1,0.1l-0.1,0.3l0,0.1l0.1,0.2l0.3,0.2l0.3,0l0,0.1l-0.4,0l0,0.2l0,0.2l0.1,0.3l0.2,0l0.1-0.1l0.4,0
	l0.1-0.1l0,0.1l0,0.1l-0.2,0.2l-0.2,0.3l-0.2,0l-0.1-0.1l-0.2,0l0,0.2l0.2,0.3l0.1,0.3l0.4,0l0.2,0.2l0.1,0.2l0.1,0.6l0.1,0.1
	l0.2,0.1l0.2,0.2l0.4,0l0.2-0.1h0.1l-0.1,0.2l0.2,0.3l-0.1,0.3l0,0.2l0.4,0.1l1.2,0.4l0.5,0.3l0.5,0.4l0.1,0.1l0.6,0.6l0.8,0.4
	l0.4,0.3l0.2,0.4l0.2,0.1l0.3,0.1l0.5,0.1l0.4,0.2l1.8,1.6l0.8,0.8l0.7,0.5l2.5,1.3l0.7,0.2l1,0.4l0.3,0l0.3-0.1l0.5-0.3l0.5-0.2
	l0.4-0.3l0.2-0.1l0.8-0.2l1.4-0.5l0.4-0.2l1-0.2l1.4-0.1l-0.1-0.1l-0.5,0l-0.3,0l0.1-0.1l0.1,0l0.7,0l0.1,0.2l0.2,0l0.7-0.1l1.8-0.2
	l-0.1-0.1l-0.1,0l-1.4,0.1l0.2-0.1l0.5-0.1l0.7,0l0.4,0l0.3,0.2l1.5,0.2l0.1-0.1l0.2-0.5l0.1,0l0.1,0l0,0.4l0.3,0.1l0.1,0l0,0.1
	l-0.2,0l-0.4,0l-0.1,0.1l0.4,0.1l0.1,0l0.3,0.1l0.7,0.1l0.9,0.2l0.4,0.1l0.5,0.3h0.2l0.6-0.3l0.4-0.3l0.4-0.2l1.2-0.4l0.8-0.1
	l0.4-0.3l0.5-0.2l0.4-0.3l0.6-0.2l1.1-0.5l1.2,0h0.2l0.6-0.1l0.2-0.3l0.1-0.2l0.1-0.2l0.2-0.1l0.4-0.2l0.9-0.2l0.5-0.1l1.3-0.2
	l1.2-0.1l0.2,0l1.6-0.1l0.3-0.4l0.2,0l0.6-0.2l0.1,0l-0.6,0.3l-0.2,0.1l-0.1,0.1l0.1,0l1.8,0l0.9,0.2l0.6,0.4l0.6,0.5l0.5,0.6
	l0.1,0.1l0,0.1l0,0.2l0.2,0.1l0.3-0.1l0.1-0.1l0.1,0l0,0.2l0.1,0.1h0.2l0.1,0l-0.2,0.1l-0.3,0l-0.2,0l0,0.1l0.1,0.1l0.4,0.2l0.5-0.2
	l0,0.1l-0.1,0.1l-0.2,0l-0.2,0.1l0,0.2l0,0.2l0,0.1l0.2,0.1l-0.1,0.1l-0.1,0l-0.1,0l0.2,0.5l0.1,0.3l0.2,0.3l0.1,0.2l0.6,0.5
	l0.3,0.2l0.2,0.1l0.3,0.1l0.3,0l0.1,0l0-0.3l0.2-0.1l0,0.2l0,0.1l0,0.1l0.1,0l0.5-0.1h0.1l0.1,0l0.1-0.4l0.1,0.1l0,0.2l0,0.1l0.2,0
	h0.1l0.3-0.1l-0.2-0.3v-0.4l0-0.2l0-0.2h0.1l0.1,0.2l0,0.3l0.1,0.2l0.2,0.1l0.2,0l0.4-0.3l0-0.3l-0.2-0.2l0-0.1l0.2,0.1l0.2,0.2
	l0.2,0.2l0.5,0l0.1-0.1l0-0.1l0,0l0.1,0.3l0.2,0.1l0.4,0l0.6-0.1l0.7,0l0.1-0.3l-0.3-0.7l0,0l0.2,0.3l0.1,0l0.1,0.2l0.2,0.1l0.1-0.1
	l0,0l0,0l-0.1,0.4l0,0.1l0.1,0.1l0.2,0l0.1-0.1l-0.1-0.3l0.1,0.1l0.1,0.2l0.1,0l0.1,0l0.1,0l0.1,0l0,0.3l0,0.2l0,0.2l0.1,0.2
	l0.1,0.4l0.3,0.1l0.4,0.1l0.1,0.1l0,0.1l0.1,0l0.2,0l0.1-0.1l0.1-0.2l0-0.2l0.1,0l0.1,0.1h0.1l0.2-0.1l0,0.1l-0.1,0.1l0,0.1l0.3,0.2
	l0,0.1l-0.3,0l-0.1,0.2l-0.1,0l0.2,0.3l0.1,0.2l0.4,0l-0.3,0.2l0.6,0.6l0.1,0.2l0.1,0.5l-0.2,0.5l0,0.5l-0.1,0.5l-0.1,0.7l-0.1,0.7
	l0.1,0.4l-0.2,0.4l-0.2,0.5l0,0.1l-0.1,0.1l-0.2,0.3l-0.2,0.4l-0.1,0.4l0.2,0l0.2,0l0.2,0.2l0,0.1l0,0.1l0.1,0.6v0.4l0,0.1l0,0
	l-0.1-0.1l0-0.2l-0.1,0l-0.5,0.1l0,0.2l0.2,0.2l0.2,0.4l0.2,0.2l0.6,0.3l0.5-0.1l0.2,0.1l-0.5,0.2l0,0.2l-0.2-0.1l-0.5-0.2l-0.3,0
	l-0.2-0.1l-0.1-0.1l0-0.2l-0.1-0.1l-0.1,0.1l0.1,0.5l0,0.5l-0.1,0.8l-0.5,0.6l-0.1,0.1l-0.1,0l-0.1,0l-0.1,0.1l-0.4,0l-0.2-0.3
	l-0.1-0.1l0.4,0.9l0.1,0.1l0.1,0.2l0.1,0.1l0.3,0.6l0.4,0.2l0.2,0l0.1,0l0.1-0.1l0.1,0l-0.2,0.4l0,0.1l0.1,0l0.2,0l0.1-0.1l0.1,0.1
	l0.1,0.1l-0.3,0.1l-0.1,0l-0.1,0l-0.8-0.9l0,0.2l0.3,0.4l0.3,0.5l0,0.1l0,0.1l0.2,0l0.4,0.2l0,0.1l0,0.1l-0.4-0.2l-0.1,0l0.2,0.2
	l0.1,0.1l0.4,0.4l0.1,0.2l0,0.2l0.1,0.2l0.1,0.1l0.3,0l0.3,0.1l0.3,0.1l0.3,0.2l-0.1,0.1l-0.1,0l-0.7-0.3l-0.1,0l0.1,0.1l0.7,0.6
	l1,0.7l0.7,0.7l0.2,0.3l0.6,0.5l0.3,0.3l0.2,0.5l0.3,0.2l0.7,0.6l0.1,0.2l0.8,0.6l0.3,0.4l0,0.3l0.1,0.1l0,0.1l0.2,0.3l0.2,0.2
	l0.1,0.1l0,0.1l0.1,0.1l0.2,0.5l0.2,0.4l0.1,0.4l-0.1,0.2l-0.1,0.3l0.1,0.3l0,0.1l0.1,0.1l0.2,0.2l0.3,0.3l0.1,0l0.2,0l0.5-0.1
	l0.3-0.2l0.2-0.1l0.4,0l0.2,0.1l-0.2,0.1l-0.6,0.3l-0.7,0.1l-0.5,0.1l-0.2,0l0,0.1l0.1,0.2l0.2,0.5l0.3,0.7l0.9,1l0.1,0.8l0.6,1.5
	l0.8,1.7l0,0.3v0.2l0,0.2l0,0.2l-0.9,0.9l0-0.1l0.1-0.1l0-0.1l-0.1,0.1l-0.1,0.2v0.1l0.2,0.5l0.2,0.5l0.1,0.5l0,0.4l0.2,0.4l0.1,0.5
	l0.5,0.7l0.1,0.5l0.3,0.3l0.2,0.3l0,0.4l0.3,0.5l0,0.4l-0.2,1.2v0.9l-0.3,0.9l-0.2,0.5l-0.5,0.7l-0.7,0.4l-0.5,0.4l-0.2,0.7l-1,1.2
	l-0.1,0.9l-0.4,0.8l-0.3,1.7l-0.6,1.8l-0.2,0.8l-0.1,0.4l-0.2,0.2l-0.1,0.1l-0.3,0.2l0,0.2l0.1,0.2l0.1,1.5v0.6l-0.1,0.5l-0.1,1.1
	l-0.1,0.6l0,0.8l0.1,0.7l0.5,0.8l0.2,0.6l0.1,0.2l0.6,0.6l0.4,0.5l1.6,3.3l0.3,0.5l0.3,1l0.5,1.2l1.1,1.7l0.1,0.4l0.2,0.5l1,1.3
	l0.4,0.8l0.2,0.8l0,0.3l-0.1,0.3l-0.1,0l-0.1-0.1l-0.1,0.3l0.1,0.3l0.1,0.6v0.6l0.1,0.5l0,1.2l0,0.5l0.3,1.1l0.4,0.7l0.2,0.8l0,0.7
	l0,0.3l0.1,0.5l0,0.6l0.2,0.7l0.1,1.1l0.4,0.3l0.1,0.3l0.1,0.3l-0.1,0.2l0,0.4l0.2,0.7l0.2,0.9l0.2,0.3l1.1,1.8l0.5,0.6l0.3,0.2
	l0.9,1l0.3,0.3l0.1,0.1l0.7,1.2l0.6,1.3l0.7,2.2l0.4,1.1l0.9,1.9l0.7,1.2l0.6,0.9l0.1,0.3l0.3,1.2l0,0.5l0,0.8l-0.2,0.5l-0.3,0.3
	l-0.2,0.1l-0.2-0.2l-0.2,0.1l-0.1,0.3l0.1,0.5l0.2,0.3l0.1,0.3l0.2,0.2l0.2,0.5l0.3,0.2l0.1,0.3l0.3,0.7l0.1,0.3l0,0.3l-0.3,0.2
	l-0.1,0.5l0,0.4l0.2,0.4l0.1,0.2v-0.6l0.1-0.2l0.1-0.1l0.2,0l0.3,0l0.1,0l0.2,0.1l0,0.3l0,0.2l0,0.1l0,0.2l0.2,0l0.1-0.1l0.4,0
	l0.1,0.2l0.3,0l0.1,0.1l0.1,0.2l0,0.3l-0.1,0.2l0.3,0l0.7,0.5l0.6,0l0.2,0.1l0.3,0l1.2-0.9l0.3-0.2l0.7-0.1l0.3-0.2l0.3-0.1l0.2,0
	l0.5,0.1h0.3l0.6-0.1h0.7l1.3-1l0.5,0l0.4-0.2h0.5l0.5,0.2l1,0.1l0.2,0l0.7-0.3l0.3,0l1.4,0.2l1.2,0.4l0.7,0l0.2-0.4l0.3-0.3l0.5,0
	l0.9,0.2l0.3,0l0.2-0.1l0-0.5l0.4-0.4l0.5-0.1l1.2,0.2l0.5-0.2l1.3-0.6l0.8-0.5l1.1-0.9l0.3-0.1l1-1l0.7-0.5l1.1-1.1l0.8-1l1-1.1
	l0.7-0.7l0.3-0.2l0.4-0.3l0.9-1.2l0.5-0.8l0.5-0.9l0.6-1.2l0.4-0.5l0.4-1l0.5-0.7l1.2-1.4l0.3-0.1l0.2-0.1l0.2-0.1l0.7-0.7l0.2-0.4
	l0.5-1l0.3-1.9l0.1-0.5l0.4-1.1l0.1-0.7l0-0.1l0.1-1.8l0.1-0.5l-0.1,0l-0.1,0.1l-0.1,0.4l-0.1-0.1l-0.1-0.1l-0.2-0.1l-0.2-0.2
	l-0.2-0.3l0.2-0.3l0.2-0.2l0.2-0.5l0.5-0.5l1.1-0.7l0.5-0.2l0.9-0.4l2.2-0.8l1.1-0.5l0.5-0.3l0.3-0.3l0.5-0.8l0.1-0.3l0.2-0.7l0-0.1
	h-0.1l-0.1,0.2l-0.2,0l-0.1-0.1l0-0.3l0.3-1.6l0.2-0.7l-0.2-0.6l0-0.3l0.2-0.8v-0.2l0-0.2l-0.1-0.2l0-0.2l-0.1,0l-0.1,0.2l0,0.4
	l0,0.3L575,527l-0.2-0.2l0-0.4l0-0.7l-0.2-0.8l0-0.3l-0.4-0.8l0-0.6l-0.4-1.2l-0.3-0.4l-0.3-0.3l-0.2-0.3l0-0.2l0.2-0.9l0-0.5l0-0.3
	l-0.1-0.2l-0.2-0.2l0.2,0l0.4,0.3h0.1l0.2,0l1.2-0.9l0.8-1l0.6-0.5l0.3-0.2l0.4-0.2l0.2,0.1l0.2,0l0.1-0.4l0.2,0.2l0.2-0.1l0-0.2
	l0.2-0.3l0.1-0.2l0.6-0.6l0.4-0.5l0.1-0.1l0.1-0.2l0.2-0.2l0.1-0.1l0.5-0.5l0.8-0.5l0.9-0.5l0.6-0.2l0.1-0.1l0.2-0.1l0.7-0.2
	l0.7-0.3l0.1-0.1l0.1,0l0.1,0l0.4,0l0.2-0.1l0.4-0.1l0.3-0.4l0.2-0.1l1.1-0.6l0.4-0.3l0.2-0.1l-0.2-0.4l0.2-0.1l0.3-0.1l0.3-0.5
	l0-0.1v-0.1l0.3-0.3l0.3-0.3l0.7-0.8l0.3-0.6l0-0.2l-0.1-0.2l0.1-0.1l0.2,0l0-0.2l0-0.2l0.2-0.2l0.2-0.1l0-0.2l-0.1-0.2l0-0.2l0-0.1
	l0-0.2l-0.1-0.1H590l-0.2,0.3l0-0.2l0-0.2l0.2-0.3l0-0.2l-0.2,0l-0.1-0.1l0-0.1l0-0.8l-0.1-0.6v-0.2l0-0.2l0.1-0.2l-0.1-0.2l0-0.2
	l0-0.3l0-0.2l0-0.2h-0.4v-0.1l0-0.1l0.3-0.2l0-0.2l0-0.4l-0.1-0.3l-0.2-0.1l0.1-0.3l0-0.2l0-0.5l0.1-0.3l-0.1-0.2l0-0.3l-0.2-0.5
	l0.1-0.6l-0.2-0.3l0-0.2l0.2-0.2l0.2-0.3l0-0.1l-0.1-0.1l0-0.2l0.2-0.3l-0.3-0.2l0.2-0.1l0.2-0.2l-0.3-0.3l-0.2-0.3l0-0.1l0-0.1
	l-0.1-0.2l-0.5-0.3l-0.2-0.1l-0.2-0.1l-0.3,0l-0.1-0.2l-0.2-0.2l-0.4-0.1l0.2-0.2l0-0.2l-0.1-0.3l-0.1-0.4l-0.2-0.5l0-0.6l-0.5-0.7
	l0.1-0.1l0-0.1l-0.3-0.4l-0.2-0.8l0-0.3l0.1-0.3l0.3-0.6l0-0.6l-0.3-0.2l-0.1,0.1v-0.8l0.2-0.5l0.2-0.4l0.2-0.2l0.1-0.3l-0.2-0.4
	l-0.5-0.2l-0.2-0.4l-0.3-0.4l-0.2-0.2l-0.2-0.1l-0.3-0.4l0-0.4l-0.1-0.4l0-0.5l0.3-0.7l0.2-0.3l0.2-0.8l0.1-0.2l0.1-0.3l0-0.2
	l0.2-0.6l0.1-0.2l0-0.1l0.2-0.2l0.2,0l0.3-0.4l0.4-0.9l0.1-0.1l0.1-0.1l0.1-0.2l0-0.1l0-0.1l0.2-0.4l0.1-0.6l0.1-0.1l0.1-0.3
	l0.2-0.3l0.3-0.3l0-0.2l0.2-0.4l0-0.6l0.1-0.4l0.2-0.2l0.3-0.2l0.7,0l0.5-0.4l0-0.2l0.2-0.2l0.1-0.2l0-0.2l0-0.3l0.1,0l0.1,0l0-0.2
	l0.1-0.1l0.2,0.1l0.1,0l0.5-0.1l0.3-0.2l0.4-0.5l0.3-0.3l0.3-0.4l0.3-0.6l0.1-0.1l0.1-0.3l0.2-0.2l0.3-0.3l0.3-0.3l0.5-0.6l0.2-0.1
	l0.3-0.4l0.2-0.2l0.2-0.2l2.1-2.2l0.7-0.7l0.9-0.7l0.8-0.8l1.7-1.2l2.5-1.4l0.6-0.5l2.3-2.3l1.8-1.9l1.3-1.5l0.7-1.3l1.2-1.5
	l1.1-1.9l0.1-0.7l0.4-1l0.3-0.6l0.6-0.9l0.3-0.5l0.2-0.5l0.2-0.9l0.7-0.7l0.5-0.9l0.1-0.3l0.3-0.6l0.6-0.8l0.1-0.4l0.4-0.5l0-0.8
	l0.1-0.6l0.1-0.9l0.1-0.2l0.3-0.1l0.5-0.1l0.2,0.1l0.3,0l0-0.1l-0.1-0.1L619.7,433.2z M631.4,475.8l0,0.2l0.1,0.1l0-0.3l-0.2-0.4
	l-0.2,0.1l0.1,0.1L631.4,475.8z M631.9,522.3l-0.2-0.1l-0.4,0l-0.4,0.1l-0.2,0.3l0,0.2l0.2,0.5l0.2,0.2l0.5,0.2l0.3,0l0.4-0.1
	l0.1-0.2l0-0.4l-0.3-0.3L631.9,522.3z M637.7,519.9l-0.2-0.3l-0.2,0l-0.2,0.2L637,520l-0.2,0.1l-0.1,0.1l-0.1,0.3l0,0.2l-0.1,0.1
	l0,0.1l0.2,0.2l0.4,0l0.3-0.1l0.2-0.2l0-0.2l0.2-0.1l0-0.3L637.7,519.9z M611.3,499.8l-0.1,0l0,0.1l-0.2,0l0.1,0.4l0.4,0v-0.1l0-0.2
	L611.3,499.8z M615.6,510.6l-0.1,0.5l0.3-0.5l0.2-0.6l-0.1,0L615.6,510.6z M616.9,504.8l-0.2-0.6l-0.1-0.6l-0.1-1.4l-0.3-1.3
	l-0.3-0.9l-0.1-0.6l-0.2-0.3l-0.2-0.3l-0.5-0.7l-0.2-0.3l-0.1-0.3l-0.2-0.2l-0.3-0.3l-0.1-0.1l0-0.2l-0.1-0.1h-0.2l-0.5,0.7
	l-0.3,0.4l-0.1,0.1l-0.3,0l0,0.1l0.2,0.4l0.1,0.3l0.1,0.3l0,0.3l-0.3,1l-0.5,0.5l-0.3,0.1l-0.3,0.2l-0.2,0.3l-0.2,0.2l-0.2,0
	l-0.3-0.2l-0.1-0.1l-0.2,0l-0.1,0.1l-0.1,0.2l0,0.2l0,0.1l0.3,0.3l0,0.1l-0.1,0.1v0.2l-0.5,0.9l0.1,0.5l0.4,0.4l-0.3-0.1l-0.3,0
	l-0.2,0.1l-0.1,0.2l-0.2,0.4l-0.2,0.4l-0.1,0l-0.1,0l0-0.2l0.1-0.1l0.1-0.1l0-0.2l-0.1-0.1l-0.1,0l-0.2,0.2l-0.1,0.2l-0.1,0.4
	l-0.2,0.3l-0.3,0.3v0.1l0,0.1l0.1,0.2v0.2l-0.1,0.2l-0.1,0.1l-0.1,0l0-0.1l-0.1-0.5l-0.1-0.1l-0.2,0l-0.6,0.4l-0.6,0.4l-0.2,0.2
	l-0.2,0.3l0,0.1l0,0.1l0.3,0.2l-0.1,0.1l-0.1,0l-0.1,0l-0.3-0.5l-0.1,0l-0.4,0.1l-0.3,0l-0.5,0l-0.1,0.1l-0.1,0.1l0,0.2l-0.1,0.1
	l-0.2,0h-0.2L603,508l-0.1-0.1l-0.1-0.1l-0.1,0l-0.2,0.1l-0.3,0.3l-0.2,0.2l-0.1,0.1l-1,0.1l-0.2,0l-0.1,0.1l0,0.1l0,0.4l0,0.6
	l0,0.2l-1.2,2l-0.1,0.6l0.1,0.3l0.1,0.3l0,0.4l0.1,1l0.2,0.6l0.2,0.3l0.2,0.4l0,0.4l0,0.5l0,0.1l0.4,0.7l0.2,0.4l0,0.4l-0.1,0.4
	l-0.1,0.7l-0.1,0.3l-0.1,0.3l-0.3,0.7l-0.3,0.5l-0.2,0.3l-0.4,0.6l-0.2,0.6l-0.2,0.3l-0.3,0.2l-0.3,0.1l-0.2,0.2l-0.2,0.9l-0.1,0.2
	l-0.1,0.1l-0.1,0.2l0,0.2l-0.1,0.2l-0.1,0.3l0,0.7l0,0.3l0.2,0.9l0.1,0.3l0.1,0.3l0.5,0.6l0.1,0.3l0.1,0.4l0.2,0.3l0.1,0.3l-0.2,0.3
	l0,0.3l0,0.7l0,0.4l0,0.6l0,0.2l0.5,0.5l0.2,0.3l0.1,0.5l0.1,0.2l0,0.2l0.1,0.2l0.1,0.1l0.5,0.3l0.2,0.3l0.2,0.1l0.2,0l0.6,0.1
	l0.3,0.1l0.8,0.7l0.2,0.1l0.8,0l0.3-0.1l0.2-0.2l0.6-0.4l0.7-0.3l0.6-0.2l0.7,0l0.3-0.1l0.6-0.3l0.3-0.2l0.4-0.6l0.3-0.7l0.1-0.4
	l0.1-0.4l0.1-0.3l0.2-0.3l0.4-0.8l0.1-0.4l0-0.4l0.4-1.2l0.2-0.7l0.2-0.7l0.1-0.8l0.1-0.2l0.7-1.7l0.5-1.5l0.3-1.3l0.4-1.3l0.3-0.7
	l0.2-0.8l0.3-1.2l0.4-1.2l0.4-1l0.3-0.7l0.2-0.6l0.3-1.3l0-0.7l-0.2-0.9l0-0.3l0.2-0.6l0.2-0.3l0.1-0.1l0.3-0.1l0.1-0.1l-0.1-0.2
	l0-0.2l0.2-0.3l0.1-0.3l0-0.7l-0.1-0.3l-0.1-0.1l-0.1-0.1l0-0.4l0-0.3l-0.1-0.3l0-0.4l0-0.1l0.2-0.2l0.3,0l0.1,0l0.1,0.3l0.3,0.7
	l0.2,0.3l0.2,0.2l0.1,0l0.2-0.2l0.1-0.1l0.3-0.7l0.2-0.7l-0.1-0.7L616.9,504.8z M597.3,494.6l-0.1,0l0,0l-0.1,0.1l-0.1,0.9l0.2,0.3
	l0.2,0l0.3,0.2l0,0l0.1-0.1l-0.1-0.3l-0.2-0.4l0-0.6L597.3,494.6z M600.6,497.4L600.6,497.4l0.1-0.4l-0.1-0.4l-0.1,0l-0.1,0.1l0,0.1
	l-0.1,0.1l-0.1,0l-0.1,0l-0.2,0l0.4,0.2l0.2,0.2L600.6,497.4z M598.8,497.4l-0.2-0.2l-0.2-0.1l-0.2,0v0.1l0.1,0.2L598.8,497.4z
	 M591,468.4l-0.3,0.2l0,0.2l0.1,0l0.3-0.2l0,0l0,0l0,0L591,468.4z M595.6,511L595.6,511L595.6,511l0.1,0.1l0,0L595.6,511L595.6,511z
	 M608.4,495.2L608.4,495.2L608.4,495.2L608.4,495.2L608.4,495.2L608.4,495.2z M581.8,611l-0.3-0.1l-0.1,0.1l-0.2,0.2l0.1,0.2
	l0.6,0.1l0.1-0.1l0.1-0.2l0-0.1L581.8,611z M587,477.8L587,477.8l0.2,0.1l0.1-0.1l0.2-0.4l0-0.3l0-0.4l0-0.1l0-0.1l-0.2,0.1l-0.3,0
	l0.1,0.5l-0.2,0.7L587,477.8z M585.8,480.2l0.2,0l0.2,0.2l0.1,0l0.1,0.2l0.1,0.1l0.1,0l0.2-0.1l0-0.1l-0.2-0.6l0,0l-0.2-0.1
	l-0.2-0.5l0-0.4l-0.1-0.2l-0.1,0.4l-0.2,0.2l0,0.4l-0.1,0.2L585.8,480.2z M586.9,485L586.9,485h0.2l0.1-0.2l0.2,0l0.2-0.5l0-0.2l0,0
	l-0.1,0.2l-0.4,0.3l-0.2,0.2l-0.2,0.1L586.9,485z M506.4,362.1l-0.5,0l0,0.1l0,0.4l0.1,0.1h0.1l0.2,0.1l0.1,0l0.1-0.1l0.1,0l0.1-0.1
	l0.1-0.1l0-0.1l0-0.1L506.4,362.1z M496.6,458L496.6,458l-0.1,0l-0.2,0.2l0,0.1l0.1,0.1l0.1-0.1l0.1-0.2L496.6,458L496.6,458z
	 M494.5,461.5l-0.2,0l-0.3,0.2l-0.1,0.2l0,0.1l0.1,0.3l0.1,0.1l0.1,0l0.3-0.2l0.2-0.3v-0.2L494.5,461.5z M440.5,441.4l-0.2-0.1
	l-0.7,0l-0.3,0.1l1,0.3l0.2,0.2l0-0.1l0.1-0.3l0-0.1L440.5,441.4z M459.7,507.6l-0.2,0.1l0,0.1l0.2,0l0.1-0.1l0-0.2L459.7,507.6z
	 M435.4,484.7L435.4,484.7l-0.1,0l0,0.1l0,0.1l0,0h0.1l0.1,0l0-0.1L435.4,484.7L435.4,484.7z M427.5,366l0.4,0.2l0.5,0l0.2-0.2
	l0.2-0.2l-0.2,0l-0.4-0.2l-0.4,0.1l-0.4-0.2l-0.1,0.2l0,0.1L427.5,366z M496,450l-0.2,0.4l0.2,0l0.3-0.1l0.1-0.2l-0.2,0L496,450z
	 M429.6,406.9l0.2-0.3l0.1-0.5l-0.1,0l-0.1,0.1l-0.2,0.3l0,0.2L429.6,406.9z M431.1,430.5l0-0.4l-0.1,0l-0.1,0.2l0,0.1l0.1,0.1
	l0.1,0L431.1,430.5z M431,431.4L431,431.4L431,431.4l-0.1,0.2l0,0l0,0.1l0.2,0l0-0.1L431,431.4L431,431.4z M430.7,429.3l-0.4,0
	l0,0.1l0.1,0.2l0.2,0l0.1-0.4L430.7,429.3z M431.9,430.3l0.2,0.1l0-0.1l0.1,0l0.1,0l0-0.2l-0.1,0L431.9,430.3z M431.6,431l-0.1,0.1
	l-0.1,0.2l0,0l0.1,0v-0.1l0.1,0l0.1-0.1l0-0.1l0,0H431.6z M430.5,431.2L430.5,431.2l-0.2,0.1l-0.1,0.1h0l-0.1,0l0,0l0.1,0.1l0.2,0
	l0.1-0.1l0-0.1L430.5,431.2L430.5,431.2z M500.3,453.5l0.1-0.3l0.4-0.6l0-0.2l-0.1-0.1l-0.4,0l-0.1,0l-0.2,0.1l-0.1,0.2l0,0.2
	l-0.1,0.3l-0.1,0l-0.2,0l0,0.1l0,0.2l0,0.1l0.1,0.1l0.5,0.1l0.1,0L500.3,453.5z M437.2,378.4l0.5-0.2l0.2-0.1l0.1-0.5l0.1-0.1
	l-0.1-0.1l-0.1,0.1l-0.1,0.2l-0.3,0.1l-0.4,0.2l-0.1,0.1l-0.1,0.5l0.2,0.1L437.2,378.4z M425.9,378.8l-0.1-0.2l-0.4,0l-0.2,0.3
	l0.3,0.6l0.1,0.2l0.1,0l0.2-0.2l0-0.1l0-0.2l0.1-0.1L425.9,378.8z M435.5,381.1l0.4-0.4l0.8-0.3l0.2-0.5l0.1-0.6v-0.3l-0.1-0.1
	l-0.1,0l-0.2,0l-0.1,0.1l-0.1,0.3L436,380l-0.2,0.6l-0.4,0.3l-0.4,0.1l0.1,0.1L435.5,381.1z M428.4,380.1l-0.2,0.1l0.1,0.1l0.2,0.5
	l0.4,0.5l0.3-0.1l0.1-0.1l0.2-0.3l0.2-0.7l0.6-0.5l0-0.1l-0.5,0.1l-0.6,0.5l-0.1,0l-0.5,0.1L428.4,380.1z M427.4,381.2l0.1,0
	l0.2-0.2l0-0.1l-0.1-0.1l-0.2-0.1l-0.1,0l-0.1,0.1l-0.1,0.2l0.1,0.2L427.4,381.2z M431.6,382l0.1,0.1l0.3,0l0.3-0.2l0.1-0.2l0-0.4
	l-0.1-0.2l0-0.2l0,0l0,0l-0.1,0l-0.6,0l-0.1,0.3l-0.2,0.2l0,0.3L431.6,382z M425.1,382l-0.3,0l0.1,0.1l0.1,0.1l0.3,0.2l0.3-0.5
	l-0.1-0.1L425.1,382z M405.6,414.3l-0.1-0.2l-0.2,0l-0.6,0.3l0,0.1l0.1,0.1l0,0.2l0.1,0l0.3-0.1l0.4-0.3L405.6,414.3z M411.5,415.5
	l0-0.2V415l-0.1,0l-0.2,0.1l0,0.3l0.1,0l0.1,0.2L411.5,415.5z M411.9,416.8l-0.1,0l-0.1,0l-0.2,0v0.3l-0.1,0.3l0.2,0.1l0.2,0
	l0.3-0.2l0.1-0.2l0-0.2L411.9,416.8z M407.2,420.2l-0.3,0.2l-0.1,0.1l0.1,0.2l0.1,0.1l0.1,0l0.2-0.1l0-0.2l-0.1-0.3L407.2,420.2z
	 M405.7,414.8l-0.1,0l-0.2,0.1l-0.1,0.1l0.2,0.1l0.1,0l0.2-0.1l0-0.1L405.7,414.8z M409.5,419.9l-0.3-0.3l0-0.1l-0.1,0l0,0l0,0.2
	l-0.1,0.2l0,0.3l0.2,0.3l0.2,0.1l0.4,0l0.2-0.3l-0.3-0.4L409.5,419.9z M408.1,415.7l-0.5-0.1l-0.3-0.1l0,0l0,0.1l0.2,0.4l0.1-0.2
	l0.1-0.1l0.4,0.1l0.2,0l0-0.1L408.1,415.7z M410.8,419.4l-0.2,0l-0.1,0.2l0,0l0,0.2l0.1,0.1l0.1,0l0.2-0.1l0-0.3L410.8,419.4z"/>
</svg>
