<?xml version="1.0" encoding="utf-8"?>
<!-- Generator: Adobe Illustrator 18.0.0, SVG Export Plug-In . SVG Version: 6.00 Build 0)  -->
<!DOCTYPE svg PUBLIC "-//W3C//DTD SVG 1.1//EN" "http://www.w3.org/Graphics/SVG/1.1/DTD/svg11.dtd">
<svg version="1.1" id="Layer_1" xmlns:amcharts="http://amcharts.com/ammap"
	 xmlns="http://www.w3.org/2000/svg" xmlns:xlink="http://www.w3.org/1999/xlink" x="0px" y="0px" viewBox="789 458.9 196 160"
	 enable-background="new 789 458.9 196 160" xml:space="preserve">
<path id="australia" fill="#CCCCCC" stroke="#FFFFFF" stroke-width="0.1" d="M947,547.4L947,547.4L947,547.4L947,547.4L947,547.4
	L947,547.4L947,547.4l0.1,0l0,0v0l0,0l0,0l0,0l0,0v0v0l0,0l0,0h0l0,0h0L947,547.4L947,547.4L947,547.4L947,547.4L947,547.4z
	 M857.8,501.3L857.8,501.3l-0.1,0.1v0.1l0.2,0.1l0.1,0l0.1-0.1l0-0.2l-0.1-0.1L857.8,501.3z M906.3,541l-0.2,0.1l0,0.3l0,0.3
	l0.1,0.3l0.1,0l0-0.4l0.1-0.5L906.3,541z M906.7,544.8l-0.3-0.6l-0.1-0.5l-0.1-0.4l-0.5-1.2l-0.2-0.7l0.1-0.7l-0.2-2.1l0.2-1.1
	l-0.1-0.1l-0.3-0.2l-0.1-0.2l-0.2-0.4l0-0.8l-0.3-0.5l-0.4-0.2l-0.3-0.4l-0.2-0.3l0-0.2l-0.1-0.3l-0.3-0.2l-0.2-0.1l-0.4-0.3
	l-0.2-0.3l-0.4-0.9l-0.2-0.2l-0.4-0.3l-0.3,0l-0.2-0.1l-0.7-0.6l-0.2-0.1l-0.2-0.3l-0.3-0.3l-0.2-0.2L899,530l-0.2-0.9v-0.8l0-1
	l-0.3-0.5l-0.1-0.2l-0.2,0l0,0.3l0,0.2l-0.1,0l-0.4-0.3l-0.5-0.3l-0.3-0.3l-0.2-0.3l-0.2,0l-0.1,0l-0.1,0.4l0.2,0.6l-0.1,0.1
	l-0.2-0.2l-0.3-0.3l-0.1,0.1l-0.2,0l-0.2-0.3l-0.1-0.2l-0.2-0.7l-0.2-0.8l0-0.6l-0.3-0.3l-0.1-0.5l-0.1-0.2l-0.1-0.4l-0.4-0.5
	l-0.4-0.3l-0.3-0.3l-0.3-0.5l0.1-0.3l0.2,0.1l0.2,0l-0.2-0.3l-0.2-0.2l-0.5-0.4l-0.2-0.1l-0.5-0.1l-0.5-0.4l-0.3-0.2l-0.2,0
	l-0.2-0.1l-0.2-0.2l-0.3-0.1l-0.4-0.4l-0.2-0.4l-0.1-0.2l-0.2-0.1l-0.2,0.1l-0.2,0l-0.4-0.1l-0.1-0.2l-0.2-0.2l-0.5-0.1l-0.4-0.1
	L887,517l-0.3-0.2l-0.3-0.3l-0.2-0.4l0-0.5l0.1-0.3l-0.3-0.1l-0.5-0.7l0-0.3l0.1-0.6l0.2-1l-0.2-0.7l-0.4-0.9l0-0.5l-0.2,0l-0.2-0.1
	l-0.3-0.5l-0.2-0.3l-0.2-0.3l-0.2-0.4l0-0.3l0-0.2l0-0.5l-0.2-0.5l-0.1-0.5l-0.2-0.6l0.1-0.4l0-0.4l-0.1-0.3l0.1-0.2l0-0.2l-0.3-0.2
	l-0.3-0.2l-0.4-0.3l-0.8-0.5l-0.2-0.4l-0.3-0.4l-0.4,0.1l-0.3,0.1l-0.3,0.3l-0.4,0.2l-0.4-0.2l-0.2-0.1l-0.1-0.5l-0.2-0.6l-0.2-0.3
	l-0.1-0.4l0.1-0.9l-0.2-0.4l0-0.6l-0.2-0.7l-0.2-0.3l0-0.3l-0.3-0.4l-0.1-0.3l-0.2-0.1l-0.2-0.2l0-0.2l0-0.2l0.1-0.3l0.1-0.4
	l-0.3-0.1l-0.2,0l-0.2-0.1l-0.2-0.2l-0.1-0.5l0-0.6l0-0.4l-0.1-0.3l-0.1-0.3l-0.2-0.3l-0.5-0.4l0-0.2l0.1-0.2l-0.2-0.1h-0.2
	l-0.1,0.3l-0.2,0.2l-0.4,0.2l-0.1,0.9l-0.3,1l-0.2,0.8l0,0.2l0,0.2l-0.1-0.1l-0.1-0.1l-0.2,0.3l-0.3,0.8l0,0.4l0.2,0.1l0.1,0.1
	l0.2,0l0.1,0.1l0,0.2l0.1,0.2l0,0.2l-0.1-0.1h-0.3l-0.1,0.2l-0.3,0.3l0.1,0.9l-0.2,0.5l-0.2,0.4l-0.2,0.7l0,0.4l0.2,0.3l0.2,0.4
	l-0.1,0.5l-0.1,0.4l0.2,1.1l0.1,0.6l-0.1,0.4l-0.4,1.2l-0.2,0.9l0,0.5l-0.2,0.4l-0.2,0.7l-0.2,0.5l-0.7,1.1l-0.1,0.5l-0.2,0.6
	l-0.5,0.4l-0.4,0.2l-0.8,0.2l-0.5,0l-0.2-0.1l-0.1-0.1l-0.6-0.2l-0.7-0.5l-0.5-0.1l-0.3-0.5l0-0.2l-0.1-0.2l-0.3-0.3l-0.5-0.1
	l-0.5-0.2l-0.3,0l-0.7-0.2l-0.5-0.3l-0.5-0.4l-0.6-0.7l-0.5-0.2l-0.6-0.3l-0.4-0.2l-0.2-0.1l-0.2-0.2l-0.2,0l-0.4,0l-0.2-0.2l0-0.1
	l0-0.1l0-0.2l-0.1,0h-0.1l-0.1,0l-0.1,0l-0.3-0.1l-0.5-0.2l-0.1-0.2l-0.2-0.3l-0.7-0.4l-0.4-0.3L856,505l-0.2-0.2l-0.1-0.2l-0.1-0.3
	l0.2-0.3l0.2-0.2l0.6-0.9l0.2-0.1l0.2-0.2l0.2-0.6l0.1-0.4l-0.2-0.5l0-0.9l0.7-0.4l0.2,0l0.2-0.1l0.2,0.1l0.1,0.2l0.1,0l0.4-0.6
	l-0.1-0.3l-0.2-0.2l0-0.1l1.2-1.2l-0.1-0.3l-0.2-0.1l-0.3,0l-0.3-0.3l-0.2-0.5l-0.3,0l-0.5,0.5l-0.1,0.1l0.1,0.1l0.1,0.3l-0.2,0.4
	h-0.2l-0.3,0l-0.1-0.3l-0.1-0.4l-0.2-0.1l-0.2,0.1l-0.2,0.1l-0.1,0l-0.1-0.1l0-0.2l0.3-0.3l0.2-0.2l0-0.1l-0.2,0l0-0.1l0.2-0.2
	l-0.1,0l-0.3,0.2l-0.3,0.1l-0.4,0.3l-0.5,0.2l-0.4,0.3l-0.5-0.1l-0.5-0.3l-0.1-0.1l-0.2-0.2l-0.5,0.2l-0.3,0l-0.2-0.1l-0.3,0
	l-0.3-0.2l-0.7-0.3l-0.7-0.1l-0.3,0l-0.2-0.2l-0.2-0.1l-0.5-0.1l-0.2-0.2l-0.2-0.5l-0.2-0.1l-0.3,0l-0.3,0.2l-0.2,0.1l-0.3-0.4
	l-0.6-0.4l-0.2-0.1l-0.1,0.1l-0.1,0.2l-0.1,0l-0.1-0.1l-0.2-0.2l-0.2,0l-0.4,0.3l0,0.1l0.3,0.1l0.4,0.4l0.2,0.1l0.4-0.1l0.5,0.1
	l0.6,0.5l-0.1,0.2l0,0.3l0,0.3l0,0.2l0.2,0.2l-0.1,0l-0.3-0.1l-0.2,0.1l-0.2,0.1l-0.1,0.3l-0.1-0.2l-0.3-0.1l-0.2,0.1l-0.3,0.1
	l-0.3-0.1l-0.2-0.1l-0.5,0.1h-0.8l-0.3-0.2l-0.1-0.3l-0.1-0.1l-0.1,0.1l-0.1,0.2l-0.5,0l-0.1,0.1l0,0.2l0,0.2l-0.2,0l-0.2,0l0,0.2
	l0,0.2l-0.1,0.1l-0.2-0.2l-0.1-0.2l-0.2-0.1l-0.1,0.1l0,0.2l0,0.4l-0.1,0l-0.3,0l-0.2,0.1l-0.2,0.6l-0.4,0.2l-0.1,0.3l0,0.2l0.3,0.5
	l-0.2,0.2l-0.2,0.2l-0.2,0.1l-0.4,0.1l-0.3,0.2l-0.1,0.2l0,0.2l-0.1,0.3l-0.1,0.3l0,0.2l-0.2,0.2l-0.5,0.5l-0.2,0.5l0.3,0.3l0.3,0.2
	l0.2,0v0l-0.3,0.2l0.2,0.2l0.2,0.2l0.2,0l0.1,0.1l-0.2,0l-0.3,0l-0.1,0.2l0,0.2l0.1,0.2l0,0.1l-0.1-0.1l-0.1-0.2l-0.3-0.3l-0.2-0.1
	l-0.3-0.1l-0.1,0.1l0,0.5l-0.1,0.2l-0.1-0.1l0-0.4l-0.3-0.3l-1.2-0.3l-0.2,0l-0.3,0l-0.2,0.1l0,0.1l-0.1,0.1l-0.2,0.1l-0.2,0.2
	l-0.1,0.1l0,0.2l0.2,0.3l0.1,0.1l0,0.1l-0.2-0.2l-0.1,0l-0.1,0.2l-0.1,0l0-0.7l0.1-0.5l0.1-0.3l0.1-0.2l0-0.1l-0.8-0.6l-0.3-0.5
	l-0.2-0.3l-0.4-0.3l-0.2-0.2l-0.5-0.3l-0.5-0.2l-0.3-0.3l-0.3-0.1l-0.4,0.1l0,0.2l0,0.2l-0.3,0.4l-0.3,0.2l-0.2-0.2l-0.2-0.2
	l-0.2,0.1l-0.1,0.2l-0.1,0.1l-0.1-0.1l-0.1-0.3l-0.2-0.1l-0.2,0.1l0,0.2l0.1,0.1l0,0.2l-0.1,0.1l0,0.2l-0.1,0.2l0,0.4l-0.2,0.1
	l-0.2,0.3l-0.1-0.1l0-0.2l-0.1-0.2l-0.2-0.1l-0.1,0.2l0,0.1l-0.1,0l0-0.1v-0.3l0.1-0.3l-0.2-0.1l-0.1,0.1v0.2l0,0.4l-0.2,0.1
	l-0.2,0.2h-0.3l-0.1,0.1l0,0.2l-0.2,0.2v0.2l0.2,0.2l0,0.2l0.4,0.2l0,0.2l-0.1,0.1l-0.2,0l-0.3-0.2l-0.3,0l-0.1-0.1l0,0.1v0.1
	l-0.1,0.1l-0.2,0l-0.2,0.1l0.2,0.2l0,0.1l0.1,0.1l0.3,0l0.1,0l0,0.2l0,0.2l-0.1,0.1l-0.1-0.2l-0.6-0.3l-0.2,0l0,0.1l0,0.1l-0.1,0.2
	l-0.2,0.2l-0.2-0.1l-0.2,0l-0.1,0.4l0,0.4l0.2,0.3l0.1,0.4l0.3-0.4l0.1,0v0.2l-0.1,0.2l-0.1,0.2l0,0.3l-0.2,0l-0.2,0l0,0.1l-0.1,0.2
	l0,0.3l0.1,0.1l0.3,0l0.3,0l0.2,0.1l0,0.1l-0.2,0l-0.5,0l-0.2,0l-0.4,0l-0.3-0.2l-0.2-0.2l-0.2,0l-0.2,0.1l-0.1,0.2l-0.2,0l-0.4-0.5
	l-0.2,0l-0.1,0.1l0.1,0.4l-0.1,0.2l-0.1,0.2l-0.2,0l-0.1,0.1l0.1,0.1l0.2,0.4l0.2,0.2l0.2,0.2l0.1,0.2l0.2,0l0,0.2l-0.1,0.2v0.4
	l-0.1,0l-0.1-0.1l-0.2-0.2l-0.1,0l-0.1,0.1l0,0.1l0.1,0.4l-0.1,0.6l0,0.2l0,0.1l-0.1-0.1l-0.1-0.2l-0.3-0.3l-0.3-0.8l-0.3-0.5
	l-0.2-0.4l-0.3-0.8l-0.2,0l-0.2,0.4l-0.2,0.5l-0.1,0.2l-0.3,0.2l-0.2,0.2l-0.2,0.1l-0.3,0.3l-0.2,0.2l-0.3,0.5l0,0.3l0,0.3l0.1,0.5
	l0.1,0.7l0.2,0.1l0.2,0.1l0,0.2l-0.2,0.1l-0.7,0.7l-0.5,0.2l-0.1,0.2l-0.2,0.4l-0.3,0.5l-0.1,0.3l-0.3,0.6l-0.4,0.6l-0.4,0.5
	l-0.5,0.4l-0.3,0.2l-1.2,0.5l-0.7,0.2l-1.2,0.2l-0.5,0.2l-0.6-0.1l-0.7,0l-1,0.8l-0.8,0.2l-0.7,0.1l-0.3,0.1l-0.7,0.5l-0.4,0.2
	l-0.8,0.2l-0.3,0l-0.4-0.2l-0.4,0l-0.5,0l-0.4,0l-0.3,0.2l-1.7,1l-0.3,0.3l-0.3,0.4l-0.5,0.3l-0.4,0.4l-0.8,0.4l-0.8,0.3l-0.4,0.3
	l-0.3,0.4l-0.5,1l-0.1,0.2l-0.2,0.2l-0.3,0.1l-0.2,0.1l0.1-0.5l-0.2-0.4l0.1-0.8l0-0.2l-0.3,0.2l-0.2,0.2l-0.5,1.2l-0.3,0.9l0.2,0.5
	l0.1,0.3v0.3l-0.1,0.5l0,0.3l0,0.4l-0.6,1l-0.2,0.4l-0.2,0.8l0,0.4l0,0.6l0.2,0.5l0.2,0.3l0.3,0.9l0.3,0.6l0.6,1.2l0.6,1l0,0.4
	l-0.1,0.5l0,0.5l-0.1,0.2l-0.2,0.2l-0.3-0.2l-0.1-0.2l-0.2-0.7l-0.1,0l-0.1,0.3l-0.1,0.1l-0.1-0.1l-0.1-0.1l0-0.1l0-0.2l0-0.5
	l-0.3-0.3l-0.2-0.3l-0.2-0.1l-0.2,0.2v0.2l0.3,0.6l0.2,0.6l0.3,0.4l0.2,0.1l0.2,0.2l0,0.5l-0.2,0.2l-0.1,0.1l-0.4-0.1l-0.1-0.4
	l-0.3-0.7l-0.1-0.3l-0.1-0.1l0,0.1l0,0.3l-0.1,0.1l-0.1,0l-0.1-0.1l-0.1-0.1l-0.1,0l0.1,0.2l0.3,0.5l1.1,1.3l0.9,1.6l0.2,0.6
	l0.1,1.4l0.1,0.3l0.5,0.7l0.5,0.8l0.2,0.4v0.3l0.1,0.3l0.6,0.9l0.3,0.9l0,0.3l-0.1,0.6l0.1,1l0.1,0.6l0.2,1.1l0.3,0.8l0.3,0.5
	l0.5,1.1l0.7,1.3l0.1,0.6l0,1.7l0,0.5l-0.2,0.1l-0.1,0.2l0.2,1.1l0,0.6l-0.2,0.6l-0.2,0.5l-0.4,0.4l-0.5,0l-0.2-0.2l-0.3-0.2l0,1
	l0,0.8l0.1,0.3l0,0.4l0.3,0.3l0.2-0.1l0.2,0l0.8,0.4l0.5,0.3l0.7,0.9l0.7,0.2l0.8,0.4l1,0.1l0.8,0l1.2,0.2l0.3-0.1l0.5-0.1l0.4-0.1
	l0.4-0.1l1.1-0.8l1-0.9l0.5-0.1l0.5,0l0.6-0.3l0.5-0.9l0.3-0.2l0.3-0.2l1-0.1l0.6,0.1l0.3-0.2l0.8-0.2l1.7-0.2l0.9,0.1l0.6,0
	l0.3,0.1l0.2,0.4l1.8-0.3l0.5,0l0.3,0.1l0.4,0.3l0.4-0.3l0.4,0l0.4-0.3l0.6-0.8l0.3-0.5l0.5-1.1l0.3-0.4l0.4-0.2l0.4-0.1l0.7-0.2
	l1.4-0.9l0.5-0.2l0.3-0.2l1-0.7l0.6-0.1l1.8,0.2l0.9,0l0.7-0.1l1-0.4l1.1-0.3l1.3-0.6l1.1-0.6l0.7-0.1l1.1-0.1l1.6-0.2l1.8,0.1
	l0.5-0.1l0.2-0.1l0.3-0.1l0.4,0.1l0.3,0.1l0.9,0.5l1.4,1l0.3,0l0.9-0.2l0.3,0l1.3,0.8l0.5,0l0.4,0l0.3,0.1l0.3,0.2l0.4,0.5l0.8,0.5
	l0,0.4l-0.1,0.2l-0.2,0l-0.2,0l0.2,0.8l0.4,0.6l0.9,0.1l0.3,0.2l0.2,0.2l0.2,0.4l0.1,0.6l0.4,0.5l0.4,0.4l0.1,0.2l0.2,0.6l0.1,0.2
	l0.2,0.6l0.2,0.7l-0.1,0.1l-0.1,0l-0.2-0.2l-0.2-0.2l-0.1,0l-0.1,0.1l0,0.2l0.2,0l0.1,0l0.3,0.2l0.2,0.2l0.2,0.2l0.5,0.6l0.2-0.1
	l0.2-0.1l0.4,0.3l0.1,0.1l0.1-0.1l-0.1-0.6l-0.1-0.2l0-0.2l0.2-0.2l0.1-0.2l0.4-0.5l0.9-1.3l0.3-0.2l0.3-0.3l0.4-0.2l0.4-0.3
	l0.3-0.1l0.3-0.1l0.3-0.2l0.3-0.7l0.2-0.8l0.3-0.3l0.4-0.4l0.3-0.5l0-0.4v-0.4l0.2,0.3l0.1,0.3l0.2,1.1l-0.2,0.2l-0.2,0.1l0,0.4
	l0.1,0.5l0,0.4l-0.4,0.4l-0.4,0.5l-0.4,1l0,0.3l-0.1,0.4l0,0.4l0.1,0.4l-0.1,0.6l-0.2,0.5l-0.2,0l-0.2,0l-0.3,0l-0.3,0l-0.4,1.1
	l0.2,0l0.2-0.1h0.3l0.4-0.2l0.5-0.2l0.3,0.1l0.3,0l0.5-1.4l0.1-0.9l0.3-0.4l0.1-0.3l0.1-0.3l0.3,0.5l0.2,0.5l0.5,0.7l0.2,0.4
	l0.1,0.9l-0.3,1l-0.2,0.3l-0.2,0.3l-0.2,0.4l0.6,0.1l0.4,0l0.6-0.3l0.1,0l0.3,0l0.1-0.2l0.3-0.2l0.2-0.2l0.3-0.2l0.2,0.1l0.1,0.1
	l0.1,0.1l-0.1,0.2l0,0.4l-0.2,0l-0.2-0.3l-0.2,0.1l-0.1,0.2l-0.3-0.1l0,0.1l0.2,0.2l0.6,0.5l0.6,0.6l0.2,0.3l0.5,1l0.4,1l0,0.3
	l0,0.5l-0.1,0.5l0,0.3l0.1,0.4l0.2,0.4l1,1l0.5,0.9l0.7,0.5l1.1,0.2l0.6,0.3l0.6,0.7l0.2,0.1l0.3,0l0.4-0.4l0.6,0l0.7,0.4l0.4-0.1
	l0.3,0l0.4,0.2l0.6,0.5l0.7,0.2l0.4,0.3l0.3,0l0.6,0.2l0.4-0.2l0.3-0.2l0.8-0.8l0.6-0.4l0.3-0.2l0.3-0.1l0.3-0.3l-0.2-0.2l-0.2,0
	l-0.3-0.1l0.2-0.1l0.2-0.1l1-0.6l0.3,0.2l0.2,0.2l0.2,0.3l-0.2,0.4l-0.1,0.2l-0.3,0.3l-0.4,0l-0.2,0l0.4,0.3l0.3,0.2l0.7-0.4
	l0.2-0.3l0.1-0.2l0.2,0l0.3,0.1l0.1,0.2l0.1,0.3L884,579l-0.1,0.2l-0.1,0.2l0.4,0.3l0.2,0.2h0.2l0.3,0l0.2,0.4l0.2,0.5l0.2-0.1
	l0.1-0.1l0.2,0.1l0.3,0.3l0.2,0.4l0,0.2l0.2,0.1l0.2-0.1l0.1-0.2l0-0.3l0-0.5l-0.1-0.1l-0.2,0.3l-0.1-0.2l-0.2-0.2v-0.2l0.2-0.1
	l0.2,0h0.2l1.2-0.2l1.5-1.6l0.7-0.6l0.7-0.4l0.7-0.3l0.4-0.1l1.9-0.2l1,0l0.5-0.1l0.2-0.2l0.4-0.4l0.3-0.2l0.3-0.1l0.1-0.3v-0.3
	l0.1-0.3l-0.1-0.6l0-0.8l0.1-0.4l0.2-0.6l0.1-0.6l0.1-0.9l0.1-0.5l0.1-0.5l0.3-0.5l0.2-0.3l0.5-1.3l0.2-0.1h0.2l0.1-0.1l0-0.1l0,0
	l-0.1-0.2l0-0.1l0.2-0.1l0,0l0.1,0l0-0.1l-0.1-0.3l0.1-0.5l0.1-0.8l0.2-0.4l0.1-0.3l0.4-0.5l0.4-0.5l-0.1,0l-0.2,0l0.1-0.1l0.1,0
	l0.1,0.1l0.1-0.2l0-0.3l0.1-0.5l-0.1-0.4l0.2-0.1l0.2-0.1l0.1-0.4l0.1-0.2l0.1-0.2l0.2-0.3l0.2-0.3l0.4-0.7l0.4-0.3l0.6-0.2l0.1-0.1
	l-0.2-0.1l0-0.1h0.2l0.1-0.2l0.2-0.2l0.4-0.4l0.1-0.4l0.1-0.3l0-0.7l0.6-0.8l0.4-1.2l0.1-0.7l0.1-0.4l0.1-0.6l-0.1-0.6l0-0.5
	l0.4-1.3l0.1-0.5l0.1-0.3l0.2-1.3v-0.7l0.3-0.8l0.4-0.6l0-0.6l-0.1-0.4L906.7,544.8z M906.6,494.9l-0.6-0.3l-0.3-0.1l0,0.1l0.1,0.2
	l0.2,0.1l-0.1,0.1l0.2-0.1l0.1,0.2l0.4,0.1l0.1,0.1l0.4,0l0.2-0.1l-0.2-0.2L906.6,494.9z M920,443.2l-0.3-0.1l-0.1,0.1l0,0.1
	l0.1,0.1l0.1,0.2l0.2,0l0.2-0.1l0-0.1l0.1-0.1L920,443.2z M906.2,542.5l0,0.5l0.1,0.1l0.1,0l0.2-0.9l0,0l-0.2,0L906.2,542.5z
	 M891.7,586.5L891.7,586.5l-0.1,0l-0.2,0.1l0,0.1l0.2,0.2L891.7,586.5z M883,579.3l0.4,0l0.2,0.1l0-0.1l-0.1-0.2l-0.1-0.1l-0.2,0
	L883,579.3z M908.2,494.4l0,0.1l-0.3,0l0,0.1l0.1,0.1l0.2,0l0.3-0.1l0.1,0l0-0.1l-0.1-0.1L908.2,494.4z M882,586.5l0-0.2l0,0
	l-0.1,0.1l-0.1,0.1l0.1,0.4L882,586.5z M891.9,584.6L891.9,584.6l-0.3-0.2l-0.5-0.7l-0.2-0.1l-0.3,0.4l-0.2,0.1l0.1,0.2l0.2,0
	l0.1,0.2l0,0.2l0.4,0.6l0.1,0.2l0.1,0.1l0.1,0.1l0.3-0.1l0.2-0.2h0l0-0.1l-0.2-0.2l0.1-0.1L891.9,584.6z M884,578.7l-0.2-0.2l-0.4,0
	l0,0.1l0,0.2l0.2,0.1L884,578.7z M916.7,484.7l-0.1-0.1l-0.2,0l-0.2,0.2v0.2l0.2,0.3l0.3,0l0.1,0l0-0.1l0-0.2l0-0.2L916.7,484.7z
	 M917.9,487l-0.2,0l-0.2,0l0,0.1l0.4,0.1l0.2,0l0-0.1l-0.1-0.1L917.9,487z M892,592.5l0-0.1l-0.1-0.1v-0.1l0-0.3l-0.1-0.4l0-0.6
	l0-0.3l0-0.3l0.1-0.4l0-0.4l0-0.2l0-0.2l0-0.6l-0.2-0.3l-0.5-0.3H891l-0.3,0.3h-0.2l-0.5-0.1l-0.1,0.1l-0.2,0.3l-0.1,0.1l-0.2-0.1
	l-0.2-0.1l-0.1,0l-0.1,0.1l-0.3,0l-0.3,0l-0.2,0.1l-0.2,0.2l-0.1,0.2l0,0.2l-0.2-0.2l-0.2-0.1l-0.2,0.1l-0.2,0.1l-0.7,0.1l-0.6-0.2
	l-0.8-0.3l-0.1-0.1l-0.1-0.1l-0.1-0.1l-0.3-0.1l-0.1-0.2l-0.1,0l-0.2,0l-0.2-0.1l-0.2-0.2l-0.2,0l-0.2,0.1l-0.3,0l-0.6-0.2l-0.3-0.2
	l0,0.4l-0.2,0.7l0,0.4l0.1,0.4l0.2,0.6v0.2l0,0.1l0.4,0.8l0.4,0.7l0.5,0.7l0.1,0.3l-0.1,0.3l0.2,0l0.1-0.2l0,0.2l0.1,0.1l0.4,0.5
	l0,0.1l-0.2,0.4l-0.1-0.3l-0.2-0.3l-0.5-0.4l0.1,0.8l0.1,0.3l0.6,1.5l0.1,0.1l0.1,0.1l0.1,0.1l0.2,0.3l0.3,0.6l0.2,0.2l0.3-0.1
	l0.4,0.1l0.1,0l0.1,0.1l0,0.2h-0.3l-0.3,0.1l0,0.1l0.1,0.1l0.1,0.4l0.4-0.1l0.6,0l0.4,0l0.4,0.4l0.4,0.1l0.1,0l0.2-0.4l0.1-0.5
	l0.1-0.2l0.1-0.2l-0.2-0.2l0-0.1l0-0.1l0.5,0.4l0.2-0.2l0-0.3v-0.2l0.1-0.2l0.1-0.1l0-0.2l0-0.2l-0.1-0.3l0-0.2l0.3,0.4l0.1,0.5
	l0.2-0.1l0-0.1l0-0.4l0.1-0.1l0.3,0.1l0.3,0.2l0,0.1l0,0.1l-0.1,0.1l-0.2-0.1L890,596l0.1,0.4l0.2,0.4l0.2-0.1l0.3,0l0.1-0.1
	l-0.1-0.8l-0.1-0.5l0-0.6l0-0.3l0.1-0.2l0.1-0.3l0-0.3l0-0.3l0.1-0.3l0.2-0.2l0.1-0.1l0-0.1l0.1-0.2l0.1-0.2l0.1,0.2l-0.1,0.1
	l-0.1,0.1l0.2,0.1l0.1,0.1l0,0.1l0,0.2l0,0.1l0.1,0l0-0.2l0-0.2L892,592.5z M917.4,486.6l0.1-0.2l-0.1-0.1l-0.1,0l-0.3,0.2l-0.1,0.1
	l0.3,0.4l0.2,0.1v0l-0.2-0.2L917.4,486.6L917.4,486.6z M918.8,486.5l-0.2-0.5l-0.2-0.2l-0.3-0.1l-0.1-0.1l0-0.5l-0.3-0.1l-0.2,0
	l-0.3,0.3l0,0.2l-0.3,0.1l0,0.1l0,0.1l0.2,0l0.1-0.2l0.4,0l0.2,0l0,0.2l0.1,0.3l0.2,0.1l0.3,0.1l0.2,0.2l0-0.1l0.1,0L918.8,486.5z
	 M919.7,487l-0.2,0.3l0.1,0.1l0.1,0l0.2-0.1l0-0.1L919.7,487z M919.4,486.6l-0.3-0.1l-0.1,0.1l-0.1,0l-0.1,0l0,0.1l0,0.2l0.2,0.2
	l0.2,0.1l0.3-0.2l0-0.1l0-0.1l-0.1,0L919.4,486.6L919.4,486.6z M909.8,477l0-0.2l-0.1-0.1l-0.1,0.1l-0.2,0.2l0.1,0.1l0,0.2l0,0.3
	l0.1,0.4l0.1,0l0.1-0.1l0.1-0.5L909.8,477z M913.2,480.7l-0.2-0.2l-0.2-0.2l-0.3-0.2l-0.2-0.1l-0.2,0l-0.2-0.1l-0.3-0.5l-0.1-0.1
	l-0.3-0.2l-0.1-0.1l0-0.1l-0.3-0.4l-0.3-0.2l-0.4,0l-0.2-0.1l-0.1-0.1l-0.1,0l0,0.3l-0.1,0.6l0,0.2l0.1,0.3l0.1,0.1l0.2,0.2l0.2,0.1
	l0.2,0.3l0.1,0.1l0.4,0.2l0.1,0.3l-0.1,0.3l0.2,0.3l0.2,0.3l0.2,0.2l0.3,0.1l0.3,0.1l0.3,0l0.1-0.1l0.1-0.1l0.2-0.1l0.1,0.1l0,0
	l0.1-0.3l-0.1-0.3L913.2,480.7z M917,483.2l0.2,0l0,0l0.1,0.1l0.3,0.1l0.2-0.2l-0.1-0.1l-0.1,0l-0.1,0l-0.2-0.1l-0.4-0.3l-0.1-0.1
	l-0.1-0.4l-0.2-0.2l-0.7-0.4l-0.5-0.4l-0.3-0.1l-0.1,0.1l0,0.2l0.1,0.1l0.6,0.4l0.6,0.8l0.5,0.4L917,483.2z M912.7,482.3l-0.1,0.2
	l0.2,0.1l0.3-0.1l0.1-0.1l-0.3-0.2L912.7,482.3z M915.3,484l-0.2-0.1l-0.2,0.2l0,0.2l0.3,0.3v0.2l0.1,0l0.1,0.1l0,0l0.1-0.1l0.2-0.3
	l0-0.2l-0.3-0.1L915.3,484z M915.1,485l0,0.1l0,0.2l0.2,0.4l0-0.1l0-0.2L915.1,485L915.1,485z M892,585.8l-0.4,0.2h-0.4l-0.1,0.1
	l0,0.1l0.2,0.2l0.3,0l0.3-0.1l0.1,0.2l0.1,0l0.2-0.2l-0.2-0.2L892,585.8z M840.9,495.9l0.5-0.1l0.5,0.2l0.3,0l0-0.1l-0.1-0.1
	l-0.1-0.1l-0.2-0.1l-0.1-0.2l-0.1-0.2l0-0.3l-0.1-0.2h-0.1l-0.1,0.1l-0.3,0.3l0.1,0.2l0,0.3l-0.2,0.1l-0.2,0l-0.1,0.3l0.1,0.1
	L840.9,495.9z M822.6,497.6L822.6,497.6L822.6,497.6L822.6,497.6L822.6,497.6z M859.1,494.6l0.4-0.5l0.1-0.5l-0.1,0l0,0.2l0,0.1
	l-0.1,0l-0.1,0.1l-0.2,0.4l-0.1,0.1l0,0.1L859.1,494.6z M825.2,506.2L825.2,506.2l0.2-0.1l0-0.1l-0.1-0.1l0-0.1l-0.1,0l0,0.1
	l-0.1,0.1l0.1,0.1L825.2,506.2z M799.5,522.2l0.2-0.2l0-0.2l-0.1-0.1l-0.2,0.2l-0.1,0.2l0,0.1L799.5,522.2z M669.9,620l0,0.2l0,0.1
	l0.2,0l0.1-0.1l0.2-0.3l-0.1-0.3l-0.3,0l-0.3,0l0,0.2l0,0.2L669.9,620z M843.8,454.2L843.8,454.2L843.8,454.2L843.8,454.2
	L843.8,454.2L843.8,454.2L843.8,454.2L843.8,454.2L843.8,454.2z M853.4,442l0-0.2l0.1-0.2l0.1-0.5l0-0.1l-0.1,0.2l0,0l-0.1,0.1
	l-0.1,0.2l0,0.2l0.1,0.2L853.4,442z M858.5,495.2l0.3-0.2l0-0.1l-0.1,0.1l-0.5,0.2l-0.2,0.3L858.5,495.2L858.5,495.2z M891.5,594.4
	l-0.2-0.1l-0.1,0.2l0,0.1v0.2l0,0l0.2,0l0-0.1l0.2-0.1L891.5,594.4z M847.5,494l0.2,0.4l0.1,0l0.1-0.4l-0.1-0.2l0-0.3l0-0.1
	l-0.1,0.2l-0.2,0l0.1,0.2L847.5,494z M621,609.1l-0.1-0.1l-0.2,0.2l0.1,0.2l0.2,0.1l0.2,0l0-0.2L621,609.1z M841.7,494.8l0.2,0.5
	l0.4,0.4l0.9,0.5l1-0.6l0.2-0.4l0.2,0l0-0.2l0.2-0.2l0-0.1l-0.1-0.1l-0.1-0.2l-0.3-0.2l-0.2-0.2l-0.1,0.1l-0.2,0.1l-0.3,0.2l-0.1,0
	l-0.2-0.1l-0.5,0.2l-0.4,0l-0.2-0.2l-0.1-0.1l-0.3-0.3l-0.1,0l0,0l0,0.1l0.1,0.3L841.7,494.8z M862.8,569.5l-0.3,0.1l-0.7-0.1v-0.1
	l0.1-0.2l-0.1-0.1l-0.2,0l-0.5,0l-0.7,0.2l-1.3,0.3l-0.2,0.2l-0.1,0.3l0.1,0.2l0.5,0.3l0.4,0l0.3-0.1l0.3,0l0.2-0.2l0.5,0.1l0.2,0.2
	l0.4-0.2l0.1-0.3l0.1-0.1l0.5-0.1l0.5,0.1l0.2,0l0.2-0.2l-0.2-0.3L862.8,569.5z M793.2,537.7v-0.2l-0.1-0.2l-0.3-0.9l-0.1,0
	l-0.1,0.1l0.2,0.7l0.5,1l0.1-0.1L793.2,537.7L793.2,537.7z M880.2,583.9l-0.1-0.5l-0.2-0.2l-0.2,0l0,0.3l-0.2,0.2l0,0.1l0,0.3
	l-0.1,0.3l0.1,0.3l0,0.3l0.1,0.2l0.1,0l0.3-0.1l0.2-0.2l0.1-0.2l-0.1-0.3L880.2,583.9z M889.1,596.9L889.1,596.9l-0.2,0.2l0,0.2
	l-0.1,0l0,0.1l-0.1,0.1l-0.2-0.1v0.1l0.1,0.3l0.2-0.1l0.2,0.1l0.1-0.4l0-0.2L889.1,596.9z M673.5,620.4l-0.2-0.1l-0.2,0l-0.1,0.1
	l-0.2,0.2h-0.4l-0.2,0.1l-0.4,0.3l-0.2,0.1l-0.3,0.1h-0.2l-0.2,0l-0.4-0.3l0.1-0.2l0.4,0l0.2,0l-0.2-0.2l0-0.4l-0.2,0l-0.6,0.6
	l-0.1,0l-0.2,0l-0.4-0.1l0-0.3l0.2-0.3l0-0.2l0.1-0.2l0-0.4l-0.1-0.1l0.1-0.1l0-0.2l-0.1-0.1l-0.2,0l-0.1,0.1l-0.2,0.3l-0.2,0.3
	l0,0.3l-0.1,0.3l-0.1,0.3l0.1,0.2l0.1,0.1l0.1,0l0.1,0.1l-0.2,0.1l0,0.2l0.1,0.2l-0.1,0.3l0.1,0.2l0,0.2l-0.1,0.2l-0.1,0.2l0,0.2
	l0,0.2l0.1,0.2l0.2,0l0.3,0l0.3-0.2l0.2-0.5l0.3,0.1l0.2,0.1l0.3,0.2l0.4,0.2l0.2,0l0.2-0.2l0.2,0l0.1,0.1l0.3,0.2l0.4,0.1l0.1,0
	l0.2-0.2l0-0.2l0.1-0.1l0.1-0.1l-0.2-0.2l-0.2-0.1l-0.3,0l0,0.3l-0.2,0l-0.4-0.2l-0.2-0.2l-0.1-0.2l0-0.1l0.2,0l0.1-0.1l0.1-0.1
	l0-0.2l0.2,0l0.5,0l0.2,0.1l0.2,0.2l0.1,0l0.1,0l0.1-0.1l-0.1-0.2l0.3-0.2l0.2-0.3l0-0.3l-0.1-0.3L673.5,620.4z M889.2,596.2
	l-0.1,0.1l0,0.1l-0.1,0.1l0.1,0.1l0,0.2l0.1,0h0.2l-0.1-0.5L889.2,596.2z M679,482.9L679,482.9l0,0.2l0,0.1l0,0.1l0,0.1l-0.1,0.1
	l-0.1-0.3l-0.2-0.1h-0.1l0.2,0.2l0.1,0.3l0.1,0l0.1-0.1l0-0.2l0-0.1L679,482.9z M682.2,638l-0.5-0.1l-0.2-0.2l-0.2,0l0,0.1l0.1,0.2
	l0.1,0l0.2,0.5l0.2,0.2h0.3l0.3-0.2l0.2,0l0.1-0.1l-0.3-0.1L682.2,638z M747.5,496.9L747.5,496.9L747.5,496.9L747.5,496.9l0-0.1v0v0
	h0L747.5,496.9L747.5,496.9L747.5,496.9L747.5,496.9L747.5,496.9L747.5,496.9z M772.3,492L772.3,492l-0.2,0l0,0.1l0.2,0l0.2,0.1
	l0.1-0.2L772.3,492L772.3,492z M747.7,496.9L747.7,496.9L747.7,496.9L747.7,496.9L747.7,496.9L747.7,496.9L747.7,496.9L747.7,496.9
	L747.7,496.9L747.7,496.9L747.7,496.9L747.7,496.9z M827.1,503.8L827.1,503.8v-0.3l-0.1,0l-0.1,0.1l-0.1,0.3l0.1,0.1L827.1,503.8z
	 M984.5,521.6L984.5,521.6L984.5,521.6L984.5,521.6L984.5,521.6L984.5,521.6L984.5,521.6L984.5,521.6L984.5,521.6L984.5,521.6
	L984.5,521.6z M986.1,502.8L986.1,502.8l-0.1,0l0.1,0.2l0.2,0l0.2,0l0,0l-0.2,0L986.1,502.8z M984.9,517.1L984.9,517.1L984.9,517.1
	l0-0.1l0,0l0,0l-0.1,0l0,0l0,0L984.9,517.1L984.9,517.1L984.9,517.1L984.9,517.1L984.9,517.1z M985.7,513.4l-0.1,0l-0.1,0.1l0.1,0.1
	l0.2,0l0-0.1L985.7,513.4z M988.2,380.6L988.2,380.6l0,0.1L988.2,380.6L988.2,380.6L988.2,380.6L988.2,380.6L988.2,380.6z
	 M991.3,598.8l0.2,0l0.1-0.1l-1.1-0.1l-0.3,0.2l-0.3,0l-0.2,0.3l0.1,0l0.5-0.1l0.2,0.1l0.1,0.2l-0.1,0.2l-0.2,0.2l0,0.1l0.1,0.3
	l0.1,0l0.2,0l0.2-0.2l0.3-0.1v-0.1l-0.2-0.3l-0.2,0l-0.2-0.4l0.2-0.2l0,0l-0.2-0.1l0-0.1l0.3,0l0.1,0.1l0,0.3L991.3,598.8z
	 M981.3,516.4L981.3,516.4l-0.1,0.1l0,0l0,0.1l0,0l0,0l0-0.1l0,0L981.3,516.4l0.1,0.1h0L981.3,516.4L981.3,516.4z M991.5,600.6
	l0,0.1l0,0.2l0.1,0l0.2-0.2l-0.1-0.2L991.5,600.6z M981.3,509.9L981.3,509.9l-0.4,0.3l0,0l-0.2,0.3l-0.1,0.3l0.1,0.1l0.2-0.1
	l0.1-0.1l0.3-0.2l0.1-0.2L981.3,509.9z M983.5,513.5L983.5,513.5l-0.1,0.2l0.1,0l0.1,0l0.1,0l0-0.1L983.5,513.5z M983.8,511.3
	l-0.2-0.1l0,0l0,0.1H983.8l-0.1,0.2l-0.1,0.2l0.1,0l0.1-0.1l0.1-0.1l0-0.1L983.8,511.3L983.8,511.3z M984.3,514.2l-0.2,0l0.1,0.1
	l0.2,0.1l0,0L984.3,514.2L984.3,514.2z M1002.4,500.6l-0.5,0l-0.5,0.1l-0.3,0l0.1,0.2l0.2,0.2l0.3,0.4l0.1,0l0.4-0.1l0.3,0.1
	l0.1-0.3l-0.1-0.4L1002.4,500.6z M1005.9,471.4L1005.9,471.4L1005.9,471.4L1005.9,471.4L1005.9,471.4L1005.9,471.4L1005.9,471.4z
	 M994.5,523.1L994.5,523.1l-0.1,0L994.5,523.1l-0.2-0.2l-0.2,0l-0.1,0l0-0.1l-0.1,0.1l0.1,0.2l0.4,0.2l0.1,0.1l0.2-0.3l0-0.1
	L994.5,523.1L994.5,523.1z M1006.9,502.9l-0.3,0.1l0.1,0.1l0.1,0l0.2-0.2l0.2,0L1006.9,502.9L1006.9,502.9z M1005.6,488.8
	L1005.6,488.8L1005.6,488.8L1005.6,488.8L1005.6,488.8L1005.6,488.8L1005.6,488.8L1005.6,488.8L1005.6,488.8z M1009.3,516.6
	l-0.1,0.1l-0.1,0.2l0.1,0.2l0.3-0.2l0-0.1L1009.3,516.6L1009.3,516.6z M1010.2,415.4L1010.2,415.4L1010.2,415.4L1010.2,415.4z
	 M1005.4,475.1L1005.4,475.1L1005.4,475.1L1005.4,475.1L1005.4,475.1L1005.4,475.1L1005.4,475.1L1005.4,475.1L1005.4,475.1z
	 M995,523.6L995,523.6l0.2,0.3l0-0.5l0,0L995,523.6z M996.2,475.7L996.2,475.7L996.2,475.7L996.2,475.7L996.2,475.7L996.2,475.7
	L996.2,475.7L996.2,475.7L996.2,475.7L996.2,475.7L996.2,475.7L996.2,475.7L996.2,475.7L996.2,475.7z M1004.7,502l-0.2,0l-0.1-0.2
	l-0.7-0.2l-0.4,0l-0.2,0.1l0,0.1l0.3,0.3h0.1l0.4,0.1h0.8l0-0.1l0-0.1L1004.7,502z M921.5,646l0,0.2l0.1-0.2l0.2-0.7l0-0.5l-0.2,0.2
	L921.5,646z M980.6,509.8l0-0.2l0.1-0.1l0-0.1h-0.1l-0.1,0.1l-0.4,0.3l-0.4,0.3l0-0.3l0.2-0.3l0.4-0.2l0.1-0.2l0.2-0.2l0.4-0.4v0
	l-0.4,0.2l-0.2,0l-0.2,0l-0.2,0l-0.2,0.1l-0.2,0.1l-0.3,0.2l-0.2,0l-0.2,0l-0.4,0.1l-0.4,0.1l-0.3,0.2l-0.2,0.3l-0.2,0l-0.2,0.1
	l-0.2,0l-0.1-0.1l0,0.1l-0.1,0.1l-0.1,0.1l0,0.2l0.3,0l0.1,0.1l0.1,0.2l0.1,0.2l0.3-0.1l0.2-0.2l0.2,0l0.2,0l0.1-0.2l0.4-0.3l0.3,0
	l0.1,0l0.1,0.1l0.1,0.1l0.1,0h0.1l0.3-0.1l0.3-0.1l0.3,0l0.3,0L980.6,509.8z M997.7,515.4l-0.2,0.2l0,0.1l0.1,0.1h0l0.1-0.2l0.1-0.1
	l0-0.1L997.7,515.4L997.7,515.4z M926.8,489.9l-0.2-0.1l-0.2-0.3l-0.3-0.1l-0.5-0.3l-0.8,0l-0.3,0l-0.6-0.5l-0.2,0l-0.2,0.1l0,0.1
	l0,0.3l0,0.2l0.2,0.3l0.2,0.2l0.1,0.1l0.1,0.1l0.4,0.1l0.9,0l0.5,0.2l0.5,0.1l0.2,0l0.2-0.1l0,0l-0.1-0.3L926.8,489.9z M931.2,492.7
	l-0.4-0.6l-0.1-0.1l-0.2,0.1l-0.3-0.1l-0.2,0l-0.3-0.2l0,0l-0.1-0.1l-0.5-0.3l-0.3-0.1h-0.2l0,0.2l0,0.1l0.3,0l0.2,0.1l0,0.3
	l0.1,0.1v0.2l0.7,0.4l0.3,0.1l0.4,0.1l0.2,0.1l0.2,0l0.3,0.1l0.2,0l-0.2-0.1L931.2,492.7z M928.6,489.6l0-0.1l0-0.2l-0.3-0.5v-0.4
	l-0.1-0.2l0-0.1l-0.1-0.4l-0.3-0.3l-0.2,0l-0.1-0.1l0-0.3l0.1-0.1l0-0.1l-0.7-0.8l-0.1,0l0,0.1l-0.1,0l-0.2,0l0,0.1l0.3,0.5
	l-0.1,0.2l0.3,1l0.3,0.5l0.4,0.3l0,0.1l0.4,0.2l0.4,0.6L928.6,489.6z M933,447.8L933,447.8L933,447.8l0.1,0.2L933,447.8L933,447.8z
	 M943.2,526.4l0.6,0.3l0.2-0.1l0.2,0l0.2-0.1l0.1-0.2l-0.2-0.5l-0.3-0.2l-0.4-0.2l-0.3-0.2l-0.3-0.3l-0.5-0.4l-0.7-0.5l-0.3-0.1
	l-0.2-0.2l-0.2-0.1l-0.1-0.2l-0.3-0.1l-0.2-0.3l-0.4-0.3l-0.1-0.1l0-0.2l-0.1-0.1l-0.2-0.2l-0.2-0.2l-0.2-0.2l-0.2-0.1l-0.4-0.2
	l-1.1-0.9l-0.4-0.3l-0.3,0.1l-0.3-0.2l-0.4-0.3l0,0.1l0,0.2l0.1,0.1l0.2,0.1l0.1,0.1l0,0.2l0,0.2l0.4,0.5l0.2,0.3l0.2,0.3l0.3,0.2
	l0.3,0.3l0.6,0.6l0.2,0.3l0.2,0.1l0.7,0.6l0.2,0.2l0.3,0.1l0.5,0.3l0.3,0.2l0.2,0.2l0.3,0.2l0.5,0.2l0.1,0.1l0,0.2l0.1,0.1l0.3,0.2
	l0.3,0.1l0.1,0.1l0.1,0.1l0.2,0L943.2,526.4z M942.2,626.7l-0.3,0l0,0.2l-0.1,0.5l-0.4,0.4l-0.1,0.2l0,0.1l0.2,0l0.1-0.2l0.1,0
	l0.1,0.2l0.3,0.1h0.2l-0.1-0.4l-0.1,0l-0.1-0.2l0.1-0.1l0-0.2V627l0.1-0.2l0-0.1L942.2,626.7L942.2,626.7z M924,486.4l0.4,0.2v-0.1
	l-0.1-0.2l-0.2-0.2l0.1-0.2l-1.2-0.8L923,485l-0.2,0l-0.2-0.2l-0.2,0l-0.3-0.2l-0.1-0.1l-0.3-0.2l-0.4-0.3l-0.8-0.2l0.1,0.1l0.2,0.2
	l0.1,0.3l0.2,0.2l0.3,0.2l0.2,0.1l0.1,0.1l0.2,0.2l0.4,0.2l0.4,0.3l0.2,0l0.2,0.2l0.8,0.3L924,486.4z M926,495.5l-1-0.6l-0.2-0.1
	l0,0.1l0,0.1l0.1,0.1l0.2,0l0,0l0.1,0.1l0.3,0.1l0.2,0.1l0.1,0.2l0.1,0.1l0.2,0l0.2-0.1l-0.1-0.1L926,495.5z M922.4,487.9
	L922.4,487.9l-0.1-0.1l-0.2,0.1l-0.1,0.1l0.1,0.1l0.2,0l0.1,0l0,0l0.1-0.1l0-0.2L922.4,487.9z M944.3,604.3l-0.2,0.2l0.1,0.1
	l0.3,0.1L944.3,604.3L944.3,604.3z M924.5,517.2l0,0.5l0-0.1l0.1-0.2l0-0.4L924.5,517.2z M1004.1,470.4L1004.1,470.4L1004.1,470.4
	l0.1,0l0,0l0.1,0.1v0l0,0l-0.1,0l-0.1,0l0,0l0,0l0,0l0.1,0h0v0l0-0.1l-0.1-0.1L1004.1,470.4L1004.1,470.4L1004.1,470.4L1004.1,470.4
	L1004.1,470.4L1004.1,470.4z M977.5,512.6l-0.1,0.2l0.1,0.2l0.1,0l0.1-0.1l-0.1-0.2L977.5,512.6z M975.7,517L975.7,517L975.7,517
	l0.1-0.2l0.2-0.2l0.1,0l0.1,0.1l0.4-0.1v-0.1l-0.2-0.1l-0.2,0l-0.2,0.1l-0.2,0l-0.2,0.2l-0.2,0.1l-0.2,0l-0.1,0.1l-0.1,0.1l0.2,0.1
	L975.7,517z M980.9,508.4l0.1-0.1l0-0.1H981L980.9,508.4L980.9,508.4L980.9,508.4L980.9,508.4z M977,513.2l-0.1-0.3l0.1-0.2l0-0.1
	l-0.2-0.2l-0.3-0.2l-0.2-0.2l-0.1,0L976,512v-0.1l-0.1-0.1l-0.2,0l-0.2,0.1l-0.5,0.2l-0.3,0l-0.6,0.2l-0.3,0.2l-0.3,0.3l0,0.2l0,0.2
	l0,0l-0.1,0l0,0.1l0,0.1l-0.1,0.1l-0.2,0l0,0.2l0,0.2l0.2,0.3l0.2,0.1l0.2,0.1l0.5,0.1l0.4,0.1l0.2,0.1l0.3,0l0.3,0h0.3l0.2-0.2
	l0.2-0.1l0.3,0l0.1,0l0.1-0.1l0.3,0l0.2-0.1l-0.1-0.4L977,513.2z M943.1,606.4L943.1,606.4h0.2l0.1,0.1l0.2,0h0.1l0-0.1l0-0.2l0-0.1
	l-0.1-0.1l-0.3,0.1L943.1,606.4z M978.9,513.5L978.9,513.5l-0.1,0.2l0,0.1l0.2,0.2l0,0l0-0.1l-0.1-0.2L978.9,513.5z M979.2,511.5
	L979.2,511.5l-0.1,0.4l0.1-0.1l0.1-0.2L979.2,511.5L979.2,511.5z M947.6,611.6l-0.1-0.1l-0.2-0.1l0-0.2l0.3,0.1v-0.2l-0.5-0.7
	l-0.5,0l0,0.4l0.1,0.5l-0.2,0.2v0.2l-0.2,0.1l-0.1,0.2v0.2l-0.2,0.2l0,0.2l0.1,0l0.3-0.1l0.3-0.3l0.1,0l0.3,0l0.3-0.3l0.5-0.1
	l0.2-0.1l0.1-0.2l0-0.2L947.6,611.6z M950.4,635.5l-0.1,0.1l-0.2,0l0,0.2l0.1,0.1l0.1,0.1l0.3-0.1l-0.2-0.2L950.4,635.5z
	 M964.4,589.2l-0.3,0l0.2-0.1l0.3-0.2l0-0.1l0.2-0.2l0.1-0.2l-0.2,0l0-0.1l-0.2,0l-0.1,0l-0.1,0l-0.2,0v0.1l0.1,0.2l-0.2,0.1
	l-0.1,0.2l0,0.1l-0.1,0.2l-0.3,0.1l0.2-0.3l0-0.2l0.2-0.2l-0.1-0.1l0-0.1l0.2-0.1l0.1-0.2l-0.2,0l-0.1,0.1l-0.3,0.1l-0.1,0.1
	l-0.5,0.4l-0.3,0.2l-0.3,0.2l-0.3,0.3l-0.3,0l-0.1-0.3l0-0.4l0-0.5l-0.2-0.4l-0.3-0.1l-0.3-0.2l-0.1-0.2l-0.1-0.2l0-0.2l0.1-0.2
	l0.6-0.1l-0.3-0.1l-0.3,0l-0.2,0.1l-0.5,0.4l-0.5,0.5l-0.4,0.7l-0.1,0.9l-0.2,0.9l-0.2,0.3l-0.3,0.4l-0.3,0.2l-0.2,0.1l-0.4,0
	l-0.1,0.1l-0.2,0.7l-0.2,0.4l-0.1,0.4l-0.1,0.4l-0.1,0.4l0.1,0.1l0,0.1l-0.2,0l-0.1,0l-0.1,0.1l-0.5,0.7l0.1,0.4l0,0.2l-0.1,0.1
	l0-0.2l0-0.2l-0.1-0.2l-0.4,0.5l-0.3,0.3l0,0.2l0,0.2l-0.2-0.3l-0.1,0l-0.3,0.1l0,0.1l0.2,0.2l-0.2-0.1l-0.2-0.1l-0.2,0.1l-0.2,0.2
	l0.2,0.1l0.1,0.2l-0.1-0.1l-0.2,0l-0.2,0.1l-0.1,0.2l-0.1,0.1l-0.1,0.1l-0.2,0.3l-0.5,0.3l0.1,0.1l0,0.1l-0.2,0l0,0.2l0,0.2l-0.2,0
	l-0.3,0.2l-0.4,0.1l-0.5,0.3l-0.4,0.3l-0.1,0.2l0.1,0.4l-0.1,0l-0.2-0.1l-0.2,0.1l-0.5,0.4l-0.1,0l-0.3-0.1l-0.5,0.2l-0.2,0.2
	l-0.5,0.5l-0.5,0.5l-0.5,0.6l0,0.4l0.1,0.1l0,0.2l-0.1-0.2l-0.2-0.1l-0.2,0.2l-0.3,0.4l-0.3,0.1l-0.1,0.1l0,0.1l0.1,0.1l0,0.2l0,0.2
	l-0.2-0.5l-0.6,0.5l-0.1,0.1l0.1,0.2l0.2,0.1l-0.2,0l-0.2-0.2l-0.3,0.3l0,0.2l0,0.2l0.3,0.2l0.2,0.1l0.1,0l-0.2,0l-0.1,0.1l0,0.1
	l0.1,0.2l-0.3-0.1l-0.4-0.3l-0.1,0l0,0.2l0.1,0.2l-0.4,0l-0.1,0.2l0,0.3l0.4,0l0.3-0.1l-0.5,0.3l-0.1,0.2l0,0.2l0.5,0l-0.1,0.2
	l-0.3,0.1l-0.9,0.2l-0.1,0.1l0,0.3l0,0.2l0.3,0l0.3-0.3l0,0.2l0,0.1l-0.2,0.3l0.2,0l0.3-0.3l0.2-0.1l-0.6,0.7l0,0.3l0.3,0.1l0.8,0.1
	l0.8,0l0.1,0l0.2-0.3l0.1,0l0.4,0.2l0.1,0.1l0.3,0.6l0.2,0l0.5-0.1l0.3,0l0.1,0.1l0.1,0.1l0.2,0.1l0.1,0.2l0,0.2l0.1,0.2l0.1,0.1
	l0.2-0.1l0.3,0.1l0.2-0.1l0.4-0.1l0.2,0l0.4,0.1l0.4,0.1l0.7,0l1-0.3l0.1-0.1l0.1-0.2l0.4-0.6l0.8-0.7l0.2-0.3l0.2-0.4l0.2-0.2
	l0.7-0.2l0.1-0.1l0.2,0l0-0.1l0-0.2l-0.1-0.2l-0.1-0.2v-0.1l0.3-0.7l0.2-0.6l0.1-0.6l0.1-0.3l0.3-0.5l0.1-0.2l-0.3-0.2l-0.1-0.1h0.4
	l0.1-0.6l0-0.6l0-0.4l0.2-0.9l-0.1-0.1l-0.1-0.1l0.3,0l0.2-0.2l0.1-0.3l0.2-0.1h0.4l0.2-0.1l0.3-0.2l0.2-0.1l0.2-0.1l0.3-0.2
	l0.3-0.2l-0.1-0.2l-0.2-0.4l0-0.2l0.3,0.2l0.2,0.2l0.2,0.2l0.2,0l0.1-0.1l0-0.2l0.1-0.1l0.1-0.1l0.1,0l0.2,0.1l-0.3,0.2l0.1,0l0.2,0
	l0.5-0.1l0.2,0.2l0.3,0.1l0.3,0l0.1,0l0.1-0.1l0.1-0.2l0-0.4l-0.1-0.1l-0.3-0.1l-0.4-0.2l-0.1-0.2l0-0.2l0-0.2l-0.1-0.1l-0.5,0.1
	l0.1-0.1l0.2,0l0.2-0.1l0.1-0.2l-0.1-0.2l-0.2-0.1l0-0.1l0.3,0l0.2-0.2l0.2-0.3l0.5-0.2l0.2-0.1l0.2-0.2l0.3-0.5l0.5-1.2l0.1-0.2
	l0.7-0.8l0.1-0.2v-0.3l0.2-0.2l0.2-0.3l0.5-0.6l0.1-0.1l0.1-0.3l-0.2-0.2l-0.1-0.1l-0.2,0l0.2-0.4l-0.2-0.2l0-0.1l0-0.2l0.1-0.2
	l0.2-0.1l0.2-0.1l0.2-0.2l0.2-0.3l0-0.3l-0.2,0.2L964.4,589.2z M963.9,587.5l0-0.3l-0.2,0.1l-0.1,0l-0.2,0.2l-0.1,0.3l0,0.2l0.4-0.2
	L963.9,587.5z M976.3,576.1l-0.2-0.2l-0.7,0l-0.1,0.1l-0.1,0.1l-0.3,0.1l-0.2,0.2l-0.2,0.4l-0.2,0.3l-0.3,0.2l-0.3,0.1l-0.2,0
	l-0.3,0l-1.1-0.3l-0.4-0.2l-0.9-0.5l-0.1-0.1l-0.2,0l-0.2-0.1l-0.2-0.2l0-0.1l0.1,0l0.2,0.1l0-0.2l-0.3-0.4l-0.2-0.8l-0.1-0.9
	l-0.1-0.3l-0.2-0.2l0-0.2l-0.2,0l-0.4-0.6l-0.1-0.2l-0.1-0.2l-0.2,0.1l0,0.2l0.1,0.1l0.1,0.2l0.1,0.2l0,0.2l0,0.2v0.2l0.2,0.6l0,0.4
	l-0.1,0.2l-0.2,0l-0.2,0l-0.1-0.2l-0.1-0.4l-0.1-0.2l-0.2-0.1l-0.6-0.2l-0.3-0.2l-0.1,0l-0.1,0.2l-0.1-0.1l-0.1-0.1l-0.2,0l0-0.2
	l0.1-0.1l0.1-0.4l0.1-0.1l-0.2-0.4l0.1-0.2l0-0.2l0.1-0.3l-0.5-0.8l-0.2-0.2l-0.2-0.4l-0.2-0.3l0-0.1l0.4,0.1l0.1,0l-0.2-0.4
	l0.1-0.1l0-0.2l-0.2-0.4l-0.1-0.2l-0.1-0.2l0,0l-0.1-0.2l-0.2-0.3l-0.1,0l-0.2,0.2l-0.2,0l-0.1-0.1l0-0.2l0-0.2l0-0.1l-0.5-0.3
	l-0.2-0.1l-0.1,0l-0.1,0.1l-0.1,0l-0.1-0.2l-0.6-0.2l-0.1-0.1l0-0.3l-0.2,0.2l-0.1,0.2L962,567l0-0.2l-0.1-0.1l-0.2-0.2l0-0.2
	l-0.3-0.5l-0.2-0.2l-0.1-0.2l0.2-0.4l-0.5,0l-0.5,0.1l0.4,0.6l0.5,0.6l0.2,0.3l0.2,0.4v0.4l-0.2,0.3l0.1,0.2l0.2,0.3l0.1,0l0,0.1
	v0.1l0.1,0.1l0.2,0.2l0.1-0.1l0.2-0.3l0.1-0.1l0.1-0.1l0.1-0.1l0.1,0l0,0.1l-0.1,0.1l-0.3,0.2l-0.2,0.3l1.5,2.2l0.1,0.2l0.2,0.4
	l0.1,0.1l0.1,0l0.1-0.2l-0.1-0.1l-0.4-0.5l-0.2-0.4l0-0.2l0-0.2l0.2,0.4l0.2,0.3l0.6,0.4l0.1,0l-0.1-0.2l0-0.1l0.1,0l0.2,0.2l0,0.1
	l-0.1,0.2v0.2l0.2,0.1l0.1,0.2l0,0.2l-0.1,0.2l-0.1,0.1l-0.4-0.4l-0.2,0l0.5,0.8l0.1,0.2l0.1,0.4l0.1,0.2l0.2,0.1l0.2,0l0.2,0
	l0.2-0.1l0.1,0l0.4,0.5l-0.2,0l-0.2,0.1l-0.2,0.1l0,0.2l-0.2-0.4l-0.1-0.1l-0.1,0.1l0.2,0.6l0.1,0.2l0.2,0l-0.1,0.2l0,0.2l0.1,0.2
	l0.3,0.6l0.2,0.4l-0.1,0.1l-0.1,0.1l-0.1,0.2l0.1,0.5l-0.1,0.3l-0.3,0.5l-0.2,0.7l-0.1,0.6l-0.1,0.6l-0.1,0.2l-0.3,0.3l-0.2,0.1
	l-0.1,0h-0.1l-0.7,0.2l-0.6,0.4l-0.1,0.1l-0.1,0.2l0,0.2l0,0.2l0,0.2l0.1,0.2l0.3,0.3l0.6,0.2l0.6,0.3l0.3,0.3l0.3,0.3l0.3,0.1
	l0.4,0l0.5,0.3l0.4,0.6l0.2,0.3l0.1,0.3l-0.2,0.8l-0.1,0.4l-0.4,0.8l-0.5,0.8l-0.5,0.6l-0.1,0.1l-0.1,0.1l0,0.1l0.1,0h0.2l0.2-0.1
	l-0.1-0.1l0-0.1l0.1,0l0.1,0.1l-0.1,0.1v0.5l0,0.1l0.1,0l0.4-0.2l0.3,0.1l0,0.1l0.1,0.3l0,0.2l0.2,0.1l0.2-0.1l0.2-0.2l0.7-0.5
	l0.4-0.3l0.4-0.4l0.2-0.3l0.2-0.4l0.4-0.6l0.2-0.4l0.2-0.4l0.3-0.4l0.4-0.5l0.2-0.5l0.2-0.2l0.2-0.3l0.3-0.9l0.4-0.9l-0.4-0.2
	l-0.1-0.2l0-0.2l0-0.5l0.2-0.4l0.1-0.2l0.2-0.1l0.5-0.2l0.3-0.1l0.3,0l0.4,0l0.4,0.1l0.1,0.1l0.1,0.3l0.1,0l0.2-0.3l0-0.2l-0.1-0.1
	l0-0.2l0.1-0.6l0.1-0.5l0.3-0.1l0.3-0.2l0.2-0.3l0.1-0.4l0.1-0.9l0.1-0.8l0.2-0.4l0.2-0.3l0.1-0.2l-0.2-0.1L976.3,576.1z
	 M923.9,486.5l-0.1-0.2l0-0.1l-0.1-0.1l-0.1,0.1l0,0.1l0.1,0.1l0.2,0.1L923.9,486.5z M947.7,506.1l0-0.2l0-0.4l-0.1-0.6l-0.1,0
	l0,0.1l0.1,0.9L947.7,506.1z M947.5,524.4l0-0.5l-0.2,0l-0.1-0.1l0-0.1l0-0.1l0-0.1l-0.2,0.1l-0.3,0.1l0.2,0.4l0,0.2l0.2,0.1
	l0.1,0.1h0.1L947.5,524.4z M947.9,509.8L947.9,509.8l-0.2-0.2l0,0l-0.1,0.1l0,0.1l0.1,0.2l0.1,0.1l0.1,0l0.3,0l0.4,0.1l0-0.1l-0.1,0
	l-0.2-0.1L947.9,509.8L947.9,509.8z M946.8,506.4l0.2-0.1l0.3-0.4l-0.5,0.1l-0.4,0.4l0.1,0.1L946.8,506.4z M947,508.5l0.1,0.1
	l0.2,0.1l0.5,0.1l0.3,0v-0.1l-0.1-0.1l-0.1-0.1l-0.1-0.3l-0.1-0.1l-0.3,0.3l-0.2,0L947,508.5z M947.6,506.3l-0.1,0.6l0.2,0.7l0,0.1
	h0l0.1,0l0-0.2l-0.2-1.1L947.6,506.3z M948.2,512.4L948.2,512.4l-0.1,0l-0.1,0l-0.2,0.3l-0.1,0.2l0.1,0l0.1-0.1l0.1,0l0.1,0.1
	l-0.2,0.1l0.4,0.1l0.3,0l0.2-0.3l-0.1,0l-0.3-0.4L948.2,512.4z M949.5,442.3L949.5,442.3l-0.2-0.1l-0.2,0l0,0l0.1,0L949.5,442.3z
	 M951.5,465.1L951.5,465.1L951.5,465.1L951.5,465.1L951.5,465.1L951.5,465.1L951.5,465.1z M941.1,493.1L941.1,493.1l0.2,0l0.2-0.2
	l0.2,0l0.1,0l0.2,0l0,0l0.1-0.1l-0.1,0l-0.3,0l-0.3,0l-0.1,0.1l-0.1,0.2l-0.1,0v0.1L941.1,493.1z M950.7,517.7l-0.1,0.4l0.1,0.2
	l0.2,0.2l0.3,0.1l0.2-0.3L951,518l-0.1-0.4l-0.1,0L950.7,517.7z M950.7,516.6l0.1,0l0.1-0.1l-0.1-0.2l-0.3-0.2l0.2-0.1l-0.2-0.1
	l-0.1-0.3l-0.2,0l-0.2,0.1l-0.1,0.2l0,0.3l0,0.1L950.7,516.6z M944.1,431.4L944.1,431.4L944.1,431.4L944.1,431.4l-0.1,0L944.1,431.4
	L944.1,431.4z M943.9,495.5l0.2,0l-0.2-0.1l0-0.1l-0.2,0l-0.1,0.1L943.9,495.5L943.9,495.5z M952.4,520.3l0.1-0.2l-0.1-0.1l-0.1,0
	l-0.2,0l0,0.1l0.2,0.1L952.4,520.3z M943.4,407.9L943.4,407.9L943.4,407.9L943.4,407.9l0-0.1l-0.1,0L943.4,407.9L943.4,407.9
	L943.4,407.9z M943.2,521.6l0.1-0.2l-0.1,0l0-0.2l0-0.1l0.2-0.1l-0.1-0.1l-0.1,0l0,0.1l-0.1,0.3l0,0.2l-0.2,0.3l0.2,0L943.2,521.6z
	 M944.2,464.2l0-0.1l0,0l0,0l-0.1,0l0,0.1L944.2,464.2L944.2,464.2z M945.7,501.9L945.7,501.9L945.7,501.9l0.2-0.1l0-0.1v-0.1l0-0.1
	l-0.2-0.2l-0.2,0.1l0,0.1L945.7,501.9L945.7,501.9z M943.4,505.6l0,0.6l0.2,0.3l0.2,0.1v0.2l0.2,0l0.3-0.2l0.4,0l0.3-0.3v-0.1l0-0.1
	l-0.1-0.7l-0.1,0l-0.1-0.2l0-0.3l0.1-0.1l-0.1,0l-0.1,0l-0.1,0.4l-0.1,0.2l-0.1,0h-0.2l-0.2-1l-0.2-0.3l-0.2-0.3l-0.1,0l-0.1,0.3
	v0.3L943.4,505.6z M945.6,502.6L945.6,502.6l-0.1,0.3l0.1,0l0.3,0l0.1-0.1l0-0.2l-0.3-0.1L945.6,502.6z M944.7,507l0.3,0.2l0-0.1
	l0-0.2l-0.3-0.1L944.7,507z M944.9,507.7l-0.1,0.4l0.2,0.2l0.1,0l0.2-0.1l0.1,0.1l0.1,0.3l0.1,0.5l0.1,0.3l0,0l0,0.1l0.2,0.1
	l0.2-0.2l0.4,0l0.2-0.2l-0.1-0.2l0-0.2l-0.2-0.1l-0.1-0.1l-0.1,0l-0.4-0.3l0-0.1h-0.1l-0.1-0.1l-0.2-0.5l-0.2-0.1l-0.2,0
	L944.9,507.7z M944.5,522.3l0.1,0.2l0.2,0.2l0.4,0.1l0.2,0.2l0.2,0l0.1-0.2v-0.1l-0.2-0.3l-0.2-0.2l0-0.5l-0.1-0.1l-0.2-0.1
	l-0.4,0.1l0,0.1l0.3,0l0.2,0.1l-0.2,0.3L944.5,522.3z M945.7,527.6l0.1,0l0.1-0.1l0-0.1l-0.2-0.1l-0.1,0.2L945.7,527.6L945.7,527.6z
	 M951.8,446.4l0.1-0.3l0.2-0.1l0-0.1L952,446l-0.1,0.1L951.8,446.4L951.8,446.4l-0.1,0.1L951.8,446.4L951.8,446.4z M973.3,479.8
	L973.3,479.8L973.3,479.8L973.3,479.8L973.3,479.8L973.3,479.8L973.3,479.8z M977.2,483.6L977.2,483.6L977.2,483.6L977.2,483.6
	L977.2,483.6z M956.2,442.9L956.2,442.9l0.2,0l0.1,0l0.2,0l0.1,0L956.2,442.9l-0.3-0.2l-0.1-0.1l0,0l0.2,0.1L956.2,442.9z
	 M980.8,509.4L980.8,509.4L980.8,509.4l0.2,0l0-0.1l0.1-0.1l-0.1,0L980.8,509.4L980.8,509.4z M973.2,511.1l0-0.2l-0.1,0l0,0L973,511
	l-0.1,0.2l0.1,0L973.2,511.1z M972.7,497.8l0.1,0l0,0l0,0l-0.1,0l-0.1,0l-0.1,0l0,0L972.7,497.8z M990.3,460.5L990.3,460.5
	L990.3,460.5L990.3,460.5L990.3,460.5L990.3,460.5z M1002,486.7L1002,486.7L1002,486.7L1002,486.7L1002,486.7L1002,486.7L1002,486.7
	L1002,486.7L1002,486.7z M1002.8,475.3L1002.8,475.3L1002.8,475.3L1002.8,475.3L1002.8,475.3L1002.8,475.3L1002.8,475.3
	L1002.8,475.3L1002.8,475.3L1002.8,475.3L1002.8,475.3l-0.1,0L1002.8,475.3L1002.8,475.3z M991.6,500.2l0.1-0.2l-0.1-0.1l-0.1,0.1
	l-0.1,0.2L991.6,500.2L991.6,500.2z M970.5,480.2L970.5,480.2L970.5,480.2L970.5,480.2L970.5,480.2L970.5,480.2z M990.8,462
	L990.8,462L990.8,462L990.8,462z M978.7,486.6L978.7,486.6L978.7,486.6l0-0.1v0l0,0l0,0l0,0L978.7,486.6L978.7,486.6z M961.1,457.3
	L961.1,457.3L961.1,457.3l0,0.1l0.2,0.2l0-0.1l-0.1-0.1L961.1,457.3L961.1,457.3z M961.3,457.8L961.3,457.8l-0.1,0.1L961.3,457.8
	L961.3,457.8L961.3,457.8l0-0.2l0,0L961.3,457.8z M967.8,571.3l0.2,0.2l0.1,0.1l0.2,0.1l0-0.2l-0.1-0.3l-0.2-0.2l-0.1-0.2l-0.1,0
	l0,0.1l-0.1,0.1L967.8,571.3L967.8,571.3z M960.8,454.2L960.8,454.2l0.1-0.1L960.8,454.2l-0.2,0h-0.1l0.1,0.1L960.8,454.2z
	 M957.3,443.1l0.1,0l0.1,0l0.1,0.1l0.1,0l-0.2-0.1L957.3,443.1l-0.1-0.1L957.3,443.1L957.3,443.1z M961.1,453.9L961.1,453.9
	L961.1,453.9l-0.2,0.1l0,0L961.1,453.9z M961.1,460.3L961.1,460.3l0.3-0.2l0-0.1l0-0.1l-0.2-0.1l-0.1,0h0l0,0.1h0l0,0l0.1,0.1
	l-0.1,0.1L961.1,460.3z M965.8,524.7L965.8,524.7L965.8,524.7l0-0.1L965.8,524.7L965.8,524.7L965.8,524.7z M966.1,466.1L966.1,466.1
	L966.1,466.1L966.1,466.1l0-0.1l-0.1-0.1l-0.1,0l0.1,0.1L966.1,466.1z M965.3,464.5l0.1,0.4l0,0.1l0,0.1l0.1-0.1l0-0.2L965.3,464.5
	L965.3,464.5l-0.2-0.1h0l0.1,0.1L965.3,464.5z M961.2,458.9L961.2,458.9l0.2,0l0.1,0h0.2l0,0v0l0,0l0,0L961.2,458.9L961.2,458.9z
	 M881.7,425.3l0.1,0.1h0.1l0.1-0.4l0.5-0.5l-0.1-0.1l-0.1,0l-0.1,0l-0.1,0.3l-0.4,0.3L881.7,425.3L881.7,425.3z M896.3,525.8l0,0.2
	l0.1,0.2l0.1-0.1V526l0-0.3L896.3,525.8z M898,526.4l-0.1,0.1l0.1,0l0.1,0l0.1,0l-0.1-0.2l-0.1,0L898,526.4z M928.7,489.3l0,0.2
	l0,0.2l0.1,0.1l0.1-0.1l0.2,0.2l0-0.1l0-0.3l-0.4-0.7l-0.1,0l0.1,0.3L928.7,489.3z M893.7,519.8L893.7,519.8l-0.1,0.2l0.1,0l0.1,0
	l0.1,0l0-0.3L893.7,519.8z M858.8,506.7l0,0.1l0,0l0.2,0l0.1-0.2l-0.1,0l-0.2,0L858.8,506.7z M893.9,520.5L893.9,520.5L893.9,520.5
	l0-0.2l-0.1-0.2l-0.1,0.4L893.9,520.5L893.9,520.5z M884.5,416.5L884.5,416.5l0.2,0l0-0.1l-0.1-0.1h-0.2L884.5,416.5L884.5,416.5z
	 M884.6,420L884.6,420l0.2,0l0-0.1l0.1-0.1l0-0.1l0.1-0.1l-0.1,0l-0.2,0.1L884.6,420z M883.1,422.9L883.1,422.9l0.2-0.1v-0.1l-0.1,0
	l-0.2,0.1L883.1,422.9L883.1,422.9z M884.5,409.5l0.1-0.1l0-0.1l0,0l-0.1,0L884.5,409.5L884.5,409.5z M884.4,420.6l0.1-0.1l0-0.3
	h-0.1l-0.1,0.1l0,0.1L884.4,420.6z M886.2,514.4L886.2,514.4l-0.2,0.1l-0.2,0l0,0.1l0.2,0.2l0.1,0.3l0.2,0.1l0.1-0.1l0-0.1l-0.1-0.2
	L886.2,514.4L886.2,514.4z M859.8,506.8L859.8,506.8l0.1-0.1l0-0.2l-0.1,0.1L859.8,506.8z M863.4,436.1l0.1,0l0.1-0.1l-0.1-0.1
	l-0.1,0l-0.1,0.1l-0.1,0.2l-0.1,0.1l0,0.1L863.4,436.1z M860.2,507.1l0,0.1l0.2,0.1l0.1-0.1l-0.1-0.1l0-0.2l-0.2-0.2l-0.1,0.2
	l-0.1,0L860,507L860.2,507.1z M885,411.2l-0.1-0.1l0,0l-0.2,0.3l0.1-0.1L885,411.2z M867.1,510.9L867,511l0,0.1l0.1,0l0.3-0.1l0-0.1
	l-0.2-0.1L867.1,510.9z M859.9,502.7l-0.3-0.1l-0.1-0.1l0-0.1l0.1-0.4l0.1-0.1l0.1,0l0.2-0.2l0-0.1l-0.1-0.1l-0.1,0l-0.1,0.3l-0.1,0
	l-0.1-0.1l0-0.2l0-0.1l-0.1,0l-0.2,0.1l-0.1,0.2l-0.3,0.2l0,0.4l0,0.3l-0.1,0.1l-0.2,0.1l0.1,0l0.3,0l0.5,0.1l0.3,0l0.4,0.1l0.1-0.1
	l0-0.2l0,0L859.9,502.7z M877.6,486.2l0.1,0.2l0.2,0.1l0.4,0.3l0.4,0.2l0-0.1l-0.4-0.3l-0.4-0.1L877.6,486.2z M874.8,492.9l0.2-0.2
	l-0.2-0.3l-0.2,0.1l0,0.1l0,0.2L874.8,492.9z M878.7,486.4L878.7,486.4l0-0.2l-0.2,0l-0.6,0l0.1,0.1l0.5,0.2L878.7,486.4z
	 M866.5,510h0.1l0.2-0.1l0.1-0.1l0.1,0l0.2-0.3l0.2-0.1l0.4,0l-0.3-0.3l0,0l-0.4,0.1l-0.5,0.1l-0.2,0.2l-0.2,0.3l0,0.3l0,0.1
	L866.5,510z M874.7,491.1l0.1-0.2l-0.1-0.1l-0.1,0.2L874.7,491.1L874.7,491.1z M875.2,491.2l-0.1-0.1l-0.2,0l-0.1,0.1l0.1,0.1l0.2,0
	L875.2,491.2z M871.3,482v0.5v0.6v0.6v0.6v0.6v0.6v0.6v0.6v0.6v0.6v0.6v0l0.4,0.3l0.2,0l0.2-0.1l0.3,0l0.3,0.1l0.3,0.1h0.3l0.7,0
	l0.7-0.1l0.2,0l0.3,0.1l0.1,0l0.3,0.2l0.3,0.1l0.6-0.4l0.6-0.3l0.4-0.2l0.4-0.2l0.1-0.1l0-0.3l0-0.1l-0.2-0.3l-0.2-0.2l-0.3-0.3
	l-0.1,0l-0.1,0l-0.6-0.3l-0.6,0l-0.3,0.1l-0.2-0.2l-0.1-0.2l-0.1-0.1l-0.3,0l0.2-0.1l0.2,0l0.1,0.1l0.1,0.1l0.1,0.2l0.2,0l0.2-0.1
	l0.3,0l0.3,0l0.3,0.1l0.5,0l0.5-0.1l0.5-0.1l0.5-0.1l-0.1-0.2l-0.1-0.2l-0.1-0.1l0.1,0l0.3,0l0.3,0.1h0.2l0.2,0l-0.1-0.2l0.1,0
	l0.1,0l-0.6-1.1l-0.2-0.2l0.2,0.1l0.2,0.1l0.2,0.2l0.2,0.2l0.2,0.1l0.5,0.1l0.2,0l0.1-0.1l0.2-0.1l0.1,0l0.1,0l0.1,0l0-0.2l0.2-0.1
	l0.2,0.1l0.2,0.1l0.2,0l0.3,0l0.1,0.3l0.1,0.1l0.2,0.1l0.3,0.1l0.3,0l0.3,0.1l0.5,0.2l0.3,0l0.5,0l0.1,0l0.1,0.1l0.6,0.2l0.1,0.1
	l0.1,0.1l0.1,0.1l0.1,0.1l0.2,0.3l0.1,0.3l0.5,0.5l0.2,0.3l0.3,0.6l0.2,0.2l0.5,0.2l0.2,0l0.1-0.1l-0.1,0.3l0,0.3l0.3,0.4l0.1,0.1
	l0.7,0.4l0.3,0.3l0.2,0.3l0.2,0.4l0.2,0.1l0.2,0.1l0.3,0.2l0.3,0l0.5,0.1l0.1,0l0.1,0l0.3,0.1l0.3,0.2l0.1,0l0.5,0l0.2-0.1l0.2,0
	l0.3,0.2l0.3,0.1l1.2,0.1l0.5,0.1h0.3l0.3,0l0.2,0.1l0.3,0.2l0.1,0.1l0.1,0.2l0.3,0.1l0.5,0.1l0.3,0l0.2,0l0.4-0.2l0.1-0.1l-0.1-0.1
	l-0.3-0.2l-0.2-0.2l0.1-0.1l0.5,0.1l0.2-0.1l0.4-0.2l-0.5,0.1l-0.4-0.1l-0.5,0l-0.2-0.1l-0.2-0.1l-0.3-0.1l-0.3-0.1l-0.1,0l-0.1-0.1
	l-0.2-0.2l-0.2-0.2v-0.2l0.3-0.1l0.2,0l0.2-0.1l0.1-0.1l-0.1-0.1l-0.3-0.1l-0.3,0l-0.8-0.1l-0.2-0.1l-0.4-0.2l-0.2-0.3l0-0.3
	l0.1-0.3l0-0.3l-0.1-0.1l-0.2,0l-0.1,0l-0.9,0.2l-0.3,0l-0.3-0.1l-0.2-0.3l-0.2-0.7l-0.1-0.1l-0.5-0.3l0-0.1l0-0.1l-0.1-0.3
	l-0.2-0.5l-0.1-0.2l-0.5-0.4l-0.3-0.1l-0.3-0.2l-0.5-0.5l-0.2-0.3l-0.3-0.2l-0.3-0.2l-0.2-0.2l-0.2-0.6l-0.4-0.7l0-0.1l0-0.1
	l0.5-0.3l0.7,0.1l1,0l0.3-0.1l0.1-0.1l0-0.3l-0.1-0.5l-0.1-0.2l-0.1-0.1l-0.1-0.1l-0.2-0.3l-0.2-0.3l-0.1-0.1l-0.3-0.1l-0.1,0
	l-0.4,0l-0.4,0l-0.2-0.1l-1.8-0.9l-0.6-0.2l-0.6-0.1l-0.4-0.1l-0.3-0.2l0.1-0.6l0-0.8l-0.1-0.2l-1.2-1.2l-0.4,0l-0.3-0.1l-0.2-0.2
	l-0.2-0.2l-0.3-0.2l-0.3-0.2l-0.3-0.1l-0.2-0.2l-0.1-0.2l-0.1-0.1l-0.1,0l-0.2,0l-0.4,0l-0.3,0l-0.2,0l-0.1-0.1l-0.4-0.2l-0.2-0.2
	l-0.3-0.1l-0.5-0.4l-0.4-0.1l-0.7-0.1l-0.3,0l-0.3-0.1l-1-0.3l-1-0.3l-0.6-0.3l-0.1,0h-0.1l-0.1-0.1l-0.4-0.2l-1.4-0.6l-0.2,0h-0.3
	h-0.1v0v0.2v0.3v0.6v0.6v0.6v0.6v0.6v0.6v0.6v0.6v0.6v0.6v0.6v0.6v0.6v0.6v0.6v0.6v0.6v0.2l-0.1,0.3l-0.2,0.5l0,0.4l0.2,0.3
	L871.3,482z M902,441.9L902,441.9L902,441.9L902,441.9L902,441.9L902,441.9L902,441.9L902,441.9L902,441.9z M902.2,470.7
	L902.2,470.7l0.3,0.4l0.1,0l0-0.1l-0.1-0.1L902.2,470.7L902.2,470.7z M901.3,442.2L901.3,442.2L901.3,442.2l0-0.1l0,0h-0.1l0,0l0,0
	l0,0l-0.1,0l0,0l0,0L901.3,442.2z M902.2,470.6l0.2-0.1l0-0.2l-0.2-0.1l0,0.1L902.2,470.6L902.2,470.6z M896.8,469.7l0.2,0.2
	l0.2,0.2l0.2,0l0.6,0l0-0.1l0-0.2v-0.1l-0.1-0.1l-0.6-0.2l-0.3,0.1l-0.4,0.2l0.1,0L896.8,469.7z M885.3,475.9l0.2-0.1l0.1-0.2l0-0.2
	l-0.1-0.1l-0.1,0l-0.2,0.1l0,0.2l0.1,0.2L885.3,475.9z M925.2,488.1l0.2,0.1l0,0.1l0,0l0.1,0l0.2,0.1l0.1-0.1l-0.2-0.2l-0.2-0.1
	l-0.1,0l-0.2,0L925,488l0,0.1L925.2,488.1z M904.1,471.6l0.1-0.2l-0.1-0.2l-0.2,0.1l-0.1,0.1l0.1,0.2L904.1,471.6z M906.9,474.1
	l0-0.2l-0.1,0l-0.1,0.1L906.9,474.1L906.9,474.1z M895.8,467l0.2,0l0-0.1l-0.1-0.3l-0.3-0.2l-0.2,0l-0.1,0.1l0,0.2L895.8,467
	L895.8,467z M905.1,488.2L905.1,488.2l-0.1-0.2l-0.1-0.1l-0.2-0.1l-0.1-0.2l-0.3,0l-0.2,0l-0.2,0l-0.2,0.1l0.3,0.1l0.2,0.2l0,0.1
	l0.1,0l0.3,0.1l0.2-0.1l0.1,0l0-0.1L905.1,488.2L905.1,488.2z M905.8,534.5l0,0.3l-0.1,0.2l-0.4,0.4l0.1,0.3l0,0.2l-0.2,0.3
	l-0.1,0.3l0.1,0.5l0.1,0.2l0.1-0.1l0-0.2l0.2-0.5l0.6-1.4l0-0.3l-0.2-0.2l0-0.5l-0.1,0l-0.1,0l-0.1,0.1l-0.1,0.2l0.1,0L905.8,534.5z
	 M898.8,470.3l0.3,0.1h0.3l0.3,0.1l1,0.6l0.2,0.2l0.3,0.1l0.6,0.5l0.2,0.2l0.3,0.1l0.1,0l0.3,0l0.2,0l0.2,0.2l0.2,0.2l0.7,0.9
	l0.2,0.4l0.1,0.4l0,0.2l0,0.2l0,0.2l0.2,0.4l0.1,0.2l0.2,0.2l0.1,0.2l0.2-0.2l0.2-0.2l0.1-0.2v-0.3l0.2-0.2l0.1-0.1l0-0.3l-0.3-0.4
	l-1.8-1.5l-0.1-0.2l-0.4-0.3l-0.3-0.4l-0.1-0.1l-0.6-0.2l-0.3-0.3l-0.3-0.2l-0.3-0.2l-0.5-0.2l-0.2,0l-0.2-0.2l-0.5-0.3l-0.5-0.3
	l0,0.2l0,0.2L898.8,470.3z M890.5,478L890.5,478l0,0.4l0.3,0.3l0.3,0.1l0,0.1l0.1,0l0.1-0.2l0-0.3l-0.1-0.1l-0.6-0.3L890.5,478z
	 M890.6,469.2l0.1-0.1l-0.1-0.1l-0.1,0l-0.1,0.1l-0.2,0l0.1,0L890.6,469.2z M887,468.8l0.2-0.1l0.2,0l0.1-0.1l0.5,0.1l0.4,0l0.2-0.1
	l0.2,0l0.3-0.2l0.1-0.1l0.1,0l0.2,0l0-0.1l-0.1,0l0,0l0,0.1h-0.1l-0.9-0.2l-0.6,0l-0.3,0.1l-0.3,0l-0.2,0.1l0,0.2l-0.2,0.1v0.1
	L887,468.8L887,468.8z M888.6,477.2l-0.3,0.2l0,0.1l0.1,0.1l0.3,0.3l0.2,0l0.1-0.1l0-0.4L888.6,477.2z M897.3,488.5l-0.2,0.1
	l-0.1,0.3l0.5,0.4l0.2,0l0-0.1l0.1-0.3l0-0.1l-0.1-0.2L897.3,488.5z M899.7,486.2l-0.1,0.1l-0.1,0.2l0.2,0.1l0,0.1l0,0.1l-0.1,0.2
	l0.2,0.2l0-0.2l0.1-0.5l-0.1-0.1L899.7,486.2L899.7,486.2z M900.1,530.2L900.1,530.2l-0.2-0.1l-0.2-0.1l-0.1,0.2l0.4,0.6l0.2,0.1
	l0.1,0l0.1-0.1l-0.1-0.2l-0.1-0.2L900.1,530.2L900.1,530.2z M900.2,490.5l-0.2,0.1l-0.2,0.2h-0.1l-0.1-0.1l0-0.1l-0.5-0.4l-0.1-0.2
	l-0.1-0.1l0,0.2l0.2,0.3l0.1,0.3l0.2,0.1l0,0.3l0.6,0.2l0.2,0.1l0.2-0.7L900.2,490.5z M898.9,492.3l0,0.1l0,0l0.2,0.1l0-0.2l-0.1,0
	H898.9z M892.5,478.9l0.3,0.1l0.3,0.1l0.2,0.1l0.8,0.6l0.1,0l0.4-0.1h0.3l0.3,0.1l0.3,0.4l0.2,0.1l0.3,0l0.3,0l1,0l0.7,0l0.1,0
	l0.3-0.2l0.3-0.1l0.2-0.1l0.1-0.1l0.3-0.1l0.3,0l0.1,0l0.4-0.2l0.3-0.2l0.3-0.3l0.1-0.1l0.1-0.1v-0.2l0.1-0.1l0.5,0l0.5,0.1l0.3-0.1
	l0.3-0.2l0.2-0.3l-0.2-0.3l-0.2-0.3l0-0.2l0.1-0.2l0.4,0l0.1,0l0.1-0.1l0.3-0.4l0.1-0.2l0-0.3l-0.1-0.2l0-0.2l0.1-0.4l-0.3-0.1
	l-0.3-0.1l-0.2-0.2l-0.4,0.3l-0.2-0.1l-0.1-0.1l-0.1-0.1l-0.3,0h-0.3l-0.1,0.1l0,0.1l0,0.1l0.3,0.8l0,0.4l0,0.3l-0.3,0.1l-0.4,0
	l-0.2,0l-0.2,0l-0.5,0.4l-0.2,0.3l-0.1,0.3l-0.2,0.3l-0.2,0.1l-0.2,0l-0.2,0l-0.1,0.1l-0.3,0l-0.3-0.2l-0.3,0l-0.3,0.2l-0.3,0
	l-0.2-0.3l-0.1-0.3l0-0.3l0.1-0.1l0.2-0.2l-0.1-0.1l-0.1,0l-0.1,0.1l-0.1,0.3l-0.1,0.9l-0.4,0.2h-0.4l-0.1,0l-0.4,0.2l-0.3,0l-0.3,0
	l-0.3-0.1l-0.3-0.1l-0.6,0.1l-0.2,0l-0.2,0l-0.1,0.1h-0.1l-0.4-0.1l-0.2,0.2l0,0.4l0.2,0.3L892.5,478.9z M897.9,489.6l0.4,0l0.3,0.1
	h0.4l0.1,0l0,0.1l0.1-0.1l0-0.1l0-0.2l0-0.2l-0.2-0.3l-0.1,0l-0.2,0.1l-0.4-0.2h-0.1l-0.2,0l0,0.1l0,0.1l0.2,0.3l0,0.1L897.9,489.6z
	"/>
</svg>
