<?xml version="1.0" encoding="utf-8"?>
<!-- Generator: Adobe Illustrator 18.0.0, SVG Export Plug-In . SVG Version: 6.00 Build 0)  -->
<!DOCTYPE svg PUBLIC "-//W3C//DTD SVG 1.1//EN" "http://www.w3.org/Graphics/SVG/1.1/DTD/svg11.dtd">
<svg version="1.1" id="Layer_1" xmlns:amcharts="http://amcharts.com/ammap"
	 xmlns="http://www.w3.org/2000/svg" xmlns:xlink="http://www.w3.org/1999/xlink" x="0px" y="0px" viewBox="0 0 1046 659.9"
	 enable-background="new 0 0 1046 659.9" xml:space="preserve">
<path id="south_america" fill="#CCCCCC" stroke="#FFFFFF" stroke-width="0.5" d="M302.4,434.4l-0.1-1.1l1.6-0.4l0.6,0.1l-0.1,2.1
	l-2.3,0.3l-0.5-0.2L302.4,434.4z M309.4,631.6l-2.4-1.1l-3.4,2.7l1.4,2l2.4-2l1.3,1.6l3.8-1.4l0.8-1.6l-2.2-2L309.4,631.6z
	 M377.4,482.2l-1-3.6l-1-0.9l-2.4-0.1l-2.2-0.8l-3.6-3.1l-4.1-2.3l-4.2,0.1l-5.5-1.5l-3.3,0.9l0.5-1.5l-1.4-1.6l-4.7-1.7l-3.5-1
	l-2.1,1.8l-0.1-2.8l-5-0.4l-0.9-0.8l2.1-2.3l-0.1-1.9l-1.5-0.5l-1.6-4.9l-0.7-1.5l-1,0.1l-0.5-1.1l-3-2.4l-2.1-0.7l-1-0.3l-3-0.8
	l-2.3,0.2l-0.3,0.5l-3.4-0.6l-1.1-1l-1.5-1.4l-1.1-0.1l-0.1-1.5l-1.7-1.8l-1.8-1l-1.1-0.7l-1.5,0.1l-0.5-2.3l-2.1-1.4l-2.2-0.2
	l-1-1.3l2.4-0.8l-3.4,0l-3.5,0.2l0,0.7l-1.6,0.9l-2.1-0.4l-1.6-1.3l-3,0.3l-2.5,0l-0.1-0.9l-1.8-1.6l-2,0l-1-2l-1,0.9l0.4,1.3
	l-3.5,1.1l0.1,2.1l0.9,1l-0.6,2l-1.2,0.2l-1.1-2.2l1.2-1.6l0-1.5l-0.9-1.3l1.6-0.3l0.1-0.7l0.5-1l-0.7-0.8l-1-0.2l-1.4,1.4l-1.1,0.6
	l-2.2,1.4l-2.2-0.2l-0.2,0.6l-1.8,0l-1.6,1.3l-0.5,2.4l0,0.9l-1.1,0.3l-2.1,2l-1.5-0.1l-0.3,0.4l0.6,1.7l-0.5,0.8l-0.9-0.2l-0.4,1.4
	l1.1,1.5l0.4,2.4l-0.6,0.7l0.6,2.6L258,452l1,0.7l-1.1,1.5l-1.2,1.8l-1.4,0.2l-0.7,1l0.1,1.4l-1.1,0.2l0.4,0.9l-1.9,1.1l-1.5,0.6
	l0.2,1.1l-1.1,1.8l-0.5,1.7l-1,0.4l0.5,2.5l-0.6,0.8l1.7,1.2l1.1-1.3l0.6,1.2l-1.5,2.1l-2.2,1.8l-0.9,2l1.4,2.7l-0.9,1.2l2,1.1
	l2.2,1.8l0.9,2.1l1.1,1.3l2.6,5.6l2.8,5.2l2.4,3.8l-0.5,0.8l1.2,2.4l2.2,1.8l5,3.2l5.6,2.9l0.2,1.2l2.8,1.7l0.6,4.2l0.2,4.9
	l-0.9,6.8l-0.9,6.4l-0.5,6l-1.6,3.9l0.3,4l-0.8,2.7l0.6,4.9l-1.2,5l-1.9,5.4l-1.7,5.6l-1.2,0.1l0.2,4l0.8,3.5l-1.3,2.5l-1,6.8
	l-0.9,5.4l1.8,0.5l0.9-4.8l1.9,1l-1.5,8l-3.1-1.4l-1,6.6l-2.7,3.6l4.3,1.2l-3,3.2l-1.2,4l0.4,7.3l1.4,2.9l-0.8,2.6l0.9,2.9l3.5,2.6
	l3.2,3.2l3.2,1.5l1.2-0.1l0.5-4.4l2.5-1.7l1.4-1.1l2.5,0l1.2,0.2l-1.9-2.6l-0.9-4.6l1.1-2.1l2.6-1.7l1.8-5l3.3-2.4l1-3.7l-2.7-0.8
	l-2.8-3l0.8-3l2.2-2l2.6,0l0.7-2.1l0.4-3.9l2.2-2.4l2.6-1.2l-0.8-2l-1.5,1.2l-1.9-1.1l-0.4-3.7l1.1-1l2.7,1.3l2.9-0.5l1.7-1.3
	l-0.5-1.8l0.6-2.7l-0.6-2.2l3.1,0.4l5.6-0.8l4.2-1.9l2.7-4.5l0.1-1.7l-1.8-1.5l0.4-2.4l-3.6-2.9l0.2-1.8l1.7,1.9l1.9-0.1l2.6,1.5
	l1.5-0.4l2.1,0.7l3.2-1.9l1.2-2.1l1.9-1.9l1.3-3.2l1.9-1.5l2.5-2.6l3.1-5.7l2-1.8l0.6-1.5l0.5-3.2l-0.5-1.7l0.4-2.3l2.4-3.1l3.3-2.4
	l3.1-0.9l2-1.3l4.4-1.2l3,0l0.7-1.8l2.3-1.3l0.5-3.1l2.8-3.9l0.5-3.9l0.9-1.2l0.3-1.9l0.8-4.5l-0.2-5.4l0.8-2.1l0.7-0.1l2.1-2.5
	l1.8-3.2l4-3.9l1.4-1.8l1.1-4.6L377.4,482.2z M285.3,642.4l-1.4-3.5l-1.1-2.2l-2-0.5l-2.6,1.9l-0.9,3.2l-1.5,2.2l-3.7-1.7l-3.9-3.1
	l-2.3-1l3.9,5.2l2.9,2.6l3.5,2.7l2.9,0.7l2,1.5l1.7,0.4l1.4,0.2l2.4-1.5l0.9-2l1.4,1.7l2.7-0.2l1.3-2.4l-3.9-1.2L285.3,642.4z"/>
<path id="north_america" fill="#CCCCCC" stroke="#FFFFFF" stroke-width="0.5" d="M281.1,409.4l0.1-0.9l-1.5,0.1l-0.5-1l-0.7,0.1
	l-1.7-0.8l-2.2,0l-0.4,0.5l-2.4-0.5l-1.7-0.1l-0.6,0.8l1.8,0.5l0,1.1l1.3,1.3l-1,0.6l-2.1-0.2l-2.6-0.4l-0.2,1l1.5,0.9l1.3-0.5
	l1.7,0.2l1.3-0.2l1.9,0.5l0.1,0.8l0.7,0.5l1.1-2l0.9-0.4l0.4,0.7l1.1-0.2l0.5-0.5l0.9,0.1l1.3-0.1l1.3,0.6l1-1.2l-1.4-1.1
	L281.1,409.4z M255.1,385.6l-1.3,0.2l0.2,1.1l3.1-0.5l-0.1-0.8L255.1,385.6z M256,390.8l-0.6,2l1.1,0.9l0.7,1.8l0.7-0.1l0-1.8
	l-1-2.5L256,390.8z M289.4,410.9l-2.3,0l-0.4,0.4l0.2,1.3l1.6-0.1l2.1,0l0.7-0.7l-0.5-0.6L289.4,410.9z M267.3,405.7l-2.1-1.2
	l-2.1-0.1l0.2-0.8l-1.7-0.6l-0.9,0l-1.8-1.4l-2.4-1.9l-1-0.7l-2.6,0.3l-1.1-1.1l-2.6-1l-2.2,0l-2.4-0.2l-0.7,0.3l-2.1,0.3l-1.4,0.6
	l-1.3,0.7l-0.6,1.1l-1.5,0.9l1.2,0.3l1.4-0.3l0.4-0.7l1.2,0l2-1.6l2.8,0.1l-1.1,0.8l1,0.6l3.6,0.5l0.8,0.6l2.6,0.8l1.6-0.1l0.7,1.7
	l1,0.9l1.8,0.2l1.1,0.8l-1.9,1.7l4-0.3l1.9,0.2l1.9-0.1l1.9-0.4L267.3,405.7z M259.6,411.2l-1.9-0.3l-0.6-0.1l-1.2,0.2l-0.3,0.7
	l1.6,1.1l1.6,0.5l0.9-0.5l2,0l-0.5-0.8L259.6,411.2z M258.9,388.7l0.5-2.2l-2.2-1.4l0,0.4l1.3,1.2l0,1.6L258.9,388.7z M32.2,401.4
	l-0.8,0.4l0.1,0.1l0.4,0.7l1,0.1l0.2,0l0.2-0.2l-0.8-1L32.2,401.4z M27.8,399.8l-0.4,0.3l-0.1,0.2l0.9,0.5l0.3-0.3l-0.1-0.7
	L27.8,399.8z M34.1,403.2l1.5,0.1l0.1-0.3l-1.4-0.1L34.1,403.2z M37.1,403.8l-1-0.3l-0.3,0.3l0,0.2l0.3,0.2l0.5,0.6l0.9-0.2l0.2-0.4
	L37.1,403.8z M8.5,250.6l-2.8,1l1.7,1.5l1.8,1l1.7-0.9l-0.3-2.1L8.5,250.6z M0,235.2l2-1.3l0.2-0.7L0,232.6V235.2z M139.1,126.9
	l5.2-5.1l2.6-0.6l2.2-4.2l0.4-9.8l-3.9,1.9l-4.3-0.2l-5.8,8.2l-4.8,9l3.8,2.5L139.1,126.9z M145.2,136.3l3.9,1.9l12.7-1.3l-5.8,4.8
	l0.4,3.4l4.3-0.2l7.1-4.6l9.5-1.7l1.7-5.2l-0.5-5.6l-2.9-0.5l-2.5,1.9l-1.1-4.1l-0.9-5.7L168,118l-2.6,4.4l4,11.1l-4.9-0.9l-5-6.8
	l-7.9-4l-2.6,3.3L145.2,136.3z M130.1,178.1l7.4-4.2V170l3.5-6.4l6.9-6.7l3.5-2.5l-3-4.2l-2.7-2.9l-7.2-0.6l-4-2.2l-9.5,1.6l2.7,6.2
	l-2.4,6.4l-1.9,6.9l-1.2,3.9l6.5,4.7L130.1,178.1z M326.4,307.5l-2,0.7l0.9-3.1l-2.8-1.3l-1.3,1l-2.5-1.2l1-1.5l-1.9-0.9l-1.8,1.5
	l1.9-3.8l1.5-2.8l0.5-1.2l-1.3-0.2l-2.4,1.5l-1.7,2.5l-2.9,6.9l-2.4,2.6l1.2,1.1l-1.8,1.5l0.4,1.2l5.4,0.1l3-0.2l2.7,1l-2,1.9
	l1.7,0.1l3.2-3.6l0.8,0.5l-0.6,3.4l1.8,0.8l1.3-0.1l1.2-3.6l-0.9-2.6L326.4,307.5z M296.8,316.3l-1-2l-1.1,1.3l0.7,1.4l3.6,1.7
	l1-0.3l1.4-1.7l-2.6,0.1L296.8,316.3z M40,406.5l-0.5-0.3l-1.1-0.5l-0.2-0.1l-0.2,0.3l0.2,0.6l-0.5,0.5l-0.1,0.3l0.5,1.1l-0.1,0.8
	l0.7,0.4l0.4-0.5l0.9-0.5l1.1-0.6l0.1-0.2l-0.7-1L40,406.5z M301.9,304.9l-2.9-1.8l-3.7-1.1l-1,0.4l2.6,2l3.6,1.3l1.4-0.1
	L301.9,304.9z M439.5,42.6l-8.4-3.8l-13.6,7.5l-7.1,6.9l3.1-11l-2.3-7.2l-5.4,6.1l-8.5-6.9l-9.9,2.2l-1.4-3.6l15.1-2l10.7-0.9
	l5.2-8.3L399.3,3.2L376.9,0L367,2.4l-3.6,8.9l-9.8-1.1l-9.4,13.6l-0.4,9.1l6.7,10.8l-5.8-6.4l-3.9-1.6L334,28l-7.4,11.3l-3.1-6.3
	l-8.6,0.2l-8.6,3.2l-6.6,5.2l1.2,8.6l-4.1,2L287,64.5l-2.4,6.6l7.6,5.8l-1.1,5.6l-10.3,7.2l-10.6,6.9l-0.4,5.3l6.3,5.4l12,3.4
	l-5.6,0.7l-7.4,4l4.9,7.7l3.2,3.8l6.8-0.9l7.5-0.5l6,0.8l7.5,6.7l0,4.6l3.6,4.2l3.4,10.9l2.2,6.7l1.7,3.5l-3.1,8.5l2.3,2.2l2.8-1.2
	l2.5,3l4.8,5.4l-5.7-2.2l-2.6,0.1l-1.1,4.5l0.2,5.6l3.4,2.6l2.5-1.1l1.5-1.2l3.2-2.9l-0.6,6.3l-1.1,3.3l-4.2,2.9l-2.8,8.7l1.9,2.5
	l-1,5.2l3.9,6.3l0.4,5.9l1.4,4.2l4.9,7.7l1.9,5.8l2.7,3.2l5.6,0l4.1,4.6l4-0.3l1.4-5.6l1.3-4.9l-1.1-4.7l4.6-4.9l1.4-4.2l0-4.6
	l2.4-4.1l4-1.6l3.7-1.7l1.9-0.3l6-4.9l3.9-7.6l2.9-2.9l3.1,0l8.2-2.6l7.6-6.1l7.5-7l-3.9-0.4l-7.4-0.4l3.3-4.4l-1-5.9l3.5,5l2.2,3.3
	l5-1.6l-1.1-7l-3.7-5.5l-3.8-2.3l1.4-2.5l5.5,3.8l0-4.1l-3.5-6.5l3.9,0l4-1.5l0.9-3.5l-3.2-4.1l6.2-0.7l-3.7-9.1l3-1l-0.7-9.6
	l-5.2-6.3l4.6-3.9l4.4-0.5l-3.4-8.3L420,92.1l2.3-9.6l3.3-11.5l-6.5-0.8l9-2.9l1.6-3.9L441,50.7L439.5,42.6z M166.3,106.6l0.9-4
	l-3.9-2.1l-4.1,1.4l-2.3,4.3l4.2,4.2L166.3,106.6z M45.6,263.8l-1.5,0.8l-2.5,1.9l0.4,2.4l1.4,1.3l2.8-2l2.4-2.5l-1.2-1.6
	L45.6,263.8z M105.8,283.1l-2.7,0.4l-1.3-0.6l-0.2,1.5l0.5,2.1l1.4,1.5l1,2.1l1.7,2.1l1.1,0l-2.4-3.7L105.8,283.1z M128.9,308.2
	l-1.2-2.3l-2.8-1.8l-1.4-2l-0.9-1.5l-2.6-0.5l-1.7-0.7l-2.9-1l-0.2,1l1.1,2.4l2.9,0.8l0.5,1.2l2.5,1.5l0.8,1.5l4.6,1.9L128.9,308.2z
	 M305.8,317.4l1.8,1.5l-3.5,2.6l-6.2,2.4l-2.8,1.6l-3.1,2.8l-2.1-0.3l-0.1-3.3l4.9-3.3l-4.5,0.1L287,322l0.5,1.3l-3,1.9l-2.9,1.3
	l-3,1.1l-1.5,2.3l-0.5,0.9l0,2l0.9,2l1.2,0.1l-0.3-1.4l0.8,0.8l-0.2,1.1l-1.9,0.6l-1.4-0.1l-2.1,0.6l-1.2,0.2l-1.6,0.2l-2.3,1.1
	l4.1-0.7l0.8,0.7l-3.9,1.1l-1.8,0l0.1-0.5l-0.9,1l0.8,0.2l-0.6,2.6l-2,2.8l-0.2-0.9l-0.6-0.2l-0.9-0.9l0.6,1.9l0.7,0.6l0,1.4
	l-0.9,1.4l-1.6,2.8l-0.3-0.1l0.9-2.4l-1.4-1.4l-0.3-3l-0.5,1.5l0.6,2.3l-1.9-0.6l1.9,1.1l0.1,3.4l0.8,0.2l0.3,1.2l0.4,3.5l-1.8,2.5
	l-2.9,1l-1.8,2L255,363l-1.4,1.2l-0.4,1.1l-3.1,2.2l-1.6,1.6l-1.3,1.9l-0.4,2.3l0.5,2.2l0.9,2.8l1.2,2.2l0,1.4l1.3,3.6l-0.1,2.1
	l-0.1,1.2l-0.7,1.9l-0.8,0.4l-1.4-0.4l-0.4-1.4l-1.1-0.7l-1.5-2.7l-1.3-2.4l-0.4-1.2l0.6-2.1l-0.8-1.8l-2.2-2.7l-1.1-0.5l-2.8,1.5
	l-0.5-0.2l-1.4-1.5l-1.8-0.8l-3.2,0.4l-2.5-0.4l-2.1,0.2l-1.2,0.5l0.5,0.9l-0.1,1.3l0.6,0.6l-0.5,0.4l-1-0.5l-1.1,0.6l-2-0.1
	l-2.1-1.7l-2.4,0.4l-2-0.7l-1.7,0.2l-2.4,0.8l-2.6,2.4l-2.8,1.4l-1.5,1.5l-0.6,1.4l0,2.2l0.1,1.5l0.5,1h0l0,0l0,0h0l-1.1,2.7
	l-0.5,2.2l-0.2,4.1l-0.3,1.5l0.5,1.6l0.9,1.5l0.6,2.3l1.9,2.2l0.6,1.7l1.1,1.5l3,0.8l1.2,1.2l2.5-0.8l2.1-0.3l2.1-0.5l1.8-0.5
	l1.8-1.2l0.7-1.7l0.2-2.5l0.5-0.9l1.9-0.8l3-0.7l2.5,0.1l1.7-0.2l0.7,0.6l-0.1,1.4l-1.5,1.8l-0.7,1.8l0.5,0.5l-0.4,1.3l-0.7,2.3
	l-0.7-0.8l-0.6,0l0,0.4l0.5,0l0,0.8l-0.5,1.3l0.2,0.5l-0.3,1l0.2,0.3l-0.3,1.5l-0.6,0.8l-0.5,0.1l-0.6,1l0.9,0.5l0.2-0.4l0.8,0.4
	l0.3,0.1l0.6-0.5l0.8,0l0.3,0.2l0.4-0.1l1.3,0.3l1.3-0.1l0.9-0.3l0.3-0.3l0.9,0.1l0.7,0.2l0.7-0.1l0.6-0.2l1.3,0.4l0.4,0.1l0.9,0.5
	l0.8,0.6l1,0.4l0.7,0.8l-0.2,0.3l-0.1,0.6l0.3,1l-0.6,1l-0.3,1.1l-0.1,1.3l0.2,0.7l0.1,1.3l-0.4,0.3l-0.3,1.2l0.2,0.8l-0.6,0.7
	l0.1,0.8l0.4,0.5l0.7,1.5l1.1,1.1l1.3,1.2l1,1l-0.1,0.6l1.1,0.1l0.3-0.2l0.8,0.7l1.4-0.2l1.2-0.7l1.7-0.6l1-0.8l1.6,0.2l-0.1,0.3
	l1.6,0.1l1.3,0.5l0.9,0.8l1.1,0.8l-0.3,0.4l0.6,1.6l-0.5,0.8l-0.9-0.2l-0.4,1.4l-0.9-0.8l-0.6-1.5l0.7-0.8l-0.7-0.2l-0.5-0.9
	l-1.4-0.8l-1.2,0.2l-0.6,1l-1.1,0.7l-0.6,0.1l-0.3,0.6l1.3,1.5l-0.8,0.4l-0.4,0.4l-1.3,0.1l-0.5-1.7l-0.4,0.5l-0.9-0.2l-0.6-1.1
	l-1.1-0.2l-0.7-0.3H243l-0.1,0.6l-0.3-0.4l-1.5-0.6l-0.6-0.6l0.3-0.5l-0.1-0.6l-0.8-0.7l-1.1-0.5l-1-0.4l-0.2-0.8l-0.7-0.5l0.2,0.8
	l-0.6,0.7l-0.6-0.8l-0.9-0.3l-0.4-0.6l0-0.9l0.4-0.9l-0.8-0.4l0.6-0.5l-1-0.9l-1.3-1.1l-0.6-1l-1.2-0.9l-1.4-1.3l0.3-0.4l0.5,0.4
	l0.2-0.2L230,426l-0.9-0.2l-0.3,0.7l-1.6,0l-1-0.3l-1.2-0.6l-1.6-0.2l-0.8-0.6l-1.4-0.5l-1.8,0l-1.3-0.6l-1.5-1.2l-3.2-3.1l-1.4-0.9
	l-2.3-0.8l-1.6,0.2l-2.3,1.1l-1.4,0.3l-2-0.8l-2.1-0.6l-2.6-1.3l-2.1-0.4l-3.2-1.4l-2.3-1.4l-0.7-0.8l-1.6-0.2l-2.9-0.9l-1.2-1.3
	l-3-1.7l-1.4-1.9l-0.7-1.5l0.9-0.3l-0.3-0.9l0.6-0.8l0-1l-0.9-1.3l-0.3-1.2l-0.9-1.5l-2.5-3l-2.8-2.4l-1.4-1.9l-2.4-1.3l-0.5-0.8
	l0.4-1.9l-1.4-0.7l-1.7-1.5l-0.7-2.2l-1.5-0.3l-1.6-1.7l-1.3-1.5l-0.1-1l-1.5-2.4l-1-2.5l0-1.2l-2-1.3l-0.9,0.1l-1.6-0.9l-0.4,1.3
	l0.5,1.6l0.3,2.4l1,1.3l2.1,2.2l0.5,0.8l0.4,0.2l0.4,1.1l0.5,0l0.6,2l0.9,0.8l0.6,1.1l1.8,1.6l0.9,2.9l0.8,1.4l0.8,1.4l0.1,1.6
	l1.4,0.1l1.1,1.4l1,1.4l-0.1,0.5l-1.2,1.1l-0.5,0l-0.7-1.8l-1.8-1.7l-2-1.5l-1.4-0.8l0.1-2.2l-0.4-1.7l-1.3-1l-1.9-1.4l-0.4,0.4
	l-0.7-0.8l-1.7-0.8l-1.6-1.8l0.2-0.2l1.1,0.2l1-1.2l0.1-1.4L153,378l-1.6-0.9l-1-2l-1-2.1l-1.3-2.6l-1.1-2.9h0l-0.5-1.7l-1.8-1.9
	l-1.3-0.4l-0.3-1l-1.6-0.2l-1-0.9l-2.6-0.3l-0.7-0.5l-0.3-1.9l-2.7-3.5l-2.3-4.9l0.1-0.8l-1.2-1.2l-2.2-3l-0.4-3l-1.5-2l0.6-3
	l-0.1-3.2l-0.9-2.9l1.1-3.6l0.3-3.5l0.3-3.6l-0.5-5.4l-0.9-3.5l-0.8-1.9l0.3-0.8l4.1,1.4l1.5,3.9l0.7-1.1l-0.4-3.4l-0.9-3.5l-0.4,0
	l-5.4-4.2l-2-1.9l-5.1-1.8l-1.6-4l0.4-2.8l-3.6-2l-0.5-3.8l-3.4-3.5l-0.1-2.5l-1.5-1.8l-2.5-1.6l-0.8-4.4l-3.6-4.1l-1.5-4.9
	l-2.7-0.3l-4.5-0.1l-3.3-1.5l-5.8-5.6l-2.7-1.1l-4.9-2l-3.9,0.5l-5.5-2.6l-3.3-2.4l-3.1,1.2l0.6,3.9l-1.5,0.4l-3.2,1.2l-2.5,1.9
	l-3.1,1.2l-0.4-3.2l1.3-5.5l3-1.8l-0.8-1.5l-3.6,3.2l-1.9,3.8l-4,4l2,2.6l-2.7,3.9l-3,2.2l-2.8,1.6l-0.7,2.3l-4.4,2.6L31,274
	l-3.3,2.1l-1.9-0.4l-2.6,1.4l-2.9,1.7l-2.3,1.6l-4.8,1.4l-0.4-0.8l3.1-2.3l2.7-1.5l3-2.7l3.5-0.6l1.4-2.1l3.9-3l0.6-1l2.1-1.8l0.5-4
	l1.4-3.2l-3.2,1.6l-0.9-0.9l-1.5,2l-1.8-2.7l-0.8,1.9l-1-2.7l-2.8,2.2h-1.7l-0.2-3.2l0.5-2l-1.8-2l-3.6,1.1l-2.4-2.6l-1.9-1.4l0-3.2
	l-2.2-2.5l1.1-3.4l2.3-3.4l1-3.1l2.3-0.4l1.9,1l2.3-3l2,0.5l2.1-2l-0.5-2.9l-1.6-1.2l2.1-2.5l-1.7,0.1l-3,1.4l-0.9,1.4l-2.2-1.4
	l-4,0.7l-4.1-1.6l-1.2-2.6l-3.5-3.9l3.9-2.9l6.2-3.4h2.3l-0.4,3.5l5.9-0.3l-2.3-4.3l-3.5-2.7l-2-3.6l-2.7-3.2l-3.8-2.4l1.6-4l5-0.2
	l3.5-3.6l0.7-3.9l2.9-3.9L24,182l5.3-3.8l2.6,0.6l4.3-4.6l4.2,1.8l2,3.9l1.2-1.6l4.7,0.5l-0.2,1.9l4.3,1.4l2.9-0.8l5.9,2.6l5.4,0.8
	l2.2,1.1l3.7-1.3l4.2,2.5l3.1,1.1l5.2,1.9l4.4,3.8l2.9,0.7l2.5-3.3l3.4-2.5l4.2,1l4.2-3.6l4.6-2.1l1.9,3.4l2.1-1.9l0.6-3.9l1.9,0.9
	l4.7,7.3l3.7-5.5l0.4,6.1l3.4-1.3l1.1-2.4l3.4,0.5l4.3,3.4l6.6,2.9l3.9,1.3l2.8-0.5l3.8,3.9L152,202l5.1,1.6l7.6-0.9l2.4-1.3l3,4.4
	l3.1-3.7l-2.9-3.2l1.8-2.6l3.4-0.4l2.2-0.8l2.3,1.8l2.8,4.1l3.1-0.6l4.9,3.4l4.4-1.2l4.1,0.2l-0.3-4.7l2.5-1.3l4.3,2.6l0,7l1.8-5.9
	l2.3,0.2l1.3-7.7l-3-4.9l-3.3-3.3l0.2-9.3l3.3-6.4l3.7,1.4l2.8,3.9l3.8,9.6l-2.5,4l5.2,1.6l0,8l3.8-6.1l3.4,5l-0.8,5.6l2.7,4.9
	l2.9-5.3l2-6.6l0.1-8.7l4,0.6l4.1,1.2l3.8,3.9l0.2,3.9l-2.1,4.1l2,4l-0.4,3.5l-5.5,5l-3.9,1.1l-2.9-2.1l-0.8,3.5l-2.7,5.7l-0.8,2.9
	l-3.2,4.4l-4,0.4l-2.2,2.7l-0.2,4.1l-3.3,0.8l-3.4,4.9l-3,6.6l-1.1,4.5l-0.1,6.4l4.1,0.9l1.3,5l1.3,4l3.9-1l5.2,2.2l2.8,1.9l2,2.4
	l3.5,1.4l3,2.1l4.6,0.3l3.1,0.5l-0.5,4.2l0.9,4.8l2,5.2l4.2,4.3l2.2-1.5l1.5-4.7l-1.5-7.4l-2-2.5l4.5-2.3l3.2-3.5l1.5-3.5l-0.2-3.4
	l-1.9-4.4l-3.4-4l3.3-5.8l-1.2-5.1l-0.9-9.2l2-1.4l4.8,1.6l2.9,0.6l2.3-1.6l2.6,2l3.5,3.4l0.9,2.3l5,0.4l-0.1,4.8l0.9,7l2.6,0.9
	l2,3.2l4.1-3l2.7-6.1l1.9-2.6l2.2,5l3.6,6.9l3.1,6.3l-1.1,3.2l3.7,2.8l2.5,2.8l4.5,1.3l1.8,1.5l1.1,4l2.2,0.6l1.1,1.8l0.2,5.2
	l-2,1.7l-2,1.6l-4.6,1.6l-3.5,3.6l-4.7,0.7l-6-0.9l-4.2,0l-2.9,0.3l-2.4,3.1l-3.6,1.9l-4,5.6l-3.2,3.8l2.4-0.7l4.5-5.5l5.9-3.5
	l4.2-0.4l2.5,2.1l-2.6,2.8l0.9,4.5l0.9,3.1l3.6,2l4.6-0.6l2.8-4.6L305.8,317.4z M199.9,184.4l-2,3.5l-2.5,2.5l3.8,3.5l2.3-0.9
	l3.8,2.4l1.7-2.7l-1.7-3l-0.8-1.5l-1.7-1.5L199.9,184.4z M239.8,238.5l0.6,1.6l2,0.1l3.3-3.3l0.1-1.2l-3.9-0.1L239.8,238.5z
	 M251.9,243.4l1.1-3.1l-0.7-1.2l-1.1-0.1l-1.1,1.8l-0.1,0.4l0.7,1.8L251.9,243.4z M202.9,154.5l-0.7-2.9l-5,1.3l-3.3-2.1l-3.3,4.8
	l3.1,6.3l-5.7-1.2l-0.1,3l7,7.1l1.9,3.4l2.7,0.7l4.6-3.4l0.5-8.2l-4.2-4.1L202.9,154.5z M192.1,185.4l-5.1-3.9l-4.7-4.2l-0.9-6.2
	l-1.8-8.9l-3.1-3.8l-2.8-1.6l-2.5,1.4l2,9.6l-1.4,3.7l-2.3-9l-2.6-3.1l-3.2,4.8l-3.9-4.8l-6.2,2.9l1.4-4.5l-2.9-1.9l-7.5,5.8
	l-1.9,3.7l-2.4,6.8l4.9,2.3l4.3-0.1l-6.5,3.5l1.5,3.1l4,0.2l6-0.7l5.4,2l-3.7,1.4l-3.9-0.4l-4.3,1.4l-1.9,0.9l3.4,6.4l2.5-0.9
	l3.8,2.1l1.5,3.6l5-0.7l7.1-1.2l5.3-2.6l3.3-0.5l4.8,2.1l5.1,1.2l0.9-2.9l-1.8-3.1l4.6-0.6L192.1,185.4z M250.6,230.6l-2-2.1
	l-2.1,0.5l-0.2-3.1l-3.2-2l-3.1-2.3l-1.6-1.8l-1.4,1l-0.5-3l-2-0.6l-1,6.1l-0.4,5.1l-2.4,3.1l3.8-0.6l1,3.6l4-3.2l2.8-3.4l1.6,2.9
	l4.4,1.5L250.6,230.6z M222.4,51.3l2.3,7.3l5,5.9l9.8-1.1l6.3,2l-4.4,6.1l-2.2-1.8l-7.7-0.7l1.2,8.3l4,6l-0.8,5.2l-5,3.5l-2.3,5.5
	l4.6,2.7l3.8,8.6l-7.5-5.7l-1.7,0.9l1.4,9.4l-5.2,2.8l0.4,5.8l5.3,0.6l4.2,1.4l8.2-1.8l7.3,3.3l7.5-7.2l-0.1-3l-4.8,0.5l-0.4-2.8
	l3.9-3.8l1.3-5.2l4.3-3.8l2.7-4.8l-2.3-7.1l1.9-2.7l-3.9-1.9l8.5-1.6l1.8-3.2l5.8-2.6l4.8-13.5l4.6-4.9l6.6-11.1l-6.1,0.1l2.5-4.3
	l6.8-4l6.8-8.9l0.1-5.7l-5.1-6l-6-2.9l-7.5-1.8l-6.1-1.5l-6.1-1.5l-8.1,4l-1.5-2.5l-8.6,1l-5,2.6l-3.7,3.6l-2.1,11.7l-3.1-6
	l-3.5-1.1l-4.1,8l-5.5,3.4l-3.3,0.7l-4.2,3.8l0.6,6.7L222.4,51.3z M167.8,94.2l-3.6-2.9l-1.5-0.7l-2.9,4.3l-0.1,2l4.7,0L167.8,94.2z
	 M284.8,184.6l-2.4-3.4l-6.8-3.4l-2.9-5.6l-5.2,2l-0.4-3.9l-3.9-4.3l-6.2-4.7l-2.6,3.7l-5.6,2.7l0.4-6.1l-4.8-10.1l-7.1,4.1
	l-2.6,7.7l-2.2-5.9l2.1-6.4l-7.2,2.6l-2.9,4l-2.1,8.4l0.9,9.1l4,0l-2.9,3.9l2.3,3l4.6,1.2l5.9,2.4l10.2,1.8l5.1-1l1.5-2.4l2.2,2.8
	l2.5,0.5l3,5l-1.8,2l5.7,2.6l4.3,3.7l1.1,2.6l0.8,3.2l-3.6,6.9l-1,3.4l0.9,2.4l-5.8,0.9l-5.3,0.1l-1.9,4.9l2.4,2.2l8.1-1l0-1.9
	l4.1,3.1l4.2,3.3l-1,1.8l3.4,3l6,3.5l7.6,2.4l-0.5-2.1l-2.9-3.7l-4-5.4l7,5l3.5,1.7l1-4.4l-1.8-6.3l-1.2-1.7l-3.8-3l-3-3.9l0.4-3.9
	l3.6-0.9l4.4,6.6l3.5,2.9l4.9-7.9l0.9-4.9l-4.4-0.5l-4-6.7l-4.5-1.6l-6.6-5l5.1-3.6L284.8,184.6z M264.4,205.4l0.3-1l0-3.2l-2.2-2.1
	l-2.6,1.1l-1.2,4.2l0.7,3.6l3.1-0.4L264.4,205.4z M182.2,155l-2.1-2.2l-3.8,0.4l-0.9,1.4l4.4,6.8L182.2,155z M195.4,139.8l4.6-1.1
	l1.3-8.2l-0.1-5.9l-2.1-5.6l-0.2,1.6l-3.9-0.7l-4.2,4.1l-3-0.4l0.2,8.9l4.6-0.9l-0.1,6.5L195.4,139.8z M248.5,155.8l3.1,5.1l0.8,0.6
	l3.1-1.3l3,0.2l3,0.3l-0.2-2.6l-4.8-5.4l-6.4-1.1l-1.4,0.7L248.5,155.8z M200.1,101.4l2.3,3.1l4.1-2.8l0.8-5l-3.4-4.9l-1.6-1
	l-3.6-0.6l0.2,5.9L200.1,101.4z M183.1,93.1l-2.7,4.2l6.2,0.5l4.6,4.4l4.6,1.5l-1.1-5.7l-2.1-6.7L185,86l-5.5-2l0.2,5.7L183.1,93.1z
	 M209,82.9l5.1-0.1l-2.2,4l0,5.3l3,5.8l5.8,1.8l5-1l5.2-10.7l3.9-4.4l-3.4-5l-2.2-10.7l-4.6-3.2l-4.7-3.7l-3.6-9.6l-6.5,0.9l1.2,4.2
	l-2.9,1.2L206,63l-1.9,7.5l1.8,7.3L209,82.9z M210.9,168.1l3-6.9l3.3-1.9l4.2-8.7l-5.4-2.5l-5.8-0.4l-2.8,2.8l-1.5,4.2l0,4.8
	l1.8,8.2L210.9,168.1z M212.1,108.9l0.3-1.5l-2-2.4l-5.6-0.2l0.8,3.7l5.2,0.8L212.1,108.9z M211.2,143.1l1.5-4.1l-1-3.5l-2.4-3.9
	l-4,3l-1.5,4.9l3.4,2.8L211.2,143.1z M228.1,145.1l5.8-0.2l8-1.6l3.6,1.3l4.2-2.3l1.8-2.8l-0.6-4.5l-3-4.2l-4.6-0.8l-5.7,1l-4.5,2.4
	l-4.1-0.9l-3.8-0.5l-1.8-2.7l-3.2-2.6l0.6-4.4l-2.4-4l-5.5,0l-3.1-4l-5.8-0.8l-1.1,5.1l3.2,3.7l5.8,1.4l2.8,5.1l0.3,5.6l1,6l7.4,3.4
	L228.1,145.1z"/>
<path id="asia" fill="#CCCCCC" stroke="#FFFFFF" stroke-width="0.5" d="M835.2,465.6l-1.2-1.5l0.4-1.7l1.5,0.3l0.2-2.4l-0.3-1.1
	l-1.7-0.2l-0.2-1.5l-0.9,1l-0.6,2.2l0.8,3.6l1.1,1.8L835.2,465.6z M829,473.4l1.9,0.5l1-0.9l-0.7-0.9l-2.8,0.1L829,473.4z
	 M820,432.9l-0.3,1.8l-0.7,0.8l-0.6,0.8l1.7,2l0.9-0.8l0.9-1.8l1-0.9l0.3-2.7l-2.1,2.7l0.5-1.9L820,432.9z M817,430l0.4,1.4
	l-0.2,1.5l0.1,1.3l1.8-0.9l1.3-1.2l0-1.2h-1.8L817,430z M814,427.7l1.2,1.4l0.7-2.5l-1-1l-2.4-0.1L814,427.7z M830.3,486.9l-2,0.1
	l-2.4,0.6l-0.3,0.7l-2.8,1.1l-1.2,1.7l-0.2,1l0.3,0.3l2.4-0.6l1.8-2.1l2.3-0.8l2.9-1.2l1-0.8l-1.1-0.4L830.3,486.9z M815,398.1
	l1.7-4.9l0.5-1.9l-1.3-0.9l-2.2,2.3l-1.7,3l0.3,2.2l1.5,2.5L815,398.1z M827.1,429.2l-0.8-1.1l-2.7-0.1l1.7,2.2l0,1.1l-1.7-0.2
	l0.4,1.7l0.8,0.1l0.1,2l1.3-0.6l-0.7-1.8l-0.1-1l2.2,0.8L827.1,429.2z M821.5,439.1l-1.5,1.1l-1.8,0.8l-1.1,2.4l0.5,0.8l2.1-1.6
	l1.3,0.1l0.9-1.2l1.8,1.3l-0.9,1.3l0.8,2l3.3,1.6l0.8-1.3l-0.9-2.1l1.3-1.4l1,2.9l1-2.6l-0.2-1.6l-0.3-1.9l-0.2-1l-0.2-1.4l-2.3-1.3
	l0.2,2.2l-2,0.1l-0.5,1.3l-2.1,0.8L821.5,439.1z M868.7,337.1l-1.2,2.3l0.5,4.1l-1.8,4.4l-1.6,1.4l-4.1,3.5l-1.9-1.7l-2.9,6.2
	l-3-0.7l-5.6,1L845,360l-2.8,1.8l-1.5,2.1l-2.7,1l1.1,2.3l1.8,1l-0.7,3l1.4,1.3l1.8-1.4l1.9-5.6l-2.8-2.5l3.3-0.1l3.3-1.6l4.9-0.8
	l0.1,2.5l1.9,1.3l4-3.8l4.9-0.2l3.6-1.6l1.5-2.4l-0.5-1.7l1.1-2.8l0-3.6l2.6-3.6l0.1-2.9l-1.5-5.1L868.7,337.1z M872.3,293.2
	l1.6,4.4l-0.1,5.9l-0.7,3.2l0.3,4.5l-0.3,4l0.5,3.4l1.8-3.1l2.1,2.4l0.1-2.8l-2.7-4.2l1.7-6.1l4.2,1.4l-2.8-7.7l-1.2-4.5l0.1-4.5
	l-1-4.5l-0.7-3.1l-1.2,0.7l1.1,2.2l-2.6,2.2L872.3,293.2z M838,471.2l-3.5,0.1l-0.7,1.5l1.9,0.1l1.6-0.2l2.3,0.2l2.4,1.1l-1-2.1
	L838,471.2z M647.7,391.2l-5.3-0.9l-3.1-0.7l-3.2-0.4l-1.2-3.8l-1.3-0.6l-2.2,0.6l-2.8,1.5l-3.4-1l-2.8-2.4l-2.7-0.9l-1.9-3
	l-2.1-4.3l-1.5,0.5l-1.8-1.1l-1,1.3l-1.7-0.1l0.6,1.4l-0.2,0.7l0.9,2.4l1.1,2.7l1.4,0.7l0.5,1.1l1.9,1.3l0.2,1.3l-0.3,1l0.4,1
	l0.8,0.9l0.4,1l0.4,0.8l-0.2-2.2l0.8-1.6l0.8-0.3l0.8,1l0,1.8l-0.6,1.8l0.5,1.2l0.5-0.1l0.1,0.8l2.2-0.5l2.3,0.1l1.7,0.1l1.9-2.1
	l2.1-2l1.8-1.9l0.8-1.1l0.3,0.3l-0.3,1.3l-0.4,0.6l0.4,2.4l1.3,2.1l1.6,1.1l2.1,0.4l1.7,0.5l1.3,1.7l0.8,1l1,0.4l0,0.7l-1,1.8
	l-0.5,0.8l-1.2,1l-1,2l-1.3-0.2l-0.6,0.7l-0.5,1.5l0.3,2l-0.3,0.4l-1.3,0l-1.8,1.1l-0.3,1.4l-0.7,0.6l-1.7,0l-1.1,0.7l0,1.2
	l-1.4,0.8l-1.5-0.3l-1.9,1l-1.3,0.2l-2,0.8l-0.5,1.3l-0.1,1l-2.8,1.2l-4.5,1.4l-2.5,2l-1.2,0.1l-0.8-0.2l-1.6,1.2l-1.8,0.5l-2.3,0.1
	l-0.7,0.2l-0.6,0.8l-0.7,0.2l-0.4,0.7l-1.4-0.1l-0.9,0.4l-1.9-0.1l-0.7-1.7l0.1-1.6l-0.5-0.9l-0.5-2.1l-0.8-1.2l0.6-0.1L595,419
	l0.3-0.6l-0.1-1.3l-0.4-1.2l-0.8-0.9l-0.2-1.2l-1.4-1l-1.5-2.5L590,408l-1.9-2l-1.2-0.5l-1.9-2.9l-0.3-2.1l0.1-1.8l-1.6-3.4
	l-1.3-1.2l-1.5-0.6l-0.9-1.8l0.2-0.7l-0.8-1.6l-0.8-0.7l-1.1-2.3l-1.7-2.5l-1.4-2.2l-1.4,0l0.4-1.7l0.1-1.1l0.3-1.3l-0.1-0.5
	l-1.8-5.5l0.8-1.1l-0.2-0.2l0.7-1.5l0.6-2.5l0.4-0.8l0.1,0l1-2.7l1.4-2.4l0.1-0.1l-0.3-2.6l0.7-1.4l0.8-0.8l0.8-0.8l0.2-1.9l0.9,0.7
	l3.1-1l1.5,0.6l2.3,0l3.2-1.3l1.5,0.1l3.2-0.5l1.2-0.5l3.3,0.5l1,0.9l1.3-0.6l-1.5-2.8l0.5-1.1l-0.9-4.1l1.9-1l0.4,1.4l1.4,1.7
	l1.9,0.5l1-0.1l3.3-2.7l1-0.3l0.8,1.1l-1,1.8l1.8,1.9l0.7-0.2l0.9,2.6l2.7,0.7l2,1.8l4,0.6l4.4-0.9l0.3-0.8l0.1,0L626,349l0.4-3.7
	l-2.2-1.2l0.7-2.5l-1.9-0.2l0.6-3.1l2.6,0.9l2.5-1.2l-2-2.2l-0.8-2.1l-2.3,1l-0.3,2.7l-0.9-2.4l-0.2-0.9l0.7-1.6l-0.5-1.3l-3.2-1.3
	l-1.3-3.5l-1.5-1l-0.1-1.3l2.7,0.4l0.1-2.9l2.4-0.6l2.5,0.6l0.5-3.9l-0.5-2.5l-2.8,0.2l-2.4-1l-3.2,1.8l-2.6,0.9l-1.4-0.7l0.3-2.1
	l-1.8-2.8l-2.1,0.1l-2.4-2.8l1.6-3.2l-0.8-0.9l2.2-4.8l2.9,2.5l0.3-3.2l5.8-4.9l4.4-0.1l6.2,3.1l3.3,1.8l3-1.9l4.4-0.1l3.6,2.3
	l0.8-1.3l3.9,0.2l0.7-2.1l-4.5-3.1l0.4-0.3l-0.3-0.1l-0.8-1.9l-1.9-0.7l-0.1-2.6l1.1-2.2l1.3-1.4l-0.7-1.8l-1.9-1.1l-1.8,1.1
	l-1.9,1.5l-1.8-2.3l-1.2-1.8l-1.3-2.4l3.1-0.4l2.6-0.6l1.7-2.7l-0.3-2.1l-2.1-1.8l0.6-2.4l2.2-2.7l1.8-3.5l1.8-5l1.3-8.8l1.9-20
	l5.2-4.1l4.8-5.4l3.9-3.1l3.8-3.9l2-4l-0.9-7.3l1.6,1.4l1.9-4l-2.8-4.1l-0.1-1.7L663,190l0.9-3.8l-1.5-6.5l-0.1-2.7l5.2-8l1.8-8.4
	l2.1-1.9l7.4,2.5l0.6,5.2l-2.7,7.3l1.7,2.8l0.9,5.9l-0.6,11.1l3.1,4.7l-1.2,5l-5.5,10.2l3.2,1l1.1-2.5l3.1-1.8l0.7-3.6l2.4-3.5
	l-1.6-4.3l1.3-5.1l-3.1-0.6l-0.7-4.4l2.2-8.3l-3.6-7l5-6l-0.7-6.6l1.4-0.2l1.5,5.2l-1.1,8.7l3,1.6l-1.3-6.4l4.7-3.6l5.8-0.5l5.2,5.2
	l-2.5-7.6l-0.3-10.3l4.9-2l6.7,0.4l6.1-1.3l-2.3-5.4l3.2-7l3.2-0.3l5.5-5.5l7.4-1.5l0.9-3.2l7.4-1.1l2.3,2.6l6.3-6.2l5.2,0.2
	l0.8-5.2l2.7-5.3l6.6-5.3l4.8,4.2l-3.8,3.1l6.3,1.9l0.8,6l2.6-2.9l8.2,0.2l6.3,5.8l2.2,4.4l-0.7,5.9l-3.1,3.2l-7.4,5.9l-2.1,3.1
	l3.5,1.4l4.2,2.6l2.5-1.9l1.4,6.4l1.2-2.6l4.5-1.6l9,1.6l0.7,4.6l11.7,1.4l0.2-7.5l6,1.7l4.5-0.1l4.5,5.1l1.3,6l-1.7,3.8l3.5,7
	l4.4,3.5l2.7-9.2l4.5,4l4.8-2.4l5.4,2.7l2.1-2.5l4.6,1.2l-2-8.4l3.7-4.1l25.3,6.1l2.4,5.4l7.3,6.6l11.3-1.6l5.6,1.4l2.3,3.5l-0.3,6
	l3.5,2.3l3.8-1.6l5-0.2l5.3,1.6l5.3-0.9l4.9,7l3.5-2.5l-2.3-5.1l1.2-3.6l9,2.3l5.8-0.5l8.1,3.8l3.9,3.4l6.9,5.9l7.3,7.3l-0.2,4.4
	l1.9,1.7l-0.7-5.1l7.6,1.1l5.7,6.6l-2.8,3l-4.6,0.7l-0.1,6.5l-1.1,1.4l-2.6-0.2l-2.1-2.3l-3.7-1.9l-0.6-2.9l-2.8-1.1l-3.2,0.9
	l-1.5-2.4l0.6-2.6l-3.4,1.6l1.3,3.2l-1.6,2.8l0,0l-3.6,2.9l-3.6-0.5l2.5,3.4l1.7,5.2l1.3,1.7l0.3,2.5l-0.7,1.6l-5.2-1.3l-7.8,4.5
	l-2.5,0.7l-4.3,4.1l-4.1,3.5l-1,2.6l-4-3.9l-7.3,4.4l-1.3-2.1l-2.7,2.4l-3.8-0.8l-0.9,3.6l-3.4,5.2l0.1,2.1l3.2,1.2l-0.4,7.5
	l-2.6,0.2l-1.2,4.1l1.2,2.1l-4.9,2.5l-1,5.4l-4.2,1.1l-0.8,4.7l-4,4.2l-1-3.1l-1.2-6.7l-1.6-10.6l1.3-7l2.4-3.1l0.2-2.4l4.4-1.2
	l5-6.8l4.8-5.7l5-4.6l2.2-8.4l-3.4,0.5l-1.7,4.9l-7.1,6.4l-2.3-7.1l-7.2,2l-7,9.6l2.3,3.4l-6.3,1.4l-4.3,0.6l0.2-3.9l-4.4-0.8
	l-3.5,2.7l-8.6-0.9l-9.2,1.6l-9.1,10.3l-10.8,11.8l4.4,0.6l1.4,3l2.7,1l1.8-2.4l3.1,0.3l4,5.2l0.1,3.9l-2.2,4.5l-0.2,5.3l-1.3,6.9
	l-4.2,6l-0.9,2.8l-3.8,4.7l-3.8,4.5l-1.8,2.3l-3.7,2.2l-1.8,0l-1.8-1.9l-3.8,2.8l-0.4,1.3l-1.1-0.2l-1.2,1.3l-0.8,1.3l0.1,2.7
	l-1.5,0.8l-0.5,0.6l-1.1,1.1l-1.9,0.6l-1.2,1l-0.1,1.6l-0.3,0.4l1.1,0.6l1.6,1.6l2.4,4.2l0.7,2.3l0,4l-1.1,1.9l-2.5,0.6l-2.2,1.4
	l-2.5,0.3l-0.3-1.9l0.5-2.6l-1.2-3.6l2.1-0.6l-1.9-3l-1.4-0.7l-0.3,0.7l-0.8,0.3l-0.1-0.7l-0.7-0.3l-0.8-0.6l0.8-1.6l0.7-0.4
	l-0.2-0.6l0.7-1.9l-0.2-0.6l-1.6-0.4l-1.3-1l-3.9,1.1l-2.1,1.7l-3,1l1.5-1.7l-0.6-1.4l2.2-2.5l-1.5-1.9l-2.4,1.3l-3.2,2.5l-1.7,2.3
	l-2.8,0.2l-1.4,1.7l1.5,2.4l2.3,0.6l0.1,1.6l2.2,1l3.1-2.5l2.5,1.4l1.8,0.1l0.5,1.8l-4,1l-1.3,1.9l-2.7,1.7l-1.4,2.4l3,1.9l1.1,3.3
	l1.7,3l1.9,2.5l0,2.4l-1.8,0.9l0.7,1.7l1.7,1l-0.4,2.6l-0.7,2.5l-1.6,0.3l-2,3.4l-2.3,4.1l-2.6,3.7l-3.9,2.8l-3.9,2.5l-3.2,0.4
	l-1.7,1.3l-1-1l-1.6,1.5l-3.9,1.5l-3,0.5l-1,3.1l-1.5,0.2l-0.7-2.2l0.7-1.2l-3.8-1l-1.3,0.5l-3.7,2.6l-2.3,2.8l-0.6,2l2.1,3.1
	l2.6,3.8l2.5,1.8l1.7,2.3l1.3,5.3l-0.4,5l-2.3,1.9l-3.2,1.8l-2.3,2.4l-3.5,2.6l-1-1.8l0.8-1.9l-2.1-1.6l-2.3-0.4l-1.1-1.5l-1.4-2.9
	l-2.5-1.3l-2.4,0l0.4-2.2l-2.5,0l-0.2,3.1l-1.5,4.1l-0.9,2.5l0.2,2l1.8,0.1l1.1,2.6l0.5,2.4l1.6,1.6l1.7,0.3l1.5,1.5l0.6,0.3
	l1.7,1.7l1.2,1.9l0.2,1.9l-0.3,1.3l0.3,1l0.2,1.6l1,0.8l1.1,2.5l0,0.9l-2,0.2l-2.7-2.1l-3.3-2.2l-0.3-1.4l-1.6-1.9l-0.4-2.3l-1-1.5
	l0.3-2l-0.6-1.2l-1.1-1.1l-0.5-1.4l-1.5-1.6l-1.4-1.3l-0.5,1.6l-0.5-1.6l0.3-1.8l0.8-2.7l-0.3-2.1l0.9-2.2l-0.9-1.7l0.2-3.1
	l-1.1-1.5l-0.9-3.4l-0.5-3.6l-1.2-2.4l-1.8,1.5l-3.2,2.1l-1.6-0.3l-1.7-0.7l1-3.6l-0.6-2.7l-2.2-3.4l0.3-1.1l-1.6-0.4l-2-2.4
	l-0.8-1.6l-0.2-1.5l-0.5-1.5l-1.2-1.8l-2.6-0.1l0.2,1.2l-0.9,1.7l-1.2-0.6l-0.4,0.5l-0.8-0.3l-1.1-0.3l-0.4,1.1l-1.9,0l-3.5,0.6
	l0.2,2.2l-1.5,1.8l-4,2l-3.1,3.5l-2.1,1.9l-2.8,1.9v1.3l-1.4,0.7l-2.5,1l-1.3,0.1l-0.8,2.2l0.6,3.7l0.2,2.4l-1.2,2.7l0,4.8l-1.5,0.1
	l-1.3,2.2l0.8,0.9l-2.6,0.8l-0.9,1.9l-1.1,0.8l-2.7-2.6l-1.3-4l-1.1-2.9l-1-1.4l-1.5-2.7l-0.7-3.6l-0.5-1.8l-2.5-4l-1.2-5.6
	l-0.8-3.8l0-3.6l-0.5-2.8l-4.1,1.8l-2-0.4l-3.7-3.6l1.3-1.1l-0.8-1.2l-3.3-2.6l-2-0.8l-0.8-2.2l-2.2-2.3l-5.2,0.6l-4.6,0.1
	L647.7,391.2L647.7,391.2z M880.7,326.6l-2-0.8l-2.2-1.3l-3.3-4.1l-0.8,3.1l-0.8,5.4l-3,0.2l-1.4,2.9l0.4,3.7l3.1-0.1l1.5-4.1
	l4.4,2.6l2.5-3.8l4.2-1l-0.6-4.4L880.7,326.6z M870.6,470.6l-3-0.5l-2.1-1l-2.4-1h-2.5l-3.2,1.7l-2.3,3l-2.9-1.7l-0.8-4.5l-0.4-1
	l-4.5-1.1l-1.4,0.9l-3.8,0.7l1.2,1.4l2.5,0.5l1.1,1.7l4.1,0l0.2,0.7l-2,0l-3,1l2.1,1.4l0,1.2l0.6,1l1.1-0.2l0.8-1.4l4.2,2.6l2.3,0.2
	l5.4,2.4l1.3,2.4l0.7,3l-1.8,0.8l-1.2,2.3l3.5-0.1l0.7-0.8l2.8,0.6l2.5,2.3l0-9.2L870.6,470.6z M811.5,419.9l0.4,1.3l1.4,1.6l0.4-1
	l0.8,0.7l-0.9,0.7l-0.1,1.2l1.4,0.6l2.5-0.4l1.8,1.7l0.7-1l1,1.5l2.2,1.4l0.3-1.3l-0.9-0.7l0.3-1.6l-3.5-1.6l-1.2,0.3l-1.5-0.3
	l-0.6-2.3l0.4-2.3l1.7-1l0.7-2.4l-1-2.1l0.5-1.2L818,411l-0.9,0.8l-1.7-0.8h-1.7l-0.9,2.7l-0.3,4.5l-1.1-1L811.5,419.9z M849,364.9
	l1.4-0.8l1.2,1.1l1.6-2l-0.4-1.1l-2.1-0.7l-1.2,1.4l-1.6-0.4l-1.5,2l0,1.6l1.8,1L849,364.9z M851.8,479.5l-0.5,1l0.3,2.1l1.4-1.9
	l0-1.3l-0.6-0.8L851.8,479.5z M769.9,98.3l0.8-5.7l-7.1-8.3l-2.1-1l-2.3,1.7l-5.1,18.6L769.9,98.3z M736.9,82.1l4.7,5.7l7.8,4.2
	l6.1-1.8l0.7-13.6l-6.5-16l-5.5-9l-6.1,4.1l-7.3,11.8l3.8,3.3L736.9,82.1z M701.9,437.5l-1.9-1.6l-1.3,4.6l0.5,4l1.3,2.2l2.4-0.6
	l1.2-0.8l0.4-2.9l-1.4-2.9L701.9,437.5z M870.1,151.6l-2.7,3.9l0.5,0.5l5.8,1.1l4.2-0.1l-0.3-2.6l-4-3.8L870.1,151.6z M869.5,140.3
	l10.3,0.3l2.2-8.1l-10.1-6.1l-7.4-0.5l-3.7,2.2l-1.5,7.8l5.5,7L869.5,140.3z M980,178.6l3.7-0.5l2.9-2.1l0.2-1.2l-4.1-2.5l-2.4,0
	l-0.4,0.4l-3.6,3.6l0.5,2.7L980,178.6z M894.6,142l3.2-4.2l-7-2.9l-5.2-1.7l-0.7,3.6l5.2,4.3L894.6,142z M772.1,475.4l0.7-3.5
	l-1.4-1.8l-2.1-0.2l-1-1.6l-0.5-1.9l-1-0.1l-1.6-1l1.1-2.3l-2.1-1.3l-1.6-2.3l-2.4-1.9l-2.8,0l-2.7-3l-1.5-1.2l-2.2-1.9l-2.5-2.7
	l-4.3-0.5l-1.8-0.1l0.2,1.4l2.9,3.1l2.1,1.6l1.5,2.4l2.5,1.8l1,2.2l0.8,2.4l2.5,2.3l2.1,3.9l1.4,2.1l2.1,2.3l1.2,1.7l3.6,2.3
	l2.4,2.3l3.1-0.1L772.1,475.4z M808.6,486.5l-1.7,0.2l-1-0.8l-0.8,1l-1.5,0l-1,1.6l1.5,0l1.9-0.4l3.2-0.6L808.6,486.5z M811.4,489.6
	l-2.6,0.6l3.7,2l1.2,0l0.2-0.8l-1-0.9L811.4,489.6z M809,435.4l1.8-1.6l-0.5-2.3l-1.5,2.8l-1.7,2l-2,1.7l-1.4,2l3.7-2.7L809,435.4z
	 M814.3,467.3l-2.5-2.5l0.4-2.1l2.5-0.4l4.7-0.1l2.7,0.5l2.1-0.5l2.2-2.8l-0.5-0.6l-2.8,2l-3.2,0.1l-3.5-0.4l-2.2-0.8l-2.4,2.1
	l-0.6,1.1l-1.4,4.2l-0.4,2.2l-1.2,1.8l0.9,1.9l1.2,0l0.4,2.7l-0.8,2.6l1.2,0.8l1.8-0.4l-0.1-4l-0.2-3.2l1.9-0.9l-0.2,2.7l2,1.6
	l-0.4,1.1l0.7,0.8l2.8-1.1l-1.4,2.3l1.1,1l1.5-0.8l0-1.8l-2.5-3.2l0.5-1l-2.7-3.6l2.5-1.1l1.2-1.6l1.2,0.4l0.2-1.3l-5.2,1
	L814.3,467.3z M815.5,487.2l-1.8-0.8l-2.2,0.6l0,1l3.7,0.4l4.2-0.8l0.4-1.6l-2.5,1L815.5,487.2z M804.6,463.1l0.9-1.9l3.3-0.3
	l-3.1-2.6l0.5-1.3l-2.1-2.6l1.6-2.5l2.1-1l-0.5-1.4l1.9-0.1l0.2-1.1l-2.3-0.8l-1.8-0.8l-0.1-1.2l-1.4-1.4l-1.1,0l-1.4,2.2l-2.2,2
	l-2.4,1.5l-1.1,1l-1.4,1.8l-2,2.2l-3.4,0.6l-1.2,0.5l-0.6,2.4l-2.2,0.5l-2-1l-1.7,1.9l-0.3,2.6l0.4,2.4l1.3,2.4l1.4,0.8l0.4,3.7
	l2.3,0.3l1.8-0.1l1,1.4l3.3-1l1.4,0.9l2,0.2l1.1,1.7l3.2-1.3l0.4,1l1.1-4.3l0.1-2.8l2.7-1.9L804.6,463.1z M785.3,408.7l1.2-1.3
	l-0.6-1.1l-1.6-0.1l-3.1,0.8l-1.4,1.3l0.1,2.5l2.3,0.9l2.4-1.4L785.3,408.7z M792,484.6l-1-1.8l-5.2-1.4l-0.6,1.2l-5.4-0.3l-0.4-1
	l-1.2-0.2L776,480l-3.4-0.2l-1.9,2.7l2.6,0.2l0.5,1.2l5.1,1.2l1.2-0.4l2.1,0.3l3.2,1.1l2.6,0.5l2.9,0.2l2.5-0.1l3.1,1.1l3.2-1.1
	l-3.4-1.7L792,484.6z"/>
<path id="europe" fill="#CCCCCC" stroke="#FFFFFF" stroke-width="0.5" d="M533.4,106.8l1.9-3.4l-1.7-4.3l5.8-2.8l1.1,5.2l4,3
	l-6.3,5.4L533.4,106.8z M531,75.6l0.5,4.3l8.3,2.6l8.1-1.8l4.2-8.5l-5.5-5.8l-7.1-4.3l-2.8,5.1l-4.1-4.1l-8.7,4.7l3.1,7.5L531,75.6z
	 M512.2,102.2l4.2,3.9l-2.5,4.6l6,7.6l3.4-0.5l1.3-10.5l2.5-2.5l1.6-10.1l7.1-5.7l-9.2-11.3l-3.5-5.6l-4.1,0.6l-1.1,5.4l-4,0.2
	l-1.5-5.6l-7.6,5.7l2.2,11.8L512.2,102.2z M434.6,212.4l-4.6-0.5l-4.6,3.7l-3.5-2l-4.3,3.8l-4.4-4.7l-4.2,1l-1.9,4.5l5.9,1.6l0.1,2
	l-5,1.3l6.1,3.2l-2.8,2.8l7.8,2l3.7,0.9l2.4-1.1l8.1-4.4l3.6-5l-3.2-4.6L434.6,212.4z M459.6,277.3l1.5-2.3l0.9,1.4l-1,2.2l0.7,1.3
	l3.4,0.9l0,0.1l1.9,3l-0.4,2.7l0,0l-4.2-0.4l-0.5,3.1l1.5,2.5l-2.9,1.4l0.8,1.8l4.4,0.8h0l-2.5,1l-4.1,4.6l1.5,0.9l2-1.7l2.6,0.5
	l1.9-2.1l1.3,0.9l4.8-1.2l3.8,0l2.5-2.3l-1.1-2.3l1.4-1.3l0.3-2.9l-3.4-0.9l-0.8-1.8l-1.7-5.4l-1.9-0.8l-2.5-5.8l-0.2-0.5l-2.9-0.3
	l2.5-4.5l0.7-4.2l-3.1,0l-2.9,0.7l3-5.7l-3.4,0.5l-2.2-0.4l-2.2,4.3l-1,5.4l1.4,2.6L459.6,277.3z M605.6,69l3,3.9l3.3-2.7l0.4-2.7
	l2.5-1.3l3.8-2.2l1.1-2.6l-4.2-3.8l-2.6,2.9l-1.6,4.1l-0.6-4.7l-4.3,0.2l-5.5,3.1l6.2,0.5L605.6,69z M622.4,166.3l-2.9,2l0.4,4.8
	l5.1,2.4l0.7,3.8l9.2,1.1l1.7-0.7l-5.4-7.1l-0.6-7.5l4.4-9.1l4.2-9.8l8.7-10.2l8.6-5.3l9.9-5.7l1.9-3.7l-2-4.8l-5.5,1.6l-4.8,4.5
	l-9.3,2.2l-9.3,7.4l-6.3,5.9l0.8,4.9l-6.7,9l2.6,1.2l-5.6,8.3L622.4,166.3z M516.6,348.2l-2.9,0.4l-3.3-0.3l-0.4,1.8l3.9,1.8
	l1.4,0.4l2.1,1.3l0.6-1.8l-0.4-1.1l1-2.8L516.6,348.2z M569.7,357.9l-2,0l-0.4,0.8l-0.2,0l-1.3,0.1l0.7,1.4l1.4,0.4l2.9-1.4
	l-0.1-0.3l-0.2-0.6l1.9-1.5L569.7,357.9z M547.5,357.9l-2.1-0.2l-2.2,0.2l-1.5-1.2l-0.5,1.5l3.4,0.7l0,0.6l4-0.3l0.3-1l-1.5,0.4
	L547.5,357.9z M451.2,294.5l5-2.7l2.1-4.1l-0.5-3.4l1.5-3.3l-3-3l-2.4,0.2l-2.1,2.3l-3.8,3.8l1.5,4.8l-2.3,4.8L451.2,294.5z
	 M657.2,191.8l-3.9-2.5l-8.3-2.4l-1.5,2.7l2.9,4.6l-3.2,5.1l-3.2-4.6l-4.2,3.2l-5.2,0.2l-2,2.6l-3.5-0.8l2.8-4.6l-2.1-0.4l-9.8,6.5
	l-5.9,3.5l-0.7,4.6l-4.3,1.5l-2.2-2.4l0-4l3.5-0.9l-1.6-4.2l-7.8-2.4l2.1,4.7l-1.4,4.4l2.3,4.3l-1.6,4.8l-2.6-2.4l-2.6-0.4l-6.5,6.7
	l1.9,4.9l-2.4,1.6l-6.8-4.1l-1.8,2.5l1.7,2.8l-0.4,3.1l-2.2-1.7l-3.6-2l-0.2-6.8l-0.2-3.1l-4.6-5.1l2.1-0.9l12.5,5.3l4.6-1.9
	l3.1-3.7l-0.2-4.8l-2.2-3.5l-10.6-8.6l-7.7-1.9l-4.6-4.9l-2.9,2.8l-3.1-5.1l3.6-2.2l-8.8-6.2l-5,1.7l-5.1-0.4l-4.3,7l-4.6-0.4
	l-6.2,3.6l-7.7,9.9l-4.7,5.7l-6.7,13.8l-5.1,9.3l-5.5,6.6l-7.4,5.2l-2.6,3.9l0.9,13.3l1,5.9l3.9,2.7l3.7-1.2l5.5-6.3l1.9,3.3
	l2.1,7.5l2.4,5.8l0.9,4.7l3.2-0.2l1.6-4l3.4,0.5l1.6-4.8l1.1-8.8l2.9-1.3l2.6-6.2l-2.7-3.1l-2-4.1l2-8.4l5.4-5.3l4.5-5.1l-0.4-4
	l2.7-4.7l4.8-1.9l3.9,3.2l0.3,2.8l-1.9,1.4l-6.4,7l-2.5,3.9l-1.3,3.6l1.4,5.4l-0.6,5.7l2.7,1.9l1.6,3.1l4.6-1.2l4.9-2.1l5.1-0.4
	l2.9,2.7l-3.2,3.1l-2.9,0.2l-3-0.9l-3.5,0.8l-3.5,1.5l0.2,3.1l1.8,1.9l1-0.7l-0.3,3.1l-0.5,4l-2.2,0.1l-2.2-3.9l-2.6,1.8l-1.4,3.2
	l-0.1,3.8l0.6,4.2l-3.9,1.6l-0.6,2.1l-2.7-0.1l-0.2-1.2l-2.8-0.8l-3.5,1.6l-4.4,2.2l-1.9,1.4l-1.3-1.5l-3.2-1.9l-1.6,1.3l-2.9,0.9
	l0-1.7l-2.8-1.1l0-1.9l-0.8-2.4l2-3.6l0.8,0.5l0.7-1.9l-1.5-0.8l-0.3-1.4l0.8-1.7l0.1-2.7l-2.3,1.5l-1,1.4l-2.5,0.3l-0.8,1.5
	l-0.5,1.4l0.1,5.1l1.1,2.7l0.1,2.7l0.6,1.8l-1.9,2.3l-0.5-1l-2.3,0.3l-0.5,1l-2.3-0.1l-3.8,2l-2.5,6.7l-1.4,1.2l-2.2,0.9l-2.5,0.9
	l-0.8,3.6l-6.5,3.4l-2.6-1.9l0.9,4.8l-4.7-1.1l-3.6,0.9l0.3,3.1l4.3,1.6l2.1,2.1l2.9,4.3l-0.5,7.9l-1.5,2.3l-4.5-0.1l-2.3,0.2
	l-3-0.7l-3.8,0l-3.4-0.7l-4,2.8l1.1,1.6l-0.1,2.7l0.1,1.3l0.6,1.3l0.1,1.6l-0.6,2.2l-0.2,1.5l-1.1,1.3l-0.2,2.4l0.7,1.4l1.2,0.3
	l0.3,2.2l-0.4,2.8l1.5-0.4l1.5,0.5l1.1-0.9l2.6,0.5l0.8,2l1,1.2l1.4,0.3l1.1-1.3l1.8-1.2l2.7,0.1l3.6,0l2-2.7l2.1-0.7l0.6-2.3
	l1.6-1.6l-1.1-2l1.1-3l1.7-2l0.2-1.2l3.6-0.8l2.7-2.5l-0.1-2.2l0.3-2.3l4.1-1.2l5.5,1l2.5-2.2l1.2-0.3l1.6-1.8l1.3-0.5l2.3,1.3
	l1.4,0.5l0.9,3.8l1.9,2.2l2.6,2.5l2.2,1.7l2.1,0.2l1.2,1.5l1.8,0.7l0.8,1.6l1.2,0.5l0.9,1.8l1.1,2.1l-0.6,0.8l-0.6,1.9l0,1.1
	l1.2-0.3l1.5-3.1l1.2-0.2l0.3-1.9l-2-1.3l1.2-2.4l2.4,0.6l1.6,1.7l0.5-1.3l-0.3-0.7l-2.4-1.9l-2.1-1.1l-2.5-1.4l0.8-0.7l-0.7-0.8
	l-2.2,0l-3.1-3l-1.4-3.2l-2.6-2l-0.9-2l0.3-1.1l-0.2-2l2.3-1.4l2.2,0.6l-0.6,0.4l-0.1,0.1l-0.1,1.4l0.8,1.3l0.9-1.7l1.8,0.6l0,1.3
	l1.3,1.6l-0.6,0.3l2.4,2.9l2.6,1.1l1.6,1.4l2.6,1.4l0,0l1.2,0.8l0.8,1.2l0.6,0.3l0.5,0.6l-0.4,1.2l-0.2,2.5l0.2,1.8l1.5,1.2l0.1,0.8
	l0.5,0.2l0.2,1l1.4,2l1.1,1.6l0.5,2.4l1,2.8l2.3,1.5l1.9,0l-1.1-3.1l1.8-0.4l-0.8-1.8l2.6,0.9l0-2l-1.4-1l-1.6-1.6l1.1-0.8l-1.4-1.7
	l-0.6-2.2l0.5-0.8l1.5,1.9h1.6l1.4-0.6l-1.9-2.1l3.4-1l1.5,0.4l1.7,0.1l0,0.8l0.9,1.7l2.3-2l1.2-1.1l3.3-0.2l0.5-0.9l-2.5-1.2
	l-0.3-1.4l-0.9-2.1l1-2.7l1.5-1.6l0.8-4.7l0.8,0.4l1.4-0.9l-0.1-1l2.2-3l1-2.2l2.6-0.5l0.2,1.5l4.4,1l0.8,0.9l-2.7,1.3l-0.5,0.8
	l3.1,1.2l-0.6,1.9l1.6,0.8l3.8-2.3l3.1-0.7l0.5-1.4l-2.9,0.2l-1.4-1l-0.2-2.5l2.4-1.5l2.6-0.2l1.9-1.3l2.2-0.3l2.5-0.7l0.1,0.9
	l-4.1,1.7l1.6,1.6l-2.3,3.4l-2,0.6l2.4,2.3l3.2,1.5l3.6,3.3l1,1.2l1.5,0.4l1.6,1.4l0.7,2.6l-0.4,1.6l-3.3,1.9l-2.4-0.3l-3.3,0.6
	l-4-1.4l-4.9-2.6l-4.6,0.1L566,335l-3.4,2.4l-5.3-0.5l-1.2,2.8l-4.3,0.1l-3.1,3.5l1.8,1.7l-1.4,2.8l2,2l1.7,3.5l3.1-0.1l2.7,1.9
	l1.9-0.4l0.7-1.4l3,0.1l2.3,1.9l4.3-0.4l1.9-2l2.3,0.8l1.7-0.3l-1.1,1.3l1,1.6l0.8-0.8l0.8-0.8l0.2-1.9l0.9,0.7l3.1-1l1.5,0.7l2.3,0
	l3.2-1.3l1.5,0.1l3.2-0.5l1.2-0.5l3.3,0.5l1,0.9l1.3-0.6l-1.5-2.8l0.5-1.1l-0.9-4.1l1.9-1l0.4,1.4l1.4,1.7l1.9,0.5l1-0.1l3.3-2.7
	l1-0.3l0.8,1.1l-1,1.8l1.8,1.9l0.7-0.2l-0.1-1.8l1-0.8l0.5-1.3l0.5-2.8l2.3-0.3l-0.9-1l-1.3-0.2l-1.4-2.6l-1.5-2l-3.1-4.5l0.3-2.6
	l-2.5-3.7l2.8-4.1l2.7-0.7l1.3-2.4l-1.4-0.7l0.3-2.1l-1.8-2.8l-2.1,0.1l-2.4-2.8l1.6-3.2l-0.8-0.9l2.2-4.8l2.9,2.5l0.3-3.2l5.8-4.9
	l4.4-0.1l6.2,3.1l3.3,1.8l3-1.9l4.5-0.1l3.6,2.3l0.8-1.3l3.9,0.2l0.7-2.1l-4.5-3.1l0.4-0.3l-0.3-0.1l-0.8-1.9l-1.9-0.7l-0.1-2.6
	l1.1-2.2l1.3-1.4l-0.7-1.8l-1.9-1.1l-1.8,1.1l-1.9,1.5l-1.8-2.3l-1.2-1.8l-1.3-2.4l3.1-0.4l2.6-0.6l1.7-2.7l-0.3-2.1l-2.1-1.8
	l0.6-2.4l2.2-2.7l1.8-3.5l1.8-5l1.3-8.8l1.9-20l5.2-4.1l4.8-5.4l3.9-3.1l3.8-3.9l2-4l-0.9-7.3L657.2,191.8z M499.7,338.2l-1.5-0.2
	l0.6,2.1l0.1,4.4l1.1,1l1.1-1.2l1.3,0.2l0.4-4.8l-1.7-2.6L499.7,338.2z M501.1,336.4l0.9-2.9l-0.5-3.2l-1.8,1.5l-0.6,1.4l0.6,2.5
	L501.1,336.4z M509.1,279.8l1.7-4l-0.9-2.5l-4.1,1.7l0.4,2L509.1,279.8z"/>
<path id="australia" fill="#CCCCCC" stroke="#FFFFFF" stroke-width="0.5" d="M944.1,508.2l1.8,1.7l-0.9,0.4L944,509L944.1,508.2z
	 M942.9,507.6l0.6-0.2l0.8,0.4l-0.5-2.3l-1.3-0.9l0.1,2.2L942.9,507.6z M670.3,620.4l-1.8-1.3l-0.2,0.9l-0.4,1.8l0.1,2.3l4.3-0.3
	l0.8-2l-0.1-0.8L670.3,620.4z M924.9,489.7l-1.8-0.4l-0.2,1.1l0.6,0.4l1.7,0.3l1.1-0.1l-0.5-0.7L924.9,489.7z M914.2,481.8l-0.1,0.5
	l1.2,1.1l1.2,0.6l0.6-0.2l-1.1-0.9L914.2,481.8z M923.5,486.7l-0.7-0.9l-2.3-1.3l-1.3-0.7l-0.4,0.3l1,0.9l1.5,1l2.2,1.2L923.5,486.7
	z M929.2,492.6l-1.7-0.7l1.1,1.7l2,0l-0.8-1L929.2,492.6z M928.2,490.8l0.4-0.5l-1.1-1.4l-1-2.2h-1l0.6,1.7L928.2,490.8z
	 M870.7,488.9l2.9,0.1l1.6,0.5l2.2-1l-0.4-2.1l1.7-0.9l2.4-0.8l3.7,1.2l1.5,2.5l1.6,1.5l2.2,1.8l2.8,0.4l2.4,0.3l0.7,0.7l1.9-0.2
	l0.3-0.8l-3-1.2l0.8-0.5l-2.2-0.5l0.1-1.2l-1.6,0.1l-1.8-3L888,484l-0.6-1.9l2.6-0.3l-0.7-1.5l-4.7-1.7l-0.4-1.6l-1.6-1.4l-1.9-1.4
	l-5.2-1.6l-4.9-1.9l0,9.1L870.7,488.9z M895,481h1.5l1.4-0.7l1.5-0.7l0.4-0.8l1.5-0.2l0.9-1.7l0.1-1.5l-0.6-0.5l-1.7,0l0.3,1.6
	l-1.6,1l-0.8,1l-1.6,0.2l-0.3-1.5l-0.4,0.1l-0.4,1.3l-1.5,0.2l-2.5-0.4l-0.2,0.9l1.6,0.8L895,481z M901.3,473l1.3,0.9l0.7,1.1
	l0.5,1.6l0.9-0.7l-0.3-1.5l-1.1-0.9l-1.1-1.2l-1.2-0.7l-1-0.6l-1.5-0.8l-0.8,0.7l2,0.8L901.3,473z M910,478.9l-0.8-0.6l-0.3-0.8
	l-0.4,0.3l0.6,2.1l1.2,1.8l1.2,1.1l0.8-0.3l0.4-0.8l-1.3-1L910,478.9z M963,588.7l-2,1.5l-0.6-1.5l-0.6-1.6l-2,1.7l-0.4,2.1l-1.1,1
	l-1.2,2.8l-1.7,2l-2.4,2l-2,1.5l-1.8,0.7l-3.5,3.9l-1.5,3l0.5,1.5l3,0.3l1.8,1.3l2.6,0.1l1.4-1.2l2.2-1.8l1.6-4l0.8-2.6l2.4-1.5
	l2.2,0l-1-1.9l1.4-1.5l1.8-2.8l1-1.7v-1.6L963,588.7z M972.8,577.9l-1.9-0.3l-2.3-1.2l-0.4-2.7l-1.3-1l-0.1,2.4l-2-3.7l-0.8-3.1
	l-2.2-0.9l-1.5-1.9l-1,0.3l1.2,2.4l2.2,3l1.3,1.4l-0.1,0.6l1.1,2.3l0.1,2.3l-0.5,2.7l-2,1.2l-0.1,1.3l3,1.5l0.9,2l-1.6,3l1.2,0.5
	l0.5,1l2.2-1.5l1.4-2.5l1.1-2l0.4-0.7l-0.3-1.6l0.8-1.1l2.1,0.1l0.8-2.1l0.7-3.2l-1.4-0.4L972.8,577.9z M943.8,526.7l-1.5-1.4
	l-2.3-1.9l-0.9-0.8l-1.2-1l-1.6-1l-1.2,0l0.4,1l1.9,2.1l1.8,1.6l2,1.3l1.5,0.8L943.8,526.7z M980,508.7l-1.6,0.9l-0.9,0.2l-1.4,0.6
	l0.4,1.1l1.8-0.6l1.8-0.7l0.2-0.2l0.3-1.4L980,508.7z M974.7,512.9l-1.3-0.4l-1.1,1l0.3,1.3l1.5,0.4l1.7-0.4l0.5-1.5l-1-0.8
	L974.7,512.9z M889.3,588.2l-2.2,0.7l-1.5,0.5l-2.7-1.3l-1.8-0.3l-0.1,1.7l1.6,3.2l0.4,2.5l1.7,3.3l1.7,0.1l0.6,0.2l2-2.7l1,1
	l0.3-3.1l1-1.3l-0.2-4.4L889.3,588.2z M904.7,540.5l-0.1-1.8l-0.8-2.5l-2.2-2.5l-1.3-1.2l-2-1.9l-0.5-3.2l-0.7,0.5l-1.1-1.3
	l-1.1,0.7l-1.1-3.2l-1.6-1.9l0.4-0.7l-1.9-1.3l-2-1.4l-3-1.5l-0.9-2l0.3-1.5l-0.8-2.5l-0.7-0.4l-0.4-1.5l-0.6-2.5l0.3-1.3l-1.3-1.1
	l-0.9-1.2l-1.8,1.1l-1-2.2l0.1-1l-0.2-1.6l-1-1.5l-0.1-1.2l-0.7-0.3l-0.2-1.8l-0.8-1.4l-1,1.1l-0.1,0.8l-0.5,1.6l-0.7,1.5l0.4,1
	l-0.5,0.6l-0.4,2.2l0.3,1.6l-0.2,0.8l0.4,1.4l-0.8,2.3l-0.3,1.6l-0.6,1.3l-0.5,1.6l-1.8,1l-2.7-1l-0.4-0.9l-1.5-0.8H863l-2-1.7
	l-1.4-1l-2.2-0.9l-2.2-1.6l-0.2-0.8l1-1.4l0.8-1.4l-0.3-1.1l1-0.1l1.1-1.2l0.8-1.5l-1.3-1.4l-0.7,0.5l-1-0.2l-1.6,0.8l-1.7-0.9
	l-0.8,0.3l-2.4-0.7l-1.5-1.2l-1.9-0.7l-1.5,0.4l2,0.9l0,1.5l-2.4,0.5l-1.4-0.3l-1.7,1l-1.2,1.6l0.4,0.7l-1.3,0.8l-1.3,2.3l0.6,1.6
	l-1.8-0.3l-1.8,0l-1.6-1.7l-2.1-1.3l-1.4,0.4l-1.2,0.4l0,0.7l-1.2-0.3l0,0.8l-1.4,0.5l-0.7,1.1l-1.5,1.4l-0.3,2.2l-1.2-0.6l-0.9,1.4
	l1,1.4l-1.2,0.6l-1.2-2.5l-2,2.5l-0.1,1.6l-0.1,1.2l-1.6,1.5l-0.7,1.6l-1.5,1.3l-3,0.9l-1.5-0.1l-0.7,0.3l-0.4,0.7l-1.7,0.3
	l-2.2,1.1l-0.8-0.4l-1.3,0.2l-2.1,1.1l-1.4,1.3l-2.3,1l-1.2,2.1l-0.2-2.3l-1.2,2.2l0.3,1.8l-0.4,1.5l-0.6,0.8l-0.3,1.8l0.7,0.9
	l0.3,1l1.4,2.4l0,1.6l-0.8-1.2l-1.4-0.9l1,2.9l-1.2-1.3l0.4,1.3l1.6,2.5l0.3,2.5l1.2,1.3l0.1,0.9l1.1,2.1l-0.1,1.8l0.5,1.8l1.5,3.3
	l0.3,2l-0.3,2.3l0.1,1.2l-0.5,0.8l-1.4,0.5l-0.1,1.9l1.5,0.6l3,2.2h1.9l2,0.1l1.3-1.1l1.4-1l0.8,0.2l1.7-1.8l1.9-0.2l2-0.4l2.5,0.6
	l1.8-0.3l2.4-0.1l1-1.4l0.5-1.8l2.4-0.8l3-1.7l2.7,0.2l3.2-1.1l3.6-1.2l5-0.3l2.7,1.6l2,0.1l3.6,2l-0.5,0.8l1.5,1.2l1.8,2.4
	l-0.1,1.8l2.2,1.4l1.1-2.7l1.8-1.2l2.3-2.8l0.2,2.5l-1.1,1.7l-0.4,2l-1.5,1.9l2.5-0.6l1.4-2.3l0.7,2.5l-0.9,1.7l2.7,0.4l1.4,1.4
	l0.7,1.8l0.5,2.7l1.8,2.2l2.7,1l1.6,0.2l1.6,0.6l2.4,1l2.5-2.6l1.5-0.7l-0.4,1.8l1.7,0.6l2.3,1.6l1.7-1.5l1.3-1.4l2.6-1.5l3.1-0.1
	l1.6-1.2l-0.1-1.1l0.4-2.4l0.7-2.6l1.1-1.7l0.8-2.9l0.9-1.7l1-2.6l2.1-1.6l1.2-3l0.5-2.3l-0.1-1.9l0.8-2.9l0.5-1.5l0.2-2.8l-1.3-2.7
	L904.7,540.5z"/>
<path id="africa" fill="#CCCCCC" stroke="#FFFFFF" stroke-width="0.5" d="M618.6,430.4l-0.1-0.8l-1.1,0l-1.3,1l-1.5,0.3l-1.3,0.4
	l-0.9,0.1l-1.6,0.1l-1,0.5l-1.4,0.2l-2.5,0.9l-3,0.3l-2.6,0.7l-1.4,0l-1.3-1.2l-0.5-1.2l-0.9-0.5l-1.2-0.8l1.6-0.7l0.1-1.2l-0.7-0.9
	l-1.4-0.9l-0.9-1l-1.5-1.6l-1.6-1.6l-3.8-2.7l-1.5-1.4l-0.8-2.7l-1.6-3.4l-1.5-1.1l-1.1-0.7l-1-3.5l-0.4-3.1l0.6-0.5l-0.9-2.9
	l-0.5-0.6l-3.3-2.7l-0.1-2l0.6-0.5l-2.5-3.4l-0.9-1.7l-1-1.7l-2.1-4.9l-1.7-3.2l-1.2-3.4l0.3-0.3l2,4.6l1.3,1.4l0.9,1l0.7-0.5
	l0.8-1.6l0.6-2.4l0.8-1.3l-1.8-5.6l-1.4,0.8l-2.2-0.2l-2.2-0.8l-0.7,1.1l-0.8-1.6l-2-0.4l-2.5,0.3l-1.2,0.9l-2.2,1l-1.3-0.5l-2.8-1
	l-2.7-0.9l-3.7,0l-0.7-1.1l-2.8-0.4l-0.9-0.6l-1,0l-1-1.5l-3.8-0.7l-1.9,0.5l-2,1.5l-0.9,1.6l0.7,2.5l-1.3,1.5l-1.4,0.8l-3-1.6
	l-4-1.4l-2.5-0.6l-1.3-2.9l-3.7-1.5l-2.3-0.5l-1.2,0.3l-3.3-1.1l-1.1-0.5l-0.7-1.6l-1.5-0.1l-0.5-1.8l1.9-1.7l0.4-3l-1-0.9l0-1.6
	l1.4-1.7l-0.2-0.7l-2.4,1.3l0.1-1.8l-2-0.4l-3,1.4l-1.9,0.2l-1.1-0.8l-3,0l-2.6,1.4l-1.4-0.5l-4.6,0.3l-4.8,0.6l-2.7,1.1l-1.8,1.4
	l-3,0.6l-2.7,1.9l-1.2,0l-2.9-0.8l-2.7,0.2l-1.7-1.5l-2.1,0l-0.9,2.1l-1.9,3.5l-2.1,1.4l-2.8,1.5l-1.8,2.2l-0.4,1.7l-1.1,2.8l0.7,4
	l-2.3,2.7l-1.4,0.9l-2.2,2.2l-2.6,0.4l-1.4,1.2l0,0l-1.8,3.2l-1.9,1.1l-1,1.9l-0.1,1.6l-0.7,1.8l-0.9,0.5l-1.6,1.9l-1,2.1l0.2,1
	l-0.9,1.6l-1.1,0.8l-0.1,1.4l-0.1,1.3l1.5,1.3l0.7,1.4l-0.3,1.5l0.3,1.5l0.3,2.9l-0.4,2.8l-0.8,1.4l0.2,1.6l-0.7,1.5l-1.4,2
	l-1.2,0.5l1.4,1l1.2,2.2l-0.4,1.3l0.5,2.2l0.2,0.6l0.9,0.6l0,0.4l0.6,0.8l1.2,0.2l1.5,1.2l0.8,0.5l0.4,0.6l0.3,1.2l0.7,0.6l0.7,0.4
	l1.1,1.1l1.2,1.7l0.3,2.1l0.5,1l1.5,1.5l2,1.1l0.8,0.2l1.9,1.8l2.4,1.5l2.5,2.1l2.9,1.3l0.7,0l0.5,0.1l2.8-1l2-0.8l3.3-0.5l1.8,0
	l2,0.5l1.3,0l2.5,0.8l2.5-0.8l1.6-1l4.4-1.6l2.3-0.6l2.3-0.3h2.5l2.1,0l2,1.9l0.9,2l1.5,1.8l2.2,0.1l1.1-0.6l1.1,0.1l2.9-1l0,0.8
	l0.7,0.4l0.6,1.2l1.3,0.5l1.1,1.8l-0.4,2.2l-1,3.1l0.5,0.4l-0.6,2.1l-0.7,2l-0.6,0.9l-0.1,0.9l1.7,2.9l1.9,2.3l2.9,2.8l2.3,3
	l0.8,2.1l0.4,0.9l-0.3,0.5l1.4,1.8l0.6,1.9l0.9,2.7l-0.9,1.1l-0.1,0.6l0.7,1.7l0.8,1.7l0.8,1l0.2,1.6l-0.3,2.1l-0.9,1.3l-1.6,1.9
	l-0.7,1.2l-0.9,2.6l-0.1,1.2l-1,2.6l-0.4,2.5l0.3,1.8l0.2,2.2l2.3,2.9l0.6,1.8l1.5,3.6l1.5,2.5l1.1,1.2l0.4,1.6l0.1,3.6l0.9,4.7
	l0.7,2.2l0.6,3l1.1,2.3l2.1,2.4l2,4.2v0l1.4,2.7l1.8,3l0.1,2.5l-0.9,0.6l0.9,2.2l0,2l0.4,0.9l0.1-0.5l1.2,1.5l1,0.1l1.2,1.2l1.3-0.1
	l1.7-1.3l2.4-0.5l2.9-1.3l1.2,0.2l1.7-0.4l3,0.7l1.4-0.6l1.7,0.5l0.4-0.9l1.4-0.2l2.9-1.3l2.1-1.5l2-2l3.2-3.4l1.6-2.3l0.8-1.7
	l1.2-1.6l0.5-0.5l1.9-1.6l0.7-1.4l0.3-2.6l0.7-2.3l0.2-1.6l-0.7-0.2l-0.2-1.3l1.2-1.1l3.4-1.7l2.3-1l1.2-1.1l0.4-1.3l-0.7-0.5
	l0.5-1.4l0.1-3l-0.5,0.2l0-0.9l-0.5-1.8l-1.3-2.3l0.2-2.1l1.2-0.7l2-2.1l1.1-0.5l3.2-3.2l3.2-1.4l2.6-1.1l1.8-1.8l1.1-2l0.8-2.1
	l-0.5-1.4l-0.1-4.5l-0.3-2.5l0.1-2.8l-0.5-1.3l-1-0.6l-1.2-2.8l-1-1.8l0.2-1.3l-0.2-0.9l0.8-1.7l-0.1-0.7l-1.8-1l-0.2-1.6l1.3-3.5
	l1.1-0.9l0.5-1.9l0.9-1.1l0.4-2l1-0.2l0.7-1.2l2-1.1l0.6-0.7l0.7-1.5l3.1-3.4l2.6-2.1l4.2-2.8l2.8-2.3l3.3-3.8l2.4-3.1l2.4-4.1
	l1.7-3.6l1.3-3.1l0.8-3.1l0.6-1l0-1.5L618.6,430.4z M616.1,505l0.7,1.4l-0.3,1.4l-0.5,0.9l-1-1.7l-0.5,0.9l0.5,2.1l-0.2,1.2
	l-0.8,0.7l-0.2,2.5l-1.1,3.4l-1.4,4.1l-1.7,5.7l-1.1,4.2l-1.3,3.5l-2.3,0.7l-2.5,1.3l-1.6-0.8l-2.2-1.1l-0.8-1.6l-0.2-2.7l-1-2.4
	l-0.3-2.2l0.5-2.2l1.3-0.5l0-1l1.3-2.3l0.2-1.9l-0.7-1.4l-0.5-1.8l-0.2-2.7l1-1.6l0.4-1.8l1.4-0.1l1.6-0.6l1-0.5l1.2,0l1.6-1.6
	l2.3-1.8l0.8-1.5l-0.4-1.2l1.2,0.3l1.5-2l0-1.7l0.9-1.3l1,1.2l0.7,1.2l0.7,1.9L616.1,505z"/>
</svg>
