<?xml version="1.0" encoding="utf-8"?>
<!-- Generator: Adobe Illustrator 18.0.0, SVG Export Plug-In . SVG Version: 6.00 Build 0)  -->
<!DOCTYPE svg PUBLIC "-//W3C//DTD SVG 1.1//EN" "http://www.w3.org/Graphics/SVG/1.1/DTD/svg11.dtd">
<svg version="1.1" id="Layer_1" xmlns:amcharts="http://amcharts.com/ammap"
	 xmlns="http://www.w3.org/2000/svg" xmlns:xlink="http://www.w3.org/1999/xlink" x="0px" y="0px" viewBox="402 32.9 282 333"
	 enable-background="new 402 32.9 282 333" xml:space="preserve">
<path id="europe" fill="#CCCCCC" stroke="#FFFFFF" stroke-width="0.1" d="M543.4,106l-0.2,0.4l-0.3,0.9l-0.3,0.8l-0.3,0.5l-0.7,0.8
	l-0.3,0.3l-0.8-0.1l-0.3,0.3l-0.3,0.6l-0.3,0.4l-0.7,0.1l-0.4-0.6l0.1-0.2l0-0.4l-0.1-0.9l0.7-0.9l0.2-0.5l-0.1-0.2l-0.2,0.1
	l-0.5-0.3l-0.1,0l-0.4,0.5l-0.5,0.4l-0.6,0.1l-2.3,0.7l-0.3-0.2l-0.2-1.4l0.9-0.7l0.1-1.2l0.2-0.8l0.3-0.5l0.5-1.4l0.1-0.1l-1.2-1.1
	l-0.5-0.7l-0.5-1.4l-0.2-1.2l-0.7-1l0.1-1.3l-0.5,0.1l-0.4-0.9l0.4-0.5l1.9-0.6l1.1-0.6l0.4,0l0.4,0.3l0.8-0.1l0.5,2.4l0.3,2.5
	l0.4,0.2l0.8-0.3l0.7-0.2l0.4,0.2l0.7,0.7l0.3,0.5l-0.2,0.4l-0.6,0.4l-0.1,1.3l0.6,0.4l1,1.1l0.6,0.1l1-0.4l0.9,0.9l0.9,1L543.4,106
	z M544.4,351L544.4,351l0.1-0.2l0-0.1l-0.1-0.1l-0.1,0.1l0,0.2L544.4,351z M544.3,349.7L544.3,349.7l-0.2,0.2l0.1,0.1l0,0.2l0.2-0.1
	l0.1-0.2L544.3,349.7L544.3,349.7z M548.1,352.1l-0.2,0.1L548.1,352.1l0.2,0.1l0.3-0.3l0.2-0.1l-0.2-0.1l-0.2,0.2l-0.2,0.1
	L548.1,352.1L548.1,352.1z M544.6,352.4l0-0.2l-0.2,0.1l0,0.1l-0.1,0.1l-0.2-0.1l0,0.1l0,0.2L544.6,352.4L544.6,352.4z M549,345.9
	l-0.3-0.2l-0.5,0.1l0,0.2l0.3,0.3l0.1,0.2l-0.1,0.2l-0.2,0.1l0,0.1l0.3,0.3l0.3-0.2l0-0.1l0-0.2l0.1-0.1l0-0.6l0-0.1l0-0.2
	L549,345.9z M544.4,344.5l0,0.3l0.3,0.2l0,0l-0.1,0.1l0.1,0l0.3-0.1l-0.3-0.2l0-0.2L544.4,344.5L544.4,344.5z M549.6,342.9l-0.5,0
	v0.1l-0.2,0.1l-0.2,0.1l-0.3,0l-0.2,0.3l0,0.1l0.1,0.1l0.5,0.2l0.3-0.4l0.3,0l-0.1,0.1L549,344l0.2,0.2l0.6,0.2h0.2l0.2-0.1
	l-0.1-0.1l0-0.2l0.1,0l0.2,0.1l0-0.1l0-0.2l-0.1-0.2l-0.4-0.4l0-0.2L549.6,342.9z M544,349l-0.1,0.3l0,0.3l0.2-0.2l0.1-0.2l-0.1-0.1
	L544,349z M542.9,343.6l0.1-0.2l-0.2,0.1l-0.1,0.3l0.1,0L542.9,343.6z M545.5,348.2l-0.2-0.3l-0.1,0L545,348l0,0.2l0.2,0.1l0.1,0.2
	l0.2,0.2l0.2,0.3l0.1-0.2l0-0.1l-0.1-0.2l0-0.2L545.5,348.2z M542.3,344l0.1-0.1l-0.5-0.3l0.2,0.4L542.3,344z M545.2,338l-0.2-0.2
	l-0.3,0l-0.1,0.1l-0.2,0.3v0.1l0.4,0.2l0.4-0.1l0-0.2L545.2,338L545.2,338z M545.6,350L545.6,350l0.1,0.1l0-0.4l-0.1,0l0,0.2
	L545.6,350z M541.8,348L541.8,348l-0.1-0.1l-0.1,0l-0.1,0.1l-0.1,0l0,0.1l0.1,0h0.1l0.1-0.1L541.8,348z M388.1,342.4l-0.2,0.1
	l-0.1,0.4l0.1,0.1l0.2,0.1l0.1-0.2v-0.3L388.1,342.4z M547.2,349.8L547.2,349.8l-0.3-0.2l-0.1,0.1l0,0.3l0.3,0L547.2,349.8z
	 M546.8,340.7l-0.2,0.1l-0.1-0.2l-0.5,0l0,0.1l0,0.2l0,0.2l0.2,0.1l0.2,0l0-0.1l0.1-0.2l0.1,0l0,0.1l0,0.1l0.1,0.1l0.2,0l0-0.3
	l0.1-0.2l0.1-0.1l0-0.2l-0.2,0.1L546.8,340.7z M549.7,352.7l0,0.1l-0.1,0.1l-0.2,0v0.2l0.2,0.1l0.1-0.2l0.2-0.1l-0.1-0.1
	L549.7,352.7z M545.8,349l0.1,0.1l0.1,0.1l0.3,0.2l0.2,0l0.1-0.2l-0.1-0.1l-0.4-0.1L546,349L545.8,349z M551.6,348.9l0-0.2l-0.2,0
	l-0.1,0l-0.3-0.1l-0.2,0l-0.3,0.1l-0.2,0.2l0.1,0l0.3,0l0.2,0.2l0.2,0l0.4-0.2L551.6,348.9z M551.2,351.6l0.3,0l0-0.1l0-0.1l-0.1,0
	l-0.1-0.1l-0.2-0.1l0.1,0.2L551.2,351.6z M549.5,349.2l0.2-0.2h-0.1l-0.3,0.1l-0.3,0l-0.2,0.2l0,0.1l0.1,0l0.5-0.1L549.5,349.2z
	 M547.6,338.9l-0.2-0.1l-0.3,0.1l0.3,0.3l0.3-0.1l-0.1-0.1L547.6,338.9z M546.5,350.9l-0.2,0.1l-0.1,0.2l0.1,0.1l0.2,0l0.2-0.3
	l0-0.1l0-0.2L546.5,350.9z M548.3,339.8l-0.4,0.1l-0.2,0.2l0.2,0.1l0.6-0.1l0-0.1l-0.2-0.2L548.3,339.8z M547.5,351.3l0-0.4
	l-0.1-0.1l-0.1,0l-0.5,0.4l0.1,0.3l0.2,0.2l0.2-0.1L547.5,351.3z M546.9,352.6L546.9,352.6l0.1-0.2l-0.3-0.2l-0.1,0.1l0.1,0.1
	L546.9,352.6z M547.2,353.5l0-0.1l-0.2-0.1l0,0l0,0.1v0.1l0,0.1l-0.1,0.1l0.2,0.1L547.2,353.5z M533.6,345l-0.1,0.2l-0.1,0.4l0,0.3
	l0.1-0.1l0.1,0l0.1,0l0.1,0l0.1-0.1l0-0.6l-0.1-0.2L533.6,345z M460.7,354.3L460.7,354.3L460.7,354.3l0,0.1l0,0h0L460.7,354.3
	L460.7,354.3L460.7,354.3L460.7,354.3z M449.4,294.3l0.2,0.1h0.1l1.4-0.4l0.2-0.2l0.4-0.1l0.3-0.2l0.2,0l0.2-0.1l0-0.2l0-0.2
	l-0.1-0.1l-0.1-0.1l0.3,0l0.1,0.1l0.1,0.1l0.2,0.2l0.2,0l0.3-0.2l0.2-0.3l0.1-0.1l0.5-0.1l0.1-0.1l0.1-0.1l0.1-0.2l0.1-0.2l0.2-0.1
	l0.6-0.1l0.4,0l0.2-0.1l0.1-0.4l0.1,0.4l0.1,0l0.1-0.1l0.2-0.1l0.2,0l0.4,0.1l0.4-0.1l0.3-0.2l-0.4-0.5l0.2-0.1l0.1-0.2l0.4-0.6
	l0-0.5l0.1-0.4l0.1-0.3l0.2-0.3l0.1-0.3l0-0.8l-0.1-0.4l-0.2-0.6l0-0.3l0.1-0.1l0-0.3l0-0.2l0-0.4l-0.1-0.3l-0.1-0.5l-0.1-0.5
	l-0.1-0.2l-0.1-0.3l0-0.2l0.1-0.1l0.2,0l0.2-0.1l0-0.2l-0.1-0.2l0.3,0.1l0.3,0l0.2-0.2l0.2-0.3l0.1-0.2l0.1-0.2l0.3,0l0.3-0.1
	l0.1-0.5l-0.2,0l-0.1,0l0-0.5l-0.1-0.4l0.1,0.1l0.1,0.1l0.1,0.2l0.1,0.1l0-0.3l-0.1-0.3l-0.1-0.3l-0.1-0.2l-0.4,0l-0.2,0l-0.2,0.1
	v-0.2l0.3-0.2l0.1-0.2l0-0.3l-0.4-0.5l-0.3-0.5l-0.1-0.6l-0.3-0.4h-0.3l-0.4-0.1h-0.3l-0.6,0.2l-0.4,0.1l-0.2,0l-0.2,0l-0.2,0.5
	l-0.2,0.2l-0.2,0l-0.1-0.2l0.1-0.2l0.3-0.2l0.3-0.3l-0.3-0.1l-0.3-0.2l-0.3-0.2l-0.2-0.1l-0.2,0l0.2,0.3l-0.4,0.1l-0.2,0.2l0,0.3
	l0.1,0.2l0,0.3l0,0.2l-0.3,0.3l-0.2,0.1l0.2-0.3l-0.1-0.1l0.1-0.1l0.1-0.2l0-0.2l-0.1-0.1l0-0.2l-0.1-0.1l-0.3,0l0,0.3l-0.1-0.1
	l-0.4,0l-0.1,0l-0.4,0.2l-0.4,0.1l-0.1,0.2l-0.1,0.2l-0.2,0.2l0,0.3l0.1,0.4l-0.3,0.3l-0.2,0.1l0,0.1l-0.3,0.1l-0.2,0.1l-0.1,0.2
	l0.9,0.4l0.9-0.1l-0.2,0.3l-0.1,0.4l-0.2,0.1l-0.4,0.1l-0.2,0.1l-0.2,0.2l-0.2,0.3l0.1,0.2l0.1,0.3l-0.1,0l-0.5-0.1l-0.7-0.1l-0.1,0
	l-0.2,0.3l-0.1,0.1l-0.5-0.4l-0.7,0l-0.4,0l-0.3,0.1h-0.3l-0.2,0l-0.2,0.1l-0.1,0.2l0,0.3l0.3-0.1l0.1,0.2l0,0.3l0.2-0.1l0,0.2
	l0,0.2l-0.1,0.3l0,0.4l0.5-0.1l0.5,0l0,0.2l0,0.2l-0.5,0.1l-0.4,0.3l0,0.1l0,0.2l0.1,0.1l0.4,0.1l-0.4,0.1l-0.4,0.1l-0.2,0l-0.2,0.1
	l0,0.2l0.1,0.1l-0.1,0.1l0,0.1l0.2,0.1l0.3,0l0.3,0.1l-0.2,0.2l0.1,0.1l0.1,0l0.2-0.1h0.2l0.1,0l0.1,0.2l0.1,0.1l0.1,0.1l0.1,0
	l0.9-0.1l0.3,0.1l0.3,0.1l-0.2,0.2l-0.1,0h-0.1l-0.2,0.1l-0.3,0l-0.2,0.1l-0.5,0.7l0.1,0.1l0.1,0.1l-0.2,0.3l-0.1,0.2l-0.6,0.6
	l-0.5,0.4l0.4,0l0.4-0.2l0.1-0.1l0.1,0l0.3,0.1l0.2,0l0.6-0.1l0.2-0.1l0.3-0.4l0.2,0.2l0.4,0.1l-0.8,0.3l-0.8,0.2l-0.7,0.1l-0.1,0.1
	l-0.4,0.4l-0.2,0.1l-0.2,0.2l0.1,0.1l0,0.4l0.2,0.2l-0.5,0.1l-0.2-0.1l-0.2-0.1l-0.2,0l-0.2,0l-0.4,0.3l-0.1,0.2l0,0.2l0.4,0l0.8,0
	l0.1,0.1l-0.1,0.2l-0.3,0.2l-0.3,0.1l-0.2,0.2l-0.4,0.5l0.1,0.3l0.3-0.1l0.1,0.1l0.4,0.1l1.4-0.5l-0.4,0.2l-0.1,0.2l-0.1,0.1
	l-0.2,0.2l-0.4,0.3l-0.1,0.2l0.3,0l0.3-0.2l0.9-0.2l0.1,0l0,0.1l-0.5,0.3l-0.4,0.5l0.3,0l0.6-0.2l0.2,0L449.4,294.3z M479.9,345.3
	l-0.2-0.2l0,0.1l0,0.1l0,0.1h0.3l0.2,0l0.1,0v-0.1L479.9,345.3z M480.1,343.9l-0.6,0.1l-0.1,0.2l0,0.2l-0.1,0l-0.1,0.2l0.1,0.1
	l0.4,0.1l0.1-0.2l0.1,0l0.4-0.4l0-0.2L480.1,343.9z M485.2,341.5l-0.1,0l-0.3,0.1l-0.3-0.1l0-0.2l0.1-0.1l0-0.1l-0.1-0.1l0-0.1
	l0.1-0.1l-0.1,0l-0.7,0.2l-0.3,0.2l-1.2,0.9v0.1l0.1,0.1l0.2,0l0.1,0.2l0.2-0.2l0.2-0.1l0.2,0l0.1,0.1l0.1,0.4l0.1,0.1l0.3,0.1
	l0.5,0.2l0.2-0.1l0.2-0.2l0.1-0.3l0.2-0.3l0.2-0.3l0.1-0.3l0-0.2L485.2,341.5z M437.6,220.5l-0.5-0.3l0.1-0.1l0.1-0.1l0.1-0.1l0-0.1
	v-0.1l0-0.1l-0.2,0l-0.1-0.2L437,219l0.1-0.1l0.2-0.1l0.1-0.1l0-0.3l0.1-0.3l0-0.2l-0.1-0.2l-0.1,0l-0.2,0.1l-0.2-0.4l-0.3-0.2
	l-0.6-0.2l-0.4,0.1l-0.5,0.4l0.4-0.6l0-0.2l-0.1-0.2l0-0.2l0-0.2l0-0.1l-0.1,0l-0.9,0.2l-0.2-0.1l0-0.1l0.2-0.4l0.2-0.4l0-0.4l0-0.2
	l-0.1-0.2l-0.1-0.2l-0.1-0.1l-0.3,0.1l-0.3-0.2l-0.3-0.3v-0.2l0.2-0.4l0.3-0.7l0.4-0.3l0.2-0.1l0.3-0.2l0-0.1l-0.2,0l-0.5,0
	l-0.3,0.1l-0.5,0.5l-0.2,0.2l-0.5,0.2l-0.3,0l-0.3-0.2l-0.2-0.2l0-0.5l-0.1-0.2l-0.3-0.3l-0.4-0.6l-0.1-0.1l-0.6,0l-0.7,0.3
	l-0.1,0.2l0.3,1.2l0,0.2l-0.1,0.4l-0.4,0.2l-0.4,0.3l-0.2,0l-0.2-0.1l-0.1-0.2l-0.3-0.2l-0.1-0.1l-0.1,0L427,214l-0.2,0.4l-0.1,0.2
	l-0.2,0.1l0,0.1l-0.1-0.1l-0.1-0.2l-0.5-0.8l-0.2-0.2l-0.8-0.1l-0.3,0l-0.1,0.2l0,0.2l0.5,1.3l0.1,0.5l0,0.4l0,0.2l-0.1,0.1l-0.1,0
	l-0.1-0.1l-0.3-0.9l-0.5-0.6l-0.4-0.7l-0.3-0.4l-0.2-0.2l-0.2-0.1l-0.2,0l-0.2,0.1l-0.3,0.3l-0.3,0.2l-0.5,0.1l-0.1,0.3l-0.1,0.4
	l0.1,1.2l0,0.2l0,0.1l-0.1,0l-0.3-0.1l-0.1-0.1l-0.3-0.5l-0.3-0.4l-0.4-0.8l-0.2-0.2l-0.3-0.1l-0.2,0.1l-0.2,0.4l0,0.6l0.1,0.8
	l0,0.7l-0.1,0.7l-0.1,0.3l-0.1,0l-0.2-0.1l-0.3-0.5l-0.1-0.1l-0.2,0l-0.2,0.1l-0.4,0.5l-0.1,0.6l0,0.2l-0.1,0.1l-0.1,0l-0.1,0.3
	l-0.1,0.6l-0.1,0.2l-0.1-0.2l-0.2-0.8l-0.2-0.3l-0.1-0.1l-0.2,0l0-0.1l0.1-0.2l0.1-0.2l0-0.3l-0.1-0.1l-0.1,0.1l0,0l0.1-0.2
	l-0.1-0.2l-0.4-0.3l-0.1-0.3l0.6,0.2l0.1-0.1l0.1-0.2l0.2-0.9l0-0.1l-0.2-0.3l-0.3-0.1l0-0.1l0.2-0.1l0.1-0.1l0-0.1L415,214
	l-0.6-0.8l-0.3-0.3l0-0.1l-0.6-0.4l-0.4-0.6l-0.3-0.3l-0.4-0.1l-0.5,0.1l-0.5-0.1l-0.1,0.1l-0.3,0.3l-0.2,0.2l0,0.1l0.4,0.1h0.4
	l0.4-0.1l0,0.2l0.1,0.1l0.3,0.1l0.1,0.1l-0.1,0.1l-0.7,0l-0.3,0.1l-0.2,0.1l0,0.1l0.2,0.3l0.2,0.1l1,0.6l0,0.1l0,0.4l0,0.5l0,0.1
	l-0.3,0l-0.2,0.3l0-0.1l0-0.5l0-0.2l0-0.2l-0.1-0.2l-0.2-0.1l-0.3,0.4l-0.1,0l-0.2-0.1l-0.3,0.1l0-0.1l0-0.2l0-0.2L411,214l-0.7-0.6
	l-0.2-0.1l-0.2,0l-0.2,0.1l0,0.1l-0.1,0.2l-0.1,0.1l0,0.1l0.3,0.3l0.1,0.2l-0.1,0l-0.7-0.3l-0.1,0.1l0,0.1l0,0.2l0,0.1l0.3,0.3
	l0.4,0.5l-0.6,0l-0.2,0.1l-0.1,0.1l0.2,0.3l0.2,0.2l0.4,0.1l0.7,0l0.1,0.1l-0.3,0.2l-0.2,0.2l-0.4,0.1l-0.8-0.6l-0.4-0.1l-0.2,0
	l0,0.1l0.1,0.3l0.1,0.1l0,0.3l0,0.2l0.4,0.5l-0.3-0.1l-0.5-0.4l-0.3-0.1l-0.3,0.1l-0.4,0.5l0.1,0.2l0.6,0.1l0.6,0.3l0.3,0.2l0.3-0.1
	l0.5-0.3l1.4-0.4l0.6-0.3l0.2,0.2l0.5-0.1l0.7,0.2l0.2,0.4l0.9-0.1l0.5,0.3l0,0.2l-0.2,0.1l-0.7,0.4l-0.5,0.4l-0.5,0.4l-0.1,0.2
	l0.3,0.2l0.8,0.2l0.2,0l0.7-0.4l0,0.1l-0.1,0.4l-0.1,0.2l-0.2,0.2l-1.2,0l-0.5,0l-0.3,0.1h-0.2l-0.3-0.1l-0.1,0.1l0,0.1l-0.2,0.1
	l-0.6,0.2l-0.1-0.2l-0.2-0.1l-0.1,0.1l-0.2,0.2l-0.1,0l-0.4,0.1l-0.6,0.2l-0.5-0.1l-0.2,0.1l-0.2,0.1l0,0.2l0.1,0.3l0.1,0.2l0.1,0.2
	l0.2,0.1l0.4-0.1l0.6-0.4l0.4-0.1l1.8,0.2l0.7,0l0.5,0.4l0.2,0l0,0.1l-0.2,0.4l0,0.1l0.1,0.2l0.1,0.1l0.3,0.2l0.1,0l0.5-0.2l0.7-0.6
	l0.1,0.1l0.1,0.1l-0.1,0.1l-0.2,0.1l-0.7,0.5l-0.1,0.4l0,0.2l0.1,0.1l0.2,0l-0.3,0.3l-0.1,0.1l0,0.1h0.3l0.9-0.5h0.2l0.3,0.1
	l-0.4,0.1l-0.2,0.1l-0.1,0.2l-0.1,0.2l-0.2,0.5l-0.1,0.2l-0.2,0.2l-0.2,0.3l-0.2,0.2l-0.4,0.2l-0.9,0.3l-0.1-0.1l-0.1-0.2l-0.1-0.2
	l-0.1,0l-0.1,0.2l0,0.2l0,0.4l0.1,0.6l0.1,0.3l0.1-0.1l0.7,0l2.6-0.1l0.2-0.1l0.4-0.4l0.3-0.1l0.1,0l0,0l-0.2,0.2l0,0.1l0.4,0.3
	l0.4,0.2l0.4,0.1l0,0.2l0.2,0.2l0.2,0l0.4-0.4l0.1-0.1l0.1,0.3l0,0l-0.2,0l-0.1,0.1l-0.1,0.1l0,0.1l0,0.1l0.3,0.3l0.6,0.5l0.7,0
	l0.5,0.1l0.8,0.4l0.7,0.2l1.7,0.2l1-0.3l0.2-0.1l-0.1-0.3v-0.1l0,0l0.1,0l0.2,0.2h0.2l0.4-0.2l0.2-0.3l0-0.1l-0.1-0.1l0-0.1l0.2-0.3
	l0.1-0.2l0.5-0.2l1.5-0.4l0.5-0.2l0.5-0.1l0.3-0.1l0.5-0.3l0.6-0.8l0.5-0.5l0.6-0.4l1-0.5l0.7-0.2l0.7,0l0.3-0.1l0.4-0.4l0.5-0.2
	l0.2-0.2l0.2-0.3l0.1-0.3l0-0.3l-0.1-0.1l0-0.2l0.2-0.3l0-0.4l0.2,0.1l0.5,0.1l0.2-0.2l0.3-0.3l0.3-0.5l0.1-0.3l0-0.3l-0.1-0.2
	l0.2-0.1l0.4,0l0.1-0.1l0.1-0.2l0-0.2L437.6,220.5L437.6,220.5z M396.2,345.2l0.4,0.3l0.3,0.1l0.8,0.3l0.1,0l-0.5-0.3L396.2,345.2z
	 M396,345.9h-0.3l-0.1,0.1l0,0.2l0.2,0.2l0.3,0l0.3,0.1l0.1-0.1l0.4,0l-0.2-0.1L396,345.9z M395.3,345.7l-0.1-0.1l-0.4,0.1l0.3,0.3
	l0.3,0l0.1-0.1l0-0.1L395.3,345.7z M487.6,340.6l-0.5-0.2l-0.6,0l0,0.1l0,0.2l0.1,0.1l0.3,0l0.9,0.4l0,0l0.1-0.2l0-0.1L487.6,340.6z
	 M399.2,345l-0.3,0l-0.1,0.1l0.1,0.2l0.2,0.1l0.6,0.1l0.1,0l0.1-0.1v-0.2l-0.2-0.2L399.2,345z M405.3,351.3l-0.2,0l-0.1,0.1l0.1,0.2
	l0.2,0l0.2,0l0-0.1l0-0.1L405.3,351.3z M405,348.5l-0.2,0l-0.9,0l-0.2,0l-0.4-0.2l-0.2,0.1v0.1l0,0.2l0.3,0.2l0.8,0.2l0.5-0.1
	l0.2-0.1L405,348.5z M533.7,346.2L533.7,346.2l-0.1,0l0.1,0.2l0.2,0.3l0.1,0l0-0.1l-0.1-0.1l0-0.1L533.7,346.2L533.7,346.2z
	 M531.9,342.7l-0.2-0.1l-0.1-0.1l-0.1-0.3v-0.1l-0.2-0.2l0-0.1l0.2-0.2l0-0.1l-0.1-0.1l-0.2-0.1l-0.4,0.1l-0.2,0.1l0,0.1l0.5,0.5
	l0.2,0.5l0.3,0.2l0.3,0.1l-0.1-0.2L531.9,342.7z M549.1,357.6h-0.4l-0.4,0.1l-0.2,0.2l-0.1,0l-0.1-0.1l0-0.1l0.1-0.5l-0.1-0.1
	l-0.5,0.1l-0.3,0.1l-0.5-0.1l-0.5,0l-0.3-0.2l-0.8,0l-0.3,0l-0.3,0.1l-0.2,0l-0.3,0l-0.1,0l-0.1-0.1l0-0.1l0-0.2l-0.2,0l-0.2-0.1
	l0,0l0,0l0.2-0.1l-0.1-0.2h-0.2l-0.2,0.2l-0.1,0h-0.3l-0.2,0l-0.2-0.1l-0.1-0.3l-0.1-0.1l-0.1,0.2v0.2l-0.1,0.1l-0.1-0.1l0-0.1
	l-0.1,0.1l-0.1,0.4l0,0.4l0.1,0.1l0.1,0.1l0.2,0l0.5,0l0.3,0.1l1.3,0.2l0.3,0.1l0.3,0.1l0.1,0.1l0,0.1v0.2l0.2,0.1l1.1-0.1l1.1-0.2
	l0.6-0.1l0.6,0l0.3,0l0.2-0.1l0-0.2l0.1-0.2l0-0.4l0.1-0.2l-0.1,0L549.1,357.6z M534,347.6l0-0.2l-0.3-0.4l-0.2-0.1l0-0.4l-0.1-0.3
	l0,0.1l0,0.2l-0.1,0.2l-0.1,0l-0.1-0.1l-0.1,0.1l-0.2,0.4v0.1l0.1,0l0.2-0.2l0.1,0l0.1,0.1l0,0.1l0.1,0.2l0.1,0l0.1-0.1L534,347.6
	L534,347.6z M551.9,356.2l0.1-0.3l0-0.4l-0.2,0.1l0,0.2l-0.2,0.4l0.1,0.3l0,0.2l0.1,0.2l0.1-0.2l0.2,0l-0.1-0.3L551.9,356.2z
	 M499.2,343.9L499.2,343.9l0,0.3l0.2,0.2l0.2-0.4l-0.1-0.1L499.2,343.9z M534.2,348.5l-0.2,0l-0.2-0.3l-0.2,0.3l0,0.1l0.2,0.3
	l0.3,0.3l0.2-0.2l0.2,0.1l-0.3-0.3L534.2,348.5z M540.1,353.5L540.1,353.5l-0.1,0.2l0,0.3l0.1,0.2l0.3,0.1l0-0.1l0.1-0.2l-0.3-0.3
	L540.1,353.5z M519.2,346.9l-0.4,0.3l-0.2,0l-0.2,0.1l-0.1,0.1l-0.2,0l-0.4,0l-0.4,0l-0.2,0l-0.2,0.1l-0.3,0.2l-0.4,0.1l-0.2,0
	l-0.4,0.1l-0.7-0.1l-0.3,0.1l-0.4,0.1l-0.2,0l-0.2-0.1l-0.5-0.4l-0.2,0l-0.1-0.1l-0.1-0.2l-0.2,0h-0.4l-0.3,0.2l0,0.2l-0.3,0.1
	l-0.1,0l-0.1-0.1l-0.3-0.4l-0.1,0.1l-0.1,0.1l-0.2,0.1l-0.1,0.1l-0.2,0.4l-0.1,0.4l0,0.2l0.2,0.4l0.3,0.3l0.2,0.1l0.2,0l0.3,0l0.1,0
	l0.3,0.2l0.4,0.1l0.1,0.1l0.1,0.1l0.3,0.2l0.6,0.3l0.6,0.4l0.3,0.1l0.3,0l0.3,0l0.3,0.2l0.3,0.3l0.4,0.6l0.2,0.1l0.2,0l0.5,0.2
	l0.3,0l0.3,0.1l0.3,0l0-0.2l0-0.2l0-0.2l0.1-0.2l0.1-0.1l0.3-0.3v-0.1l0-0.1l-0.2-0.1l-0.2-0.2l0.2-0.1l-0.1-0.1l-0.1-0.1l-0.1-0.1
	l0-0.1l0-0.3l0.1-0.3l0.1-0.2l0.1-0.2l0-0.2l0.1-0.2l0.7-1l0.1-0.2l0.2-0.4l0.2-0.2l-0.2-0.1L519.2,346.9z M499,336.9L499,336.9
	l0.2-0.2l-0.1-0.1l-0.1,0.1l-0.1,0.2l0,0.1l0.1,0L499,336.9z M502.9,337.7l-0.1-0.2l-0.2-0.1l-0.1-0.1l0.1-0.2l0.1,0l0,0l-0.1,0
	l-0.1-0.1l-0.1-0.2l-0.1-0.2l-0.3-0.2l-0.2,0l-0.1-0.2l-0.1,0.1l0,0.2l-0.2,0.2l-0.3,0.1l-0.5,0.6l-0.3,0.2l-0.4,0.2l-0.3,0.1
	l-0.3,0l-0.1,0l-0.2-0.2l-0.1,0l-0.1,0.2l-0.1,0.4l0,0.4l0.1,0.2l0.2,0.2l0.2,0.2l0.1,0.2l0.1,0.3l0.2,0.2v0.6l0,0.2l-0.1,0.1l0,0.2
	l0,0.2l0.2,0.1l0.1,0.2l0,0.2l0,0.1l-0.1,0l-0.1-0.1l-0.1,0.1l0,0.3l0,0.3l-0.1,0.1l0,0.1l0,0.7l0,0.3l0.2,0.3l0.2,0.3l0.1,0.2
	l0.1,0.1h0.2l0.2,0.1l0.2,0l0.2-0.2l0.2-0.3l0.1-0.7l0.1,0.1l0.1,0l0.2-0.1l0.2,0l0.4,0.2l0.3,0.1l0.2-0.1l0.1-0.3l0.1-0.4l0.2-2.1
	l0.1-0.3l0-0.3l-0.1-0.2l0-0.4l0.3-0.5l0.1-0.1l0.1-0.2l0-0.2L502.9,337.7z M501.8,330.6l-0.1-0.1l-0.2-0.1l-0.2,0l-0.1,0.1
	l-0.1,0.2l-0.1,0.1l-0.5,0.1l-0.3,0.2l-0.2,0.5l-0.1,0.2l-0.1,0.1l0.1,0l0.1,0l0.1,0.2l-0.2,0.1l-0.1,0.1l0.1,0.2l0.1,0.2l0.2,0.1
	v0.2l-0.1,0.2l-0.1,0.1l0,0.1l0.1,0l0.2,0l0,0.2l-0.1,0.2v0.2l0.1,0.1l0.3,0.1l0,0.1l-0.1,0.1l-0.1,0.1l0.1,0.1l0.1,0.2l0.3,0.1
	l0.5,0.3l0.2-0.3l0.2-0.6l0.1-0.2l0.1-0.2l0-0.7l0.1-0.2l0.3-0.6l0-0.1l-0.1-1.5l0-0.1l-0.1-0.1l0-0.2l0.1-0.6v-0.2l0-0.3l0-0.1
	l-0.1-0.1l-0.1,0l-0.1,0.3l0,0.5l0,0.2L501.8,330.6L501.8,330.6z M505,330.2l-0.1-0.1l-0.1,0.1l-0.2,0l-0.1,0l-0.3,0l0,0.1l0.1,0.2
	l0.2,0l0.4-0.1l0.2,0.2l0-0.2L505,330.2L505,330.2z M516.2,355L516,355v0.4l0.2,0.2h0.3l0.1-0.1l-0.1-0.1L516.2,355z M544.9,351.4
	l0,0.1l0.1,0.1l0,0l0.1-0.1l-0.1-0.3L544.9,351.4L544.9,351.4z M526.7,266.8l0.1,0.4l0.2,0.3l-0.2,0.4l-0.2,0.5l0.3-0.1l0.3-0.2
	l0.1-0.6l0.2-0.4l0.2-0.2l0.5-0.2l0.1-0.4l0.1-0.2l0.2-0.1l0.2-0.1l-0.3-0.4l0.1-1.2l0.2-0.1l0.2-0.1l0.1-0.4l0.2-0.1l-0.3-0.3
	l-0.2-0.1l-0.2,0.1l-0.1,0.4l-0.2-0.2l-0.5,0.2l-0.4,0.4l-0.3,0.5l-0.2,0.2l-0.2,0.3l0,0.6l0.1,0.6l-0.1,0.4L526.7,266.8z
	 M523.7,266.2l-0.2-0.1l-0.1,0.1l-0.1,0.4l-0.2,0.4l-0.1,0.4l-0.4,1l-0.3,0.1l-0.6,1.6l0,0.4l0,0.9l0.1,0.3l0.1,0l0.1-0.2l0.7-2.6
	l0.2-0.2l0.1-0.7l0.5-1.1l0-0.1l0-0.3L523.7,266.2L523.7,266.2z M527.6,256.8L527.6,256.8l-0.2,0.1l-0.1,0.1l-0.1,0.2l0.1,0l0.1,0
	L527.6,256.8z M517.9,277.9L517.9,277.9l0.2-0.4l0-0.3l-1-0.8l-0.2,0.3l-0.1,0.7l0.6,0.3L517.9,277.9z M528,254.4l-0.1,0.1l0,0.2
	l0,0l0.1,0.2l0.1-0.2l0.1-0.1l0.2-0.2v-0.1L528,254.4z M529.4,263.5l0-0.3l0.5-0.2l-0.1-0.1l-0.4,0l-0.3,0.4l0.1,0.2L529.4,263.5z
	 M505.7,279.2l0.1,0l0.1-0.2l0.4-1.3l0.1-0.5l-0.1,0l-0.2,0.5l-0.3,0.4l-0.1,0.3l-0.2,0.2l0,0.1L505.7,279.2z M504.7,278.4l-0.2-0.2
	l-0.2-0.1l0,0.1l0.4,0.4l0.2,0.1l0.2,0l0.1-0.1l-0.3-0.2L504.7,278.4z M506,277.3l0.1-0.3l-0.1-0.3l0.1-0.3l-0.2-0.6l-0.1-0.5
	l-0.1-0.3l-0.1,0l-0.3,0.3l-0.2,0l-0.2-0.2l-0.2-0.1l-0.8,0.4l-0.4,0.1v0.8l0.2,0.6l0.1,0.1l0.1,0.2l0.8,0.4l0.5,0.2l0.5,0
	L506,277.3z M512.6,281l0.1,0.2l0.5,0.4l0.1,0l0.2-0.4h0.3l0.3,0.3l0.1-0.2l-0.1-0.3l-0.3-0.2l-0.1-0.2l0.1-0.1l0.2-0.2l0-0.1
	L514,280l-0.4-0.2l-0.1-0.2l-0.1-0.2l-0.2,0l-0.3,0.3l0,0.3l-0.2,0.2l0,0.2l-0.1,0.5L512.6,281z M503.3,277.7l-0.1,0l0,0l0.1,0.8
	l0.3,0l0.1,0.1l0.3-0.1l0-0.1l-0.2-0.4L503.3,277.7z M530.7,250.9L530.7,250.9l0.2,0l0-0.1l-0.1-0.3l-0.2,0l-0.1,0.3l0,0.2l0.1,0.1
	L530.7,250.9z M505.2,274.1l0.2,0.1l0-0.1l0.1-0.2l0.1-0.2l-0.1-0.2l-0.2-0.4l-0.1,0.2l0.1,0.3l-0.1,0.3L505.2,274.1z M545.4,221.5
	l0.1-0.2l0.3-0.1l-0.1-0.1l-0.5-0.2l-0.4,0.1l-0.2,0.2l0,0.4l0.3,0.1L545.4,221.5z M536.6,250.9l0,0.3l0.1,0.1l0.3-0.2l0.1-0.4
	l-0.3,0L536.6,250.9z M541.2,259.6l-0.1-0.4l-0.5-0.2l-0.2,0.1l-0.1,0.3l0.5,0.4l0.2-0.1L541.2,259.6z M537.2,260l-0.2,0.1l0.3,0.6
	l0,0.2l-0.1,0.2l-0.1,0.1l-0.1,0l0.1,0.2l0.4,0.3l0.2,0.2l0.2,0.1l-0.1,0.2l-0.5,0.6l0,0.2l0,0.2l0.2,0l0.2-0.2l0.2-0.5l0.1-0.6
	l0.3-0.3l0.4-0.1l0.7,0l0.1-0.2l0.4-0.3l0.3-0.3l0.2,0l0.1-0.1l0.1-0.2l0.5-0.1l-0.1-0.2l-0.9-0.7l-0.4-0.1l-0.2,0.1l-0.2,0
	l-0.2-0.1l-0.2,0l-0.2,0.1l-0.4,0.1l-0.2,0.4l-0.2-0.1l-0.1,0l-0.2,0.2l-0.2-0.2L537.2,260z M506.4,266.3l-0.2,0.2l0.4,0.2l0.1-0.1
	l0.1-0.1l0.3-0.2l-0.2,0L506.4,266.3z M559.4,185.4l-0.1,0.6l-0.1,0.3l0.1,0.2l0.5-0.2l0.3-0.3l-0.2-0.3l-0.2-0.2L559.4,185.4z
	 M531.4,250.6l-0.2,0l0-0.4l-0.1,0l-0.1,0.1l0,0.2l0.2,0.8l0.2,0.1l0.7-0.1V251l0-0.2l0.1-0.1l0.2,0l0.1,0.1l0.1,0l0.2-0.4l0-0.1
	l-0.2-0.1l0-0.1l-0.2-0.2l-0.2,0l0,0.1h-0.1l-0.1,0l-0.2-0.3l-0.2,0.1l-0.1,0.2l0.1,0.1l0.1,0.1l0,0.1l0,0.2L531.4,250.6z
	 M552.1,351.8l-0.4,0.2l-0.3,0.2l-0.1,0.2h0.1l0.2-0.1l0.3,0l0.1-0.1l0.5-0.2l-0.2-0.1L552.1,351.8z M535.3,232.5h-0.4l0.2,0.5
	l0.3,0.3l0.2-0.1l0-0.1l0.1-0.2l0,0.1l0.1,0l0-0.3l-0.2-0.1l-0.2,0.2l-0.2,0l0-0.1l0-0.1L535.3,232.5z M533.3,251.8l0.2,0l0-0.1
	l-0.1-0.2l-0.2,0l-0.2,0.1l-0.1,0.1l0,0.1l0.2,0L533.3,251.8z M535.7,249.1l0.2,0l0-0.3l-0.4-0.4l-0.1-0.2l-0.1,0.1l0,0.1l0.1,0.4
	l0.2,0.3L535.7,249.1z M536.5,251.1l0-0.2l-0.2,0l-0.2,0.1l-0.1,0.1l0.2,0.2l0.2-0.1L536.5,251.1z M538.6,250.1l-0.2-0.3l-0.2,0.1
	l-0.4-0.1l-0.1,0.1l0,0.2l-0.1,0.2l0.2,0.1l0.1,0.2l0.1,0.2l0.1,0.2h0.3l0-0.2l-0.1-0.1l0-0.2L538.6,250.1z M536.9,249.7l0.3,0.3
	l0.2,0l0-0.1l-0.2-0.2l0.1-0.1l-0.1-0.2l-0.2-0.2l0,0.1l0.1,0.2l-0.1,0.1L536.9,249.7z M537.9,257.9l0.4,0l0.3,0.2l0.2,0.6l0,0.2
	l0.2,0.1l0.3-0.1l0.3-0.6l0.1,0.1l0.1,0.1l0.2-0.3l0.2,0l-0.1-0.5l-0.2-0.4l-0.5-0.1l0-0.1l0-0.2l-0.2-0.1l-0.2,0l-0.2,0.3l-0.1,0.3
	l-1.1,0.2L537.9,257.9z M522.8,328.5l0.2-0.1l0-0.1l-0.2-0.1l-0.7-0.1l-0.4,0l-0.1,0.2l0,0.1l0.2,0.1l0.4,0.1L522.8,328.5z
	 M515.9,322.1l0.2,0.6l0.1,0.4l0.2,0.2l0-0.1l0-0.1l0-0.1l0-0.6l0-0.4l-0.2-0.2l-0.1-0.2l0-0.3l-0.1,0l-0.1,0.1l0.2,0.5l0,0.2
	l-0.1,0.2L515.9,322.1z M522.6,329.7l0.1,0.1l0.3,0.1l0.4-0.1l0.3,0l0.3,0l0-0.1l-0.2-0.1l-0.3-0.1l-0.4,0l-0.5-0.1l0,0.1
	L522.6,329.7z M518.7,325.8l0.2,0.2l0.2,0.1l-0.2-0.3l-0.3-0.1L518.7,325.8z M516.7,321.6l0,0.1l0.2,0.1l0.3-0.1l-0.2-0.4l-0.1-0.1
	l-0.2-0.4l-0.2-0.2l-0.1,0.3l-0.2,0.2l0,0.1l0.2,0.2L516.7,321.6z M517.5,323.5l0.1,0.2l0.2,0.2l0.1,0.2l0.2,0.1l0.2,0.2l0.1-0.1
	l0.1,0l0.1,0l-0.4-0.3l-0.3-0.4l-0.3-0.3l-0.1,0l-0.2-0.1l-0.2-0.2l0,0.1L517.5,323.5z M517.1,322.7l0.3,0.2l-0.1-0.2l-0.2-0.2
	l0-0.1l-0.2,0l0,0.1l0,0.1l0,0.1L517.1,322.7z M553.9,353l0-0.1v-0.1l0-0.1l-0.1,0l-0.1,0.1l0,0.1L553.9,353L553.9,353z M554,353.7
	l-0.3,0.2l-0.1,0.2l-0.2,0.1l0,0.1l0.1,0.2l-0.1,0.4l0.1,0.2l0.1,0l0.2-0.1l0.3-0.4l0.3-0.1l-0.1-0.2l0.2-0.3l0.2-0.6v-0.2l-0.2,0
	L554,353.7z M571.9,356.4l-0.2,0.1l-0.4,0.2l-1.3,0.4l-0.4,0.1l-0.4,0l-0.5-0.1l-0.5-0.1l0,0.4l-0.1,0.3l-0.3,0.1l-0.2,0l-0.2,0
	l-0.3,0.1l-0.2,0.2l-0.2,0.1l-0.2-0.1l0,0.4l0.3,0.6l0.1,0.2l0.2,0.1l0.5,0.2l0.2,0l0.3,0l0.1,0.1l0.1,0.2l0.2,0l0-0.1v-0.1l0.1-0.1
	l0.2-0.1l0.2,0l0.3-0.1l0.3-0.1l0.3-0.2l0.5-0.6l0.2,0l0.2,0l0.3,0l0.3-0.1l-0.1-0.2l0-0.1l-0.2-0.3l-0.1-0.2l0.1-0.3l1.5-1l0.3-0.2
	l-0.4,0.1L571.9,356.4z M524.5,330.2l-0.1,0l1.1,0.3l-0.4-0.3l-0.5-0.1L524.5,330.2z M521.7,328.7l0.4,0.2l0.4,0.1l1.2,0l0.2,0
	l-0.4-0.1l-1-0.1l-0.1-0.1l-0.4-0.1L521.7,328.7L521.7,328.7z M564.7,316.9l0.9,0.2l0.4,0l-0.4-0.2l-1-0.3l-0.2-0.1l-0.2-0.3
	l0.1,0.3l0.1,0.2L564.7,316.9z M493.4,285.1l-0.4,0.1l0,0l0.1,0l0.4-0.2L493.4,285.1z M511,275.2l0.3-0.2l0-0.2l-0.1-0.2h-0.1
	l-0.1,0.1l-0.1,0.2L511,275.2L511,275.2z M507.3,274.3l-0.1,0l-0.5,0l-0.2,0.1l0.1,0.4l0.2,0.1l0.1,0.1v0.2l0,0.1l0.2,0.3l0,0.7
	l0.3,0.6l0.1,0l0.3-0.1l0.2,0l0.5,0.1l0.1,0.5l0,0.3l0.1,0.3v0.3l0.3,0.7l0.5-0.2l0-0.5l0-0.3l0-0.5l0.1-0.6l0.6-0.2l0.2-0.2
	l-0.1-0.5l-0.3-0.1l-0.2-0.3l0.1-0.4l0.2-0.2l0.2-0.1l0.3-0.1l0.1-0.1l0.1-0.1l0-0.5l-0.1-0.7l0-0.2l0.2-0.4l-0.1-0.2l-0.1-0.1
	l-0.3-0.1l-0.3-0.1l-0.3,0l-0.5,0.3l-0.5,0.4l0.1,0.1l0.1,0.2l0,0.3L509,274l-0.1,0.2l-0.1,0.4l-0.1,0l-0.3-0.1l0-0.5l0-0.4
	l-0.2-0.2l-0.4,0.1l0,0.2l0,0.1l-0.4,0.6L507.3,274.3z M499.5,279.1l-0.1,0.1l0,0.1l0.1,0.1l0.3,0l0.1-0.1l0-0.2l-0.2-0.1
	L499.5,279.1z M510.7,277.9l-0.1-0.1l-0.3,0l-0.1-0.1l0,0.2L510,278l-0.2,0.1l0,0.1l-0.1,0.2l0.2,0.1l0.5-0.3l0.4,0l0.1-0.1
	l-0.1-0.1L510.7,277.9z M508.2,279.6l0.3,0l0.2-0.1l0-0.4l0-0.2l-0.2-0.1l-0.3,0l-0.5-0.3l-0.3-0.3l-0.6,0l0,0.2l0,0.6l1.2,0.7
	L508.2,279.6z M499.3,277.9l0.1-0.2l-0.1,0l-0.3,0.7l0,0.7l0.1-0.1l0.1-0.3l0.7-0.1l0.1-0.1l-0.7,0l0-0.1l0-0.3L499.3,277.9z
	 M494.7,284.5l-0.2,0.1l-0.1,0.1l0.3,0l0.2-0.2H494.7z M472.3,318.5l0.1-0.4l-0.3-0.4l-0.3-0.2v0.1l0.1,0.3l0.2,0.3L472.3,318.5z
	 M518.5,325.4L518,325l0,0.1l0.1,0.2l0.3,0.3L518.5,325.4z M518.2,326L518.2,326l0.2,0v0l0-0.1l-0.7-0.8l-0.2-0.2l0.1,0.2L518.2,326
	z M491.4,285.4L491.4,285.4l-0.5,0l-0.6,0.2l0.1,0.1l0.3,0L491.4,285.4z M492.3,285.3L492.3,285.3l-0.1-0.1l-0.5,0l-0.1,0l0,0
	l0.2,0.1L492.3,285.3z M506.8,280.2l-0.1,0.1l-0.1,0.2l0.2,0l0.2,0.2l0.4,0l0-0.1l-0.1-0.3L506.8,280.2z M541.6,344.9l-0.2-0.4
	l-0.3-0.3l-0.2,0l-0.3,0.1l-0.5,0.3l-0.3,0.2l0,0.1l0.2,0l0.3-0.1l0.3,0.1l0.3,0.2l0.3,0.2l0.3,0.3l0.1,0.1l0.1,0.1l0.2,0.1l0.1,0.4
	l0.3,0.1h0.4l0.4,0v0.1l0.1,0.1l0.1,0.1l0.1,0.3l0.1,0.1l0,0.2l0,0.1l0.3,0.2l0.1,0.1l0.2,0l0.1,0l0.1,0.1l0.1,0l0.1,0l0.1-0.1
	l0-0.4l-0.1-0.1l-0.3,0l-0.3-0.1l-0.2-0.2l-0.2-0.4l-0.1-0.5l0.1-0.1l0-0.1l-0.1-0.2l-0.1-0.2l-0.1-0.1l-0.6-0.1l-0.5-0.3l-0.2,0
	l-0.3-0.1L541.6,344.9z M486.2,293.5l0.2-0.1l0.4,0.3l0.4-0.1l0-0.1l-0.1-0.1l-0.3-0.2l-0.5,0l-0.2,0.1v0.1L486.2,293.5z
	 M506.6,221.6l-0.6,0.4l-0.2,0.4l0.3,0.2l0.6-0.1l0.3,0.1l0.1-0.2l0-0.3l-0.3-0.4L506.6,221.6z M499.5,230l0.9-0.2l0.1-0.1l0-0.3
	l-0.1-0.2l-0.1,0l-0.1,0.2l-0.7,0.3l-0.5,0.3l0.2,0.1L499.5,230z M489.6,245.7l0-0.4l-0.2-0.3l-0.1,0l-0.1,0.1l-0.1,0.6l0.2,0.1
	L489.6,245.7z M489.1,287.5l0.3-0.3v-0.5l-0.4,0.4l-0.1,0.3l0,0.1L489.1,287.5z M489.9,249.6l-0.2-0.4l-0.1,0l-0.1,0.2l0.1,0.4
	l0,0.4l0,0.2l0.1,0.3l0.3,0.1l0-0.7L489.9,249.6z M489.5,286.4l0.5-0.3l-0.2,0L489.5,286.4L489.5,286.4z M512.4,199.8l-0.3,0.4
	l-0.2,0.7l-0.1,0.7l0.4-0.4l0.3-0.4l0.1-0.2v-0.4l0.1-0.4L512.4,199.8z M458,275h0.1l0.5-0.2l0.1-0.2l0-0.1l-0.1-0.4l-0.1-0.6
	l-0.2,0.1l-0.3,0.2l-0.1-0.1l-0.1,0l-0.1,0.1l-0.1,0.1l0,0.1l0,0.2l-0.1,0.3l0,0.1l0.1,0l0.3-0.4l0.1,0l0,0l0,0.2l0.1,0.3L458,275
	L458,275z M514.6,198.3l-0.2-0.1l-0.3,0l-0.4,0.2l-0.3,0.6l-0.2,0l-0.2,0.1l-0.1,0.3l-0.2,0.2l0.1,0.7l0.3-0.1l0.1-0.1l0-0.3
	l0.1-0.2l0.2,0.2l0.2-0.3l0.2-0.1h0.3l0.1-0.1l0.2-0.4l0.4-0.1l0.2-0.2l0.1-0.2l-0.1-0.1l-0.4,0L514.6,198.3z M515.7,198.9l0.3,0.1
	l0.8-0.1l0.8-0.8l0.3,0.2l0.2-0.1l0.2-0.2l0.3-0.5l0.2,0l0,0.4l0.3,0.1l0.7-0.3l0.2-0.4h0.2l0.1,0.1l0.1,0l0.2-0.1l0.2-0.5l0.4-0.6
	l0.4-0.2l0.5-0.5l0.1-0.6l-0.2-0.7l-0.2-0.3l-0.3-0.3l-0.2,0.1l-0.1,0.1l-0.2,0.1l-0.1,0.3l0,0.4l-0.2,0.2l0,0.3l-0.4,0.2l-0.4,0.7
	l0-0.1l0.1-0.4l0.4-0.9l0-0.7l0-0.7l-0.2-0.4l-0.1-0.5l0.5-0.7l0.3-0.8l0-0.5l-0.2-0.2h-0.2l-0.2,0.2l-0.4,0.9l-0.3,0.3l-0.5,0.7
	l-0.1,0.5l0,0.5l0.2,0.1l0.1,0.3l-0.2,0.5l-0.2,1.5l-0.9,1.3l-1.4,0.3l-0.4,0.4l-0.5,0.6L515.7,198.9z M506,91.9l0.1,0.6l0.8,2.6
	l0.2,0.3l0.5,0l0.6,0.7l0.5,0.8l0.6,1.4l0.4-0.1l-0.2-1l-0.4-1l-0.1-0.5l-0.2-0.4l-0.6-0.6l-0.5-1l-0.5,0.1l0-1l-0.3-0.4l-0.2-0.7
	l0.2-0.5l-0.1-0.4l-0.5-1.3l-0.5-0.6l-0.6-0.2v0.9l0.2,1.2L506,91.9z M508.8,216.8l-0.1,0.4l0,0.2l0.4,0.1l0.2-0.2l0.1-0.4l-0.1-0.1
	l-0.3,0L508.8,216.8z M511.4,214.9l0.2-0.2l-0.1-0.1l-0.3,0l-0.3,0.1l-0.2,0.2l-0.1,0.3v0.3l0.2,0L511.4,214.9z M511.1,213.8l0-0.4
	l-0.3-0.2l-0.2,0.2l0,0.2l-0.1,0.2l-0.2,0.3l0,0.3l0.3-0.1l0.4-0.2L511.1,213.8z M467.4,255.9l0.3,0.2l0,0.4l0.1,0.1l0.2-0.1l0-0.2
	l0,0l-0.2-0.1l-0.1-0.3l-0.3-0.3l-0.2,0.1l0,0.1l0.1,0.2L467.4,255.9z M468.9,255.9l0.1-0.1l-0.4,0l-0.2,0.1l-0.2,0.3l0.3,0
	L468.9,255.9z M517,194.2l-0.1-0.1l-0.4,0l-0.2,0.4l-0.3,0.5l0.1,0.4l0.3,0.2l0.3,0l0.4-0.3l0.1,0.1l0,0.2l0.2,0.2l0.4,0l0.5-0.1
	l0.3-0.4l0.1-0.9l-0.2-0.5l-0.4-0.8l-0.1-0.3l-0.1-0.2l-0.1,0l-0.2,0.1v0.8l-0.5-0.1l-0.1,0.2l0,0.3l-0.1,0.4L517,194.2z
	 M467.4,258.7l0.1,0.1l0,0l0-0.3l0-0.1l-0.1,0l-0.3,0.1L467.4,258.7z M466.4,257.5L466.4,257.5l0.2-0.2l0,0.1v0.2l0,0.1l0.1,0.1
	l0.1,0l0.5-0.1l0.4,0.3l0.1,0l0.1-0.1l0.1-0.3l-0.2-0.1l-0.2,0l-0.3-0.1h-0.2l0-0.1l0.1-0.1V257l-0.1-0.1l-0.3-0.2l-0.3,0l-0.2,0.1
	l-0.1,0.4l0,0.2L466.4,257.5L466.4,257.5z M473.1,247.9l0.2,0v-0.2l0.1-0.5v-0.1l-0.1-0.1h-0.1l-0.1,0.1l-0.1-0.1l-0.1,0l0,0.1
	l0,0.3L473.1,247.9L473.1,247.9z M471.1,250.5L471.1,250.5l0.3,0l0,0.1l0,0.2l0,0.1l0.2-0.1l0.2,0l0.1,0.2l0,0.2l-0.1,0.4l-0.2,0.7
	l0.2,0.2l0-0.1l0.1-0.5l0.1-0.2l0.1-0.6l0-0.1l0-0.3l0-0.2l0.2-1l0-0.4l-0.2,0.1h-0.1l-0.2-0.4l-0.1,0.1l-0.1-0.4l0-0.4l-0.2,0
	l-0.1,0.1l-0.2,0.4l-0.1,0.1l0,0.1l0.1,0.1l0.3,0.1l0.2,0.8l-0.3,0.2l-0.2,0l-0.2,0.1l0,0.1L471.1,250.5z M472.8,248.9L472.8,248.9
	l0-0.4l0-0.3l0-0.1l0.1,0l0-0.2l0-0.2l-0.2,0l-0.2,0.7L472.8,248.9L472.8,248.9z M468.3,303.3L468.3,303.3l0.3,0.2l0.1-0.3l0,0h-0.1
	L468.3,303.3z M460.9,275.7l0.1,0h0.4l0-0.2l0-0.4l-0.2-0.5l-0.1-0.1l-0.2-0.1l-0.2,0l-0.1,0.1l-0.1,0.1l-0.1,0.2l0.2,0.7
	L460.9,275.7z M463.4,280.9L463.4,280.9L463,281l-0.3,0.5l-0.2,0.2l-0.1,0.5l-0.1,0.2l0,0l0.2-0.1l0.2,0.1l0.6-0.6l0.1-0.2l0.1-0.2
	L463.4,280.9L463.4,280.9z M462.9,285.7l0,0.6l0.2,0.4l0.1,0l0.1,0.2l0.3-0.2l0.2-0.2l0.3-0.2l0.1-0.2l-0.3,0l-0.1-0.1l-0.3-0.5
	l-0.4,0L462.9,285.7z M472,297.6l-0.2,0.2l-0.4,0.1l-0.1,0.2l0.1,0l0.6,0.4h0.1l0.2,0l0.1-0.1l0.1-0.2l0.2-0.1l-0.2-0.2L472,297.6z
	 M469.5,304.1l0,0.4l0.2,0h0.2l0.1,0.1l0.1,0l0-0.2l-0.2-0.1L469.5,304.1z M459.8,266.2l0.1,0.2l0.2,0.3l-0.1,0.7l-0.4,0.7l-0.3,0.2
	l0,0.1l0.4,0.2l-0.4,0.4l-0.4,0.1l-0.3,0.2v0.1l0.2,0.1l0.2,0l0.1,0.4l0.2,0.2l0.3,0.1l0.3,0l0.2-0.2l1-0.9l0.1,0l-0.1,0.4l-0.2,0.4
	l0,0.3l-0.2,0.2l-0.1,0.5l-0.1,0.4l-0.1,0.5l-0.1,0.6l-0.1,0.4l0,1.2l0.1,0.1l0.1,0l0.2-0.1l0,0l-0.3,0.4l-0.1,0.2l-0.1,0.2
	l-0.2,0.9l0,0.2v0.2l0.1,0.1l0.2,0l0.1,0l0.1-0.1l0.1-0.2l0.5-1.9l0-0.3l-0.1-0.6v-0.1l0-0.1l0.1-0.1l0.3-0.4l0.6-0.5l0.2-0.2
	l-0.5,0.6l-0.1,0.3L461,273v0.4l0,0.2l0,0l0-0.2l0.2,0l0.1-0.1l0.1-0.2l0.3-0.1l0.1-0.1l0.2-0.4l0.1-0.2l0,0l-0.1,0.4l0,0.1l0.5,0.4
	l0.2,0.1l-0.6,0l0,0l-0.1,0.3l0,0.5l0,0.4l0.5,0.5l0.1,0.2l0,0.3l-0.1,0.4l-0.2,0.3l-0.5,1l-0.2,0.8l-0.2-0.1l-0.2,0.1l0,0.3
	l0.1,0.3l0.3,0.5l0.3,0.4l0.1-0.4l0.1-0.3l0.1-0.1l0.5,0.3l0.4,0.1l0.3-0.1l0.3-0.2l0.1,0l0.1,0l0.1,0.2l0.1,0.1l0.2,0l0.3,0
	l0.2-0.1l0.2-0.2l0.2-0.1l0.2,0l0.2-0.1l0.3-0.3l0.3-0.1l1,0l0.1,0l-0.6,0.2l-0.5,0.6l-0.4,1l0.1,0.5l0.5,0.8l0.2,0.4l0.4,0.5l0.2,0
	l0.1-0.1l0.2-0.1l0.4,0l0.1,0.2l0,0.4l-0.1,0.4l-0.4,0.3l0,0.3l0,0.3l0.1,0.1l0.2,0.1l-0.2,0.3l-0.2,0.4l0,0.4l0.3,0.6l0.2,0.2
	l0.2,0.1l0.1,0l0.1,0.1l-0.3,0.1l-0.1-0.1l-0.4-0.6l-0.3,0.1l0.2,0.6l-0.6-0.4l-0.3,0l-0.3,0.1l-0.3,0.1l-0.3,0l-0.1,0l-0.9,0.4
	l-0.4,0.4l-0.2,0.2l-0.1,0.2l-0.1,0.2l-0.3,0.3l-0.3,0.3l-0.1,0.2v0.2l0.3,0l0.3-0.2l0.3-0.2l0.4-0.1l0.4,0l0,0.2l0,0.2l0.1,0.3
	l0.1,0.3l-0.1,0.2l0,0.2l0.1,0.2l0.2,0.1l-0.2,0.3l-0.1,0.4l-0.1,0.3l-0.2,0.2l-0.5,0.4l-0.5,0.2l-0.9,0.5l-0.6,0.2l-0.3,0.2
	l-0.2,0.3l0.2,0.1l0.1,0.2v0.3l0.1,0.2l0.6,0.4l0.5-0.3l0.3-0.2l0.2,0l0.4,0l0.2,0.2l0.1,0.1l0.5,0.1l-0.2,0.1l-0.2,0.3l0.3,0
	l0.3-0.1l0.1-0.1l0.1,0l0.4,0.2l0.6,0.6l0.8,0.1l0.1,0l0.5-0.4l0.3-0.2l0.7-0.2l0.2-0.2l0.4-0.3l0.3-0.2l-0.4,0.6l-0.3,0.3l-0.3,0.3
	l-0.2,0.3l-0.5,0.7l-0.3,0.2l-0.3,0l-0.3,0l-0.6-0.1l-0.7,0l-0.9,0.1l-0.1,0.1l-0.3,0.7l-0.6,0.2L463,297l0,0.4l-0.1,0.2l-0.8,0.9
	l-0.1,0.2l-0.2,0l-0.1,0.1l-0.1,0.2l-0.3,0.3l-0.6,0.6l-0.6,0.2l-0.2,0.3v0.2l0.1,0.1l0.2-0.1l0.3-0.1l0.3,0.1l0.3,0.3l0.3-0.1
	l0.2-0.4l0.1-0.1l0.5-0.4l0.2-0.1l0.6-0.2l0.4-0.1h0.2l0.2-0.1l0.1-0.1l0.1,0l0.2,0.2l0.6,0.3l0.3,0.2l0.3,0l0.3-0.4l0.2-0.5
	l0.1-0.5l0.2-0.4l1.1-0.4l0.3,0l0.4,0.1l0.3,0.2l0.3,0.2l0.3,0.1l0.1-0.1l0.1,0l0.9,0.1l0.1,0l0.1-0.1l-0.1-0.2l-0.1-0.3l0.5,0
	l0.5-0.1l0.2,0l0.2-0.1l0.5-0.3l-0.2-0.3l0.4,0.2l0.4,0.1l0.4,0.1l0.4,0.2l0.2,0l0.9-0.2l0.7,0l1.1,0.2l0.3-0.1l0.3-0.2l0.3-0.1
	l0.4-0.1l0.2-0.2l0.5,0l0-0.2l0.2-0.3l0.9-0.5l0.1-0.1l0-0.6V295l-0.1,0h-0.3l-0.7,0.1h-0.4l-0.6-0.1l-0.1-0.1l-0.1-0.3l-0.2-0.1
	l-0.3,0.1l0.2-0.2l0.2-0.1l0.3,0l0.3-0.1l0.3-0.1l0.1-0.3l-0.1-0.2l-0.4-0.2l0.6-0.4l0.4,0.1l0.2-0.1l0.2-0.2v-0.3l-0.1-0.2l0-0.1
	l0.1,0l0.1,0.1l0.3-0.2l0.4-0.4l0.1-0.1l0.1-0.2l0.1-0.5l0.1-0.4l0.1-0.5l0-0.5l-0.1-0.5l-0.2-0.4l-0.8-0.6l-0.3-0.1l-0.6-0.2
	l-0.3,0l-0.3-0.1l-0.3,0l-0.4,0l-0.1,0.1l-0.2,0.4l-0.1,0.1l-0.1,0.1l-0.1,0l-0.7-0.5l0.2-0.3l0.2-0.3l0.2-0.2l0.2-0.4l-0.2-0.8
	l-0.4-0.6l-1.2-1.1l-0.5,0l-0.5-0.1l0.3,0l0.3,0l0.5-0.1l0.3,0.2l0.3,0.2l0.1,0l0.2,0l0.1,0l0.1,0.1l-0.3-0.6l-0.3-0.6l-0.2-0.4
	l-0.1-0.4l0.1-0.3l0.2-0.2l-0.4-0.3l-0.4-0.4l-0.4-0.6l-0.4-0.5l-0.2-0.2l-1.1-0.5l-0.2-0.2l-0.2-0.3l-0.4-1.2l-0.3-1.1l-0.2-1.2
	l-0.1-0.4l-0.2-0.2l-0.3-0.3L470,274l-0.4-0.5l-1.3-0.6l-0.7,0l-0.5,0.3l-0.1,0l-1.6-0.3l-0.3-0.1l-0.2-0.3l0.3,0.2l0.6,0.1l0.3,0
	l0.3-0.1l0.2-0.2l0.6-0.6l0.6,0l0.3-0.3l0.1-0.3l-0.6-0.4l-0.6,0l-0.3,0.1l-0.3,0l0.3-0.1l0.2-0.2l0.2-0.1l0.8-0.2l0.3-0.2l0.2-0.2
	l0.3-0.4l0.2-0.5l0.5-0.7l0.5-1.2l0.1-0.3l0-0.3l0.1-0.3l0.2-0.5l0.3-0.4l0.1-0.3l0-0.1l-0.2-0.6l-0.3-0.3l-0.3-0.1l-0.5,0.1
	l-1.7-0.1l-0.2,0l-0.2,0.1l-0.1,0l-0.6-0.2l-0.3,0l-0.6,0.2l-0.7,0.3l-0.3,0.1l-0.4,0l0.2-0.5l0.5-0.6l0.1-0.2l-0.1-0.1l-0.4-0.1
	l0-0.3l0.1-0.2l0.6-0.5l1-1l0.6-0.4l0.2-0.3l0.1-0.2l0-0.1l0-0.4l0.1-0.4l0-0.1l0-0.1l-0.6-0.1l-0.5,0.2l-0.6,0.1l-0.6,0.2l-0.9,0.1
	l-0.7,0.2l-0.2-0.3l-0.1,0l-0.4,0.3l-0.1,0l-0.1-0.2l-0.1-0.1l-0.3-0.1l-0.1,0l-0.1,0.1l-0.1,0.2l0,0.2l0,0.4l0,0.2l0,0.2l0.1,0.2
	l0.1,0.2l-0.1,0.1l-0.6,0l-0.2,0.1l0,0.1l0,0.2l0,0.2l-0.2,0.4l0,0.1l0.6,0.7l0.1,0.1l-0.4-0.1l-0.1,0l-0.1,0.1l-0.7,0l-0.2,0.3
	l-0.1,0.2l-0.1,0.6l0,0.1l0.1,0.2l0.1,0.1l0.3,0.1l-0.3,0.1l-0.2,0.1l-0.1,0.2l0,0.2l0.1,0.3L459.8,266.2z M466.5,258.5l0.2,0
	l0.2-0.1l0,0l-0.1-0.1l0-0.1l0-0.2l-0.1-0.3l-0.2-0.1l-0.1,0l0,0.1l0.1,0.2L466.5,258.5z M497.8,232l0.3,0.1h0.3l0.1-0.2l0-0.4
	l-0.2-0.2l-0.4,0.1l-0.4,0.2l0,0.2L497.8,232z M456.8,261l-0.1,0.1l0,0.1l0.2,0.5v0l-0.2,0l-0.2,0.1l-0.2-0.2l-0.2-0.1l0,0l0,0.1
	l-0.1,0.1l0,0.2l0,0.2l0,0.1l0.1,0l0.1,0.1l0.1,0l-0.2,0.2l0,0.1l0.1,0.1l0.4,0.2l0,0l-0.2,0.2l0,0.1l-0.4,0.3l0.2,0.3l0.1,0.1h0.1
	l0.1-0.1l0.2-0.3l0.2,0l0.3-0.4l0.3-0.2l0.4-0.4l0.1-0.1v-0.2l-0.1-0.1h-0.3l0.4-0.2l0.1-0.2l0.1,0l0.4-0.9l0-0.4l-0.1-0.3l0-0.1
	l-0.2,0.1l-0.7,0.5L456.8,261z M458,264.5l-0.1,0l-0.1,0.3l-0.7,0.2v0l0.1,0.2v0.1l-0.1,0.1l-0.1,0l-0.2-0.1l-0.1,0.2l0,0.1l0.1,0.2
	l0.2,0.3l0.6,0.2l0.2,0.5l0.1,0.2l0.2,0.1l0.3,0l0.4-0.1l0.1,0.8l0.1,0h0.1l0.1-0.1l0.3-0.4l0.3-0.3l0.1-0.1l0-0.1l-0.1-0.1l-0.5,0
	l-0.5-0.1l-0.1-0.1l-0.1-0.1l0-0.2l-0.1-0.3l0-0.3v-0.2l-0.1-0.4l-0.2-0.3L458,264.5z M456.7,242.7l-0.3-0.1l-0.1-0.2l-0.1,0l0,0.2
	l0.1,0.4l0.3,0.5l0.2,0.2l0.1,0l-0.1-0.2l0-0.3l-0.1-0.2L456.7,242.7L456.7,242.7z M458.1,267.8l-0.1-0.1l-0.3,0.2l0.1,0.2l0.1,0.1
	l0.1,0l0.1-0.1l0-0.1v-0.1L458.1,267.8z M458,271.3L458,271.3l0,0.2l0.4,0l1.1-0.3l0-0.7l-0.2-0.2l-0.3-0.1l-0.2-0.4l-0.2-0.2
	l-0.1,0l-0.1,0l-0.3,0.2L458,270l0,0.1l0,0.1l0.5,0.3l-0.1,0.7L458,271.3z M457.3,239L457.3,239l0.2,0.1l0.1-0.4l-0.2-0.2l-0.2-0.4
	l0,0.5L457.3,239L457.3,239z M457.3,269.7L457,270l0,0.1l0.2,0l0.2-0.2l0.1-0.2l-0.1,0L457.3,269.7z M458.9,274L458.9,274l0.5-1
	l0.2-0.6l-0.1,0l-0.1,0.1l-0.4,0.3L459,273l0,0.1l0.2,0.1l-0.4,0.2l-0.1,0.2v0.2l0,0.1l0,0.1L458.9,274z M454.6,268.2l0.2-0.1l0-0.1
	l0-0.1l-0.1-0.1l-0.2,0.1l-0.1,0.2L454.6,268.2L454.6,268.2z M454.9,266.9l0.1,0.3l0.1,0.1l0.2,0l0.1,0l0-0.1l0-1.3l-0.1-0.1l-0.3,0
	l0,0.4l0,0.4L454.9,266.9z M450.6,177.6l0.9-0.9l0.9-0.4l0.8-0.5l0.1-0.6l-0.1-0.5l-1,0.3l-0.5,0.9l-1.2,1l-0.4,0.5l0.1,0.2
	L450.6,177.6z M456.6,240.4l0.2,0.2l0-0.1l0-0.2l-0.2-0.5l-0.1-0.1l0-0.1l0-0.1l0.1,0.1l0.2,0.2h0.1l0.1-0.8l-0.5-0.2l-0.4-0.3
	l-0.6,0.2l0.5,1.1L456.6,240.4z M456.6,240.9l-0.1-0.1l-0.1,0l0.1,0.2l0.1,0.1l0.2,0.1l0.3,0.3h0.1l0.1-0.2l0-0.1l-0.1-0.2
	L456.6,240.9z M455.1,265.2h0.4l0.2-0.5l-0.3-0.3l-0.2,0.1l-0.1,0l-0.2,0.1l-0.1-0.1l-0.1,0l-0.1,0.1l0,0.1v0.1L455.1,265.2z
	 M455.3,240l0.2,0l0.2,0l0.1-0.2l-0.1-0.2l-0.2-0.2l-0.1-0.1l-0.3,0.1l-0.2,0l0.1,0.4L455.3,240z M548.3,175.3l-0.8-0.3l-0.5,0.4
	l-0.3,0.4v0.2l0.5,0.1l0.3,0.5l0.5,0.1l0.1-0.1l0.6-0.1l0.4-0.2l0-0.4l-0.2,0.1l-0.4-0.6H548.3z M533.7,182.7l-0.5,0.2l-0.2,0.4
	l0,0.3l0.2,0.4l0.2,0l0.2,0.1l0.1,0.1l0.2-0.1l0.2-0.2l0.1-1l-0.1-0.1L533.7,182.7z M567,70.1l2.9-1.3l0.2-0.3l-0.7-0.4l-0.8,0.2
	l-0.2,0.2l-4.3,1.8l0.3,0.4L567,70.1z M541.1,178.6l0.2-0.3l0.1-0.3l0.1-0.3l-0.1-0.2l-0.3,0.3l-0.2,0l-0.7,0.9l-0.3-0.1l-0.8,0.3
	l-0.4-0.1l-0.2,0.4l-0.3-0.1l-0.2,0.1l-0.5,0l0.2,0.4l0.3,0.4l0.5,0.4l0.2,0.1l0.3-0.1l0.1-0.1l0.1-0.2l0.5,0.1l0.2-0.1l0.1-0.2
	l0.4-0.2L541.1,178.6z M529.3,144.6l0.3-0.4l0.2-0.7l0-0.2l-0.2-0.4l-0.9,0l-0.2,0.3l0.3,0.8L529.3,144.6z M526.3,189.9l0.2-0.4
	l-0.1-0.5l-0.1-0.4l-0.2,0l-0.2-0.3l-0.2-0.2l-0.3,0.1l-0.2,0.1l-0.3-0.5l0,0.1l0,0.1l-0.1,0.3l-0.3,0l-0.3,0.2l-0.1,0.2l0.4,0.3
	l0.1,0.2l-0.1,0.3l-0.8-0.1l-0.2,0.3l0,0.2l-0.1,0.4l0.1,0.7l-0.1,0.4l-0.4,0.2l-0.1,0.1l0,0.2l0.4,0l0.3,0.2l0,0.3l0.2-0.1l0.5-0.8
	l0.5-0.5l0.2,0.3l0.6-0.1l0.5-0.2l-0.1-0.6l0.1-0.4L526.3,189.9z M542,180.8l0-0.3l0-0.4l-0.1-0.4l-0.1-0.2l-0.8,0.9l-0.2-0.1
	l-0.4,0.2l-0.2,0.4l-0.1,0.2v0.3l0.2,0.3l0.2-0.2l0,0.2l0,0.5l0.2,0.1l0.3-0.1l0.2-0.2l0-0.2l0.6-0.6L542,180.8z M527,188.4l0.4-0.1
	l1-0.2l0-0.2l0-0.3l0.3-0.5l0.3-0.4l0.3-0.4l0.2,0.1l0.4-0.2l0.3-0.7l0.4-0.5l0-0.4l-0.3-0.2l-0.2,0.1l-0.1,0.2l-0.2,0l-0.2-0.4
	l0-0.9l-0.1-0.6l-0.2,0l-0.2,0.6l0,0.3l0.1,0.4l-0.1,0.4l-0.2,0l-0.2,0.3l-0.2,0.4l-0.4,0.6l0,0.2l0.1,0.3l-0.1,0.4l-0.1-0.3
	l-0.1,0.1l-0.2,0.3l-0.3-0.1l-0.2,0.1l-0.1,0.4l-0.1,0.1l-0.1,0.2l0,0.3l-0.4,0.1l-0.1,0.2l0.2,0.4L527,188.4z M505.9,76.9l0.2,0.8
	l-0.2,0.9l0,0.4l0,0.6l0.3,0.9l0.1,0.7l0.1,1l0.1,0.7l0.4,1.1l0.3,1.5l0.4,0.3l0.5-0.6l0.3-0.8l-0.1-1.2l0.3-0.1l0.8,0l0.3,0.4
	l-0.2,0.8l-0.4,0.9l0,0.6l0.1,0.5l0.2,0.8l0.2,0.6l0.1,0.1h0.5l0.3,0.1l0.1,0.2l-0.2,0.6l-0.1,0.1l-2-1.2l-0.3,0.2l-0.2,0.3l0.7,1
	l0.7,0.7l-0.3,0.3l0,0.7l0.1,0.7l0.3,0.6l0.3,0.4l0.5,0.5l0.3,0.2l0.5,1.6l0.6,1.4l0.4,0.5l0.1,0.3l0.1,0.4l0.7,0.9l1.4-0.1l0.7-0.3
	l0.6-0.1l0.4-0.5l0.3-0.7l0.4-0.4l0.4-0.3l-0.3-0.7l-0.3-0.4l0.1-0.7l0.1-0.6l0-0.7l-0.1-0.6l0.3-0.4l0.3-0.2h0.2l0.1,0.2l0.1,0.6
	l0.2,0.4l0.3,0.1l0.3-0.5l0.2-1l0.3-0.7l0.2,0.1l0,0.7l-0.1,0.8l-0.2,0.8l0,0.3l0.1,0.5l0.2,0.9l0.2,0.2l0.7,0l0.7-0.3l0.6-0.6
	l0.8-1.4l0.2-0.2l0.7-0.1l-0.2,0.7l-0.7,1.6l0.2,0.8l0.5,0.6l0.2,0.1l0.5,0l0.5-0.2l-0.5,0.7l-0.6,0.3l-1.8,0l-0.8,0.2L520,97
	l-0.4,0.4v0.5l0.1,0.5l-0.5-0.1l-0.5,0.2l-1,1l-2.1,1.1l0.2,0.9l-0.7-0.8l-0.3-0.2l-0.3,0l-0.2,0.1l-0.2,0.2l-0.1,0.4l0.1,1.5
	l0.1,0.5l0.1,0.4l0.5,0.8l0.4,0.3l1.4,0.1l0.7-0.2l0.7-0.4l0.7-0.6l0.7-0.2l0.7,0.3h0.7l1.3-0.4l0.9-0.4l0.2,0.2l0.2,0.8l0.2,0.6
	l-1.2,0l-1.2,0.2l-3.6,1.2l-0.6,2.1l-0.3-0.2l-0.3-0.4l-0.3-0.1l-0.9,0.2l-0.1,0.2L515,108l0,0.8l0.1,0.5l0.3,0.9l0.3,0.7l0.3,0.6
	l0.3,0.4l0.7,0.5l1.1,1l1.2,2.5l1.3,1.6l0.3,0.3l0.3,0.4l0.3,0.7l0.3,0.4l0.7,0.4l0.7-0.3l0.4-0.6l-0.1-0.8l-0.2-0.7l0-0.4l0.5-1
	l0.3-0.9l-0.2-0.5l-0.1-0.5l0.5-1.4l0.3-0.9l0.5-2.2l0.6-1.3l0.8-0.1l0.2-0.2l0.2-0.7l0.2-1.4l0.1-1.5l0.1-2l0-0.7l0-0.5l0.4-0.3
	l0.4,0.1l0.3,0l0.5-0.5l0-0.7l-0.1-0.7l0.1-0.7l0.2-1.2l0.3-0.8l0.7-1.4l0.7-1.2l0.1-0.5l0.1-0.2l0.3-0.2l1.7-0.3l1-0.4l1-0.1
	l0.4-0.3l0.4-0.6l-0.1-0.5l-0.1-0.3l-0.6-0.8l-1-0.8l-0.6-1.1l0.8-1.2l-0.4-0.7l-0.4-0.3l-0.8-0.2l-0.1,0.3v0.7l-0.6,0.3l-0.4-1.3
	l-0.7-0.4l-1.1,0.3l-0.3-0.3l-0.3-0.8l-0.3-0.4l-0.3,0l0.1-0.3l0.2-0.3l0-0.5l0-0.7l-0.1-0.6l-0.1-0.5l-0.1-0.4l-0.5-1.3l-0.5-0.5
	l-0.2-0.1l-0.2,0.2l-1.2,2.5l-0.5,0.8l0.1-0.7l0-0.8l-0.1-0.8l0.1-0.6l0.4-1l0.3-1.1l-0.3-1.5l-0.4-0.9l-0.3-0.4l-1-0.9l-0.7-0.3
	l-0.1,0.2l-0.1,0.4l-0.1,0.2l-0.2,0l-0.7-1.8l-0.4-0.5l-0.4,0.1l-0.4,0.7l-0.1,0.9l0.1,1.1l-0.4,0.8l-0.3,1.6l0,0.4l0,0.4l0.1,1.5
	l0.1,1.1l0.4,2.7l0.6,3.5l0.2,2l-0.1-0.1l-1.2-2.7l-0.3-0.2l-0.3-0.9l-0.6-2.6l-0.5-2.1l-0.6-2l-0.6-1.4l-0.7-0.5l-0.6,1.2l-0.6,1.7
	l-0.4,0.5l-0.1,0.7l0,0.9l0,0.8l0.1,0.7l-0.1,0.6l-0.2,0.1l-0.3-0.6l-0.3-0.8l-0.3-0.4l-0.5-0.2l-0.1-0.2l-0.1-1.4l-0.3-0.2
	l-1.9,0.3l1.4-1.8l2.1-0.5l0.4-0.6l0-0.2l0-0.5l0-0.4l-0.6-0.7l-1.6,0.5l-1,0.9l-0.4,0l-0.9-0.7l-0.2,0.3l0.1,0.8l0.1,0.6l-0.2-0.1
	l-0.3-0.3l-1.1-1.3l-1,0.3l-0.3,0.2l-0.2,1l-0.1,0.1l-0.3-0.7l-0.5-0.6l-0.2,0l-0.2,0.2l-0.2,0.5l0,0.4L505.9,76.9z M527.2,71
	l1.4,0.4l-0.4,0.7l-0.4,0.5l-1,0.6l0.1,0.7l0.1,0.4l0.3,0.6l0.8,1l0.6,0.4l1.3,0.2l0.7,0l0.7-0.2l0.6-0.5l1,0.1L534,76l-0.3,0.7
	l-0.3,0.3l-0.2,0.9l-0.9,0l-0.5-0.1l-0.5,0.1l-0.2,0.2l-0.2,0.4l0.6,0.9l0.6,0.7l0.8,0.4l1,0.3l0.1,0.5l0.2,0.2l3,0.3l2.7-0.5
	l-0.5,1.3l0.3,1L540,84l2.4,0.4l0.5,0.2l0.5-0.3l0.3-0.7l0.3-0.6l1-1l0.3,0l0.8,0.4l0.3-0.1l1.1-0.9l0.2-0.6l0.5-1.9l0.3-0.9
	l0.6-0.9l2.4-3l0.3-0.7l-0.1-2.5l-0.4-1.1l-0.4-0.6l-1.2-0.2h-1.7l-0.2-0.2l-0.2-0.4l-0.5-0.4l-1.6-0.7l-0.3-0.4l-0.1,0l-0.3,0.3
	l-0.2-0.2l-0.4-1l-0.3-0.1l0,0.5l-0.1,0.4l-0.3,0.1l-0.5-0.2l-0.5,1l-0.2,0.6l-0.9,0.5l-0.7-0.1l0.3-2.2l0.1-1.1l0.2-0.8l-0.2-0.4
	l-0.7-0.5l-0.3,0.1l-0.3,0.6l-0.3,0.3l-0.3-0.1l-0.3,0.2l-0.1,0.6l0.1,1l0,2l-0.2,1.7l-0.2,0.7l-0.3-0.2l-0.8-1.2l-0.3-0.1l-0.2-0.3
	l-0.1-1l-0.3-0.4l-1.5,0.1l-0.3-0.2l-0.6-0.8l-0.6-1.2l-0.3-0.5l-0.7-0.5l-0.7-0.7l-0.3-0.1l-0.3,0.3l0.2,1l0.2,0.8l0.1,0.4l0,0.5
	l-0.1,1.1l-0.5-0.4l-0.7-1.2l-0.2-0.2l-0.2,0.1l-0.1,0.5l0.1,0.6L530,69l0.5,0.4l-0.5,0.8l-0.6-0.4l-0.5-0.6l-0.5-0.3l-1.9,0.4
	l-0.5,0.5l0.6,0.8L527.2,71z M528.3,67.1l-0.6-0.8l-0.6-0.2l-0.2,0.4l-0.1,0.7l1,0.7L528.3,67.1z M555.7,89l1.1,0.1l1.2,0.4l1.1-0.8
	l-0.1-0.2l-0.8,0.2l-0.8-0.1l-0.6-0.9l-0.9,0.1l-0.3,0.1l-0.1,0.5l-0.7,0.3l-0.7,0.8l0.4,0.3L555.7,89z M542.6,178.7l0-0.1l-0.2-0.1
	l-0.2,0.2l-0.1,0.4l0,0.7l0.1,0.3l0.3,0.3l0.5-0.3l0.2-0.7l-0.3-0.4L542.6,178.7z M447.6,283.1l0.2,0.2l0-0.1l0-0.4l-0.1-0.1l-0.4,0
	l-0.1-0.1l-0.2,0.2l0.6,0.1L447.6,283.1z M531,183.3l0.1,0.4l0.1,0.3l0.3,0.1l0.3-0.1l0.2-0.2l0-0.2l-0.2-0.2l-0.2-0.4l-0.1-0.1
	l-0.1,0.1l-0.1-0.1l-0.2-0.5l-0.2,0.1l0,0.4L531,183.3z M550,90.2l-0.1,0.4l0.2,0.9l0.8,1.1l0.4,0l0.4-0.7l-0.6-0.4l-0.6-1.3
	L550,90.2z M630.7,66.6l-0.4,0.5l-0.3,0.7l0.2,0.5l0.4,0l0.8-0.8l-0.1-0.5l-0.2-0.3L630.7,66.6z M638.4,42l0.9-0.4l3-0.8v-0.4
	l0.1-0.9l-0.4-0.6l-3.2,0.5l-0.4,0.6l-0.1,1l-0.1,0.5l0,0.2L638.4,42z M628.3,58.8l0.4,0.1l0.2,0.3l0.1,0.5l1.3-0.2l1.2,0.8l0.5,1.1
	l0.5,0.2l1.2-0.1l1.4-0.5l2.2-1.6l0.3-0.6l-0.3-0.5l-1.8-1.7l-1.2-1.5l-0.8-0.6l-2,0.2l-2.1-1.7l-0.2,0l-0.6,2.3l-0.1,1.5l-0.4,0
	l-0.5,0.5l0.1,1L628.3,58.8z M641.8,72.8l0.1,0.2l0.4,0.2l1-0.5l0.6-0.6l-0.3-1.4l-0.7-0.6l-1.5,1.1l-0.2,0.2l-0.1,0.9l0.5,0.3
	L641.8,72.8z M632.1,51.5l1.3-0.7l0.5,0.8l0.4,0.1l0.4-0.4l0.4-0.7l1,1.1l0.8,0.8l0.9-0.6l0.4-0.5l0.3-1l-0.3-0.9l-0.2-1.2l1.4-0.3
	l0.5-0.6l-0.4-0.9l-1.2-0.4l-0.4-0.4l-0.2-0.8l-0.3-0.4l-0.7,0.4l-0.3,0.2l-0.8-0.1l-0.3,0.6l-0.7,1.7l-0.9,0.7l-0.7,1.6l-1-0.5
	l-0.9,0.3l0.3,1.5L632.1,51.5z M628.4,64.2l0.1-0.4l-0.1-0.7l-0.6-0.4l-0.1-0.2l-0.8-0.5l0,0.7L627,63v0.5l-0.1,0.2l-0.1,0.5L628,65
	L628.4,64.2z M641.5,49.6l0.6-0.2l0.2-0.4l-0.3-0.8l-0.6-0.6l-0.5,0.1l-0.7,0.6l-0.1,0.4l0.3,0.4L641.5,49.6z M643.1,186.9l0.2,0.1
	l0.2,0.1l0.3,0l0.3-0.2l0.5,0.2l0.3-0.2l0.3-0.1l0.1-0.6l0-0.8l-0.1-0.4l-0.2-0.2l-0.6-0.5l-0.6-0.7l-0.9-0.7l-0.3-0.4l-0.3-0.5
	l-0.3-0.4l-0.6-0.6l-0.1-0.2l-0.1,0l-0.6,0.3l-0.3,0.6l-0.2,0.1l-0.3,0.3l-0.1,0.4l0.3,0.9l0.1,0.2l0.1,0.3l0.1,0.3l0.8,1.3l0.1,0.1
	l0.2-0.2l0.2-0.1l0.3,0.2l0.3,0.1l0.3,0.2l0.2,0.6l0,0.4L643.1,186.9z M669,118.6l0.1-0.6l-0.1-0.7L669,117l-0.5-1l-0.6-0.8
	l-1.3-0.7l-1-0.3l-0.3,0.1l-0.8,0.6l-1.2,0.5l-1.4,1.3l-0.8,0.9l-0.3,0.7l-0.3,0.9l-0.3,0.4l-0.3,0l-0.3,0.1l-0.6,0.6l-0.3,0.2
	l-0.3,0l-0.3,0.2l-0.7,0.7l-0.7,0.6l-2.6,0.8l-1.6,0.9l-0.5-0.1l-0.9,0.2l-0.7-0.1l-1.3-0.6l-0.6-0.1l-1,0.2l-0.1,0.1l-0.3,0.5
	l0,0.8l0,0.6l-0.2,0.4l-0.2,0.2l-0.4,0l-0.2-0.4l-0.3-0.1l-0.9,0.1l-0.5,0.3l-0.2,1l-0.7,0.4l-1.2,0.4l-0.7,0.4l-0.3,0l-0.3,0.2
	l-0.6,0.9l-0.7,0.6l-1,0.6l0,0.5l0.1,0.3l-0.9,1l-0.2,0.6l-0.2,1.1l-0.1,0.2l-0.9-0.4l-0.6-0.1l-0.3,0.1l-0.4,0.3l-0.1,0.2l0.1,0.6
	l0.1,0.4l-0.9,1.6l-0.2,0l-0.3-0.5l-0.3-0.3l-0.3-0.2l-0.4-0.1l-0.3,0.3l-0.3,0.5l0,0.4l0.1,0.4l0.4,0.6l1-0.1l0.2,0.4l0.2,0.2
	l-0.8,0.6l-0.8,1.1l-0.7,1.5l-0.2,0.3l0.1,0.4l0.1,0.4l0.2,0.2l0.5,0l0.5,0.5l-0.2,0.2l-1.9,0.5l-0.2,0.2l-0.9,2.4l-0.3,0.6
	l-0.2,0.3l-0.3,0.6l-0.2,0.8l-0.1,0.1l-0.6,0.2l-0.6,0.5l-0.6,0.6l-0.3,0.2l-0.2,0.4l0.2,0.7l1,1.5l-0.2,0.6l0.5,1.3l0.8-0.7
	l0.6-0.3l0.7,0l0.8,0.6l0.8,0.4l1.4,0.1l0.5,0.3l0.6,0.2l0.6-0.1l0.9-0.6l0.5-1.4l0.9-1.1l0.2-0.5l-0.2-0.9l-0.5-0.7l0.1-0.2
	l0.4,0.1l0.4,0.5l0.2,0.1l0.3,0l0.2-0.4l0.1-0.5l0-0.5l-0.2-0.8l0-0.4l1.9-1.2l0.5-1l0.1-0.6l0-0.4l-0.2-1l-0.2-0.4l0.1-0.4l1.1,0.4
	l0.3-0.2l0.2-0.2l0.1-0.5l0-0.6l0.1-0.6l0.2-0.3l1,0.8l0.2,0l0.2-0.3l0-0.3l-0.1-0.3l0-0.5l0.7,0l0.3-0.1l0.4-0.4l0.2-0.4l0.4-0.4
	l0.2-0.3l-0.1-0.4l-0.6-0.3l0.1-0.4l0.6-0.5l0.2-0.1l0.3,0.1l0.2-0.1l0.3-0.5l0.3-0.6l0.6-0.6l0.3-0.6l0.3-0.4l0.4,0l0.4-0.1
	l1.3-1.2l2.8-1.7l0.8-0.3l1-0.7l0.3,0l1.4-0.5l1.3-0.8l1.3-0.6l1.2-0.8l1.9-0.9l1-0.7l0.7-0.3l0.7-0.4l0.7-0.6l1.1-0.9l1.1-0.6
	l0.2-0.3l0.9-1.6l1-1.5l-0.1-0.4L669,118.6z M620.5,166.7l-0.3,0.8l-0.1,0.4l0,1l0,0.4l0.2,1.1l0.2,0.7l0.3,0.4l0.3,0.3l0.3,0.1
	l0.7-0.1l0.7-0.4l0.7,0.3l0.7,0.1l1.3-0.4l0.1,0.1l-0.2,0.5l0,0.7l0.2,0.5l0.3,0l0.3,0.1l-0.1,0.3l0.8,0.9l0.8,0.6l-0.2,0.2
	l-0.5-0.3l-0.2,0.1l0.1,0.5l-0.5-0.1l-0.2,0.3l0,0.4l0.1,0.4l0,0.3l-0.4,0.1l-0.2,0.2l1,0.5l1.3,0.4l0.4,0.2l0.5,0.4l0.2,0.1l0-0.3
	l0.1-0.2l0.6,0.5l0.5,0.1l0.5,0l1.3-0.2l0,0.1v0.3l0.2,0.2l0.3-0.1l0.1-0.2l0.4,0.3l0.1-0.2l0.1-0.1l0.8,0.8l0.2,0l0.2-0.2l-0.4-0.6
	l-0.2-0.1l-0.2-0.3l0.3-0.2l0.3,0l0.2,0.3l0.2,0.4l0.1,0.1l1.4,0.5l0.3-0.1l0-0.3l0.5-0.2l0.5-0.6l-0.2-0.3L637,178l-1.2-0.7
	l-0.5-0.4l-1.2-1.6l-1.2-2.1l-0.6-1.4l-0.6-1.6l-0.2-0.8l-0.2-0.8l-0.5-0.6l0.2-0.7l0.1-0.8l0.3-0.7l0.1-0.4l-0.3-0.9l0-0.6
	l-0.1-0.3l0-0.5l0.2-0.3l0-0.4l0.1-0.2l0.5-0.2l0.2-0.7l0-0.5l0-0.4l0.3-0.2h0.7l0.1-0.2l0.1-0.4l0.1-0.5l-0.1-0.8l0.1-0.5l0.4-0.8
	l0.2-0.2l0.1-0.6l-0.2-0.2l-0.6-0.3l-1-0.1l-1.3-0.4l-0.6-0.5l-0.5-0.3l-0.4,0l-0.4,0.2l-1,0.7l-0.3,0.2l-0.3,0.1l-0.6-0.2l-0.3,0.1
	l-0.3,0.3l-0.3,0.2l-0.4,0.1l-0.3,0.4l-0.2,0.3l0,0.4l0.1,0.9l0,0.4l0.3,0.5l-0.3,0.1l-0.3-0.1h-0.3l-0.3,0.1l-0.3,0.2l-0.7,0.8
	l-0.1,0.2l-0.1,0.3l0.2,0.3l0.2,0.2l0.7,0.1l-0.2,0.5l0,0.3l0.1,0.4l-0.3,0.6l-0.1,0.4l0,0.4l-0.1,0.5l-0.1,0.3l-0.1,0.2l-0.3,0.3
	l-0.2,0.5l-0.2,0.4l-0.2,0.2l-0.5,0l-0.5-0.2l-0.2,0.1l-0.4,0.4L620.5,166.7z M625,174.8l0-0.5l-0.1-0.2l-0.2,0l-0.2-0.5l-0.2-0.6
	l-0.4-0.3l-0.1,0l0,0.1l0,0.3l-0.3-0.2l-0.3,0l-0.6,0.2l-0.2,0.3l0,0.4l0.1,0.1l0.4,0.3l0.3-0.1l0.5,0.6l0.1,0.6l0.1,0.2l0.3,0.3
	l0.2,0.4l0,0.4l0.3-0.1l0-0.1l-0.2-0.3l0.1-0.3L625,174.8z M623.2,68.7l0.2,0.2l0.1,0.2l0.6,0.1l1.9-0.2l0.4-0.6l0.3-0.1l0.2-0.7
	l-1-0.9l-0.4-0.7l0-0.6l-0.4-0.2l-0.9,0.2l-0.4,0.9l-0.1,0.5l-0.3,0.4l-0.9,0.3l-0.2,0.2l0.4,0.8L623.2,68.7z M613.1,188.6l-0.3,0.1
	l-0.6,0.5l-0.6,0.7l-0.3,0.6l-0.1,0.7l0,0.7v0.4l0,0.4l0.1,0.3l0.3,1.1l0.6,0.6l0.7-0.1l0.8-0.3l1.2-0.6l0.6-0.9l0.2-0.6l0.5-0.6
	l0.1,0.2l0.1,0.5l0.2-0.1l0.2-0.3l0-0.8l-0.3-0.6l-0.5-0.4l-2.2-1.6L613.1,188.6z M619,73.1l1,0.2l0-0.2l-0.1-0.2l-0.2-0.4l-0.2-0.3
	l0-0.3l0-0.6l-0.9-0.7l-0.7,0.7l-0.6,0.2l-1.1,0.9l1,0.9L619,73.1z M639,53.3l-0.2-0.4l-0.2-0.1l-1.1,1.6l-0.7-0.3l-0.6,0.5l0.5,1.8
	l1,0.5l0.5,1.7l1,0.5l1,0l0.6-0.2l0.2-0.9l-0.1-1.2l-0.2-0.6l-0.2-1l-0.4-0.9l-0.3-0.4L639,53.3z M617.2,53.5l0.3,0.7l0.3,0.1
	l0.4-0.1l0.1-0.4l0.4-0.7l-0.2-0.8l-0.5-0.4l-0.3,0l-0.2,0.2l0,0.3l-0.1,0.3l-0.3,0.1l0,0.4L617.2,53.5z M613.5,63.4l-1.3,0.1
	l-0.5-0.8l-0.2-0.2l-0.3,0.1L611,63l-0.9,0.2l-0.7,0.5l-0.7,0.9l-2.1,2.4l0.3,0.7l0.3,0.3l0.4,0.9l0.7,0l0.3-0.1l0.3-0.7l0.6-0.2
	l0.7,0.1l0.2,0.4l-0.7,1l-0.2,0.7l0.3,0.5l0.6-0.1l0.2-0.2l0.2-0.4l0.2-0.2l0.6,0.6l0.2-0.2l0.2-0.8L612,69l0.1-0.2l0.6,0.6l0.3,0.1
	l0.2-0.1l0.1-0.7l-0.1-0.6l-0.1-0.4l-0.1-0.2l-0.7-0.2l0-0.2l0.4-0.9l0.2-0.3l1.9-0.1l0.6-0.8l-0.1-0.8l0.3-0.4l1.2-0.5l1.9-0.2
	l0.5-1.1l1.6-1.4l-0.3-0.9l-0.4-0.1l-1.5-2.6l-0.3-0.4l-1,0.1l-0.4-0.3l-0.4,0.1l-1.7,1l-0.7,0.8l-0.3,1.9l0.1,1l0,1.7L613.5,63.4z
	 M616.2,70.8l0.1-0.6l0.7-1l0-0.2l-0.2-0.6l-1-0.2l-0.9,1.2l0.1,0.4l1.1,1.2L616.2,70.8z M666.2,196.7l-0.4-0.3l-0.3-0.5l-1.4-1.4
	l-0.4-0.9l-0.7-0.1l-1-0.4l-0.1-0.1l-0.8-0.6l-0.8-0.3l-0.2-0.4l-0.6-0.3L659,191l-0.8-0.5l-0.4,0.2l0.1-0.6l-0.9-0.9l-1.1-0.8
	l-2.3-1.1l-2-0.6l-2.4-0.2l-2.1-0.7l-0.3,0l-0.3,0.2l-0.7,1l-0.8,0.3l-0.3,0.5l0.5,1.1l0.9,2.8l0.5-0.3l0.2,1.2l-0.3,0.7l-0.5,0.8
	l-0.4,0.4l-0.9,0.2l-0.7-0.1l-0.1,0.8l0.2,0.7l0,0.3l-0.1,0.4l-0.1,0.2l-0.1,0.1l-0.3,0.2H643l-0.8-0.4l-0.6-0.3l0-1.3l0.3-0.6
	l0.2-0.1l0.2-0.2l-0.4-0.9l-0.3-0.4l-0.1-0.6l0-0.3l-0.4,0l-1.6,0.7l-0.3,0.6l-0.2-0.4l-2,1.9l-0.9,0.7l-0.6-0.1l-0.8-0.4l-1,0
	l-0.7-0.2l-0.3,0.1l-0.7,0.5l-0.7,0.1l-0.8,0.7l-0.6,0.8l-0.2,1.3l-0.4,0.1l-0.4-0.7l-0.2-0.2l-0.2,0.1l-0.5,0.1l-0.4,0.1l-0.4,0.2
	l-0.2,0l-1.1-0.2l-0.3,0l-0.4-0.1l0.1-0.3l0.1-0.2l0.6-0.2l0.3-0.3l0.4,0.1l0.3-0.4l0-0.8l-0.5-0.8l0.2-0.6l0.2-0.7l0.1-0.1l0.1-0.2
	l-0.1-0.2l-0.3-0.1v-0.2l0.2-0.1l1.4-0.3l0.3-0.2l-0.9-0.1l-1.1,0.1l-1.1,0.6l-2,1.4l-1,0.9l0.2,0l0.3,0.1l0.3,0.7l0.2,0.2l-0.2,0.4
	l-0.5,0.3l-0.2,0.2l-0.2,0.1l-0.2-0.1l-0.2-0.2l0.1-0.3l0.2-0.3l-0.4-0.6l-0.2-0.1l-0.2,0l-1.1,0.5l-0.8,0.6l-0.7,0.3l-0.7,0.1
	l-0.4,0.2l-0.8,0.8l-0.5,0.3l-0.8,0.8l-2.2,1.5l-0.6,0.1l-0.3-0.1l-0.2-0.2l-0.2,0.2l0.2,0.4l0.3,0.7l-0.1,0.4l-0.5-0.1l-1,0.3
	l-1.1,0.5l0,0.5l0.1,0.4l-0.2,0.7l-0.2,0.6l-0.2,1.7l-0.2,0.5l-0.5,0.3l-2.3,0.7l-0.4,0.1l-0.2,0.1l-0.1-0.1l-0.4-0.2H605l-0.3-0.1
	l-0.3-0.3l-0.4-0.7l-0.5-1.4l-1.2-0.7l-0.6-0.5l-0.1-0.4l0.1-0.5l1.2-1.6l0.4-0.5l1.8-0.4l0.7,0l0.7-0.2l0-0.9l-0.7-1.1l-0.8-1.3
	l-0.8-1.4l-1-0.5l-1.2-0.2l-2.5,0.3l-0.4-0.1l-1.6-1l-0.2,0l-0.2,0.1l0.1,0.3l0.1,0.2l2.2,2.1l0.1,0.6l0.1,0.8l0,0.3l0,0.3l0,0.6
	l-0.5,2.4l-0.5,1.7l-0.2,0.8l0,0.6l0.2,0.5l0.6,0.1l0.6,0.5l0.3,0.7l0.1,0.5l0,1l0.2,0.9l-0.5,1.3l-0.3,0.5l-0.3,1.2l0.1,0.9l0,0.3
	l-0.1,0.4l-0.2-0.3L599,214l-0.3-0.3l-0.3-0.1l-0.3,0.1l-0.2,0.2l0-0.4l0.3-0.5l-0.1-0.3l-0.2-0.2l-0.9-0.7l-0.6,0l-0.6,0.1
	l-0.6-0.1l-0.4-0.4l-0.4-0.2l-0.3,0l-0.4,0.4l-0.8,1.4l-0.9,0.9l-1.1,0.7l-0.8,0.2l-0.2,0.2l-0.5,0.8l-0.5,0.6l-1.4,1.1l-0.1,0.4
	l-0.1,0.6l0.1,0.7l0.3,0.6l0.7,1.3l0.4,0.4l0.3,0.7l0.2,0.8l-0.1,0.2l-0.6-0.2l-0.4,0.1l-0.6,0.5l0,0.2l-0.2,0.5l-0.5,0l-1.4-0.9
	l-1.2-0.5l-0.2,0l-0.3-0.2l-0.1-0.2l-0.5,0l-0.3,0l-0.3-0.2l-1.3-1.5l-1.1-0.6l-0.2,0l-0.5,0.2l-0.3,1.2l-0.4,0.3l-0.3,0l0,0.6
	l0.1,0.4l0.1,0.3l0.4,0.4l0.8,1.3l0.4,0.5l0.3,0.2l0.4,0l0.9-0.1l0.3,0.2l0.3,0.3l0.1,0.7l0.2,0.8l0,0.4l-0.3,0.5l-0.9,0.4l-0.5,0.5
	l-0.2,0l-1.1-0.6l-0.7-0.2l-1-0.4l-0.2-0.2l-0.4-1l-1-0.9l-0.4-0.3l-0.6,0.2l-0.4-0.1l-0.7-0.5l-0.5-0.8l0-1l0.1-0.2l0.1-0.1
	l-0.3-0.3l0-0.7l-0.1-0.5l-0.4-1.2l-0.4-0.7l-0.4-0.8l0.4-0.4l0.2-0.4l0.3-1.1l0-0.4l0.1-0.4l0-0.3l0-0.3L573,215l-0.8-1.2l-0.8-0.7
	l-1.5-0.7l-0.4,0l-0.2-0.1l0.3-0.1l0.3-0.3l0.2-0.4l-0.4-0.2l-0.3-0.1l-0.5-0.3l-0.1-0.3l0.1-0.2l-0.1-0.5l-0.7-0.2l-0.2-0.1l0-0.2
	l-0.5-0.6l-0.6-0.6l0.1-0.6l-0.5-0.5l-0.4-0.3l-0.6-0.1l-0.2-0.2l1.4,0.1l1.5,0.5l-0.1,0.2l-0.1,0.3l0.4,0.8l0.4,0.5l0.9,0.6h0.1
	l0.2-0.1l0.5,0.2l0.4,0.3l0.7,0l0.9,0.4l-0.1,0.1l-0.1,0.1l0.2,0.4l0.4-0.1l0.6-0.4l1.5,1.3l0.4,0.2l2.4,0.6l1.1,0.1l0.6,0.1
	l0.9,0.3l0.9,0.7l0.8,0.2l1.4,0.2l0.7,0l1.8-0.4l2.3-1.2l1.2-1l1.9-2.7l0.2-0.6l0.2-1.5l0-0.6l-0.3-0.1l-0.4-0.4v-0.9l-0.2-0.4
	l-0.3-2l-0.6-0.2l-0.3-0.2l-0.4-0.1l-0.4-0.3l-0.5-0.8l-0.5-0.6l-0.4-0.7l-0.2-0.3l-0.2-0.1l0.1,0.4l0.1,0.4l-0.7-0.1l-2.1-1.9
	l-0.3-0.1l-0.1,0.2l-0.6-0.3l-0.2-0.4l-1.8-2.1l-3.1-2.4l-2.1-1.5l-1.6-0.7l-0.2,0.1l-0.2,0.3l-0.5,0.1l-0.4-0.1l-1.4-0.6l-0.3-0.1
	l-1.5,0l-0.2,0.2l-0.5,1.2l-0.3,0.2l-0.5,0.2l0.2-0.4l0.4-0.3l0.2-0.9l0-0.4l0.1-0.5l0-0.4l-0.2-0.1l-0.4,0.1l-0.8,0.5l-0.1-0.1
	l0.2-0.5l-0.1-0.2l-0.3,0.1l-0.7-0.2l-0.7,0.1l-0.1-0.6l-0.5-0.3l-0.2-0.3l0.2-0.3l1.6,0.6l0.5,0l0.2-0.2l0-0.4l0-0.4l-0.2-0.2
	l-1.1-0.4l-0.5-0.5l-1.1-0.7l0,0.3l0.2,0.6l-0.1,0.2L565,186l-0.2,0.1l-0.3,0.8l-0.3,0.2l-0.3,0.1l-1.1-0.6l-0.5-0.1l-0.4-0.1
	l-0.3,0.1l-0.3,0l-0.2,0.6l-0.1-0.1l-0.1-0.8l-0.3-0.2l-0.2,0.2l-0.1,0.8l-0.2,0.2l-0.3-0.1l-0.6,0.1l-0.3-0.1l-0.2-0.3l0-0.3v-0.4
	l0.1-0.6l-0.1-0.3l-2.2-0.9l-0.1-0.4l3.2,0.4l1-0.2l0.6-0.6l1.3-0.6l0-0.6l-0.1-0.5l-0.9-1l-0.5-0.2l-0.6,0l0-0.2l0.1-0.5l-0.5-0.7
	l-0.3,0.1l-0.5,0.4l-0.2,0l0-0.2l-0.2-0.3l-0.7-0.2l-0.2-0.2l-0.3-0.6l-0.3-0.3l-0.8,0l-0.2,0.2l-0.4,0.7l-0.3,1.2l-0.1,1l-0.4,0.5
	l-0.1,0.3l-0.2,1.3l-0.1-0.3v-0.6l0.1-0.7l0-1.1l0.2-0.8l-0.2-0.3l-0.6,0.3l-0.3-0.1l0.2-0.3l0.9-0.7l0.2-0.2l0.2-0.4l0-0.9
	l-0.7-0.6l-0.9-0.1l-0.2-0.2l-0.4-0.1l-0.7,0.8l-0.3,0.4l0.1,0.3l0.8,0.7l0,0.2h-0.7l-0.3,0.5l-0.1,0.5l-0.2,0.6l-0.2,0.8l-0.9,0.8
	l-0.2,0.1v-0.4l0-0.4l0.1-0.4l0-0.7l-0.2-0.3l0.3-0.6l0.2-1l-0.2-0.7L550,177l-0.8,1.1l-0.7,1.3l-1.5,2.4l-0.2,0.9l-0.6,0.8
	l-0.5,0.2l-0.2-0.3l0-0.6l0.4-0.9l0.2-1.4l0.2-0.5l0.5-1l0.5-0.9l0.3-0.3l0-0.3l-0.2-0.1l-0.2,0l-0.2-0.2L547,177l-0.2,0.2l-0.1,0.4
	l-0.2,0.1l-0.3-0.2l-0.4-0.5l-0.6-0.4l-0.2-0.3l-0.3,0.1l-0.6,0.9l-0.5,0.6l0,0.5l0.4,0.2l0,0.4l-0.2,0.1l-0.2,0.3l-0.7,1.5
	l-0.4,0.1l-0.7,0.7l-0.8,1.3l-0.1,0.3l-0.1,0.9l0.1,0.3l0.2,0.4l-0.1,0.3l-0.3-0.1l-0.2-0.3l-0.4-0.6l-0.2-1.1l-0.1-0.6l-0.2-0.3
	l-0.5-0.3l-0.7,0.3l-0.1,0.5l-0.2,0.1l-0.3-0.4l-0.5,0.3l-0.2-0.1l-0.6,0.5l-0.7-0.2l-0.5,0.2l0,0.2l0.2,0.3l0.6,0.6l0.5,0.3
	l0.2,0.5l0.2,1.4l-0.1,0.2l-0.4-0.6l-0.5-0.4l-0.4-0.6l-0.5,0.1l-0.2,0.9l-0.4,0l-0.2-0.2l-0.4,0.1l-0.6-0.1l-0.2,0.5l0,1.3l0.1,0.5
	l0.3,0.4l0.2,0.4l0,0.1l-0.7-0.2l-0.8,1.4L532,190l-0.2,0.1l0-0.2l0.7-1.4l0.2-0.6l0-0.5l0.2-1.6l-0.1-0.4l-0.1-0.2l-0.3,0.1
	l-0.2,0.2l-0.2,0.1l-0.3,0.5l-0.3,0.8l-0.4,1.8l-0.3,0.6v-0.6l0.2-0.9l0.1-1.4l-0.1-0.2l-1.4,0.5l-0.5,0.7l-0.1,0.3l0,0.3l0,0.2
	l-0.3,0.3l-0.3,0.1l-0.3,0l-0.2,0.2l0,0.4l0.3,0.4l0.5,0.3l-0.2,0.2l-0.6-0.1l-0.5-0.3l-0.3-0.6l-0.2-0.3l-0.1,0l-0.2,0.3l-0.3,0.9
	l0,0.7l0.1,0.4l0,0.2l-1.1,0.4l-0.4,0.8l-0.2,1l-0.3,0.6l-0.7,0.8l-0.7,0.1l-0.7,0.5l-0.2,0.2l-0.2,0.5l0,0.3l0.2,0.2l1.7,0.1
	l0.6-0.2l0.2,0.1l0.1,0.1l0.2,0.1l0,0.2h-0.2l-0.4,0.1l-0.7,0.3l-0.4,0.1h-0.2l-0.7-0.4l-0.7,0.1l-0.5,0.6l-0.1,0.3l0.2,1l0.2,0.3
	l0.2,0.1l-0.1,0.2l-0.2,0.2l-0.1,0.3l0.2,0.9l-0.2,0l-0.4-1.1l-0.2-1.3l-0.1-0.1l-0.1-0.1l-0.4,0.4l-0.5,0.1l-0.5,0.5l-0.5,0.3
	l-0.1,0.2l0.2,0.2l0.7,0.1l0,0.3l-0.3,0.2l-0.3,0.1l-0.3-0.3l-0.4-0.1l-0.2,0.1l-0.7,1.1l0.1,0.4l-0.1,0.6l0.2,0.1l0.5-0.1l0.7-0.6
	l0.1,0.2l-0.2,0.2l-0.2,0.4l0.1,0.4l0.3,0.4l0.4,0.2l0.5-0.2l0.1,0.2l-0.3,0.6l0,0.7l-0.1,0l-0.2-0.7l-0.2-0.2l-0.3-0.1l-0.5-0.5
	l-0.5-0.1L517,204l-0.5,0.8l-0.1,0.3l-0.2,0.3l0,0.2l0.1,0.1l0.3-0.1l0.7,0l1.3,0.1l0.4,0.1l0,0.3l-1.8,0.1l-0.5,0.1l-0.4,0.2
	l-0.4-0.1l-0.4,0.3l-0.3-0.1l-0.2,0.3l-0.4,0.8l-0.2,0l-0.2,0.2l-0.2,0.2l0.2,0.4l0.6,0.2l0.1,0.2l-0.5,0.1l-0.5-0.1l-0.3,0.4
	l-0.2,0.2l-0.4,0.1l-0.3,0.4l-0.1,0.7l-0.2,0l-0.1,0.8l0.1,1.4l0.7,0l0.2-0.1h0.2l0.5-0.1l0.8-0.3l0.2,0.1l-0.3,0.4l-0.4,0.2
	l-0.2,0.3l-0.8,0l-1.7,0.6l0,0.2l0.5,0.3l0.2,0.4l-0.1,0.1l-0.5-0.1l-0.4,0.4L511,216l-0.8,1.2l-0.2,0.4l-0.2,0.6l-0.2,0.8l0,0.6
	l0.2,0.2l0.2-0.1l0.2,0.1l0.1,0.3l0.1,0.1l0.3-0.1l0.6-0.5l0.3-0.3l0.3-0.1l-0.5,0.8l-0.6,0.8l-0.6,0.1l-0.2-0.4l-0.2-0.2l-1.9,1.4
	l-0.4,0.5l-0.1,0.5l0,0.5l0.3-0.1l0.5-0.3l0.2,0l-0.3,0.5l-0.5,0.4l-0.3,0l-0.4,0.4l-0.4,0.2l-0.3,0.5l-0.8,0.5l-0.9,1.5l-0.6,0.6
	l-0.2,0.6l-0.2,0.4l-0.4,0.3l-0.3,0.4l-0.1,0.6l0.1,0.2l0.2-0.1l0.3,0l0.2,0.5l0.2,0.2l0.1,0.3l0.4,0.1l0.8-0.4l1.7-1.3l0.3-0.5
	l-0.2-0.4l-0.1-0.1l0.5-0.4l0.4-0.3l0.3-0.1l0.3,0.2l0.1,0.1l-0.5,0.4l-0.3,0.3l0.1,0.1l0.3,0l0.1,0.2l0.1,0.2l-0.4,0.3l-0.3,0.3
	l-0.5,0.1l-0.5,0.3l-0.1,0.2l-0.1,0.4l0.1,0.1l0.1,0.5l-0.2,0l-0.3,0.1l-0.7-0.1l-0.4,0.1l-0.3,0.1l-0.2,0.3l-0.1,0l-0.1-0.5
	l-0.1-0.1l-0.2-0.2l-0.4-0.6l-0.3,0.1l-0.2,0.1l-0.5,0.1l-0.5,0.7l-0.2,0l0-0.2l0.2-0.4l-0.1-0.2l-0.8-0.3l-0.5,0.1l-0.3,0.1
	l-0.5,0.4l-0.1,0.2l0.1,0.3l0.3,0.1l0.3,0l0.1,0.2l0,0.3l-0.2,0.2l-0.9,0.2l-0.2,0.3l-0.1,0.5l0.2,0.5l0.3,0.2l0.8,1l0,0.2l-0.9-0.7
	l-0.3-0.2l-0.3-0.6l-0.7-0.1l-0.4,0.1l-0.2,0l-0.2,0.1l-0.5,0.5l-1.1,0.4l-0.2,0.2l0,0.2l-0.4,0.7l-0.1,0.4l0.1,0.1l0.7-0.2l0.2-0.1
	h0.4l0.5,0.2l1.8-0.4l0.1,0.2l-0.8,0.1l-0.8,0.3l-0.1,0.2l0,0.2l0.5,0.1l-0.1,0.1l-0.2,0.1l-0.2,0l-0.6-0.4l-0.9-0.1l-0.6-0.1
	l-0.4,0.1l-0.5,0.1l-0.2,0l-0.2,0.2l-0.1,0.4l-0.2,0.2l-0.1,0.2l0,0.2l0.4-0.1l0.5-0.2l0.7-0.1l-0.2,0.3l-0.1,0.1l-1,0.3l-0.4,0
	l-0.2-0.2l-0.1-0.2l-0.2-0.1l-0.3,0.2l-0.2,0l-0.5,0.4l-0.1,0.4l-0.2,0.2l-0.2,0.3l-0.2,0l-0.1-0.2l-0.3,0.2l-0.1,0.8l0.2,0.4
	l0.3,0.1l0.6-0.1l0.5,0.1l1.3,0.4l0.7,0l0.8-0.2l0.1,0.1l-0.7,0.4l-1.3,0.1l-0.6-0.2l-0.9-0.4l-1,0.1l-0.4-0.1l-0.1,0.1l-0.1,0.4
	l0,0.6l0.2,0.4l0.3,0.1l0.2,0.4l0.3,0.2l0.2,0.1l-0.2,0.2l-0.2,0l-0.5,0.1l0,0.3l0.1,0.7l0.2,0.4l0.6,0.5l0.4,0l0.5-0.3l1.2-0.1
	l0.8,0.2l0.3-0.1l0.1-0.5l0.2-0.3l0.1,0.1l0,0.3l0.1,0.1l0.4,0.1l0.4,0.2l0.6,0l0.3-0.1l0.1-0.2l-0.1-0.4l0.1-0.5l0.3-0.4l0,0.1
	l-0.3,0.7l0.2,0.5l0.6,0.1l-0.2,0.2l-1.4,0.5l0,0.4l0.1,0.3l-0.1,0.1l-0.2-0.2l0-0.4l-0.2-0.3l-0.4-0.2l-0.5,0l-0.5,0.3l-0.4,0
	l-0.9-0.2l-1.3,0.4l-0.6,0.1l-0.3,0l-0.3-0.1l-0.2,0.2l0,0.6l0,0.4l0.1,0.9l0.2,0.4l0.4,0.4l0.6-0.3l0.4-0.4l0.2,0l-0.3,0.4
	l-1.1,0.8l-0.1,0.2l0.1,0.8l0.3,0.6l0.4,0.3l0.4,0l0.2,0l0.1,0.2l-0.5,0.3l-0.3,0l-0.3-0.1l-0.2,0l-0.1,0.2l0.1,0.4l-0.1,0.4
	l-0.2,0.4l0,0.6l0,0.4l0.1,0.2l0.1,0l0.1-0.3l0.1-0.1l0.2-0.3l0.4-0.4l0.2-0.5l0.4-0.6l0.3-0.1l0.2-0.2l0.1-0.4l0.2-0.3l0.4-0.5
	l0.1-0.3l0.5-0.4l1.3-0.5l0.5-0.1l-0.1,0.2l-0.5,0.1l-0.2,0.2l-0.2,0.3l-0.4,1.2v-0.3l0.1-0.8l-0.2-0.3l-0.5,0.3l-0.6,0.7l-0.1,0.4
	l0,0.2l-0.1,0.3l-0.2,0.3l-0.6,0.7l-0.1,0.3l0.1,0.3l0.2,0.1l0.4-0.1l0.3,0l0.4-0.1l0,0.1l-0.6,0.4l-0.4,0.1l-0.3,0.4l-0.5-0.1
	l-0.1-0.1H491l-0.2,0.3l-0.3,0.1l-0.2,0.4l-0.2,0.6l-0.1,1.3l0.1,0.4l0.5,0l0.3-0.2l0.3-0.5l0.3-0.1l0.2-0.1l0.4-0.1l0.5-0.3
	l0.4-0.4l0.3-0.2l0.4-0.1l0,0.1l-0.3,0.2L493,255l-0.4,0.4l-0.3,0.4l0,0.4l0.1,0.3l-0.1,0.3l-0.2,0.2v0.2l0.4,0.4l0.2,0.2l0.6-0.4
	l0.1,0.1l-0.4,0.3l-0.2,0.4l-0.1,0l-0.7-0.5l-0.7-0.3l-0.2,0.2l-0.1,0.8l0,0.5l0.2,0.6l0.3,0.5l0.8,0.5l0.2,0.3l0.9,0.6l0.3,0l0.4,0
	l0.1,0l0,0.1l0,0l-0.2,0.2l-0.1,0.3l0.1,0.1l0.4,0.1l0.1-0.1l0-0.3l0.1-0.1l0.2,0l0.1,0l0,0.1l0,0.1l0,0.2l0.3,0.2l0.5-0.1l0.8,0.1
	l1.1-0.3l0.5-0.4l0.4,0l0.4-0.4l0.6-0.4l1.1-1.4l0.7-0.6l0-0.2l0.1-0.1l0.2,0l0.2-0.3l-0.2-0.3l0.7-0.4l0.2-0.1l0.1-0.1l0.1-0.2
	l-0.2-0.3l-0.2-0.2l0.2,0l0.5,0.5l0.1,0.4l0.3,0l0.4-0.3l0.3,0.1l0.1-0.2l0.1-0.1l0.5-1.2l0.1-0.5l0-0.4l-0.1-0.1l0-0.4l0.3-0.1
	l0.2-0.2l-0.1-0.6l0.2-0.4l0,0.5l0.1,0.4l0,1l0,0.2l0.3,0.5l0.3,0.6l0.3,0.1l0.1,0l0.3,0.1l0.1,0l0.7,0.2l0.1,0.2l0,0.2l-0.3-0.3
	l-0.3,0l-0.1,0.2l-0.1,0.3l0.1,0.4l0.1,0.3l0,1l0.1,1.1l0,0.3l0,0.3l0.2-0.1l0.3,0.2l0,1.2l0.3,0.6l0.4,0.1l0.1,1.1l0,0.2l0.4,0.2
	l0,0.4l0.1,0.5l0.1,0.5l0.3-0.1l0.3,1.1l0.8,1.6l0.4,0.4l0.4,0.8l0.2,0.1l0.2,0.2l0.1,0.5l-0.2,0.3l-0.2,0l-0.3,0.1l0.1,0.3l0.1,0.2
	l0.2,0.4l-0.1,0.1l-0.1,0l-0.6-0.3l-0.1,0l0.1,0.2l0.2,0.5l0.7,1.3l0.3,0.4l0.1,0.3l0,0.3l0,0.4l-0.1,0.4v0.3l-0.1,0.4l1.2,0.3
	l1.4-0.4l0.8,0.2l0.3,0l0.5-0.6l-0.2-0.5l-0.2-0.5l0-0.5l0.1-0.3l0.4-0.5l0.2-0.2l0.2-0.2l0.3,0.1l0.3-0.1l-0.1-0.5l0.2-0.1l0.8,0
	l0.8,0.1l0.5-0.2l0.3,0l0.3,0.1l0.3,0.2l0.3-0.2l0.2-0.3l0.4-1.4l0.2-0.5l0.4-0.6l0.2-0.5l0.1-0.6l0.2-0.7l-0.1-0.4l-0.1-0.2l0-0.4
	l0.4-0.9l0.1-0.4l-0.1-0.4l-0.1-0.4l0-0.6l-0.1-0.3l0.1-0.5l0.3,0l0-1.3l0.2-0.3l-0.2-0.5l-0.2-0.7l0.5-0.1l0.3-0.2l-0.4-0.5
	l-0.3-0.1l-0.6-0.1l-0.2,0.1l-0.2-0.1l-0.3,0l0.3-0.1l0.9,0.1l1,0l0.3-0.3l0.7-0.4l0.3-0.4l0.6-0.3l0.3-0.3l0.2,0.1l0.4-0.3l0.3-0.3
	l0.5-0.3l0.1-0.1l0.1-0.3l0.1-0.6l0.2,0l0.3-0.2l-0.2-0.4l-0.1-0.1l-0.1,0.1l-0.2,0.1l-0.2,0l-0.2,0.1l-0.2,0.2l-0.2,0.1l-0.4-0.1
	l-0.3,0.3l-0.9,0l-0.3-0.1l-0.3,0l-0.2,0.1l-0.4-0.5l-0.3-0.1L523,255l-0.5,0.1l-0.4-0.1l-1.3,0l-0.3-0.2l0.6-0.1l0.6-0.1l0.3-0.5
	l0.2,0.3l0.3,0.1l0.2-0.2l0.4,0.2l0.2-0.1l0.9,0.4l0-0.5l0.4,0.2l0.4,0l0-0.3l0.2-0.1l0.1,0.1l0.1,0.2l-0.1,0.8l0.2,0.2l0.4,0.1
	l0.6-0.4l0.2,0.1l0.2-0.1l0.2-0.2l0.2-0.1l0.5-0.4l0.2-0.2l0.2-0.3l0.5-0.4l0.2-0.1l0.1-0.4l-0.2-0.6l-0.1-0.2l-0.1-0.3l-0.2-0.3
	l-0.5-0.2l-0.2-0.2l0.1-0.6l-0.4-0.5l-0.4-0.1l-0.2-0.3l-0.4-0.6l-0.2-0.4l-0.2,0.1l-0.4,0.2l-0.2,0l-0.1-0.3l-0.1-0.2l-0.1-0.1
	l-0.3,0l-0.3,0l-0.3-0.3l0-0.4l0-0.3l-0.2-0.8l0-0.2l-0.1-0.9l0-0.6l0-0.2l0.1-0.2l-0.1-0.3l-0.1-0.1l0.1-0.4l0-0.3l0-0.4l0.2-0.5
	l0-0.4l0.4,0.2l0.4,0l-0.1-0.3l0-0.2l-0.1-0.5l0.1-0.6l0.1-0.3l0.2-0.9l0.2-0.3l0.2-0.1l-0.3-0.2l-0.3-0.4l-0.2-0.6l0-0.2l0.1-0.3
	l0.3,0.2l0.2,0.2h0.2l0.2-0.3l0.3,0l0.3-0.5l0.2-0.1l-0.1-0.2l-0.2-0.1l-0.1-0.1l0.1-0.1l0.1-0.2l-0.1-0.4l-0.1-0.3l0-0.3l0.1-0.1
	l0.1,0.3l0.4,0l0,0.1l0,0.1l0.3,0l0.1-0.1l0.1-0.2l0.6-0.3l0-0.2l0-0.2l0-0.2l-0.5-0.1l0.1-0.2l0.2,0l0.3-0.2l0.1-0.4l0.1-0.3l0.2,0
	l0.3-0.1l0.2,0l0.1-0.1l0-0.1l-0.2-0.1l0.1-0.1l0.6,0.1l0.6-0.7l0.2-0.5l0.2-0.3l0.4,0.3l0-0.2l0-0.3l0.2,0.1l0.2,0.2l0.2,0l0.2-0.5
	l0.4-0.5l0.8-0.3l0.5-0.4l0.2-0.3l0.6-0.3l0.2-0.3l0.7-2l0.7-0.8l0.6-0.5l0.1-0.2l0.1-0.3l-0.3-0.5l-0.2-0.6l-0.2-0.6l-0.2-0.3
	l-0.2-0.2l0.2-0.4l0.3-0.4l0.4-0.5l0.4-0.8l0-0.2l-0.1-0.3l-0.1-0.3l-0.2-0.2l-0.1-0.2l0.1,0l0.3,0.4l0.1-0.1l0-0.2l0-0.1l-0.1-0.1
	l-0.1-0.2l0-0.2l0.1-0.1l0.3,0l0.6-0.1l0.1-0.1l0.1-0.2l-0.1-0.3l0-0.2l0.5,0l0.2-0.1l0-0.1l-0.1-0.1l0-0.2l0.5,0.1l0-0.2l0-0.7
	l0-0.2l0.1-0.3l0.1-0.4l0.1-0.1l0.2,0.1l0.2,0.4l0.2-0.1l0.3-0.4l0.5,0.6l0.5,0.4l0.2-0.1l0.2-0.2l0.5-0.1l0.5,0l0.3-0.2l0.6,0.3
	l0.7-0.2l0.2-0.1l0.5,0.2l0.4-0.3l0.2-0.2l0.1,0l0,0.2l-0.1,0.5l0.3,0.6l0.2,0.1l0.2,0l1.1,0.8l0.3,0.4l-0.1,0.9l0,0.7l-0.1,0.7
	l0.2,0.3l0.1,0.2l0,0.4l-0.3,0.2l-0.1,0.2l0.2,0.2l0,0.4l-0.2,0.1l-0.2-0.1l-0.5-0.1l-0.5,0.2l-0.2,0.3l-0.3,0l-0.1,0.4l-0.2,0.4
	l-0.5,1.1l-0.7,0.8l-0.3,0.7l-0.2,0.1l-0.6,0.8l-0.2,0.6l-0.3,0l-0.7,0.9l-0.3,0.2l-0.3,0.3l-0.7,0.9l-0.6,0.2l0,0.4l-0.4,0.6
	l-0.2-0.1l0,0.2l0.1,0.2l-0.2-0.1l-0.1,0.1l0.1,0.4l0.1,0.2l0,0.2l-0.6,0.4l-0.6,0.2l-0.3-0.2l-0.7,0.2l0,0.3l0,0.3l0.2,0.5l-0.5,0
	l0,0.5l-0.7,1l-0.2,0.3l-0.1,0.3l0,0.4l0.1,0.7l0.1,0.6l0.4,0.4l0.1,0.4l0,0.3l-0.2,0.7l-0.1,0.7l0.4,0.4l0.2,0.6l0.2,0.6l0,0.2
	l0.2,0.4l0,0.1l0,0.1l-0.2,0L536,243l0.1,0.2l0.1,0.1l0,0.1H536l0,0.2l0,0.3l0,0.8l-0.1,0.6l-0.1,0.2l-0.2,0.4l0,0.5l0,0.7l0.1,0.5
	l0,0.4v0.3l0.1,0.2l0.3,0.1l0.2,0.2l0.3-0.3l0.2-0.1l0.1,0.5l0.2,0l0.9,0.6l0.7,0.1l0.1-0.1l0.1,0l0,0.1l-0.2,0.4l0,0.1l0.2,0l0,0.1
	l-0.1,0.1l-0.1,0l-0.1,0l-0.1,0.2l0.1,0.1l-0.1,0.3v0.1l0.1,0.2l0.5,0l0.1-0.1l0.2-0.1l0.1-0.1l0.1-0.1l0.1-0.5l0.1-0.2l0.1,0
	l0.2,0.6l0.2,0.3l0.2,0l0.1,0.1l0,0.3l-0.2,0.3l-0.3,0.2l-0.1,0.2l0.2,0.1l0.5-0.2l0.4-0.4l0.4-0.3l0.4,0.1l0.4,0l0.8-0.2l0.9-0.2
	l0.3,0.1l0.2-0.1l0.2-0.4l0.7-0.2h0.3l0.6-0.2l0.3-0.3l0.5-0.1l0.3-0.2l0.3-0.2l0.2,0.4h0.1l0.2-0.3l0.3-0.2l0.2,0l0-0.2l-0.1-0.3
	l-0.1-0.3h0.2l0.5,0.4l0.5-0.1l0.2-0.2l0.1-0.5l0.2-0.4l0.1,0l0,0.2l-0.1,0.3l-0.1,0.4l0,0.3l0.2-0.1l0.3-0.1l0.6-0.1l0.3-0.3
	l0.4-0.1l0.1,0l0.6,0.4l0.2-0.1l0.4-0.1l0.3-0.2l0.1,0l1.1-0.2l0.9-0.6l0.2,0.1l0.2,0.2l0,0.4l0,0.3l-0.4-0.3l0.1,0.3l0.3,0.6
	l0.5,0.2l0.7,0.8l0.8,0.1l0.6-0.1l0.4,0l0.4,0.4l0.3,0.5l0.2,0.1l0.3,0.2l0,0.3l-0.1,0.2l-1.3-0.5l-1.5-0.2l-0.2,0.2l-0.2,0.3
	l-0.1,0.3l-0.1,0.1l-0.2,0.1l-0.3,0l-0.4-0.1l-0.2-0.2l-0.2,0.2l-0.1,0.4l-0.2,0.2l-0.3-0.2l-0.2-0.3l-0.2,0l-0.1,0.3l0.1,0.4l0,0.5
	l-0.1,0.4l0,0.1l-0.3,0.3l-1.6-0.2h-1l-0.3-0.1l-0.6-0.4h-0.5l-1.9-0.4l-0.5,0l-0.3-0.1l0,0.2l0,0.2l-0.2,0.2l-1.6,0l-0.8,0.4
	l-0.6-0.1l-0.6,0.5l-0.3,0l0.1,0.4l-0.8,0.1l-0.4,0.2l-0.4,0.3l0.1,0.5l-0.1,0.2l0,0.2l0.1,0.2l-0.1,0.2l-0.2,0.2l0.2,0.5l0,0.2
	l0.1,0l0.4,0l-0.1,0.2l-0.3,0.2l-0.1,0.3l0.2,0.5l0.4,0.4l0,0.4l0.2,0.4l0.7,0.3l0.3,0.2l0.3-0.1l0.1-0.2l0.1-0.3l0.2,0l0.4,0.2
	l0.1,0.3l0,0.1l-0.1,0.1l-0.1,0.8l-0.4,1l0,0.2l-0.1,0.5l0.2,0.7l0.1,1.7l-0.1,0.4l-0.3,0.4l-0.6,0.5l-0.3,0.3l-0.8,0.2l-1-0.6
	l-0.4-1.2l-0.3-0.4l-1.1-1.1l-0.1-0.3l-0.2-0.4l-0.9,0.3l-0.8,0.4l-0.6,0.1l-0.8,1.3l-0.1,0.5l0,0.5l-0.2,0.6l-0.3,0.4l-0.5,0.6
	l-0.1,1l0,1.9l0.1,1l0,0.2l0,1l0.3,1l0.2,0.8l-0.1,0.5l0.1,0.4v0l0,0.8l-0.1,0.8l-0.5,0.2l-0.3,0l-0.3-0.2l-0.3,0l-0.2-0.1l0.7-1
	l0.3-0.5l0.2-0.4l0.2-0.7l0-0.4V275l-0.1,0.2l-0.1,0.5l-0.1,0.4l-0.3,0.6l-0.2,0.3l-0.5,0.6l-0.4,0.5l-0.3,0.2l-0.8,0l-0.4,0.2
	l-0.1,0.4l0,0.4l-0.2,0.6l-0.3,0.4l-0.4,0.4l-0.1,0.1L530,281l-1.2,0.2l-0.4-0.1l-0.5-0.3l-0.2-0.4l-0.4-1.1l0.2,0l0.5,0.4l0.3,0.1
	l-0.1-0.2l-0.6-0.4l-0.6-0.3l-0.7,0l-0.7,0.1l-1.6,0.4l-0.7,0.4L523,280l-0.9,0.2l-0.5,0.6l-0.2,0.4l-0.2,0.1l-0.2,0.2l-0.4,0.1
	l-0.4,0.1l-1.7,0.5l-1.6,0.6l-0.9,0.5l-0.4,0l-0.1-0.1l-0.5-0.4l-0.6-0.4l0,0.2l0,0.2l0.1,0.1l0.1,0.2l0,0.3l0.1,0.3l0.3,0.1l0.3,0
	l0.1,0l0.4,0.1l0.6,0.2l0,0.3l0,0.2l0,0.1l0,0.2l-0.3-0.1l-0.6-0.3l0,0L515,284l-0.2-0.2l-0.2-0.2l-0.1-0.8l-0.3-0.6l-0.8,0.1
	l-0.8-0.7l-0.3-0.6l-0.4-0.1l-0.3-0.1l-0.6-0.1l-0.5,0.6l-0.2,0.3l-0.4,0.3l-0.2,0.3l-0.9,0.1l-0.3,0.1l-0.7,0.7l-0.2,0.1l-0.8-0.3
	l-0.5,0.1l-0.2-0.1l-0.1-0.3l0.6-0.5l0.2-0.5l-0.1-0.5l-0.2,0l-0.6,0.3l-1-0.6l-0.4,0.1l-0.1-0.2l-0.1-0.2l-0.8,0.1l0.2-0.2l0.2-0.3
	l0-0.5l-0.2-0.3l-0.2-0.2L503,279l0-0.1l-0.1-0.5l0.1-0.2l-0.1-0.2l-0.1-0.1l-0.2-0.1h-0.3l0.1-0.4l0.4-0.4l0.1-0.3l-0.1-0.4l0-0.3
	l-0.1-0.4l0.2-0.3l0.3-0.2l0.1-0.2l0.2-0.3l0.3-0.1l0.1-0.1l-0.2-0.3l-0.2-0.1l0.3-0.2l0.2,0l0.1,0.1l0.1-0.1l0.1-0.7l0.3-1l0.1-0.2
	l0.1-0.1l0.3,0.4l0.2,0l0.4-0.2l0.3-0.3l0.1-0.3l0.1-0.4l-0.1-0.2l-0.1-0.1l-1,0l-0.3-0.2l-0.3-0.3l0-0.8l0-0.2l0-0.9l0.1-0.1
	l0.3-0.8l0.2-0.4l0-0.7l0-0.4l-0.3-0.6l0-0.3l0.1-0.2l0.4-0.5l-0.2,0l-0.8,0.6l-0.8,0.2l-0.4,0.5l-0.7,1.3l-0.3,0.3l-0.4,0.1l-0.7,0
	l-0.2,0l-0.4,0.2l-0.5,0l-0.5,0.6l-0.4,0.7l0,0.2l0,0.3l0.2,0.2l0.3,0.2l0.4-0.2l0.5-0.1l0.3-0.8l0.3-0.7l0.3-0.1l0.4,0.2l-0.1,1
	l0,0.5l-0.2-0.2l-0.2-0.2l-0.2,0.1l-0.3,0.2l-0.4,0.5l0,0.4l-0.1,0.2l-0.2-0.1l-0.1-0.2l-0.2,0l-0.5-0.3l-0.1,0l-0.2,0.1l-0.1,1.5
	l0,0.9l0.2,0.8l-0.1,0.4l-0.1,1.5l0.6,0.4l0.8,0.5l0.1,0.4l0,0.9l-0.3,0.1l0.2,0.4l0.1,0.3l0,0.4l0,0.5l0.3,0.5l0.3,0.5l0.2,0.3
	l0,0.3l-0.3,0.2l-0.5,0.1l-0.1,0.2l0,0.3h0.3l0.1-0.1l0.2,0.1l0.1,0.2l0,1.2l0,0.2l0.2,0.2l0.3,0.1l0.4,0l0.3,0.1l0.9,1.2l0.4,0.2
	l-0.3,0l-0.2-0.2l-0.7-1l-0.3-0.2l-0.9,0.1l-0.8-0.2l-0.1,0.2l-0.1,0.3l-0.1,0.5l0.1,0.5l-0.1,0.8l0-0.6l-0.1-0.2l-0.3-0.3l-0.1,0.1
	l-0.1,0.3l-0.1,0.3l-0.1,0.1l-0.3-0.2l0.2-0.4l-0.4-0.7l-1.1,0l-1,0.1l-0.2,0.1l-0.3,0.5l-0.1,0.4l-0.1,0.5l0.3,0.2l0.1,0.2
	l-0.4-0.1l-0.2-0.1l-0.2-0.2l-0.3-0.3l-0.7,0l-0.6,0.1l-0.8,0l-0.5,0.1l-1,0.5l-0.2,0.3l-0.2,0.5l-0.8,0.6l-0.5,0.2l-0.1-0.1
	l-0.2-0.1l-0.2,0.3l-0.1,0.3l-0.3,1.7l-0.2,0.6l-0.3,0.5l-0.5,0.6l-0.2,0.2l-0.1,0.1l-0.2,0.3l-0.1,0.4l-0.1,0.2l0.5,0.6l0.1,0.2
	l0.1,0.1l-0.5,0.1l0.2,0.2l0.3,0.1l0.2,0.1l0.1,0.1l-0.2,0.1h-0.2l-0.7-0.5l-0.4-0.1l-0.5,0l-0.1,0.1l-0.1,0.2l0.2,0.2l0.2,0.1
	l0.3,0l0.4,0.2l0.5-0.1l0.4,0.2l0.2,0.1l-0.3,0.1l-0.3-0.2l-0.2,0.1l-0.5-0.1l-0.4-0.1l-0.5,0l-0.2,0.1l-0.4,0.1l-0.7,0.4l-1.2,0.8
	l-0.2,0.1l-1.5,0.3l-0.4,0.2l-0.3,0.2l-0.2,0.3l-0.1,0.4l-0.1,2l0.1,0.2l-0.1,0.1l-0.1,0.1l-0.3,0.5l-0.5,0.4l-0.9,0.4l-0.9,0.2
	l-1.2,0.7l-0.2,0.4l0,0.2l0.1,0.2l0.4,0.2l0.5,0l-0.1,0.1l-0.8,0.2l-0.4,0.3l-0.4,0.1l-1-0.2l-0.7,0l-0.5-0.1l-0.5,0l-0.2-0.2
	l-0.1-0.2l-0.1-0.5l0-0.4l-0.3-0.1l-0.6,0.2l-0.3-0.1l-0.4,0l0,0.2l0,0.2l0.2,0.5l0.4,0.8l0.3,0.5l0,1.7l0.2,0.5l0.3,0.2l-0.2,0
	l-1.1,0l-0.1-0.2l-0.1-0.1l-0.2,0.3l-0.1,0.2l-0.2-0.3l-1,0l-0.7,0.5l-0.3-0.3l-0.6-0.8l-0.6-0.2l-0.7,0.1l-0.2,0.2l-0.5,0.2
	l-0.4,0.1l-0.6,0l-1.3,0.4l-0.5,0.3l-0.1,0.4l0,0.2l0.1,0.2l0.4,0l0.2-0.1l0.4,0l0.1,0l0.2,0l0.2,0.2l-0.5,0l-0.3,0l-0.1,0l-0.1,0.1
	l0.1,0.2l0.1,0.1l0.2,0l0.3,0.2l-0.1,0.2l-0.4,0.1l-0.3,0l-0.1,0.2l0.7,0.3l0.1,0.4l0.2,0.2l0.2,0.1l0.4-0.2l0.5,0l1.1,0.4l0.2,0.2
	l0.1,0l0.2,0l0.2,0.1l0.1,0h0.2l0.3,0.3l0.3,0.1l0.3-0.1l0.2,0l0.1,0.1l-0.2,0.3l0.1,0.1l0.3,0h0.3l0.2,0.1l0.1,0.2l-0.1,0.2
	l-0.1,0.1l0.1,0.3l0.2,0.1l0.2,0l1.1-0.1l0.6,0.4l-0.2,0l-0.3-0.1l-0.3,0l-0.2,0l-0.1,0.2l-0.1,0.2l0.1,0.1l0.2,0.1l0.2,0.3
	l-0.2,0.5l0,0.2l0.1,0.2l0.4,0.5l0.4,0.7l1.1,0.7l0.2,0.1l0.2,0l0.3,0l0,0.2l0,0.2l0.1,1.1l0.1,0.5l0.1,0.1l0,0.1l-0.2-0.1l-0.3,0
	l0,0.2l0.1,0.1l0.8,0.6l0.2,0.3l0.2,0.3l0.3,1.2l0.2,0.1l0.1,0.2l-0.2-0.2l-0.2-0.2l-0.2-0.9l-0.2-0.3l-0.3-0.3l-0.4-0.3l-0.2,0.8
	l-0.1,0.7l-0.2,2l0.1-0.1l0.1-0.2l0.1-0.1l0.2,0.3l-0.3,0.1l-0.2,0.4l-0.3,2.1l-0.4,1.8l-0.4,0.5l-0.5,0.1l-0.1,0l-0.5,0.2l-0.6,0.1
	l-0.4,0l-0.8-0.3l-0.8-0.2l-0.2,0.1l-0.3,0.3l-1-0.3l-0.3-0.2l-0.2,0l-0.5,0.2l-0.3-0.1l-0.4,0.1l-0.8,0.2H463l-1.6-0.3l-0.6-0.2
	l-1-0.1l-0.5-0.2l-0.7,0.2l-0.4,0l-0.7,0.1l-0.4,0l-0.8,0l-0.5,0.1l-0.6-0.2l-0.4-0.4l-0.3-0.2l-0.2,0l-0.3-0.1l-0.4,0.2l-0.4,0
	l-0.4,0.2l-0.3,0.2l-0.1,0.2l0.1,0.2l0,0.2l-0.3,0.2l-0.2,0l-0.3,0.2l-0.4,0.1l-0.6-0.1l-0.4,0.4l-0.2,0.1l-0.2,0.1l-0.2,0.5v0.2
	l0.2,0.2l0.1,0.2l0.2,0.2l0.3,0.1l0,0.1l-0.3,0.4l0,0.3l0.1,0l0.5-0.2l0,0.1l0,0.1l0,0.4l0.1,0.1l0.1,0.1l-0.1,0.2L451,332l0,0.2
	l0.2,0l0.1,0l-0.2,0.2l-0.3,0.4l0,0.6l0.1,0.1l0.2,0l-0.3,0.4l0,0.2l0.1,0.2l0.3,0l-0.2,0.2l0,0.3l0.2,1l0.2,0.5l0,0.2l0,0.2l0,0.4
	l0,0.6l-0.1,0.4l-0.1,0.2l-0.3,1.3l0,0.3l0.1,0.1l0,0.1l-0.5,1.1l-0.4,1l-0.3,0.4l-0.2,0.1l-0.1,0.2l0,0.2l0,0.1l-0.2,0.5l0,0.5
	l-0.1,0.4l0,0.2l0,0.2l0.2,0.1l0.1,0l0.3,0l0.3-0.1l0.1-0.3l0.4-0.6l0.2-0.2l0.2,0l-0.4,0.3l-0.2,0.3l0.1,0.4l-0.1,0.2l-0.2,0.2
	l-0.2,0l-0.2,0.1l0.1,0.4l0,0.3l0.1,0l0.2-0.1l0.5-0.2l0.1,0l0.2,0l0.2,0.1l0.2,0.2l-0.6-0.1l0.2,0.5l0,0.4l-0.2,0.8l0.2,0.3
	l0.1,0.5l-0.1,0.5l0,0.6l-0.3,0.9l-0.2,0.5l0.2,0.1l0.2-0.2h0.3l0.4-0.2l0.3,0.1l1,0.1l0.5,0.2h0.3l1-0.6l0.2,0l0.6-0.1l0.6,0
	l0.1-0.1l0.2-0.2l0,0.1l-0.1,0.2l1.1,0.8l0.3,0.4l0.2-0.3l0.3,0l-0.1,0l-0.2,0.2l-0.2,0.4l0.1,0.3l0.3,0.1l0,0.1l0,0.1l0.1,0.4
	l0.2,0.3l0.4,0.5l0.2,0l0.4,0.3l0.5,0.2l0.2,0l0.2-0.1l0-0.3l0.1,0l0.1,0.1h0.1l0.1-0.4l0.3-0.5l0.2-0.2l0.7-0.3l0.7,0l0.5-0.4
	l0.2-0.2l0.2-0.1l1.5-0.1l0.7,0.1l0.4,0.1l0.5-0.2l0.3,0l0.7,0l0.3,0.1l0.3-0.1l0.2-0.2l0.4-0.1l0.4,0l0.3,0.3l0.2-0.1l0.5-0.6
	l0.4-1l0.4-0.5l0.9-0.6l1.1,0l0.3,0l0.1,0l0.1-0.1l-0.3-0.3l0-0.2l0.2-0.3l0-0.1l0.2-0.4l0.1-0.6l0.3-0.2l0.1-0.4l0.4-0.4l0.9-0.5
	l0.5-0.4l0.2-0.2l-0.1-0.2l-0.5-0.2l-0.3-0.3l-0.2-0.3l-0.4-1.3l0-0.4l0.7-1.3l0.3-0.5l0.3-0.3l0.6-0.8l0.6-1.1l0.1,0l0.1,0l0.2-0.1
	l0.4-0.2l0.1-0.1l-0.3-0.3l-0.2-0.1l0.3-0.2l0.6-0.6l0.5-0.1l1-0.4l1.5-0.3l0.2-0.1l0.5-0.5l2-1.1l0.4-0.4l0.3-0.3l0-0.5l0-0.1
	l-0.1-0.1l-0.1-0.1l0-0.4l0.1,0l0.2-0.1l0-0.2l-0.1-0.1l-0.1-0.2l0-0.1l-0.3-0.5l-0.1-0.9l0-0.3l0.3-0.6l0.3-0.4l1.5-1l0.2-0.2
	l0.1-0.2l0.4-0.1l0.1,0l0.1,0.1l0.1,0.2l0.2,0.1l0.4,0.1l0.1,0l0.6,0.2l0.2,0l0.2,0l0-0.1l0.1,0l0.1,0l0.1-0.1l0.1-0.1h0.2l0.2-0.1
	v0.1l0,0.1l0.1,0.1l0.2,0l0.3,0l0.2,0.5l0.7,0.2l0.4,0.3l0.6,0l0.2,0.1l0.5-0.2l0.5-0.1l0.2-0.1l0.2-0.2l0.1-0.3l0.1-0.1l0.4-0.2
	l0.9-0.9l0.2-0.1l0.3-0.1l0.2-0.1l0.1-0.1l0.7-0.1l0.8-0.3l0.2-0.2l0.6-0.9l0.7-0.8l0.6-0.3l0.5,0.1l0.8,0.3l0.3,0l1.2,0.9l0.9,0.3
	l0.4,0.3l0.2,0.4l0.2,1.3l0.4,0.5l0.2,0.6l0,0.2l0,0.3l0,0.4l0.2,0l0.1,0l0.2,0.1l0.1,0.1l0.1,0.2l0.1,0.1l0.4,0.2l0.6,0.8l0,0.3
	l-0.1,0l-0.1,0.1l0.1,0.1l0.1,0l0.2-0.1l0.1,0l0.6,0.2l0.4,0.3l0.5,0.8l0.8,0.5l0.4,0.5l1.2,1.3l0.6,0.2l0.5,0.4l0,0.1l0.1,0.1
	l0.3-0.1l0.2,0l0.3,0l0.5,0.2l0.3-0.1l0.2,0.1l0.3,0.4l0.5,1l0,0.2l0.1,0.1l0.1-0.1l0.1,0l0.5,0l0.3,0.2l0.1,0.1l-0.3,0.5h0.1
	l0.2-0.1l0.3,0l0.2-0.1l0.4-0.1l0.2,0.1l0.2,0.3l0.1,0.3l0.1,0.3l-0.2,0.2l0,0.2l0.1,0.1l1,0.6l0.3,0.1h0.5l0.3,0.2l0.2,0.4l0.2,0.9
	l0.5,1l0.1,0.8l0.1,0.4l0.3,0.3l0,0.6l-0.4,0.1l-0.3,0.1l-0.1,0.1l-0.1,0.2l0.1,0.5l-0.2,0.6l-0.3,0.1l-0.2,0.3l0,0.5l0.2,0.3l0.9,0
	l0.2-0.3l0.1-0.2l0.4-0.6l0.7-0.6l0.1-0.3l0-0.8l0.2-0.3l0.4-0.3l0.5-0.2l0.4,0.1l0.2-0.3l-0.2-0.5l0-0.9l-0.3-0.4l-0.5-0.4
	l-0.6-0.2l-0.2-0.4l0-0.4l0.4-1l0.4-0.7l0.3-0.5l0.3-0.2l0.4,0l0.1,0.1l0.1,0.2l0,0.1l0.4,0.2l0.2,0.1l1.1,0.1l0.6,1.2l0.4,0.3
	l0.3,0.1l0.1-0.3l0.1-0.3l0.2-0.4l-0.1-0.4l-0.4-0.5l-0.8-0.7l-0.2-0.3l-1.3-0.7l-0.6-0.5l-0.5-0.3l-1.5-0.6l-1.5-0.8l-0.3-0.3
	l0-0.4l0.3-0.3l0.3-0.2l0.1-0.2l-0.1-0.3l-0.3-0.1l-0.3,0l-1.6,0.1l-0.7-0.1l-0.8-0.5l-0.9-0.7l-1-1l-0.5-0.7l-0.2-0.6l-0.3-1.3
	l-0.3-0.8l-0.4-0.7l-0.2-0.2l-0.6-0.3l-1.1-0.9l-0.6-0.3l-0.6-0.5l-0.2-0.4l-0.3-0.8l-0.2-1.1l0.1-0.4h0.1l0.2,0.1l0.2-0.2l0.1-0.2
	l0.1-0.3l-0.4-0.3l-0.3-0.7l-0.2-0.1l0.1-0.5l0.1-0.3l0.2-0.2l0.4-0.2l0.1,0l-0.3,0.3l0.2,0l0.3-0.1l0.4-0.2l0.4-0.3l0.4-0.1
	l0.2-0.2l0.1-0.2l0.1-0.1l0.7,0.2l0.3-0.2h0.2l0.4,0.6l-0.2,0.2l-0.2,0.2l-0.2,0.1l-0.2,0.1l0.2,1l0,0.3l0,0.2l0.3,0.5l0.3,0.6
	l0.1,0l0.2,0l0.2-0.4l0.1-0.3l0.4-0.6l0.1-0.5l0.1-0.2l0.2,0l0.5,0.2l0.2,0.3l0.6,0.6l0.2,0.4l-0.1,0.6l0,0.4l0.2,0.4l0.8,0.9
	l0.3,0.2l0.2,0.2l-0.3-0.1h-0.2l-0.2,0.1l-0.1,0l-0.2,0.1l0.2,0.3l0.9,1l0.4,0.4l0.5,0.3l0.3,0.3l0,0.2l0,0.1l0.1,0.2l0.2,0.1h0.2
	l0.4-0.1l0.3,0l0.6,0.3l0.8,0.3l0.6,0.7l0.6,0.4l0.6,0.6l0.1,0.1l0.2,0.2l0.2,0.2l-1.4-0.7h-0.3l-0.2,0l0.6,0.2l0.9,0.5l0.7,0.1
	l1,0.6l0.5,0.4l0.5,0.4l0.1,0l0.1-0.1l0.2,0l0,0.1l0,0.1l0,0.1l0.7,0.5l0.6,0.7l0.2,0.4l0.4,0.3l0.3,0l0.3,0.3v0.5l-0.1,0.2
	l-0.1,0.1l-0.2,0.5l0,0.4l0.1,0.3l-0.1,0.5l0,0.6l-0.2,0.5l-0.1,0.5l0,0.1l0.3,0.6l0.1,0.2l0,0.1l-0.1-0.1l-0.1-0.1l-0.1,0l0.1,0.2
	l0.1,0.2l0.2,0.3l1,0.6l0.3,0.6l0.1,0.3l0,0.3l0.3,0.2l0.3,0.4l0.3,0.8l0.5,0.3l0.3,0.4l0.3,0.3l0.1,0.1l0.2,0.1l0.4-0.1l0.3,0
	l0.1,0l0.1,0l0.1,0.2l0,0.2l-0.1,0.1l-0.1,0l-0.5-0.2l-0.3,0l0,0.2l0,0.2l0.3,0.1l0.3,0.4l0.2,0.5l0.2,0.4l0.2,0.1l0.3-0.1l0.1-0.2
	v-0.2l0.1,0l0.1,0.2l0.2,0.3l0.3,0l0.2-0.1h0.2l0.2,0l0.5-0.2l0.7,0.2l0.3,0l0.2-0.1l0.1-0.2l0.5,0.3l0.5,0.2l0.1,0.1l0.1,0.1
	l0.3,0.1l0.2,0l0.1,0l0.2,0l0.2,0.1l0.1,0.1l-0.1,0.1l-0.1,0.1h-0.5l-0.2,0.1l0.1,0.1l0,0.2l-0.2,0l-0.1,0l-0.2-0.2l-0.4-0.2
	l-0.9-0.3l-0.8-0.5l-0.4,0l-0.2,0.2l-0.2,0.4l-0.3,0l-0.3-0.1l-0.1,0l-0.3,0.6l-0.5,0.4l-0.1,0.1l0,0.1l0.2,0.1l0.2,0.2l0.1,0.4
	l0.2,0.1l0.4,0.4l0.3,0.5l0,0.3l-0.3,0.4l0,0.4l0.4,0.8l0.4,0.4l0.1-0.2l0-0.3l0-0.3l0.2-0.1l0.2,0l0.2,0.2l0.1,0.2l0.2,0.1l0.4,0.6
	l0,0.2l0,0.5l0.2,0.1l0.2,0.1V353l0.3-0.7l0.3,0l0.2,0l0.2,0.4l0.4,0.5l0.2,0.1l0.1,0.1l0.2,0l-0.1-0.4l-0.2-0.3l0.1-0.5l0-0.3
	l-0.2-0.6l-0.4-1l-0.2-0.4l-0.1-0.5l0.1-0.1l0.2,0.2l0.2,0l0.2,0.1l0.2,0.1l0,0.3l0.2,0.1l0.1,0l0.1-0.1l0.7-0.2v-0.1l-0.1-0.1
	l-0.1-0.2l0-0.1l-0.1-0.1l-0.2,0l-0.2-0.1l-0.1-0.3v-0.3l-0.2-0.2l-0.1-0.1l0-0.1l0.1,0l0.3-0.2l0.6-0.1l0.2-0.1l0.1,0l0.1,0.1
	l0.4,0.5l0.4,0.4l0.3,0.4h0.1l0.1-0.1l0-0.2v-0.1l-0.1-0.5l0-0.6l0-0.3L543,347l-0.4-0.2l-0.4-0.1l-0.3-0.5l-0.6-0.1l-0.3-0.5
	l-0.3,0l-0.3-0.3l-0.7-0.2l-0.2-0.2l-0.2,0l-0.2-0.1l0.1-0.1l0.2,0l0.3,0l0.4-0.2l0.4-0.3l-0.3,0l-0.1-0.3l-0.2-0.2l-0.1-0.3
	l0.2-0.2l0.2-0.1l0.5,0.3l0,0.2l-0.1,0.3l0.1,0.1l0.2,0l0.3-0.2l-0.1-0.4l-0.2-0.2l-0.4-0.5l-0.3-0.3l-0.2-0.2l-0.2-0.6l-0.7-0.9
	l-0.1-0.3l0.1-0.6l0.1-0.3l0-0.2l0-0.2l0.3-0.1l0.2-0.2l0.3,0l-0.1,0.2l-0.1,0.1l0.1,0.3l0.6,0.4l0.6,0.3l0,0.5l0.2,0.4l0.7,0.2
	l0.1,0l0-0.1l-0.6-0.4l-0.1-0.1l-0.1-0.4l0.1-0.1l0.7,0.1l0.5,0.7l0.3,0.2l0.1-0.1l0-0.1l-0.1-0.3l-0.1-0.1l-0.3-0.2l-0.3-0.3l0-0.2
	l0.3-0.1l0.2,0l0.4,0.2l0.3,0.1l0.2,0.2l0.3,0.2l-0.1-0.3l-0.2-0.3l-0.5-0.3l-0.3,0l-0.2,0l-0.1-0.2l0.1-0.2l-0.3-0.3l-0.1-0.2
	l0-0.3h0.5l0.4,0.1l0.4-0.2l0.4-0.5l0.3-0.1l0.2,0l0.3,0.2l0.3,0l0.6-0.4l0.3-0.1l0.4,0.2l0.2,0l0.5,0.2l1,0.2l0.4,0.3l0.1,0.2
	l0.1,0.2l0.1,0.3l0.3,0l0.4,0l0.6-0.1l0.6,0l-0.2,0.3l-0.8,0.4l-0.3,0.2l-0.3,0.3v0.2l0,0.2l-0.1,0.2l-0.1,0.2l0.2-0.1l0.2-0.1
	l0.4-0.5l0.8-0.9l0.6-0.2l0.8-0.5l0.5-0.6l0.2-0.5l0.7-0.1l0.5,0.1l0.5-0.3l0.2-0.1l0.3,0l1.4,0.4l0.5-0.1l0.1-0.2l0.1-0.3l0.1-0.3
	l-0.3-0.1l-1.7-0.8l-0.4-0.3l-0.4-0.6l-0.2-0.5l0.1-0.4l-0.1-0.3l-0.5-0.6l-0.3-0.5l-0.2-0.2l-0.4-0.2l0.8-0.9l0.2,0l0.2-0.1l0-1
	l0.1-0.6l0.1-0.2l0.2-0.1l0.3-0.5l0.5-0.1l0.4,0.1l0.3-0.4l0.1-0.9l0-0.2l0.2-0.7l0-1.2l0.2-0.3l0.4-0.5l0.1-0.3l-0.2,0l0-0.1
	l0.1-0.1l0-0.3l0.1-0.1l0.2-0.2l-0.1-0.4l0.1-0.2l0.1-0.1l0.3,0.1l-0.1,0.2l0.1,0.2l0,0.3l-0.1,0.2l1.4-0.3l0.1-0.3l0.1-0.2l0.1-0.7
	l0-0.2l0-0.3l0.1-0.3l-0.2-0.8l-0.2-0.2v-0.3l0.1-0.2l0.2-0.1l0.4,0.1l0.2-0.1l0.3-0.2l0.5-0.2l0.1-0.1l0.8-0.9l0-0.1l0.4-0.6l0-0.1
	l0.1-0.2l0.1-0.4l0.1-0.3l1-0.3l0.5,0l0.2-0.1l0.3-0.5l0.2-0.2l-0.1,0.5l0.3,0.1l0.3,0l0.3-0.1l0.1-0.3l0-0.8l-0.1-0.3l-0.1-0.3
	l-0.2-0.5l0.2,0.2l0.1,0.3l0.2,0.5l0.1,0.5l0,0.3l0.1,0.3l0.2,0.3l0.2,0.2l0.6,0.1l0.6-0.2l-0.1,0.1l-0.4,0.3l-0.2,0.2l-0.7-0.1
	l-0.7,0l-0.5-0.1h-0.5l0.2,0.2l0.2,0.2l0.4,0l0.4,0.1l0,0.2l-0.1,0.1l-0.2,0.1l-0.2,0l-0.2,0.1l0.1,0.2l0.3,0l0.3,0.1l0.8,0.5
	l0.4,0.2l0.9-0.2l0.4,0l0.7-0.2l0.2,0.2l0.5,0.3l0.2-0.1l0.3-0.1l0.1,0.3l0.1,0.4l-0.6,0.4l-0.5,0.3l-0.4,0.1l-0.9,0.6l-0.9,0.8
	l0.1,0.2l0.2,0.1l0.5-0.1l0.4,0l0.8,0.6l0.2,0.1l0.4-0.1l0.5,0.4l0.1,0.5l0,0.3l-0.2,0.9l-0.1,0.2l-0.1,0.1l0,0.2l0.6,0.5l0.3,0.1
	l0.4,0l0.5-0.1l0.6-0.5l0.5-0.7l0.7-0.3l0.5-0.1l0.6,0.1l0.2-0.4l0.6-0.3l0.3-0.5l0.3-0.1l0.3,0.1l0.2,0.1l0.1,0.1l0.2,0.1l0.5-0.1
	l0.5,0l0.5-0.2l0.1-0.4l0.1-0.3l0.2-0.3l0.2-0.4L578,320l-0.4-0.1l-0.3,0l-0.3,0.1l-0.2,0.2l-0.5-0.1l-0.2,0l-0.5,0.3l-0.3,0
	l-0.2-0.1l-0.3-0.4l-0.7-1l-0.3-0.7l-0.1-0.4l0-0.4l0-0.5l0.3-0.2l0.3-0.1l0.5-0.7l0.2,0.3v0.2l0,0.1l-0.2,0.2l-0.6,0.5l0.1,0
	l0.2-0.1l0.2-0.2l0.2-0.1l0.4-0.7l1.2-1l0.6-0.2l0.5,0.1l0.2,0l0.4-0.3l0.4-0.1l0.4,0l0.3,0.2l0.4-0.5l0.3-0.2l0.5-0.2h0.3l0.6-0.6
	l0.8-0.1l1,0.1l0.1,0l0.8-0.4l0.3-0.3l0.5-0.1l-0.1,0.1l-0.3,0.1l-0.3,0.2l0.3,0l0.7-0.1l0.3-0.4l0.5,0l0.1,0.3l0.1,0.4l0,0.1l0,0.1
	l-0.4,0.1l-0.9,0.5l-0.5,0.1l-0.5,0.2l0.1,0.3l0,0.3l-0.4-0.1l-0.3-0.1l-0.2,0l-0.5,0.3l-0.3-0.1l-0.3,0l0.1,0.4l0.3,0.5l0.2,0.1
	l0.3,0l0.7,0.6l0.5,0.6l-0.3,0l-0.2-0.1h-0.4l-0.1,0.4l-0.2,0.3l0-0.1l0-0.2l-0.2-0.1l-0.2,0.2l-0.3,0.8l-0.5,0.6l-0.2,0.4l0,0.3
	l0.1,0l0.1,0v0.2l-0.1,0.2l-1.1,0.3l-0.1,0.1l-0.3-0.1l-0.3-0.3l-0.3-0.2l-0.2,0.1l-0.2,0.1l0.1,0.1l0.1,0l0.4,0.2l-0.2,0.1
	l-0.7,0.3l0,0.1l0.1,0.1l0.8,0.2l0.7,0.4l0.2,0.3l0.2,0.5l0.2,0.2l0.2,0.2l0.2,0.1l0.4,0l0.4-0.1l0.9,1.1l0.4,0.2l0.9,0.2l0.2,0.1
	l1.7,1.5l0.5,0.7l1,1l0.3,0.2l0.6,0.4l0.8,0.6l0.2,0.1l0.9,0.2l0.6,0.5l0.2,0.4l0.8,0.3l0.2,0.3l0.2,1l0.2,1l0.3,0.7l0,0.3l0,0.2
	l-0.2,0.4l-0.5,0.7l-0.3,0.4l-0.9,0.6l-0.3,0.2l-0.4,0.1l-0.4,0.3l-1.2,0.5l-0.4,0.1l-0.4-0.1l-0.2,0l-0.3-0.1l-1.1-0.5l-1.6,0.3
	l-0.8,0.3l-0.5,0l-1.3-0.3l-0.4-0.3l-0.9-0.1l-1-0.3l-0.2-0.3l-0.6-0.3l-0.4,0l-0.2,0.1l-0.2,0.2l-0.3,0l-0.4-0.2l-0.3-0.3l-0.4-1
	l-0.2-0.1l-0.2,0l-1,0.3l-0.7-0.4l-0.2-0.2l-0.2-0.4l0-0.2l0.1-0.1l0-0.1l-0.4-0.1l-0.7,0.4l-1.6,0l-2.3-0.2l-0.3,0l-1,0.4l-1.1,0.3
	l-0.7,0.3l-0.6,0.5l-1.8,1l-0.3,0.6l-0.3,0.2l-1.2,0.1l-1.3-0.4l-1.2,0.2l-1.7-0.3l-0.5,0l-0.2,0.2l-0.1,0.3l-0.1,0.4l0.1,0.2
	l0.1,0.1l0.4,0.3l0.3,0.1l1.2,0.2h0.1l0,0.1l-1,0.1l-1.3,0.2l-0.3,0.1l-0.5,0.4l0.2,0.1l0.2,0.1l0.2,0.1l0.2,0.2l-0.1,0.1h-0.8
	l-0.3,0l-1-0.1l-0.9,0.1l-0.1,0l0.1-0.2l0.1-0.1l0-0.1l-0.3-0.1l-0.3,0l-0.1,0.1l0.3,0.4l-0.2,0.1l-0.2,0.1l-0.7,0l-0.4-0.2l0-0.1
	l-0.1-0.1l-0.5,0l-0.3,0.2l-0.8,0l-0.7,0.7l-0.5,0.6l-0.4,0.1l-0.1,0.4l0,0.8l-0.2,0.3l0,0.2l0,0.2l0.7-0.1l0.4-0.1l1-0.1l0.2,0
	l0,0.1l-0.3,0.4l-0.3,0.3l-0.1,0.2l0.1,0.1l0.4,0.5l0,0.2l-0.1,0.1l0,0.2l0.1,0.1l0.2,0l0.1,0l0.1,0.1l-0.3,0.4l-0.3,0.1l-0.1,0.1
	l0.1,0.2l0,0.1l0.1,0.2l0.2,0.3l0.2,0.1l0.5,0l-0.1,0.1l-0.7,0.1l-0.3,0l-0.1-0.1l-0.1,0l-0.1,0.2l-0.1-0.1l-0.1-0.2l0-0.2l-0.1-0.2
	l-0.2-0.3l-0.2,0l-0.2,0.1l0,0.2l0.2,0.4l0,0.3l-0.2,0l-0.2,0.3l0.1,0.1l0.3,0.1l0.3,0.2l0.2,0l0.1-0.1l0.2-0.1l0.3,0.2l0.2,0.3
	l0.2,0l0.6,0.3l0.2,0l0.1,0.3l-0.1,0.5l-0.4,0.1l0,0.1l0.2,0.2l0.2,0.4l0,0.4l0.2,0.1l0.2,0l0.1,0.1l0.3,0.2l0,0.3l-0.5,0.1l-0.2,0
	l-0.1,0.2l0,0.4l0.1,0l0.1-0.1l0.9,0l1.3-0.1h0.3l0,0.1l-0.4,0.3l-0.2,0.3l-0.2,0.1l-0.8,0.1l-0.2,0.1l-0.2,0l0,0.1l0.2,0.1l0.3,0
	l0.4-0.2l0.8,0l-0.2,0.3l0,0.1l0.3,0l0.2-0.1l0.3-0.4l0.5,0l0.7,0.4l0.3,0.1l0.2,0l0.2-0.1l0.2,0.1l0.1,0.2l0,0.2l0.1,0.2l0.1,0.4
	l0.2,0.2l0.3,0.2l1,0.4l0.3,0l0.8-0.3l0.4-0.2l0.2,0.1l0.3,0.1l0.2-0.1l0.1-0.1l0.1-0.5l0.2-0.3l0.1-1l0.2-0.2l0.9,0.1l0.8,0.1
	l0.3,0.1l1.2,0.7l0.7,0.3l0.3,0.3l0.4,0.6l0.3,0.3l0.4,0.3l0.7,0.2l0.4-0.2l0.5,0l1-0.2l0.2,0l0.5-0.1l0.7-0.4l0.2-0.2l0.8-0.9
	l0.8-0.6l0.3-0.1l0.3,0.1l0.4,0.3l0.7,0.3l0.6,0.2l0.4-0.1l0.2-0.2l0.1-0.2l0.2-0.1l0.2,0l0.3-0.2l0.4-0.2l0.2,0.2l0.1,0.1l0,0.2
	v0.3l-0.4,0.5l-0.4,0.4l-0.2,0.3l0.2,0.5l0.2,0.6l-0.2,0.3l0.2,0l0.5,0.3l0.1,0l0.1-0.4l0.1-0.1l0.3-0.1l0.1-0.6l0.1-0.1l0.2-0.1
	l0.2,0l0.2,0l0-0.1l-0.3-0.7l0-0.2l0.1-0.7l0.1-0.3l0.1-0.1l0.3,0l0.5,0.1l0.1,0.2l0.2,0.2l0.3,0l0.4,0l0.3,0l0.2-0.1l0.5-0.2
	l0.3-0.1l0.2-0.1l0.8-0.4l0.3,0l0.2,0l0.2,0.1l0.4,0.2l0.3,0.3l0.2,0.1l0.4,0l0.6,0h0.7l0.4-0.1l0.5-0.1l0.9-0.3l1.2-0.6l0.7-0.3
	l0.3,0h0.4l0.4,0.1l0.5,0.1h0.2l0.5-0.1l0.6-0.1l0.4-0.1l0.5-0.2l0.3-0.3l0.1,0l0.1,0l0.1,0l0.1,0.2l0.1,0.4l0.3-0.1l0.5-0.4
	l0.3-0.4l0.1,0l0.3,0.1l0.2,0l0.4-0.1l0.3,0.1l0.2,0.1l0.1,0l0.6,0.2l0.2,0l0.3,0l0.5,0l0.3-0.2l0.2-0.2h0.1l0.1,0l0.1,0.1l0.1,0.1
	l0,0.2l0,0.5l0,0.1l0.1,0.1l0.1,0l0.1-0.1l0.2-0.2l0.3-0.2l0.2-0.2l0.1-0.1l0.2,0l0.2,0l0.1,0.1v0l0-0.2l0.1-0.2l0-0.1l-0.2-0.2
	l-0.3-0.2l-0.1,0v-0.2l0-0.2l0-0.2l-0.1-0.1v-0.1l0.1-0.2l-0.1-0.1l-0.5-0.3l-0.2-0.1l-0.3,0l0-0.1l0-0.2l0.1-0.2l0.2-0.2l0-0.1
	l0.1-0.2l0-0.2l0.2-0.2v-0.1l0-0.1l-0.2,0l-0.2,0l-0.1,0l0-0.1l0-0.5l0-0.3l-0.1-0.2l0-0.5l-0.1-0.1l-0.2-0.3l-0.1-0.2l0-0.1l0-0.1
	l0-0.2l0-0.1l-0.2-0.1l-0.1-0.1l0-0.1l0-0.2l-0.1-0.1l0-0.1l0.1-0.1l0.2,0l0.3,0h0.3l0.2-0.1l0.2-0.9l0.2-0.2l0.2-0.1l0.4,0.3
	l0.2,0.1h0.1l0.1,0.1l0.5,0.8l0.2,0.2l0.1,0.2l0.1,0.2l0.1,0.1l0.2,0.1l0.2,0.2l0.2,0.2l0.2,0.3l0.3,0.1l1,0.2l0.5,0.1l0.2,0
	l0.4-0.2l0.5,0l0.2,0l0.5-0.6l0.2-0.2l0.4-0.1l0.2-0.3l0.3-0.3l0.4-0.3l0.4-0.3l0.3-0.2l0.5-0.4l0.3-0.1h0.3l0.4,0.5l0.4,0.4
	l0.1,0.2l-0.2,0.2l-0.3,0.1l-0.1,0.1l0,0.1l0,0.1l0,0.1l0.4,0.3l0,0.1v0.1l0,0.1l-0.1,0l-0.3,0.1l-0.2,0.1l-0.1,0.1l-0.1,0.1l0,0.1
	l0.1,0.1l0.5,0.3l0.1,0.1l0.1,0.2l0.1,0.1l0.2,0l0.1,0.1l0.5,0.6l0.1,0l0.6-0.1l0.1,0l0-1.4l0-0.1l0.2-0.4l0.1-0.4l0.1-0.2l0.3,0.2
	l0,0.2l0,0.1l0.1-0.1l0.1-0.1l0.2-0.8l0.2-0.2l0.1-0.1l0-0.2l-0.1-0.4l0-0.4l0.2-0.8l0.2-0.9l0.2-0.4l0.3-0.2l0.3-0.1l0.4-0.1l0.6,0
	l0.6,0.2l-0.2-0.5l-0.2-0.2l-0.2-0.2l-0.2-0.1l-0.4-0.2h-0.4l-0.2,0l-0.2-0.1l-0.5-0.4l-0.3-0.3l-0.7-0.8l-0.2-0.3l-0.1-0.4
	l-0.1-0.3l-0.2-0.3l-0.6-1l-0.5-0.6l-0.3-0.2l-0.3-0.2l-0.1-0.1l-0.1-0.1l-0.2-0.5l-0.2-0.4l-0.4-0.6l-0.7-1l-0.2-0.1l-0.1-0.1
	l0-0.5l-0.2-0.4l-0.3-0.2l-0.1-0.1l-0.1-0.1l0.1-0.7v-0.2L609,328l0-0.5l0.2-0.7l0.2-0.5l0-0.3l-0.2,0.2l-0.3,1.1l-0.1-0.9l-0.2-0.8
	l-0.2-0.4l-0.2-0.4l-0.3-0.3l-0.3-0.3l-0.3-0.2l-0.5-0.1l-0.1-0.1l0-0.2l0-0.2l0.1-0.4l0.2-0.2l0.3-0.2l0.1-0.2l0-0.2l0.1,0.1
	l0.1,0.1l0.1-0.4l0.1-0.2l0.2-0.2l0.2-0.5l0.2-0.3l0.1-0.3l0.1-0.5l0.1,0l0.1-0.1l0.1-0.1l0-0.2l0-0.3l-0.2-0.3l0,0l0.1,0l0.2,0.2
	l0.2,0.2l0-0.3l0.1-0.1l0.2,0.1l0.2,0l0.6-0.2l0.3-0.1l0.3-0.2l0.6-0.6l0.1,0l0.2,0l0.1,0.1l0.2,0.1l0.1,0l0.1-0.1l-0.1-0.2l0-0.2
	l0-0.2l0.2-0.1h0.2l0.8-0.4l0.1-0.2l0-0.2l0.3,0l0-0.2l-0.1,0l-0.6-0.4l-0.5-0.3l-0.5-0.2l-0.1,0l-0.1-0.1l-0.1-0.2l0-0.2l0-0.1
	l0.1-0.1l0.1,0l0.1,0l0.1,0.1l0.2,0.1l0.3,0l0.2-0.1l0-0.2l-0.4-0.7l-0.3-0.6l-0.3-0.7l-0.1-0.2l-0.4-0.6l-0.4-0.5l-0.3-0.5
	l-0.2-0.1l-0.5-0.1l-0.9-0.1l-0.3-0.1l-0.3,0.1l-0.3,0.1l-0.2-0.2L608,310l-0.1-0.3l0-0.3l0-0.5l-0.2-0.4l-0.2-0.2l-0.4-0.2
	l-0.5-0.4l-0.2-0.7l0.3-1l0.4-0.7l0.3-0.3l0.2-0.3l0-0.2l0-0.2l-0.2-0.2l-0.3-0.2l-0.1-0.3l0.1-0.6l0.2-0.8l0.3-0.7l0.4-0.4l0.3-0.3
	l0.1-0.2l0-0.4l0-0.3l0.1-0.2l0.1-0.2l0.2-0.2l0.2-0.2l0.3,0l0.3,0.2l0.4,0.4l0.6,0.8l0.3,0.5l0.1,0.2l0.3,0.3l0.3,0.1l0.5-0.2
	l0.5-0.2l0.1-0.1l0.1-0.2l-0.1-0.4l-0.1-0.2l-0.1-0.3l-0.1-0.5l-0.1-0.9l-0.1-0.3l0.1,0l0.2,0.1l0.2,0l0.3-0.2l0.4-0.4l0.7-0.6
	l0.2-0.4l0.1-0.4l0.2-0.2l0.5-0.1l0.4-0.1l0.3-0.3l0.5-0.3l0.4-0.2l0.2-0.1l0.1-0.2l0.5-0.6l0.4-0.4l0.3-0.4l0.1-0.2l0.2,0l0.4,0.2
	l0.4,0.1l0.3,0.2l0.1,0.2l0,0.2l0.1,0.1l0.1,0l0.2,0l0.4,0l0.5-0.3l0.7-0.5l0.6-0.2l0.3,0.1l0.3,0.4l0.2,0.4l0.2,0.1h0.1l0,0
	l0.3-0.1h0l0.2,0l0.2,0.1l0.4,0l0.5-0.1l0.1,0l0.2,0l0.3,0.2l0.2,0.2l0.4,0.7l0.2,0.2l0.5,0.2l0.2,0.2l0.3,0.3l0.1,0.2l0.3,0.4
	l0.3,0.6l0.1,0.5l0.1,0.4l0.1,0.2l0.1,0l0.1-0.1l0.1-0.2l0-0.3l0-0.5l-0.1-0.4l-0.1-0.1l0-0.1l0.1-0.2l0.2-0.1l0.2,0.1l0.4,0.2
	l0.4,0.3l0.5,0.5l0.5,0.4l0.5,0.3l0.4,0.1l0.3-0.1l0.4-0.2l0.3-0.3l0.2-0.3l0.1-0.3l0.5-0.4l0.5-0.4l0.2,0.1l0.2,0.1l0.5-0.2
	l0.2-0.1l0.5-0.1l0.5,0.1l0.4,0.4l0.4,0.3l0.3,0l0.3-0.1l0.2-0.2l0.1-0.3l0.2-0.2l0,0l0.6,0.1l0.4,0l0,0l0.5,0.1l0.5,0.4l0.3,0.5
	l0.4,0.6l0.2,0.2l0.3,0.1l0.2,0l0.3,0.1l0.8,0.1l0.1,0.1l0.1,0.1l-0.1,0.3l0.1,0.1l0.6-0.2l0.2-0.2l0.2-0.5l0.2-0.5l0.1-0.2l0.2,0
	l0.2,0.1l0.2,0.3l0.3,0.3l0.4,0.1l0.2,0l0.4,0l0.8-0.1l0.8-0.4l0.5-0.4l0.2-0.6l0.1-0.6l0.2-0.4l-0.1-0.4l-0.4-0.4l-0.1-0.1l-1-0.2
	l-0.1-0.2l-0.1,0l-1-0.4l-0.5-0.1l-0.1-0.2l-0.1-0.3l-0.3-0.3l-0.6-0.2l-0.1-0.2l0.1-0.2l0.3-0.1l-0.5-0.2l-0.8-1.9l-1.9-0.7
	l-0.1-2.7l1.1-2.2l1.3-1.4l-0.7-1.8l-1.9-1.1l-1.8,1.1l-1.9,1.5l-1.8-2.3l-1.2-1.8l-1.3-2.5l3.1-0.4l2.6-0.6l1.7-2.7l-0.3-2.2
	l-2.1-1.8l0.6-2.4l2.2-2.7l1.8-3.5l1.8-5l1.3-8.9l1.9-20l5.2-4.1l4.8-5.4l3.9-3.1l3.8-3.9l2-4L666.2,196.7L666.2,196.7z M603.1,62.7
	l0.7,0.4l0.9-0.6l0.2,0.5l0.1,1l0.2,0.6l0.7-0.2l0.4-0.3l0.3-1.1l0.2-0.3l0.9,0l0.4-0.8l0.2-0.1l0.3,0.2l0.3-1.2l0.3-0.2l0.2-0.9
	l0.3-0.4l0.2,0.2l0.8,1.5l1.6,0.7l0.2-0.1l0-1.5l-0.4-1.1l-0.3-0.5l-0.3-0.2l-0.3-0.1l-1,0.2l-1.3-0.7l-0.2,0l-0.9,0.7l-0.6,1
	l-1.3,0.3l-3.4,1.4l-0.6,0.7l0.7,0.2L603.1,62.7z M642,66.3l-0.4-0.8l-0.4-0.5l-1.4-0.8l-2.7-0.2l-1.2-0.3l-0.2,0.4l0.2,0.4l0.3,0.8
	l0.1,0.5l0,0.7l0.2,2.2l0.1,0.6l0.2,0.3l1.1,0.6l0.4-0.3l0.6-1.2l0.3-0.1l0.1-0.8v-0.8l0.3-0.3L642,66.3z M636,66.8l-0.1-0.6
	l-0.4-0.3l-0.7,0.1l-0.2,0.6l-1.8-0.2l-0.1,0.4l0.1,1.9l-0.2,0.7l-0.6,1l0.2,0.3l1.1,0.2l2.2,0.1l0.3-0.4l0-0.7l0.1-0.9L636,66.8z
	 M642.1,61.7l0,0.8l0,0.9l0.1,0.3l0.8,1.2l0.7-0.2l1.1-0.8l1.2,1l0.9,0.3l0.7-1.5l0.9-0.5l0.2-0.9l0.2-0.2l0.9-0.3l0.1-1.2l0.2-0.8
	l0.1-1.1l-0.2-0.7l-0.2-0.6l-0.7-0.3l-0.7-0.1l-0.8,0.5l-1.4,0.6l-1,0.4l-0.6,0l-0.1-0.6l-0.4-0.2l-1.1,0.2l-0.3,0.3l-0.1,0.6
	l-0.2,0.3l-0.3,0.9L642.1,61.7z M646.4,56.2l0.9-0.4l0.9-1.1l0.3-0.7l-0.3-1l-2.4,0.3l-1.2,1.3l-0.2,0.3l-0.1,0.3l0.7,0.5
	L646.4,56.2z M651.2,42.9l0.1,0.3l0.9,0.5l1.8,0.2l0.3-0.2l0.4-0.8l0-0.3l-0.2-0.5l-2.6-0.6l-1.4,0.2l-0.5,0.5l1.2,0.4L651.2,42.9z
	 M652.8,55.6l-0.8,1.3l-0.6,0.7l-0.2,0.5l0.7,1l0.7,0.9l0.5,0.3l0.5,0l3.3-1l1.3-1.1l1.2-2l-0.2-0.7l0-0.7l0.1-0.9l-0.2-0.7
	l-0.4-0.9l-0.4-0.5l-0.6-0.5l-0.6,0l-0.7,0.4l-0.2,0.6l-0.1,0.7l-0.1,1.3l-0.2,0.7l-0.7,0.3h-0.7L652.8,55.6z"/>
</svg>
