<svg xmlns="http://www.w3.org/2000/svg" xmlns:xlink="http://www.w3.org/1999/xlink" version="1.1" id="Objects" x="0" y="0" viewBox="0 0 744.7 232.5" enable-background="new 0 0 744.7 232.5" xml:space="preserve">
  <linearGradient id="plane_1_" gradientUnits="userSpaceOnUse" x1="24.24" y1="101.03" x2="628.37" y2="101.03">
    <stop offset="0" stop-color="#FFBA66"/>
    <stop offset="1" stop-color="#CC3333"/>
  </linearGradient>
  <path id="plane" fill="url(#plane_1_)" d="M628.4 104.2 235.5 150.4L235.5 150.4M232.9 57.2l-73.8 43.5c-9.9-1.1-40-4.6-48.3-6 -10.1-1.7-16.5-2.3-16.5-2.3l-8.3-53.2 -2.9-2 -1.1-11.1 2.1 0c0 0-1.5-8.7-3.3-9.7 -1.8-1-17.2-0.8-18.2 0.8 -0.8 1.3-2.9 47-3.8 65.5 -1.5-0.2-3.5-0.5-5.2-0.5 -3.1 0-5.6 0.1-5.6 1.7 0 1.6 3.1 2.7 4.9 2.7 1.8 0 3.6 0 3.6 0l2.1 2.1c0 1.1-0.1 1.7-0.1 1.7s-18-0.2-22.7-0.4c-2.8-0.1-3.3 3.7-3.3 6.9 -0.3-0.2-0.6-0.3-1-0.3 0.4-4.2 0.8-10.7-0.7-11.7 -2.2-1.5-3.3-0.1-5.2 2.8 -1.3 2.1 0.9 8 2.3 11.1 -0.3 0.2-0.5 0.4-0.7 0.7 -0.2-0.2-0.4-0.3-0.7-0.3 -0.5 0-0.9 0.3-1.1 0.7 -0.1-0.1-0.2-0.1-0.4-0.1 -0.4 0-0.8 0.3-0.8 0.8l0 1.1c0 0.4 0.3 0.8 0.8 0.8 0.1 0 0.2 0 0.4-0.1 0.2 0.4 0.6 0.7 1.1 0.7 0.3 0 0.5-0.1 0.7-0.3 0.1 0.3 0.4 0.5 0.7 0.7 -1.3 3.1-3.6 9-2.3 11.1 1.8 2.9 2.9 4.2 5.2 2.8 1.5-1 1.1-7.5 0.7-11.7 0.4 0 0.7-0.1 1-0.3 0 3.2 0.5 6.9 3.3 6.9 4.7-0.2 22.7-0.4 22.7-0.4s0 0.6 0.1 1.7l-2.1 2.1c0 0-1.7 0-3.6 0 -1.8 0-4.9 1.1-4.9 2.7 0 1.6 2.6 1.7 5.6 1.7 1.7 0 3.7-0.3 5.2-0.5 0.8 18.5 3 64.2 3.7 65.5 1 1.6 16.4 1.8 18.2 0.8 1.8-1 3.3-9.7 3.3-9.7h-2.1l1.1-11.1 2.9-2 8.3-53.2c0 0 6.5-0.6 16.5-2.3 8.5-1.5 39.7-5 48.9-6.1l73.2 45.8M162.5 100.9l70.4-41.5v85.5L162.5 100.9zM156.7 103.2c1.1 0.6 2.2 1 2.2 1l-2 30.2 -12.5 0 -4.7-29.2C146.2 104.4 152.4 103.7 156.7 103.2zM156.7 98.9c-4.3-0.5-10.5-1.2-17-2l4.7-29.2h12.5l2 30.2C158.9 97.9 157.8 98.3 156.7 98.9z"/>
  <g id="banner">
    <linearGradient id="SVGID_1_" gradientUnits="userSpaceOnUse" x1="462.2" y1="156.23" x2="29.11" y2="156.23" gradientTransform="matrix(-1.0197 0 0 1 747.1908 0)">
      <stop offset="0.13" stop-color="#FAAC18"/>
      <stop offset="0.5" stop-color="#FFCA05"/>
      <stop offset="1" stop-color="#FFE7A3"/>
    </linearGradient>
    <polygon fill="url(#SVGID_1_)" points="674.1 214.1 717.5 99 275.9 98.3 331.2 214 "/>
    <linearGradient id="SVGID_2_" gradientUnits="userSpaceOnUse" x1="373.22" y1="194" x2="411.15" y2="128.31" gradientTransform="matrix(-1.0197 0 0 1 747.1908 0)">
      <stop offset="0" stop-color="#FFE7A3"/>
      <stop offset="0.5" stop-color="#FFCA05"/>
      <stop offset="1" stop-color="#FAAC18"/>
    </linearGradient>
    <polygon fill="url(#SVGID_2_)" points="386.1 146.9 297.9 145.3 331.2 214 "/>
    <linearGradient id="SVGID_3_" gradientUnits="userSpaceOnUse" x1="291.98" y1="101.63" x2="470.18" y2="101.63" gradientTransform="matrix(-1.0197 0 0 1 683.8178 0)">
      <stop offset="0" stop-color="#FFE7A3"/>
      <stop offset="0.5" stop-color="#FFCA05"/>
      <stop offset="1" stop-color="#FAAC18"/>
    </linearGradient>
    <polyline fill="url(#SVGID_3_)" points="386.1 146.9 364.6 57.6 204.4 56.2 229.4 147.1 386.1 146.9 "/>
  </g>
  <g id="quiz">
    <linearGradient id="SVGID_4_" gradientUnits="userSpaceOnUse" x1="399.19" y1="157.99" x2="449.04" y2="157.99">
      <stop offset="0" stop-color="#FF3333"/>
      <stop offset="1" stop-color="#963333"/>
    </linearGradient>
    <path fill="url(#SVGID_4_)" d="M410 147.3L406 146c11.1-6.4 20.7-9.5 28.6-9.5 5.2 0 8.9 1.2 11.1 3.5 2.2 2.4 3.4 5 3.4 8 0 3.1-0.9 6.5-2.7 10.1 -1.8 3.7-4.1 6.7-6.8 9.2 1.4 1.2 3 3.1 4.9 5.5l-3.5 5.9c-2.3-1.7-5.1-3.4-8.4-5.3 -3.5 2-7.2 3.5-11.2 4.5 -4 1-7.1 1.5-9.1 1.5 -1.8 0-3.9-0.5-6.3-1.6 -2.4-1-4.1-2.5-5.2-4.3 -1.1-1.8-1.6-3.8-1.6-5.8 0-4.8 2.1-9.4 6.4-13.7s9.9-7.5 16.9-9.4l-0.8 3.1c-3.8 1.4-7.3 3.3-10.2 5.7s-5.1 4.8-6.2 7.4c3.5 7.8 8.8 11.7 16.1 11.7 2 0 4.4-0.4 7.1-1.2 -4.3-1.8-8-2.9-11.2-3.3 1.7-1.6 3.2-3.1 4.7-4.3s2.8-2.3 3.8-3c2.1 0 4 0.4 5.7 1.2 1.8 0.8 3.6 1.9 5.5 3.2 1.1-3 1.7-6.1 1.7-9.3 0-4.7-1-8.2-3.1-10.6s-4.9-3.6-8.5-3.6C422 141.8 416.3 143.6 410 147.3z"/>
    <linearGradient id="SVGID_5_" gradientUnits="userSpaceOnUse" x1="451.87" y1="157.87" x2="472.66" y2="157.87">
      <stop offset="0" stop-color="#FF3333"/>
      <stop offset="1" stop-color="#963333"/>
    </linearGradient>
    <path fill="url(#SVGID_5_)" d="M452.5 149c1.8-0.1 4.7-0.8 8.5-1.9 -0.2 0.5-0.4 1.6-0.7 3.2 -0.1 1-0.3 2.1-0.6 3.3 -0.2 1.3-0.4 2.4-0.4 3.4 0 1 0.2 2 0.6 3 0.4 1 1 2.2 1.6 3.6 1.5-1.2 2.5-2.1 3.1-3 0-0.5 0-1.3 0-2.6 0-4.4-0.2-7.5-0.6-9.5 0.6 0.1 1.2 0.2 1.7 0.2 2 0 4.2-0.2 6.8-0.6 -0.1 2.4-0.2 5.3-0.2 8.8 0 2 0.1 5.4 0.2 10.2 -0.9 0.2-2.6 0.5-5.2 1l-3.2 0.6c0.3-1.5 0.4-2.8 0.4-4.1 -1.2 0.6-3.2 1.8-6 3.7 -2.2-0.6-3.6-1-4.1-1.4 -0.6-0.3-1.2-1-1.8-2.1 -0.6-1.1-0.8-2.6-0.8-4.5C451.9 156.4 452.1 152.6 452.5 149z"/>
    <linearGradient id="SVGID_6_" gradientUnits="userSpaceOnUse" x1="475.55" y1="152.84" x2="487.5" y2="152.84">
      <stop offset="0" stop-color="#FF3333"/>
      <stop offset="1" stop-color="#963333"/>
    </linearGradient>
    <path fill="url(#SVGID_6_)" d="M475.5 154.3l0.6-2.9c3.1-0.5 6.7-1.7 10.8-3.7v4.1l-0.1 1.8c0 0.2 0 0.4 0 0.6 0 0.5 0 1.2 0 2.1 0 0.4 0 0.7 0 1l0.2 4.1c0 0.9 0.1 2.9 0.4 6 -3.2 0.6-6 1-8.4 1.3 0.2-2 0.3-4.9 0.3-8.8l-0.1-5.9c-0.7 0.3-1.4 0.4-2.1 0.4C476.7 154.4 476.1 154.4 475.5 154.3zM482.5 137c1.2 0 2.2 0.4 3 1.2 0.8 0.8 1.3 1.8 1.3 3.1 0 1.2-0.4 2.2-1.3 3 -0.9 0.8-1.9 1.3-3 1.3s-2.2-0.4-3-1.3c-0.8-0.8-1.3-1.8-1.3-3s0.4-2.2 1.3-3C480.3 137.4 481.3 137 482.5 137z"/>
    <linearGradient id="SVGID_7_" gradientUnits="userSpaceOnUse" x1="491.2" y1="159.97" x2="511.22" y2="159.97">
      <stop offset="0" stop-color="#FF3333"/>
      <stop offset="1" stop-color="#963333"/>
    </linearGradient>
    <path fill="url(#SVGID_7_)" d="M491.2 156.6l1.8-9c1.2 0.5 3.7 0.8 7.4 1l10.1 0.5 -1.9 6.2c-2.8 1.1-5.6 3.1-8.6 5.9 1.2-0.4 2.3-0.6 3.4-0.6 1.7 0 3.6 0.3 5.7 0.8 0.8 1.5 1.5 2.9 2.1 4.5 -0.5 1-1.7 3.2-3.6 6.4 -0.8-1.5-1.5-2.8-2.2-3.8l-2.6-0.3c-3.2-0.4-5.8-0.6-7.8-0.6 -1.1 0-2.3 0.1-3.7 0.2l8.1-11.2 -1.2-0.1c-1.5-0.1-2.7-0.1-3.7-0.1C493.4 156.4 492.3 156.4 491.2 156.6z"/>
  </g>
  <g id="conquest">
    <linearGradient id="SVGID_8_" gradientUnits="userSpaceOnUse" x1="522.49" y1="156.98" x2="554.01" y2="156.98">
      <stop offset="0" stop-color="#FF3333"/>
      <stop offset="1" stop-color="#963333"/>
    </linearGradient>
    <path fill="url(#SVGID_8_)" d="M548.6 141l1.1 3.9c-0.3 2.2-0.9 5.2-2.1 9 -0.9-2-1.8-3.9-2.7-5.6 -2.3-0.9-4.6-1.4-6.8-1.4 -3.7 0-6.5 1.1-8.6 3.2 -2.1 2.2-3.1 4.7-3.1 7.6 0 1.6 0.4 3 1.3 4.1 0.9 1.1 2.5 2.2 4.9 3.2 2.4 1 5.5 1.7 9.1 2.2 1.2 0.2 2.5 0.3 3.7 0.4s2.7 0.2 4.2 0.2 2.9 0.1 4.3 0.1l-3.1 4.1c-4.6 0.9-8.9 1.3-12.9 1.3 -5.4 0-9.3-1-11.7-3.1 -2.5-2-3.7-4.7-3.7-7.9 0-3.6 1-7.2 3.1-10.7 2.1-3.5 4.9-6.2 8.4-8.1s7.2-2.9 10.7-2.9C546 140.6 547.3 140.8 548.6 141z"/>
    <linearGradient id="SVGID_9_" gradientUnits="userSpaceOnUse" x1="553.31" y1="157.04" x2="569.46" y2="157.04">
      <stop offset="0" stop-color="#FF3333"/>
      <stop offset="1" stop-color="#963333"/>
    </linearGradient>
    <path fill="url(#SVGID_9_)" d="M567.4 149.5l-0.9 1.6c0.9 0.3 1.6 0.8 2.1 1.7 0.6 0.9 0.8 2 0.8 3.3 0 1.2-0.2 2.4-0.7 3.5 -0.5 1.1-1 1.8-1.6 2.3 -0.6 0.5-1.5 1.1-2.9 1.8 -0.2 0.1-0.6 0.3-1 0.7 -0.3 0.3-0.6 0.5-0.9 0.6 -2.3 0-4.4-0.7-6.2-1.9 -1.9-1.2-2.8-2.8-2.8-4.7 0-3.1 2.1-6.1 6.4-8.9 2 0.2 3.6 0.3 5 0.3C565.7 149.5 566.6 149.5 567.4 149.5zM559.9 152.3c-0.6 1-0.9 2.1-0.9 3.2 0 3 1.6 4.9 4.7 5.6 0.3-1.2 0.4-2.3 0.4-3.4 0-1.8-0.4-3.1-1.3-3.9C561.9 153 561 152.5 559.9 152.3z"/>
    <linearGradient id="SVGID_10_" gradientUnits="userSpaceOnUse" x1="571.57" y1="157.23" x2="586.39" y2="157.23">
      <stop offset="0" stop-color="#FF3333"/>
      <stop offset="1" stop-color="#963333"/>
    </linearGradient>
    <path fill="url(#SVGID_10_)" d="M575.9 149.5l1.7-0.5v2.3c0.3-0.2 0.9-0.5 1.8-1 0.3-0.2 0.6-0.3 0.8-0.5l1.5-0.9c1.1 0.2 1.9 0.3 2.5 0.6 0.6 0.2 1 0.6 1.4 1 0.4 0.4 0.6 0.9 0.7 1.3 0.1 0.4 0.2 1.1 0.2 2 0 1.1-0.1 2.4-0.3 3.9 -0.2 1.6-0.3 3-0.4 4.1l-3.3 2.1 -0.5 0.3c-0.9 0.6-1.7 1.1-2.3 1.3 0.7-3.2 1-5.8 1-7.6 0-2.2-0.5-4.2-1.5-5.8 0 0-0.2 0.3-0.6 0.6l-0.3 0.4 -0.7 0.7 0.1 10.1c-1.9 0.1-3.9 0.3-6 0.8 0-0.6 0-1 0-1.2 0-0.7 0-1.2 0-1.3v-0.4c0-0.5-0.1-0.8-0.1-1v-4.1c0-2.1 0-4-0.1-5.6 0.2 0 0.3-0.1 0.5-0.2s0.4-0.1 0.7-0.2 0.5-0.2 0.8-0.3L575.9 149.5z"/>
    <linearGradient id="SVGID_11_" gradientUnits="userSpaceOnUse" x1="588.43" y1="161.03" x2="603.4" y2="161.03">
      <stop offset="0" stop-color="#FF3333"/>
      <stop offset="1" stop-color="#963333"/>
    </linearGradient>
    <path fill="url(#SVGID_11_)" d="M595.3 148.6c1.2 0.2 2.2 0.5 3.2 0.8s1.7 0.7 2.4 1.2c0.7 0.5 1.2 1 1.6 1.4 0.3 0.5 0.5 0.9 0.6 1.1 0.1 0.3 0.1 1.6 0.2 3.8 0.1 2.1 0.1 3.7 0.1 4.7 0 4.1-0.1 7.4-0.3 9.9 -2.7 0.7-4.6 1.3-5.6 1.8 0.3-5.1 0.4-8.5 0.4-10.4 0-3.5-0.3-5.9-0.8-7.4 -0.5-1.4-1.8-2.6-3.9-3.6 0 0.5 0 0.8 0 0.9 0 3 1.1 5.3 3.2 7 -0.1 0.4-0.6 1.2-1.2 2.3 -0.7 1.2-1.2 2-1.5 2.3 -1.2-0.4-2-0.8-2.6-1.2 -0.6-0.4-1.2-1.3-1.7-2.5 -0.5-1.2-0.8-2.5-0.8-4.1 0-1.1 0.2-2.4 0.5-3.8 0.5-0.4 1-0.7 1.5-1.1s1.1-0.8 1.6-1.1 1.1-0.7 1.6-1S594.7 149 595.3 148.6z"/>
    <linearGradient id="SVGID_12_" gradientUnits="userSpaceOnUse" x1="606.57" y1="156.71" x2="622.16" y2="156.71">
      <stop offset="0" stop-color="#FF3333"/>
      <stop offset="1" stop-color="#963333"/>
    </linearGradient>
    <path fill="url(#SVGID_12_)" d="M607.1 150.1c1.4-0.1 3.5-0.6 6.3-1.4 -0.2 0.4-0.3 1.2-0.5 2.4 -0.1 0.7-0.2 1.5-0.4 2.5 -0.2 0.9-0.3 1.8-0.3 2.5 0 0.8 0.1 1.5 0.4 2.2 0.3 0.8 0.7 1.7 1.2 2.7 1.1-0.9 1.9-1.6 2.3-2.2 0-0.3 0-1 0-2 0-3.3-0.1-5.7-0.4-7.2 0.5 0.1 0.9 0.1 1.3 0.1 1.5 0 3.2-0.2 5.1-0.5 -0.1 1.8-0.2 4-0.2 6.6 0 1.5 0.1 4.1 0.2 7.6 -0.7 0.1-2 0.4-3.9 0.8l-2.4 0.5c0.2-1.1 0.3-2.1 0.3-3.1 -0.9 0.4-2.4 1.4-4.5 2.8 -1.6-0.4-2.7-0.8-3.1-1 -0.5-0.2-0.9-0.8-1.3-1.5 -0.4-0.8-0.6-1.9-0.6-3.4C606.6 155.6 606.7 152.8 607.1 150.1z"/>
    <linearGradient id="SVGID_13_" gradientUnits="userSpaceOnUse" x1="625.23" y1="156.78" x2="638.33" y2="156.78">
      <stop offset="0" stop-color="#FF3333"/>
      <stop offset="1" stop-color="#963333"/>
    </linearGradient>
    <path fill="url(#SVGID_13_)" d="M625.4 152.4l4-3.4 4.7 0.4c1.5 0.1 2.6 0.5 3.2 1.1 0.7 0.7 1 1.4 1 2.1 0 0.3 0 0.8-0.1 1.3 -0.1 0.6-0.3 1.6-0.4 2.8 -1.6 0.8-2.8 1.3-3.7 1.5 -0.8 0.1-1.7 0.2-2.4 0.2 -0.3 0-0.7 0-1.1-0.1 1.1 1.4 2.3 2.1 3.4 2.1 1.3 0 2.4-0.5 3.5-1.5h0.1c-1.2 3.7-3.3 5.5-6.5 5.5 -1.6 0-2.8-0.2-3.6-0.7s-1.3-1.1-1.7-2c-0.4-0.8-0.6-2.4-0.6-4.8l0.1-3L625.4 152.4zM630.7 152.5l-0.5 4.3c1 0 2.1 0 3.3-0.1 0-0.8 0-1.1 0-1.1 0-1-0.3-1.7-0.8-2.2C632.3 152.9 631.6 152.6 630.7 152.5z"/>
    <linearGradient id="SVGID_14_" gradientUnits="userSpaceOnUse" x1="640.16" y1="156.74" x2="656.17" y2="156.74">
      <stop offset="0" stop-color="#FF3333"/>
      <stop offset="1" stop-color="#963333"/>
    </linearGradient>
    <path fill="url(#SVGID_14_)" d="M645.3 149c0.1 0 1.1 0.1 3 0.2 2.1 0.1 4.1 0.2 6.1 0.2 0 0-0.1 0.5-0.4 1.3 -0.4 1.4-0.6 2.4-0.6 3 -1.4-0.5-4-1-8-1.3 0.6 1.7 2.4 2.5 5.5 2.5 1.6 0 2.8 0.1 3.4 0.2 0.6 0.1 1 0.4 1.4 0.9 0.3 0.4 0.5 1.1 0.5 1.9 0 0.9-0.2 1.7-0.6 2.6 -0.4 0.8-0.9 1.5-1.4 2 -0.5 0.5-1.5 1-2.8 1.4 -1.3 0.4-2.8 0.6-4.3 0.6 -2.6 0-4.7-0.5-6.5-1.6 0.2-0.7 0.5-1.6 1-2.6 1.8 0.8 3.9 1.2 6.2 1.2 1.2 0 2.3-0.3 3.4-1 -0.7-0.5-1.5-0.8-2.3-0.8 -0.2 0-0.4 0-0.6 0 -0.6 0-0.9 0-1 0 -2.3 0-4.1-0.3-5.3-1 -1.2-0.7-1.8-1.9-1.8-3.6 0-1.3 0.4-2.5 1.1-3.4C642 151 643.3 150 645.3 149z"/>
    <linearGradient id="SVGID_15_" gradientUnits="userSpaceOnUse" x1="658.07" y1="155.84" x2="668.95" y2="155.84">
      <stop offset="0" stop-color="#FF3333"/>
      <stop offset="1" stop-color="#963333"/>
    </linearGradient>
    <path fill="url(#SVGID_15_)" d="M660 148.8l0-1.4c0.1 0 0.7-0.1 1.7-0.2 1.7-0.2 2.9-0.3 3.7-0.4 0 0.2 0 0.4 0 0.6 0 0.4 0 1-0.1 1.9 0.4 0 1.1 0.1 2.2 0.1 0.8 0 1.3 0 1.5-0.1 -0.3 1.9-0.5 3-0.6 3.4 -0.8 0.1-1.9 0.2-3.3 0.3 -0.1 1.7-0.1 2.9-0.1 3.6 0 1 0.2 1.8 0.7 2.4 0.5 0.6 1.3 1.1 2.4 1.4l-3 4.6c-3.8-1.1-5.7-3-5.7-5.9 0-0.5 0.1-1.4 0.2-2.8 0.2-1.4 0.3-2.4 0.3-2.9 -0.5 0-1.1 0.1-1.8 0.2l1.9-3.2v-0.4L660 148.8z"/>
  </g>
</svg>
