<?xml version="1.0" encoding="utf-8"?>
<!-- Generator: Adobe Illustrator 18.0.0, SVG Export Plug-In . SVG Version: 6.00 Build 0)  -->
<!DOCTYPE svg PUBLIC "-//W3C//DTD SVG 1.1//EN" "http://www.w3.org/Graphics/SVG/1.1/DTD/svg11.dtd">
<svg version="1.1" id="Layer_1" xmlns:amcharts="http://amcharts.com/ammap"
	 xmlns="http://www.w3.org/2000/svg" xmlns:xlink="http://www.w3.org/1999/xlink" x="0px" y="0px" viewBox="243 421.9 140 239"
	 enable-background="new 243 421.9 140 239" xml:space="preserve">
<path id="south_america" fill="#CCCCCC" stroke="#FFFFFF" stroke-width="0.1" d="M305,436.9l0.1,0l0.1,0l0.1,0L305,436.9l0,0.2
	l-0.3,0.1l0-0.1l0.1-0.1L305,436.9L305,436.9z M304.7,437.3L304.7,437.3l-0.4,0.3l0,0.1l0,0.3l0.2-0.1l0.2-0.1l0.1-0.1l0-0.1
	l-0.1-0.1L304.7,437.3L304.7,437.3z M295.5,432l0.2,0l0.2,0.2l0.1,0l0.2,0l0.2,0l0.2-0.2l0-0.1l-0.1-0.4l-0.1-0.1l-0.3,0.3l-0.1,0.2
	l-0.2,0l-0.2-0.1l-0.1-0.1l-0.1,0l-0.3,0.1l-0.1,0.2l0.1,0.1L295.5,432z M292.5,432.1l0.1-0.1l0-0.1l-0.2-0.1h-0.2l-0.1,0.1l0.1,0.1
	L292.5,432.1z M374.9,645.6l0.1-0.4l-0.2,0.1h-0.2l-0.1-0.1l-0.1-0.5l-0.2-0.4l-0.2-0.1l-0.1-0.3l-0.1-0.2l-0.2,0.1l-0.1,0.1l-0.1,0
	l-0.3-0.3l-0.3,0.1l0.1-0.3l-0.3-0.4h-0.2l-0.1,0l-0.1-0.1l-0.2,0l-0.2,0.2l-0.3-0.2l-0.4,0l-0.4-0.2l0-0.1l-0.4,0l-1.1,0l-0.2,0.1
	l0.3,0.1l0.8,0.1l-0.2,0.2l0,0.3l0.2,0.2l0.4-0.1l1,0.5l0.2,0.2l0.2,0.1l0.3,0l0.1,0.1l0.1,0.2l0.2,0.3l0.3,0.1l0.3,0.1l0.1,0.1
	l0.1,0.2l0.4,0.6l0.2,0.4l0.4,0.4l0.1,0.1l0.4-0.2l0.2-0.2l0.2-0.1l-0.3-0.2V645.6z M307.1,630.3l0-0.2l-0.3-0.2l-0.3,0v0.4l0.1,0.2
	h0.4L307.1,630.3z M307.9,633.9L307.9,633.9l0,0.3l0.1,0.2l0,0l0.2-0.1v-0.2l-0.2-0.2L307.9,633.9z M311.6,633.3l-0.1,0l-0.1,0.1
	l0.1,0.2l0.2,0.1L311.6,633.3L311.6,633.3z M313,631.4l0.1-0.2l0.3-0.1l-0.3-0.5l-0.1-0.1l-0.6,0.1l-0.1,0.1l-0.1,0.2l0,0.2l0.1,0.2
	l0,0.1l-0.1,0l-0.6-0.3l-0.1-0.1l0-0.3l0.1,0l0.2,0l0.1-0.2l-0.1-0.2l-0.2-0.1l-0.5,0.1l-0.4-0.3l-0.2,0l0.1,0.4l-0.6,0.6l0,0.4
	l0.1,0.3l0,0.2l-0.1,0.1l-0.2,0l-0.2,0.1l-0.1,0.2l-0.7,0.7l0.1,0.2l-0.3,0.5v0.3l0.3,0.5l0.4,0.3l0.1-0.5l0.2-0.1l0.3,0.1l0.3-0.1
	l-0.4-0.7l0.2,0l1.3,0.4l0-0.3l0-0.1L311,633l1-0.3l0.3-0.2l0.2-0.3l0.4-0.1l0.5-0.2l0-0.1l0.1-0.2l-0.2-0.1L313,631.4z
	 M308.5,631.8l0.2-0.2l0.2-0.2l0.1-0.2l0.1-0.2l0.2-0.2l0.1-0.2l-0.1-0.2l-0.2-0.1l-0.2,0.2l-0.1-0.1l-0.6,0.2l-0.2,0l-0.1-0.2
	l-0.2-0.1l-0.3,0.1l-0.4,0.3l-0.4-0.1l-0.5-0.3l-0.2-0.2l-0.1,0l0.1,0.3l0,0.2l0,0.1l0.3,0.3l0.3,0.2l0.2,0.3l-0.1,0.1l-0.5,0.2
	h-0.2l-0.1,0.1l0.2,0.2l0.3-0.1l0.1-0.1l0.1,0l0.1,0.1v0.2l-0.1,0.1l-0.1,0.2l-0.3,0.2l-0.4,0.3l-0.5,0l-0.6,0.5l0.4,0.4l0.4,0.2
	l0.5,0l0.1-0.1l0.1,0l0.2,0l0.1-0.1l0.2-0.3l0.1-0.4l0.1,0l0.2,0l0.4,0l0.2-0.1l0.6-0.7L308.5,631.8z M254.3,458.9L254.3,458.9
	l-0.3,0.2l0.1,0.1l0.2,0L254.3,458.9z M225.1,464.6L225.1,464.6l-0.4,0.1l-0.2,0.2l-0.2,0.1l-0.2,0.2l0,0.1l0.1,0.1l0.1,0l0.3-0.1
	l0.2-0.2l0.2-0.1l0.1-0.2L225.1,464.6L225.1,464.6z M221.8,464.1l-0.2,0.2l0,0.3l0.4,0.3h0.1l0.1,0l0.1,0l0.2-0.2l0-0.3l-0.2-0.2
	L221.8,464.1z M220.4,464.3L220.4,464.3l0-0.2l-0.1-0.3l-0.6-0.5l-0.1-0.5l-0.2-0.2l-0.1-0.2l-0.2-0.1l-0.4,0.1l-0.1,0.1l-0.2,0.2
	l0,0l0.1,0.1l0.2-0.1l0.1,0l0.2,0.7l0.3,0.2l0.1,0.3l0.2,0.2l-0.1,0.2l-0.5,0.2l-0.4,0.3l-0.1,0.2l0,0.2l0.2,0.2l0.1,0.1l0.7,0
	l0.6-0.2l0.3-0.5l-0.2-0.2L220.4,464.3z M221.9,466.1l-0.1,0l-0.1,0.2l0.1,0.1l0.1,0l0.1-0.1L221.9,466.1L221.9,466.1z M219.2,463.8
	v-0.3l-0.2-0.2l-0.5,0.1l0,0.1l0,0.2l0.1,0.1l0.2,0.1l0.3,0L219.2,463.8z M220.9,463.1l-0.1,0.1l-0.1,0.2l0.2,0.2l0.5,0.1l0.1-0.1
	l0.1-0.2l-0.3-0.2L220.9,463.1z M250.8,471l0.1-0.4l0.1,0l0.2,0l0.3-0.3l-0.2-0.1l-0.2,0l-0.2,0.1l-0.2,0.2l-0.1,0.2l-0.1,0.4v0.1
	l0.1,0l0.3,0L250.8,471z M256.4,455.6L256.4,455.6l0.1-0.2l0-0.1l-0.1,0l-0.1,0.1l0,0.1L256.4,455.6z M268.9,601.8l-0.1,0l-0.2,0.1
	l-0.1,0.2v0.2l0,0.1l0.2,0.3l0,0.2l0.1,0.1l0.1,0l0.1,0l0-0.3l0-0.3l0-0.3L268.9,601.8z M266.1,598l-0.1-0.1l-0.2,0l-0.1,0.1v0.1
	l0.1,0.1l0.4-0.1l0,0L266.1,598L266.1,598z M266.1,606.3l0,0.3l0.3-0.1l0.3,0.1l0.3-0.1l0.2-0.2l0.2-0.2l0-0.2l0-0.2l-0.2-0.4
	l0.1-0.7l-0.1-0.4l-0.3,0.1l-0.1,0.2l-0.1,0.1l0,0.6l-0.2,0.4l-0.2,0.3L266.1,606.3z M269.9,601.8l-0.2,0.2l-0.1,0.2l0.1,0.3
	l0.1,0.2l0.1,0.2l0.3,0.1l0.7-0.3l0.2-0.3l0.1-0.3l0.2-0.3l0-0.2l-0.2-0.2l-0.5-0.3l-0.5-0.2l-0.1,0.1l0,0.2l0,0.2l0,0.2
	L269.9,601.8z M268.4,598.9l-0.3,0.1l-0.5,0l0,0.2l0.1,0.1l0.5,0.1l0,0l0.1-0.2l0.2,0l0.1,0l-0.1-0.2L268.4,598.9L268.4,598.9z
	 M272.8,641.3l-0.2-0.2l-0.2-0.4l-0.1,0l-0.6-0.1l-0.4,0l-0.2,0.1l0-0.1l-0.1-0.4l-0.1-0.2l-0.1-0.1l-0.1,0l-0.1-0.1l-0.1,0
	l-0.1,0.1l0,0.1l0,0.3l-0.8-0.2l-0.2-0.3l-0.7,0.1l-0.5,0.6l0.6,0.1l0.2,0.4l0.3,0.4l0.3-0.1l0.1,0l0,0l0,0.3l0,0.2l0,0.4l0,0.1
	l0.3,0.2l0.2,0.1l0.1,0l0-0.1l0-0.3l0-0.2l0.1-0.2l0.1,0.1h0.1l0.2-0.1l0.3,0.1l0,0.4l-0.3,0.4l-0.2,0.1l0,0.1l0.1,0.1l0.1,0.1
	l0.1,0l0.1-0.1l0.3-0.1l0.3,0l0.3-0.2l0.2-0.1l0.1-0.1l0-0.2l0.2-0.4l0.3-0.3L272.8,641.3z M266.8,632.6l0.2,0.2l0.2,0.1l0.3,0.1
	l0.1,0l0.1-0.1l0-0.1l0-0.1l-0.4-0.3l-0.1-0.2l-0.1-0.1l-0.2-0.1h-0.1l0.1,0.3L266.8,632.6z M274.3,643.7l0.2,0l0.3,0.1l0.2-0.1
	l0.5,0.4l0.5,0.3l0.1,0l0.1-0.2l0.1-0.2l0.1-0.2l0-0.4v-0.2H276l-0.6-0.4l-0.5-0.4l-0.4-0.2l-0.8-0.2l-0.2,0.2l-0.2,0.1l-0.2,0.5
	l0.3,0.3l0.3,0.4l0.1,0.5l0.4-0.1L274.3,643.7z M266.1,634l0.4-0.8l0-0.1l-0.3-0.5l-0.3-0.1l-0.1-0.1l-0.1-0.9l-0.2,0.1l0,0.4
	l-0.3-0.1l-0.3,0.3l0.1,0.5l0.1,0.6l0.3,0.5l0.2,0.5l0.4,0L266.1,634z M269.1,638.9l0.1,0.1l0,0.2l0,0l0.2,0l0.3,0l0.5,0.2l0.2,0
	l0-0.1l-0.5-0.4l0,0l-0.4-0.5l-0.1,0l-0.1-0.1l-0.3-0.3l-0.4-0.1l-0.3-0.2l-0.5-0.2l-0.6-0.1l-0.1-0.1l-0.1,0l0,0l-0.1-0.3l-0.1-0.1
	l-0.3-0.3l-0.3-0.2l-0.1,0.1v0.1l0.3,0.3l0.2,0.4l0.4,0.3l0.4,0.4l0.1,0l0.3,0.1l0.4-0.1l0.4,0.1l0.2,0.1L269.1,638.9z M277.7,647
	l-0.2,0.1l-0.4,0l-0.2,0.1l-0.4-0.1l0-0.1l-0.1-0.3h-0.3l-0.3-0.1l-0.5,0l-0.1,0l-0.1,0.2l0,0.1l0.1,0.1l0,0l0.2-0.1l0.1-0.1l0.1,0
	l0.2,0l0.2,0.2l0.4,0.3l0.1,0.1l0,0.2l0.1,0.1l0.4,0.1l0.2,0.1l0.1,0l0.2-0.1l0.1,0l0.1,0.2l0,0.1l0,0.1l0.2,0.1l0.2-0.1l0.3-0.2
	l0-0.2l-0.4-0.8L277.7,647z M287.4,647.7l-0.4-0.4l-0.5,0l-1.3-0.2h-0.6l-0.5,0.2l0.4,0.4l0.1,0.5l0.1,0.2l0.1,0.1l0.9,0.2l0.1,0
	l0.1-0.1l0.3-0.2l0.1-0.1h0.1l0.1,0l0.1,0.1l0,0.2l0.1,0.2l0.2,0.1l0.2,0l0.2-0.2l0.2-0.2l0.1-0.2l0-0.2L287.4,647.7z M265.4,630.7
	l0.2,0l0.2-0.1l0.2-0.2l0.1,0l0.2,0.1l0.1,0l0.1-0.1l0-0.4l0-0.1l-0.1-0.2H266l-0.4,0.3l-0.5,0.2l-0.3-0.2l-0.2,0.5l-0.1,0.3
	l-0.2,0.5l0,0.3l0.3-0.3l0.1-0.2l0.3-0.6L265.4,630.7z M286.7,650.4l-0.1-0.1l-0.1,0l-0.1,0.3l-0.2,0.1l-0.1,0.1l0,0.1l0,0.1
	l0.5,0.1l0.1,0.1l0.1,0.1l0.1,0l0.1-0.1l0-0.1l-0.1-0.3L286.7,650.4z M286.1,651.5l-0.6,0l-0.2,0.1l0,0.1l0,0.1l0,0l0.4,0l0.2,0.1
	l0.1,0l0.1-0.1l0.1-0.2L286.1,651.5L286.1,651.5z M284.6,649.7l-0.2-0.2l-0.4-0.4l-0.1-0.1l0-0.1l0.1-0.3l-0.1-0.2l-0.1-0.1
	l-0.6-0.1l-0.1-0.1l0-0.1l0.6-0.4l-0.2-0.4l-0.5,0l-0.7,0.3l-2.2-0.5l-0.5-0.2l-0.1,0.9l-0.1,0.2l-0.1,0.1l0,0.1l0.3,0.1l0.1,0.1
	l0,0.1l0.1,0.1l0.4-0.1l0.1,0v0.3l0,0.1l0.1,0.1l0.3,0.2l0.1,0.3l0.1,0.1l0.5,0.2l0.2,0l-0.3-0.5l-0.2-0.3l0-0.1l0.2-0.5l0.3,0
	l0.1,0.1l0.3,0.3l0.1,0.1l0.3-0.1l0.1,0v0.1l-0.1,0.4v0.1l0.1,0.3l0.1,0.1l0.2-0.1l0.3,0.1l0.3,0l0.4,0.2l0.4,0.1l0.1,0.1l0.2,0.4
	l0.2,0.2l0.2,0.1l0.1,0l0-0.3l0-0.3L284.6,649.7z M265.2,614.6l-0.2,0l-0.3,0.2l-0.2,0.2l0.2,0.2l0,0.1l0.2,0l0.1,0l0.1-0.1l0.4-0.2
	l0-0.1L265.2,614.6z M168.7,541.1l-0.1,0.2l0,0.2l0.4-0.1l0.2-0.1l-0.1,0L168.7,541.1z M254.4,562.2L254.4,562.2l-0.1,0h0l-0.1,0.1
	l-0.1,0.1l0,0.1l0,0l0.5-0.1l0.1,0l0,0l0-0.1L254.4,562.2z M264.6,626.9l0.1-0.1l0.1-0.2l-0.1-0.1l-0.4-0.1l-0.4,0l0,0.2L264,627
	l-0.1,0.3l0.1,0.1l0,0.3l0.1,0.1l0.2,0l0.1-0.4l0-0.4L264.6,626.9z M263.4,618.3l0.1,0.8h0.3l0.2-0.2l0.6-0.2l0.2-0.2l0-0.8
	l-0.3-0.9l-0.2-0.6l-0.1-0.2l-0.5,0.2l0,0.1l0,0.2l0.1,0.3l0,0.4L263.4,618.3z M265,603.3L265,603.3l0.1-0.1l0-0.2l-0.1-0.1h-0.1
	l-0.1,0.1l0,0.2L265,603.3L265,603.3z M266.6,602.6l0.2,0.5l0.2,0.2l0.2,0.6l0.2,0.3l0.3,0.2l0,0.5l0.2,0.1l0.5,0l0-0.1l0-0.2l0.2,0
	l0,0l0.1-0.3l0-0.2l0-0.2l-0.2-0.3l0-0.2l0-0.1l-0.1-0.4l-0.1-0.4l-0.1-0.3L268,602l0-0.2l0-0.2l0.3-0.2l0.2,0l0.1-0.2l0.1-0.3v-0.2
	l-0.3-0.2l-0.1-0.2l-0.1-0.2l-0.3,0l-0.2,0.2l-0.1,0.3l0,0.4l-0.1,0.1l-0.2,0l-0.2-0.1l-0.3,0.2l-0.2,0.2l0.1,0.4l-0.4,0.2
	L266.6,602.6z M264.4,623.7l0.4,0l0.3,0l0.1-0.1l0.1-0.4l0-0.6l0-0.2l0.1-0.1l0.6-0.5l0.1,0l0,0.1l0,0.1l-0.1,0.2l-0.1,0.1l0,0.4
	l-0.1,0.1l-0.1,0.2v0.2l0.2,0.4l0,0.3l0,0.2l0.1,0.4l0.2,0l0.3,0l0.1-0.1l0.1-0.3l0.1-0.3l0.1-0.3l0-0.4l0-0.1l-0.1,0l0-0.2l0.1-0.8
	l0-0.6l0-0.6l-0.1-1.4l0-0.2l-0.1,0l-0.2,0l-0.3-0.2l-0.1,0l-0.3,0.1l-0.2,0.2l0,0.1l0.1,0.3l0,0.3l-0.2,0.3l-0.4,0.3l-0.1,0.3
	l0.3,0.2l0,0.4l-0.4,0.1l-0.1-0.1l-0.2,0l-0.3,0.2l-0.1,0.2l0.1,0.2l0.2,0.2l0.2,0.1l-0.1,0.6l-0.5,0l-0.1,0.3l0.1,0.4l0.3-0.1
	L264.4,623.7z M264.9,624.6l-0.2,0l-0.3-0.2l-0.1,0.4l0,0.2l-0.1,0.1l0,0.3l-0.1,0.4h0.4l0.2,0.2l0.5-0.3l0.3-0.3l0.4-0.2l-0.1-0.4
	l-0.4-0.1L264.9,624.6z M265.5,615.2l-0.2,0.3l-0.6,0.2l-0.1,0.2l0,0.1l0.1,0.4l0.1,0.3l0.1,0.2l0.1,0.3l0.1,0.1l0.1,0.6l0.2,0.4
	l0.6-0.1l0.4,0.1l0-0.1l-0.1-0.7l0-0.1l0-0.1l0-0.1l-0.1-0.2l-0.1-0.4l0-0.2l0-0.1l-0.2-0.2l-0.1-0.2l0-0.7L265.5,615.2z
	 M267.2,596.2l-0.2,0.4l0,0.2l0.1,0.1l0.3,0.2l0.4,0.2h0.4l0.2,0.1l0.2,0l0.2-0.1l0.1-0.2l0-0.5l0.3-0.1l0.3-0.2l0.2-0.3l0.1-0.2
	l-0.2-0.3l-0.2-0.3l-0.3-0.2l-0.3-0.3l-0.1-0.1l0.2-0.2l0.2-0.1l0-0.1l0.2-0.1l0.2-0.1l-0.1-0.3l0-0.3l0.3-0.1l0-0.3l-0.1-0.1
	l-0.1-0.5l-0.1-0.2l0-0.3l-0.6-0.1l-0.9-0.3l-0.1,0.1l0.1,0.1l0,0.1l-0.1,0.4l0,0.2l0,0.2l-0.2,0.4l0,0.2l0,0.2l0,0.2l0,0.2l0,0.2
	l0.1,0.4l-0.1,1.1L267.2,596.2z M264.1,620.7l0.4-0.4l0.4-0.7l0-0.3l0-0.3l-0.3,0l-0.2,0.1l-0.5,0.2l-0.1,0l-0.1,0.1l-0.1,0.1l0,0.2
	l0.2,0.2l0.1,0l0.1,0.1l0.1,0.3l-0.2,0.2l-0.2,0.2l0.2,0.2h0.2L264.1,620.7z M350.8,470.3l-0.2,0.2l0,0.2l0,0.2l-0.1,0.3l0.3-0.3
	l0-0.4l0-0.1L350.8,470.3L350.8,470.3z M331,464.5l-0.4,0.6v0.6l-0.3,0.3l-0.4,0.7l0.3,0l0.5-0.3l0.5-0.4l0.4-0.5l0.1,0l0.3-1
	l-0.3-0.4l-0.5,0.1L331,464.5z M348.6,530.9L348.6,530.9l-0.5,0.4l0.1,0.1l0.3-0.1l0.1,0.1v-0.2l0-0.1l0-0.1l0-0.1L348.6,530.9z
	 M334.3,457.4l0.3-0.1l0-0.1l-0.1-0.5l-0.1,0l-0.2,0l-0.2,0.1l0,0.3l0.1,0.3L334.3,457.4z M335.9,462.8l-0.1,0.1l0.3,0.1l0.7-0.1
	l0.2-0.2l0-0.2l-0.1-0.2l-0.3-0.1l-0.3,0.1l-0.3,0.1L335.9,462.8z M366.2,500.4L366.2,500.4l0,0.2l0,0.1l0.1,0l0.1-0.2l0-0.2
	L366.2,500.4L366.2,500.4z M334.6,462l-0.2,0.3l0,0.2l0.1,0l0.5,0l0.3,0.2l0.2,0l0.2-0.1l0.4-0.6l-0.1-0.1l-0.4-0.1L335,462
	L334.6,462z M335,461.6l0.3-0.4l0-0.2l-0.1-0.1l-0.1,0l0,0.1l-0.4,0l-0.1,0.2v0.4l0.1,0.1L335,461.6z M378,483.3l0-0.3l-0.1-0.7
	l-0.1-0.1l0-0.3l-0.1-0.4l-0.2-1.1l-0.3-0.6l-0.1-0.8l-0.3-1l-0.4-0.9l-0.2-0.2l-0.2-0.1l-1.2-0.2l-0.5,0.1l-0.6,0l-0.6,0l-0.4-0.1
	l-0.3-0.2l-0.3-0.1l-0.6-0.1l-0.4-0.6l-0.9-0.3l-0.5-0.5l-0.7-0.5l-0.6-0.8l-0.2-0.2l-0.3-0.4l-0.6-0.2l-0.6-0.4l-0.3-0.3l-1-0.5
	l-0.4-0.2l-0.3-0.2l-0.5-0.2l-0.5-0.4l-0.8-0.1l-0.7,0l-1.1,0.2l-0.9,0l-0.4,0.1l-0.5-0.1l-0.5-0.1l-0.2-0.2l-0.4-0.2l-0.4,0.2
	l-0.7,0l-1-0.4l-0.2-0.2l-0.4-0.2l-0.3-0.2l-0.8-0.2l-0.4,0l-0.1,0.1l-0.1,0.2l-0.8,0l-0.4,0.2l-0.2,0l-0.2,0.2l-0.5,0.5l-0.1-0.1
	l0.1-0.1l0.2-0.3l0-0.1l0-0.2l-0.2-0.1h-0.1l-0.2,0.2l-0.2,0.6l-0.2,0.6l-0.5,0.5l-0.3,0.2v-0.2l0.2-1.1l0.1-0.2l0.1-0.3l0.1-0.1
	l0.1-0.1v-0.2l0.4-0.1l0-0.3l-0.1-0.3l-0.2,0.1l-0.2,0.1l-0.2,0.4l-0.1-0.1l-0.2-0.1l0.1-0.1l0.1,0l0.1-0.2l0.1-0.1l0.1-0.2l0-0.3
	l-0.1-0.3l-0.2-0.3l-0.2,0.1l-0.2,0l0.2-0.2l-0.2,0l-0.1-0.1l-0.3-0.2l-0.3-0.2l-0.1-0.1l-0.3,0.1l-0.2,0.3l-0.1,0.2l-0.1,0.1
	l-0.1-0.4l-0.3-0.6l-0.3-0.1l-0.2,0l-0.4-0.3l-0.5-0.2l-0.2-0.2l-0.3,0l-0.2,0l0-0.2l-0.3,0l-0.3,0l-0.3-0.1l-0.3-0.1l-0.1-0.1
	l-0.4-0.2l-0.1-0.2h-0.2l-0.1-0.1l-0.2,0l-0.3,0l-0.2-0.2l-0.2-0.1l-0.4,0l-0.1,0.1l-0.1,0.1l0.1,0.1l0,0.1l-0.1,0l-0.2-0.2
	l-0.3,0.1l-0.1,0l-0.1,0l-0.1-0.1l-0.1,0l-0.2,0.1l-0.2,0.2l-0.2-0.2l-0.1,0l-0.1,0.1l0,0.2l-0.2,0.1l-0.2,0.2l-0.1,0.2l0,0.2
	l-0.4,0.3l0.1,0.2l-0.2,0.3l0,0.2l0,0.1l0.3,0.1l-0.3,0.1l0,0.3l-0.2-0.1l-0.2-0.2H339l-0.8,1l-0.5,0.1l-0.2,0.1l-0.5,1.2l-0.1,0.5
	l-0.2,0.3l-0.1,0.1l-0.2,0.1l0.1-0.2l0.1-0.2l0.1-0.7l0.1-0.2l0.2-0.6l0.2-0.7l-0.8,0.4l-0.4,0.2l-0.5-0.2l-0.3-0.1l-0.3,0.1
	l-0.2,0.1l-0.2,0.1l-0.4,0.3l-0.5-0.5l-0.1-0.1l-0.1-0.1l0-0.2l0-0.1l-0.3-0.4l-0.1-0.3l0-0.2l0-0.2l-0.1-0.2l-0.1-0.1l0.2-0.2
	l0-0.1l-0.1-0.2l-0.3,0.1l-0.1,0.1l-0.5,0.3l-0.3,0.2l-0.7,0.4l-0.3,0.1l-0.9,0.5l-0.7,0.1l-0.3-0.2l-0.9,0l0.3-0.1l0.9-0.4l0.6,0.1
	l0.1-0.1l0.1-0.1l0-0.4l0.3-0.2l0.3-0.3V465l0-0.3l0.4-0.6l0.2-0.1l0.3-0.3l0.3-0.6l0-0.3l0.5-0.1l0.4-0.5l0.2-0.1l0.3,0l0.2-0.1
	l0.5-0.5l0.3-0.6l0.3-0.3l0.1-0.2l0.6-0.5l0.1-0.1l0.3-0.2l0.1-0.1l0-0.3l0.1-0.4l-0.2-0.7l-0.3-0.2l-0.4-0.1l-0.3,0l-0.4-0.1
	l-0.2-0.3l-0.1-0.2l-0.1-0.3l-0.1-0.1l-0.2,0l0.1-0.1l0-0.1l-0.2-0.5l-0.1-0.3l-0.1-0.3l0-0.2l-0.5-1.2l-0.2-0.6l-0.1-1.1l-0.4-1.2
	l-0.3-0.4l-0.4-0.2l-0.2,0l0,0.2l-0.3,0.5l0-0.1l0-0.1l0-0.2l-0.1-0.2l-0.2-0.8l-0.1-0.2l-0.1,0l-0.1,0.3l0,0.2l-0.1,0.1l-0.1,0.1
	v-0.1l0.1-0.1l0-0.2l-0.1-0.4l-0.1-0.2l-0.5-0.4l-0.3,0.3l0.1-0.3v-0.2l-0.5-0.2l-0.9-0.7l-0.4-0.4l-1-0.3l-0.5-0.1l-1.1-0.6l-0.2,0
	l-0.2,0.3l-0.3,0.7l-0.2,0.1l0.2-0.4l0.1-0.3l0-0.3l0-0.2l-0.2-0.1l-0.6-0.1l-1.3-0.2l-0.9,0l-0.6,0.1l-0.8-0.1L319,446l-0.2,0.2
	l0,0.3l0,0.3l-0.1-0.3l-0.8-0.2l-0.6-0.1l-1.4-0.1l-0.2,0.1l-0.1,0.3l-0.1,0.3l0,0.3l-0.1,0.3l0,0l0,0l0.1-0.9l-0.1-0.6l-0.1-0.2
	l-0.3-0.3l-0.5-0.2l-0.2-0.3l-0.5-0.4l-0.5-0.5l-0.2-0.1l-0.3,0l-0.4-0.1l-0.3,0.1l-0.2,0.3l-0.2,0.3l-0.1,0.5l-0.2,0.2l0.2-0.3
	l0-0.5l0.1-0.4l0.3-0.5l0-0.8l-0.1-0.2l-0.3-0.4l-0.2-0.2l-0.3-0.4l-1.1-1l-0.8-0.5l-0.5-0.3l-0.2,0v0.1h0l-0.2-0.1l-0.4-0.5l-0.1,0
	l-0.4-0.2l-0.5,0l-0.2,0l-0.2,0.2l-0.9-0.1l-0.2,0l-0.5,0.2l-0.4,0l-0.3,0.2l-0.4-0.3l-0.2-0.1l-0.3-0.1l1,0l0.2-0.4l0.1-0.3
	l0.1-0.3l0-0.1l0.1-0.2v-0.2l0.1-0.2l0.1-0.2l0.4-0.1l0.1-0.3l-0.2-0.3l-0.4-0.3l-0.6-0.1l-0.2-0.1l-0.6-0.6l-0.2-0.1l-0.1,0.2
	l-0.4,0l0,0.2l0.1,0.1l0,0.2l-0.1-0.1l-0.1-0.1l-0.1-0.1l0-0.1L302,435l-0.3-0.2l-0.2-0.1l-0.1,0l-0.1,0l0,0.1l-0.1,0.2l0,0.2l0,0
	l0,0l-0.1-0.1l-0.1,0.2l-0.1,0.1l0,0l-0.1,0l-0.2-0.4l-0.3-0.7l-0.1-0.1l-0.1,0l0,0.1l0,0.1l-0.1,0.1l-0.2,0l0.1-0.1l0.1-0.3
	l-0.1-0.3l-0.1-0.1l-0.2-0.2h-0.1l-0.1,0v-0.2l-0.2-0.1l0.6-0.1l0.9,0l0.4-0.2l0.5,0l0.3-0.1l0.1-0.2l-1,0.1l-1.3-0.1l-0.7,0.1
	l-0.2,0l-0.4,0l-0.9,0.2l-1.1-0.1l-0.9,0.1l-0.3,0l0.1,0.3l0.2-0.1l0.8,0.1l0.4,0.1l-0.1,0.1l-0.1,0.1l-1,0l-1.9,1l-0.3,0l-0.2,0
	l-0.3,0l-0.5-0.1l-0.5-0.1l-0.5-0.2l-0.5-0.1l-0.7-0.6v-0.1l0-0.2l-0.4-0.2l-2.1,0.1l-0.4,0.1l-1.3,0.1l-0.8,0.1l-0.8-0.1l-0.3-0.2
	l-0.2-0.3l-0.1-0.3l0.1-0.2l-0.1-0.2l0-0.3l-0.2-0.3l-0.6-0.4l-0.6-0.4l-0.6-0.1l-0.5-0.2l-0.8,0l-0.1,0l-0.2,0l-0.2-0.2l-0.1-0.3
	l-0.1-0.5l-0.1-0.5l-0.1-0.2l-0.1-0.2l-0.2-0.2l-0.3,0.1l-0.2,0.1l-0.1,0.3l-0.1,0.3l0.2,0.4v0.1l0.1,0.2l0.8-0.1h0.3l0.1,0.4
	l-0.1,0.2l-0.2,0.1l-0.5-0.2l-0.1,0l-0.2,0.3l-0.2,0.2l-0.9,0.3l-0.8,0.1l-1.2,0.6l-0.6,0.1l0,0.4l-0.2,0.2l0.1,0.5l0.1,0.2l0.1,0.2
	l0.2,0.6l0.4,0.3l0.1,0.4l0.4,0.5l0.1,0.4l-0.1,0.5l0,0.5l-0.3,0.4l-0.1,0.2l-0.2,0.1l-0.7,0.2h-0.2l-0.2-0.1l-0.1-0.2l-0.1-0.3
	l0.1-0.2l-0.1-0.1l-0.2-0.1l-0.3-0.4l0-0.2l-0.3-0.5l0.4-0.8l0.2-0.2l0.3-0.4l0.4-0.4l0.2-0.6l0-0.2l-0.3-0.3l-0.1-0.5l0.1,0l0.1,0
	l-0.4-0.4l-0.1-0.2l-0.3-0.6l0-0.2v-0.2l0.1-0.1l0.1,0l1.1-0.3l0.2-0.1l0.2-0.2l0.1-0.1l0.1-0.2l0.4-0.4l-0.1-0.3l-0.3-0.5l-0.6-0.3
	l-0.3,0l-0.3,0l-0.6,0.3l0,0.1l-0.1,0.1h-0.2l-0.2,0.1l-0.1,0.4l-0.3,0.5l-0.5,0.2l-0.8,0.2L270,431l-1,0.1l-0.3,0l-0.3-0.1
	l-0.4-0.1l-0.2,0.1l-0.2,0.2l0,0.5l-0.2,0.4l-0.1,0.4l-0.1,0.1l-0.2-0.1l-0.2-0.2l0.1-0.2l0.2-0.1l0.2,0l0.1-0.1l-0.4,0l-1.1-0.3
	l-0.2,0.1l-0.6,0.5l-0.4,0.2l-0.1,0.2L264,433l-0.1,0.2l-0.2,0.6l-0.3,0.4l-0.1,0.1l0.2-0.1l0.2-0.2l0.1,0.1l-0.2,0.2l0,0.4
	l-0.1,0.5l-0.1,0.3l0.1,0.2l0.1,0.3l-0.1,0.2l-0.3,0.1l-0.4,0l-0.3,0.2l-0.3,0.3l-0.4,0.8l-1.2,0.8l-0.3,0.1l-0.2,0.1l-0.1,0.1
	l0.1,0.2l0.1,0.1l0.1,0.4l0.1,0.9l-0.1,0.2l-0.2,0l-0.1-0.1l-0.1-0.1l0-0.2l0.1-0.1l0-0.1l-0.1-0.1l-0.1,0l-0.2-0.3l-0.4-0.4
	l-0.4-0.3l-0.2-0.4l-0.1-0.1l0,0l-0.2,0.2l-0.1,0.2l0.2,0.2l0.1,0.2l0.1,0.2l0.2,0.2l0.2,0.4l0,0.2l-0.1,0.1l-0.2,0.1l-0.2,0.2
	l0,0.2l0,0.1l-0.5,0.4l-0.1,0.1l-0.1-0.1l-0.1-0.2l-0.1-0.2l-0.1-0.1h0l0,0l0,0.1l0.1,0.4l-0.1,0.1l-0.2,0.1l-0.2,0.6l0.3,0.3
	l0.3,0.5l0.1,0.2l0.1,0.1l0.2,0.4l0.2,0l0.2,0.3l0,0.2l-0.1,0.6l-0.1,0l-0.1,0l0,0.3l0.4,0.5l0.3,0.6l-0.2,0.3l-0.6,0.4l0.4,0.3
	l0.1,0.3l0,0.3l0,0.4l0.1,0.7l0.1,0.1l0.1,0.2l-0.1,0.4l0,0.3l-0.1,0.2l-0.2,0.1l-0.1,0.1l-0.2,0.1l0,0.1l0.3-0.1l0,0.1l-0.1,0.2
	l0,0.2l0.2,0.3l0.2-0.3l0.1,0l0,0.4l0.1,0.1l0.1,0l0.1-0.1l0.1,0l-0.5,0.9l-0.2,0.3l-0.1,0.4l-0.2,0l-0.1,0.3l-0.1,0.2l-0.1,0.2
	l-0.2,0.1l-0.2,0l0,0.1l0.1,0.2v0.1l-0.3,0.3l-0.1,0.1l0,0.1l-0.2,0l-0.1,0.1l-0.1,0.2l-0.1,0.2l-0.1,0.1l-0.1,0.1l-0.1,0.1
	l-0.5-0.1l-0.1,0.1l-0.2-0.1l-0.1,0l-0.2,0.1l-0.2,0.2l-0.1,0.1l0,0.7l0.2,0.4l-0.1,0.4l-0.6-0.2l-0.5,0.3l-0.2,0.4l0.4,0.3l0.1,0.2
	l0.1,0.4l-0.2,0.2l-0.9,0.3l-0.7,0.1l-0.4,0.2l-0.4,0l-0.1,0.2l-0.3,0.2l-0.4,0.1l-0.1,0.1l0.1,0.5l0.1,0.5l-0.1,0.7l-0.2,0.5
	l-0.3,0.3l-0.2,0.1l-0.4,0.6l0,0.2l0.2,0.4l0.3,0.1l-0.2,0l-0.3-0.1l-0.1,0.3l-0.1,0.5l-0.2,0.1l-0.6,0.2l-0.2,0.3l0.2,0.6l0.1,0.3
	l-0.1,0.7l0.2,0.5l0,0.3l0,0.4l-0.3,0.2l-0.3,0.1l0,0.1l0.1,0.1l0.3,0.2l0.4,0.1l0.7,0.6l0.2,0.1l0.3,0.1l0.1-0.1l0-0.1l0.3-0.3
	l0.2-0.4l0.1-0.1l-0.1,0.6l0.1,0.1l0.2-0.1l0.1-0.4l0-0.8l0.1-0.2l0,0.1l0,0.2l0.1,0.5l0.2,0.4l0,0.3l-0.3,0.5l-0.3,0.9l-0.1,0.2
	l-0.2,0.2l-0.2,0.1l-0.2,0.1l-0.4,0.1l-0.1,0l-0.5,0.3l-0.4,0.4l-0.4,0.3l-0.3,0.4l-0.9,1l-0.1,0.2l-0.1,1l0.1,0.2l0.3,0.3l0.2,0.4
	l-0.1,0.2l-0.1,0.2l0.6,0.9l0.2,0.5v0.4l-0.1,0.2l-0.2,0.1l-0.3-0.1l-0.2,0.2l-0.1,0.2l0.1,0.3l0.2,0.2l0.7,0.4l2,1l0.3,0.3l0.2,0.4
	l0.4,0.5l0.4,0.6l0.1,0.4l0.6,1.2l0.2,0.2l0.4,0.4l0.4,0.5l0.2,0.5l0.5,0.6l0,0.4l0.2,0.6l0.2,0.5l0.4,0.6l0.2,0.8l0.2,0.5l0.2,0.8
	l0.2,0.5l1,1.6l0.2,0.5l0.1,0.5l0,0.3l0.9,0.7l0.2,0.4l0.2,0.7l0,0.4l0.2,0.1l0.1,0.2l0.1,0.1l0.5,0.4l0.2,0.5l0.3,0.6l0.2,0.3
	l0.1,0.5l0.2,0.4l0.6,0.8l0.1,0.4l-0.2,0.8l-0.2,0l-0.2,0.1l0.2,0.2l0,0.5l0.3,0.3l0.1,0.3l0.4,0.5l0.2,0.4l0.5,0.4l0.6,0.3l0.4,0.6
	l0.3,0.2l0.2,0.4l0.2,0.3l1.5,0.8l0.5,0.4l0.6,0.2l0.9,0.7l0.3,0.1l0.9,0.3l0.4,0.2l0.9,0.4l0.5,0.3l0.9,0.3l0.3,0.2l0.3,0.3
	l0.4,0.4l0.4,0.2l0.3,0.2l0.3,0.1l0.7,0.3l0.3,0.2l0.1,0.2l0.1,0.6l0.1,0.2l0.8,0.6l0.3,0.2l0.4,0.3l0.9,0.7l0.2,0.2l0.2,0.2
	l0.1,0.6v0.7l0.2,1.3l0.2,0.7l0,0.4l0.1,0.3l0,0.3v1.3l-0.1,0.9l0,0.6l0.3,1.6l0,0.3l0,0.4l-0.1,0.4l-0.1,0.7l-0.1,0.3l-0.1,0.7
	l-0.1,1.1l-0.2,0.9l-0.2,0.4l-0.2,0.2l-0.3,0.1l0,0.3l-0.1,0.2l0,0.3l0.2,0.3l0.3,0.1l0.1,0.1l0,0.3l-0.2,0.4l-0.1,0.3l0,0.2l0,0.5
	l-0.1,0.6l-0.1,1l0,0.4l0.3,1.2l0,0.2l-0.1,0.4l-0.2,0.3l-0.1,0.2l-0.2,0.7l0,0.2l0.2,0.4l-0.1,0.7l0,0.3l-0.1,0.3l-0.1,0.5
	l-0.3,0.8l0,0.3l-0.2,0.7l0,0.4l0,0.6l0,0.3l-0.1,0.1l-0.3,0.3l-0.1,0.3l-0.2,0.8l-0.1,1l-0.2,0.4l-0.1,0.5l-0.2,0.3l-0.3,0.2
	l-0.1,0.2l0.1,0.9l0.4,0.5l0.1,0.3l0,0.7l-0.1,0.9l-0.1,0.7l-0.8,0.6l-0.1,1l0,0.4l0.1,0.7l0,0.6l0.2,1.1l0.1,1l0,1.3l0.3,0.6
	l-0.1,0.5l0,0.4l-0.4,1l-0.1,0.2l-0.3,0.2l0.1,0.7v0.5l0.2,0.3l-0.1,0.5l-0.5,0.6l-0.1,0.2l-0.2,0.4l-0.2,0.5l0,0.4l-0.1,0.5
	l-0.1,0.7l-0.4,1l-0.1,0.6l-0.5,0.5l-0.2,0.3l-0.1,0.4l-0.2,0.2l-0.2,0.3l0.1,0.6l-0.3,0.4l-0.3,0.3l-0.3,1.4l-0.3,0.5l-0.1,0.4
	l-0.3,0.2l-0.1,0.4l0,0.3l-0.1,0.6l-0.1,0.4l-0.1,0.1l-0.3,0.1l-0.6-0.1l-0.1,0.2l-0.1,0.3l0.2,0.5l-0.2,0.4l0,0.4l0.4,0.8l0.1,0.5
	l0,0.3l-0.2,0.8l0,0.5l0.1,0.4l0.7,2.2l-0.1,0.7l-0.5,1.3l-0.2,0.2l-0.5,0.4v0.4l-0.2,0.7l-0.1,0.8l-0.4,1.5l-0.2,0.4l0,0.5l0.2,0.8
	l0.1,0.5l0.1,0.3l0.3,0.2l0.2,0v0.1l-0.2,0.1l-0.1,0.2l0,0.2l0.3,0.1l0.3,0.1l0.8-0.1l0.2-0.1l0.5-0.8l0.2-0.1l0.2,0l0.2,0.1
	l0.4,0.4l0.2,0.1l0.2,0l0.3-0.2l0.2-0.5l0.1-0.1l-0.1,0.6l-0.4,0.3l-0.5,0.1l-0.2,0.2l-0.1,0.2l-0.1,0.2l0.1,0.2l0.1,0.1l0.3,0.1
	l0.4-0.1l0.1,0.8l0.1,0.7l0,0.2l-0.3-0.7l-0.2-0.2l-0.2,0.1l-0.2,0.1l0,0.2l0.2,0.4l0.2,0.4l-0.1,0l-0.3,0l-0.2,0.6l0,0.5l0.2,0.4
	l0,0.3l0,0.2l-0.3,0l-0.1,0.3l-0.1,0.3l-0.4,0.4l-0.1,0.5l0.3,0.7l-0.2,0.9l-0.4,0.1l0,0.7l-0.1,0.4l0.4,0.3l0.4,0.2l0.5,0.4
	l0.5,0.2l0,0.6l-0.2,0.5l-1,0.7l-0.5,0.2l-0.3,0.1l-0.1,0.5l-0.1,0.5l0.6,0.1l0.5,0.4l0.2,0.1l0.1,0.1l0,0.1h-0.1l-0.6-0.4l-0.2,0
	l-0.3,0.2l-0.5,0.4l-0.5,0l-0.1,0.6l0.1,0.3l0.3,0.1l0.2,0.2l0,0.5l-0.1,0.3l-0.1,0.7l0,0.2l0,0.3l-0.1,0.5l-0.1,0.3l-0.2,0.3
	l-0.3,0l0-0.2l0-0.1l0.4-0.5l0.3-1.2v-0.4l0-0.4l-0.1-0.2l-0.2,0l-0.2,0.1l-0.1,0.8l-0.1,0.4l-0.3,0.3l-0.4,0.1l-0.5,0l-0.1-0.1
	l0.1,0l0.8-0.3l0.2-0.3l-0.1-0.4l0.2-0.2l0.1-0.2l0.2-1.1l0.1-0.3l0-0.2l-0.3-0.2l-0.1,0l-0.2,0l-0.2,0.2l-0.1,0.1l0.1,0.4l0,0.2
	v0.1l0,0.2l-0.2,0.2l-0.4,0.1l-0.2,0l-0.3,0.1l-0.5,0l-0.4-0.1l-0.9,0.2l0,0.5l0.2,0.4l0.2,0.2l-0.4,0.3l-0.5,0.5l-0.4,0.2l-0.2,0.2
	l-0.6,0.5l-0.1,0.4v0.3l0.2,0.4l0.4,0.3l0.2,0l0.1-0.1l0-0.2l-0.2-0.5l-0.2,0l-0.1-0.1l0.1-0.1l0.2-0.2l0.4-0.1l0.5-0.2l0.4-0.4
	l0.1,0l-0.2,0.5l0.1,0.3l0.1,0.2l0.5,0.2l0.3,0.3l0.5,0.1h0.1l0-0.1l-0.1-0.1l0-0.2l0.1-0.1l0.4,0.1l0.3,0.4l0.2,0.4l-0.2,0.5
	l0.1,0.4l-0.2,0.1l-0.5,0.5l-0.2,0.4l0.5,0.4l0.2,0.1l0.1,0l0.2,0.1l0,0.2l-0.2,0.2l-0.2,0l-0.2-0.3l-0.2-0.1l-0.2,0l-0.1,0.2
	l-0.2,0.3l0.1,0.2l0.1,0.1l0.4,0.1l0.1,0.1l0,0.3l0.1,0.2l0.4,0.1l0.4-0.1l0.4-0.1l0.3-0.3l0.2-0.5l0.1-0.3l0.1,0l0.2,0.9l0,0.3
	l0,0.2l0.1,0.1l0.2,0.4l0.3,0.2l0,0.1l-0.4,0.1l-0.9-0.7l-1.1,0l-0.4-0.1l-0.5-0.1l0,0.7l0,0.5l0.2,0.4l0.1,0.4l0.4,0.1l0.2-0.2
	l0.3-0.1l0.5,0.2l-0.1,0.1h-0.2l-0.1,0l-0.1,0.1l-0.3,0.3l-0.1,0.8l0,1.1l0.1,1.3l0,0.2l0,0.1l0.1,0.2l0.2,0.2l0.1-0.4l0-0.4
	l0.1-0.3l0.2-0.3l0-0.3l0.1-0.4l0.3,0l0,0.1l-0.1,0.1l-0.1,0.1l0,0.3l0,0.4l-0.1,0.3l-0.1,0.2l0,0.3l0.3,0.3l0.3,0.1l0.2,0.4
	l-0.1,0.1l-0.2-0.1l-0.4-0.2l-0.4,0.1l-0.2,0.1l-0.1,0.5l0,0.3l0.4,0.5l0.3,0.2l0.2-0.1l0.1,0.3l-0.2,0.1l-0.9-0.2l-0.3,0.4
	l-0.5,0.6l0.3,0.3l0.3,0.4l0.1,0.1l0.2,0.2l0.8,0.3l0.2,0.2l-0.7-0.1l0,0.5l0.1,0.1l0.2,0.3l0.3,0.5l0.2-0.2l0.4-1.1l0.2-0.2l0.1,0
	l-0.1,0.3l0.2,0.2l0,0.1h-0.1l-0.2,0.2l-0.2,0.6l0,0.5l-0.1,0l-0.8-0.5l0-0.1l-0.1-0.1l-0.4-1l-0.1-0.3l-0.6-0.5l-0.2-0.1l-0.2,0.2
	l-0.1,0.3l0.2,0.3l0.1,0.4l-0.1,0.2l-0.4,0.1l-0.7,0l0.1,0.5l0.2,0.4l0.5,0.8l0.4,0.1l0.3,0.2l0.2,0.1l0.3,0.1l0.2,0.1l0.3,0l0.2,0
	l0.5,0.3l0.1,0.3l-0.1,1.3l-0.4-0.2l-0.4,0.5l0.1,0.1l0.5,0.3l0.2-0.1l0.1,0.2l0.1,0l0.2,0l0.3,0.3l0.2,0.5l0.2,0.4l0.4,0.1l0.5-0.4
	l0.7-0.6l0.9-0.3l0-0.3l-0.2-0.2l-0.2-0.1l-0.2-0.3l-0.9-0.5l-0.1,0l-0.1-0.1l0.1-0.1l0.1-0.1l1,0.6l0.6,0.6l0.1,0.3l0,0.4l-0.1,0.2
	l-0.3,0.2v0.3l0,0.1l0.2,0.6l0,0.2l0,0.2l0,0.1l-0.1,0.2l-0.2,0.2l-0.1,0.1l-0.1-0.1l0.1-0.1l0.3-0.3l0-0.2l0-0.2l-0.2-0.2l-0.1-0.2
	v-0.3l-0.1-0.1l-0.2,0l-0.1,0l-0.3,0.4l-0.5,0.4l-0.4,0.1l-0.2,0l-0.4-0.1l-0.2,0l-0.3-0.3h-0.1v0.3l0,0.3l-0.1,0.1l-0.2,0.1
	l-0.6-0.3l-0.3,0l-0.2-0.2l-0.2-0.1l-0.1,0.1l0.1,0.2l0.1,0.1l0.2,0.5l0.1,0.3l0.2,0l0.2,0.1l0.1,0.5l-0.1,0.3l0.1,0.3l0.3,0.2
	l0.6-0.1l0.4,0.1l0.6-0.4l0.4,0.1l0.2-0.3l0-0.3h0.2l0.1,0.2l-0.2,0.3l-0.3,0.5l-0.3,0.2l-0.8,0.4l0.4,0.3l0.1,0.3l0.3,0.4l0.6,0.1
	l0.2-0.1l0.1-0.1l0-0.2l0-0.4l0.2-0.5l0.4-0.3l0.1-0.3l0-0.3l0.2-0.2l0.2,0l0.4,0.1l0.1,0.2l0.1,0.1l0.3-0.4l0.2-0.1l1.2,0.1
	l0.4,0.1l0.4,0.2l-0.1,0.2l-0.1,0.1l-0.6,0.1l-0.5-0.2l-0.4,0l-0.9,0.8l-0.5,0l0-0.2l-0.1-0.1l-0.1,0.1l-0.3,0.3l-0.2,0.2l-0.1,0.3
	l0,0.9l-0.2,0.3l-0.1,0.3l0.1,0.2l0.8,0.6l0.5,0.2l0-0.4l0.1-0.4l0.1-0.2l0.5-0.6l0.4-0.3l0.6-0.3l1.4-1.1l0.5,0.2l0.2,0.2l0,0.2
	l0,0.2l-0.3,0.5l-0.3,0.3l-1,0.6l-0.1,1.2l-0.3,0.2l0-0.1l0.2-0.3l0.1-0.3l-0.1-0.5l-0.2-0.2l-0.4,0.1l-0.5,0l-0.2,0l-0.3,0.5l0,0.3
	l0.1,0.2l0.6,0.8l0.2,0.2l0.6,0.3l0.5,0.4l0.7,0.2l0.4,0.2l0.6-0.3l0.2-0.2l0.1-1l-0.1-0.6v-0.3l0.1-0.7l0.4-1.2l0-0.3l0.1-0.6
	l0.3-0.3l0.3-0.2l0.5-0.1l1.4-0.7l0.4,0l0.4-0.2l0.2-0.2l0.3-0.7l0.6-0.3l0.3,0l0.4,0.2l1.6,0.4l0.1-0.2l-0.3-0.5l-0.5-0.8l-0.6-1.3
	l-0.1-0.2l-0.2-0.2l-0.4,0.1l-0.4-0.3l-0.3,0l-0.2-0.1l0.3-0.1l0.4,0l0.5-0.1l0.1-0.3l0-0.2l-0.1-0.6l-0.2-0.9l-0.2-0.5l-0.2,0.1
	L281,629l0-0.1l0.4-0.3l0.2-0.4l0-0.5l0.1-0.8l0.1-0.4l0.3-0.5l0.5-0.4l0.5-0.2l0.4-0.1l0.1-0.2l-0.1-0.3l-0.2-0.2l-0.2-0.1
	l-0.4-0.1l-0.6,0.1l0.2-0.2l0.7-0.1l0.1-0.3l-0.1-0.3l0-0.2l0.3,0.5l0.2,0.5l0.2,0.3l0.4,0.3l0.3-0.1l0.6-0.5l0.2-0.3l0.1-0.3
	l0.3-2.2l-0.1-0.2l0-0.2l0.6-1.3l0.6-0.6l0.4-0.5l0.3-0.2l0.7-0.4l0.5-0.4l0.6-0.3l1.1-1.1l0.2-0.3l0.1-0.2l0.3-0.2l-0.1-0.4
	l-0.2-0.1l-0.5,0.1l-0.2,0l-0.1-0.1l0.5-0.2l0.4-0.3l0.2-0.3l0.1-0.3l0.1-0.9l-0.1-0.4l-0.2-0.4l-0.4-0.3l-1.8-0.2l-0.4-0.2
	l-1.7-1.8l-0.3-0.5L286,609l-0.1-0.3l-0.1-0.4l0-0.5l0.1-0.3l0.5-0.8l0.4-0.8l0.9-1.3l0.2-0.1l0.8-0.2l0.1-0.1l0.1-0.2l0.4-0.3
	l0.4-0.3l1.2,0.2h0.3l0.1-0.2l0-0.3l-0.3-0.3l0.1-0.5l0.8-0.7l0.2-0.5l0.1-0.3l-0.1-0.5l0.2-0.4l-0.2-1l0.1-0.6l0.1-0.2l0.2-0.2
	l0.6-0.9l0.4-0.4l0.4-0.2l0.8-0.3l0.2-0.1l0.2-0.2l-0.2-0.1l-0.2,0l-0.5-0.2l-1.1-0.6l0.2-0.3l0.5-0.1l0.5-0.4l0.5-0.1l0.5,0.2
	l0.2,0.3l0.1,0.4l0.2,0.4l0.3,0.1l1-0.3l0.1-0.2l0.1-0.2l0.1-0.5v-0.6l-0.1-0.5l-0.1-0.3l-0.1-0.1l-0.2-0.2l-0.3,0l-0.5,0.2
	l-0.4,0.1l-0.1,0.1l0.5,0.1v0.3l-0.1,0.2l-0.5,0.1l-0.4,0l-0.4-0.1l0-0.2l0.1-0.2l0-0.1l-0.1-0.1l-0.2,0l-0.2-0.2l-0.6-0.2l-0.2-0.2
	L293,592l0.1-0.8l0-0.7l-0.3-1.2l-0.1-0.5l0-0.6l0-0.2l0.2-0.3l0.4-0.3l0.1,0l0.2,0.1l0,0.1l-0.1,0.1l0.6,0.2l0.7,0.2l0.7,0.3l1,0.5
	l0.4,0l1.1,0l0.7-0.2l0.5-0.2l1.1-0.6l0.3-0.3l0.2-0.5l-0.4-0.8l-0.1-0.4l0.1-0.6l0.2-0.9l0.1-0.2l0.1,0l0.3-0.2l0.1-0.9l0-0.4
	l-0.1-0.1l-0.1-0.2l0.4,0l-0.2-0.2l-0.2-0.2l-0.2-0.1l-0.1-0.3l0.1-0.6l-0.2-0.5l0.1-0.2l0.4,0l0.3,0.4l0.6,0.2l0.7,0.1l0.6-0.1
	l0.8,0l0.6-0.1l3-0.5l0.4-0.2l1.9-0.4l2.3-0.8l1.5-1l0.3-0.3l0.1-0.6l0.3-0.6l0.9-1l1-1.7l0.1-0.4l0-0.4l-0.1-1.1l0-0.1l-0.1-0.2
	l-0.5,0l-0.4-0.2l-0.5-0.5l-0.2-0.4l-0.1-0.4l0.1-0.6l0.5-0.7l0-0.5l-0.4-0.6l-0.7-0.6l-0.6-0.4l-1.5-0.7l-0.4-0.5l-0.1-0.2
	l-0.2-0.5l0.1-0.1l0.1,0l0.1-0.2l0-0.5l-0.1-0.2l-0.1-0.3l-0.2-0.5l0-0.3l0.3-1.3l0.1-0.6l0.1-0.1l0.2,0l0.2,0l0.1-0.2l0.1-0.2
	l-0.1-1.3l0-0.3l0.1,0.3l0.1,0.6l0.1,0.5l0,0.2l-0.2,0.3l-0.2,0.2l-0.2,0l-0.2,0.2l0,0.3l-0.2,0.8l-0.1,0.7l0.1,0.7l0.5,0.7l0.7,0.7
	l0.2,0.3l0.1,0.2l0.1,0.1l0.8-0.1l1,0l0.9,0.8l1.1,0.3l0.2,0.3l0.4,0.1l0.2,0h0.2l0.7-0.3l0.5-0.1l0.9,0.1l0.4,0.3h0.4l0.5,0.1
	l1.5-0.7l0.3-0.2l0.3,0l0.4-0.5l0.6-0.5l0.1-0.4l0.6-0.8l0.2-0.6l0.1-0.2l0.1-0.1l1.3-1.1l0.4-0.5l0.3-0.4l0.4-0.9l0.5-1.4l0.2-0.4
	l0.2-0.3l0.2-0.2l-0.1-0.3l-0.1-0.4l0-0.3l0.2-0.6l0.3-0.3l0.1-0.4l0.1-0.3l0.1-0.2l0.6-0.3l0.6-0.5l0.1-0.2l-0.1-0.2l0.1-0.2
	l0.2-0.2l0-0.6l0.1,0.1l0.1,0.2l0-0.5l0.1-0.4l0.2-0.2l0.1-0.2l-0.4-0.4l0-0.3l0-0.3l0.1,0.1l0,0.2l0.1,0.3l0.4,0.2l0,0.3l0.3,0
	l0.8-0.4l0.2,0l0,0.2l-0.1,0.4l-0.1,0.1l-0.2-0.1l-0.1,0l0.1,0.9l-0.2,0.3l-0.5,0.3l-0.1,0.3l0,0.2l-0.1,0.1l-0.4,0l-0.2,0.1l0,0.5
	l0,0.2l-0.3,0.5l-0.5,0.3l-0.7,0.7l-0.3,0.1l-0.1,0.1l-0.1,0.1l-0.3-0.2l-0.2,0l0,0.3l0,0.2l-0.1,0.3l0.1,0.2l0.3-0.4l0.3-0.3l1-0.7
	l0.9-0.7l0.6-0.7l0.5-0.6l0.4-0.5l0.9-1.5l0.8-2l0.8-1.4l0.7-0.9l0.6-0.7l0.7-0.5l0.6-0.4l0-0.4l0.3-0.4l0.1-0.3l0.1-0.4l0-0.8
	l-0.1-0.8l0.2-0.6l-0.1-0.3l0.1-0.2l0-0.2l-0.1-0.2l-0.1-0.6l-0.2-0.5v-0.3l0-0.3l0-0.3l-0.1-0.2l-0.1-0.2l0.1-0.1h0.1l0.2-0.1
	l0.1-0.8l-0.1-0.2H339l0-0.1l0.3-0.1l0.4-0.7l-0.1-0.2l-0.2-0.1l-0.5-0.1l-0.1-0.4l0.2,0.2l0.2,0l0.2,0l0.1-0.1l-0.1-0.3l0.2-0.1
	l0.4,0.1l0.2,0l-0.2,0.3l0.1,0l0.5-0.6l0.3-0.2l0.1-0.3l-0.1,0l-0.1-0.1l0.2-0.1l0.1,0l0.1-0.1l0.7-0.5l1.3-0.9l0.8-0.8l0.7-0.4
	l1.9-1l0.4-0.1h0.5l0.4,0.1l0.2,0l0.1-0.1l0-0.2l0.3-0.3l0.3-0.1l0.7-0.6l0.8-0.1l0.1-0.1l0.1-0.1l-0.1-0.1l-0.1-0.1l0-0.3l0.1-0.2
	l0.8-0.2l0.6,0l0.3-0.2l0.5-0.1l0.5,0.2l0.1,0.1l-0.3,0.1l-0.3,0l-0.2,0.1l0.2,0.1l0.5-0.1l0.6-0.1l0.5-0.2l0.4,0l0.1-0.2l0-0.2
	l-0.1-0.2l0-0.1l0-0.1l0.2-0.1l0.2,0l0.1,0.1l-0.1,0.2l0.1,0.2l0.2,0.1l0.2,0.1l0.4,0l0.7-0.1h1.3l0.2,0l0.1-0.3l0.1-0.2l-0.1-0.2
	l0-0.3l0-0.2l0.8-0.8l0.3-0.2l1.3-0.5l0.3-0.3l0-0.2l-0.1-0.9v0l-0.1-0.3l0.3-0.8l0.4-0.6l0.1-0.4l0.2-0.2l0.4-0.2l0.6-0.6l0.2-0.4
	l0.1-0.4l0.3-0.3l0.2-0.7l0.4-0.7l0.4-0.3l0.2-0.2l0.1-0.3l0.1-0.5l-0.1-1.3l0-0.6l0.2-1.1l0.5-0.8l0.2-0.2l0.4-0.2l0.4-0.4l0-0.2
	l-0.1-1l0-0.4l0.1-0.4l0.1-0.8l0.2-0.8l0.3-0.9l0.2-0.9l0-0.1l-0.2-0.8l-0.1-0.9l0-0.9L366,504l0.3-1.8l-0.1-0.1l-0.1,0.3l-0.1-0.2
	l0-0.1l0-0.7l0.1-0.3l0-0.1l-0.1-0.1l-0.1-0.1l-0.1,0.1l0.1-0.3l0.1-0.3l0.2-0.3l0.4-0.4l0-0.3l0.2-0.4l-0.1-0.2l-0.2-0.2l0.2,0
	l0.1-0.1l0.1-0.4l0.1,0.1l0.4,0.3l0.1,0.6l0.1,0h0.1l0.5-0.4l0.6-0.7l0.2-0.3l0.8-1.1l0.6-1.3l0.2-0.5l-0.1-0.3l0.2-0.4l0.1-0.1v0.1
	l0,0.1l-0.1,0.1v0.1l0.1-0.1l0.4-0.5v-0.3l0.2,0l0.1-0.1l0.4-0.7l0.5-0.4l0.4-0.2l0.6-0.3l0,0l0.5-0.7l0.5-0.4l0.5-0.6l0.1-0.2
	l-0.1-0.2l0.2,0.1l0.2,0l0.5-0.5l0.7-0.9l0.5-0.9l0.5-1.5l0.2-0.9l0.2-0.3l0-0.3l-0.1-0.4l0-0.2l0-0.2l0-0.1l0-0.2L378,483.3z
	 M367.2,498.9l0,0.3l-0.3,0.2l0,0.2l0.1-0.1l0.4-0.3v-0.1l0-0.1L367.2,498.9z M339.1,538.7l0.2,0.4l0,0l0-0.1l0.1-0.2l0.1-0.3
	l-0.1-0.2L339.1,538.7z M334.2,462.3l0.3-0.3l0-0.3l0-0.6l-0.1,0l-0.1,0l-0.1,0.1v0.4l-0.1,0.3l-0.2,0.2l-0.2,0.1l0,0.4l0.5,0.2
	L334.2,462.3z M336.7,463.3l-0.3,0l-1.7-0.3l-0.6,0.1l-0.5,0.3l-0.1,0.3l-0.1,0.3l0,0.2l0,0.1l-0.1,0.2l0,0.1l0,0.6l0,0.3l0.2,0.2
	l0.3,0l0,0.1l0,0.1l0,0l-0.2,0l-0.2,0l-0.1,0.3l0.1,0.4l0.1,0.4l0.2,0.3l0,0.2l0.3,0.2l0.2,0l0.3-0.1l0.6,0l0.1-0.1l0.2,0l0.3,0.1
	l0.3,0.1l0.2-0.1l0.3,0l0.2-0.1l0.2-0.2l0-0.3l0.3,0.1l0.2,0.1l0.3,0l0.1-0.1l0.1-0.2l0-0.2l0.2,0.3l0.1,0l0.1,0l0.2-0.1l0.3-0.3
	l0.1-0.2l-0.1-0.1l0-0.1l0.1-0.1l0.2-0.1l0.1-0.1l0.2-0.3l0.1-0.3l0.1-0.1l0-0.1l-0.1-0.3l0.1,0l0.1-0.1l0.1-0.4l0.1-0.3l0.1-0.2
	l0-0.1l-0.1-0.1l-0.2-0.1l-0.2,0l-0.6,0l-0.9-0.1l-0.3,0l-0.3,0l-0.2,0.1L336.7,463.3z M349.6,466.5l0.2-0.1l0-0.1l-0.2,0l0,0.2l0,0
	l0,0.1L349.6,466.5L349.6,466.5z M332.5,463.4l0.3,0.2l0.8-0.5l0-0.1l0-0.1l-0.3,0l-0.2,0l-0.4,0.1l-0.1,0.2l0,0l0,0.1L332.5,463.4z
	 M296,646.1L296,646.1l-0.2-0.1h-0.3l-0.6,0.1l-0.3-0.1l-0.1,0.2l-0.1,0.1h-0.2l-0.2,0.2l0.1,0.2l0.3,0.2l0.4-0.3h0.2l0.4-0.2l0.8,0
	l0.2,0.1l0.4-0.2l0-0.2l-0.2,0L296,646.1z M292.2,645.6l-1.1,0.1l-0.7-0.3l-0.7-0.3l-0.6-0.5l-0.6-0.6l-0.5-0.4l-0.6-0.4l-0.6-0.5
	l-0.6-0.6l-0.5-0.6l-0.5-0.6l-0.2-0.2l-0.2-0.3l-0.4-1.2l0-0.1l-0.6,0l-0.3-0.2l-0.1-0.2v-0.2l0.1-0.3l0.1-0.3l0.3-0.2l0.3,0.3
	l-0.1-0.5l-0.2-0.4l-0.6-1l-0.2-0.2l-0.1-0.1l-0.3-0.2l-0.1,0l-0.8,0.5l-0.2,0l-0.7-0.8l-0.2,0l-0.2,0.3l-0.3,0.5l-0.3,0.4l-0.3,0.3
	l-0.1,0.1h-0.2l-0.3-0.2l-0.3-0.2l-0.4,0l-0.1,0.1l0.2,0.3l0.1,0.2l0.3,0.2l0.1,0.1l0,0.1l-0.1,0.1l-0.1,0.1l-0.2,0.1l-0.2,0
	l-0.2,0.1l-0.1,0.3l0,0.3v0.3l0.1,0.5l0.2,0.3l0.3,0.2l0.3,0l0.6-0.3l0.3-0.1l0.3,0l0.4,0l0.3,0.2l0.1,0.2l0,0.3l-0.1,0.1l-0.8,0.5
	l-0.7,0.3l-0.4,0.2l-0.2,0.2l0,0.6l0.2,0.6l0.3,0.5l2.2,1.2l0.4,0.2v0.1l-0.1,0.1l-0.1,0.1l-0.1,0.1l-0.2,0.4l-0.2,0.1l0-0.1l0-0.3
	l-0.1-0.2l-0.1-0.2l-0.6-0.2l-0.3-0.3l-0.2,0.1l-0.2,0.2l-0.4,0.1l-0.5,0l-0.2-0.2l0-0.3l-0.4-0.5l-0.4-0.2l-0.3-0.6h0.5l0.2-0.1
	L278,642l-0.2-1.3l-0.2,0.1l-0.2,0.3l0.1,0.5l-0.6,0.3l0,0.5l0,0.5l0.3,0.6l0.4,0.1l0.3,0.2l0.2,0.3l0.5,0.5l0,0.2l-0.3-0.1l-0.4,0
	l-0.4-0.1l0-0.3l0-0.3l-0.3-0.1l-0.3,0l-0.1,0.1l0,0.2l-0.1,0.1l-0.3,0.1l-0.2,0l-0.5-0.3l-0.1,0l-0.3,0.2l-0.2,0.2l-0.1,0l-0.3-0.3
	l-0.2,0l-0.1,0.2l-0.2,0.1l-0.1,0.2l0.1,0.3l0.2,0.1l1.1,0l0.6,0.4l0.9,0.1l0.5,0.2l0.7,0.3l0.6-0.3l0.1,0l0.1,0.1l0.3,0.2l0.3,0
	l0.4-0.2l0.4-0.2l0.1-0.1l0.4,0.5l0.3,0.2l1.1,0.2l0.7-0.2l0.1-0.1h0.4l0.1-0.1l0.4,0l0.5-0.1l0.3,0l0.6,0.2l0.6,0.1l1.9,0.2
	l0.5,0.1l0.9,0.4l0.3,0.1l0.3-0.1l0.3-0.2l0.3,0l0.3-0.1l0.3-0.2l0.3,0l0.3,0.1l0.3,0l0.4-0.1l0.4-0.2l0.3-0.4l0.2-0.5l-0.2-0.2
	L292.2,645.6z M302,581.5l-0.2-0.1l-0.4-0.1l0,0.1l0.1,0.2l0.4,0.2l0.1,0l0-0.2L302,581.5z"/>
</svg>
