<svg xmlns="http://www.w3.org/2000/svg" xmlns:xlink="http://www.w3.org/1999/xlink" version="1.1" id="Objects" x="0" y="0" viewBox="0 0 1768.5 297.7" enable-background="new 0 0 1768.5 297.7" xml:space="preserve">
  <polygon fill="#E3E5E5" points="1558 296.4 1626.6 296.5 1626.9 133.7 1558.2 133.6 "/>
  <polygon fill="#191817" points="1554.8 304.1 1555.1 136.9 1555.4 136.9 1624 137 1624 137.3 1623.8 300.2 1623.2 300.2 1623.5 137.5 1555.7 137.4 1555.4 304.1 "/>
  <path fill="#191817" d="M1601.9 160.5l0-11.8 0.3 0 11.5 0 0 0.3 0 11.5 -0.3 0L1601.9 160.5zM1602.4 149.2l0 10.8 10.8 0 0-10.8L1602.4 149.2z"/>
  <path fill="#191817" d="M1565.4 160.4l0-0.3 0-11.5 0.3 0 11.5 0 0 11.8 -0.3 0L1565.4 160.4zM1566 149.1l0 10.8 10.8 0 0-10.8L1566 149.1z"/>
  <path fill="#191817" d="M1601.8 181.4l0-11.8 0.3 0 11.5 0 0 0.3 0 11.5 -0.3 0L1601.8 181.4zM1602.4 170.1l0 10.8 10.8 0 0-10.8L1602.4 170.1z"/>
  <path fill="#191817" d="M1565.4 181.3l0-11.8 0.3 0 11.5 0 0 0.3 0 11.5L1565.4 181.3zM1565.9 170.1l0 10.8 10.8 0 0-10.8L1565.9 170.1z"/>
  <path fill="#191817" d="M1601.8 202.3l0-0.3 0-11.5 11.8 0 0 0.3 0 11.5L1601.8 202.3zM1602.3 191l0 10.8 10.8 0 0-10.8L1602.3 191z"/>
  <path fill="#191817" d="M1565.3 202.2l0-0.3 0-11.5 0.3 0 11.5 0 0 0.3 0 11.5L1565.3 202.2zM1565.9 191l0 10.8 10.8 0 0-10.8L1565.9 191z"/>
  <path fill="#191817" d="M1601.8 223.2l0-0.3 0-11.5 11.8 0 0 11.8 -0.3 0L1601.8 223.2zM1602.3 212l0 10.8 10.8 0 0-10.8L1602.3 212z"/>
  <path fill="#191817" d="M1565.3 223.2l0-0.3 0-11.5 0.3 0 11.5 0 0 0.3 0 11.5 -0.3 0L1565.3 223.2zM1565.8 211.9l0 10.8 10.8 0 0-10.8L1565.8 211.9z"/>
  <path fill="#191817" d="M1601.7 244.2l0-0.3 0-11.5 0.3 0 11.5 0 0 0.3 0 11.5 -0.3 0L1601.7 244.2zM1602.3 232.9l0 10.8 10.8 0 0-10.8L1602.3 232.9z"/>
  <path fill="#191817" d="M1565.3 244.1l0-0.3 0-11.5 0.3 0 11.5 0 0 0.3 0 11.5 -0.3 0L1565.3 244.1zM1565.8 232.8l0 10.8 10.8 0 0-10.8L1565.8 232.8z"/>
  <path fill="#191817" d="M1601.7 265.1l0-0.3 0-11.5 0.3 0 11.5 0 0 0.3 0 11.5 -0.3 0L1601.7 265.1zM1602.2 253.8l0 10.8 10.8 0 0-10.8L1602.2 253.8z"/>
  <path fill="#191817" d="M1565.2 265l0-0.3 0-11.5 0.3 0 11.5 0 0 0.3 0 11.5 -0.3 0L1565.2 265zM1565.8 253.8l0 10.8 10.8 0 0-10.8L1565.8 253.8z"/>
  <path fill="#191817" d="M1584.1 300.4l0-0.3 0.1-32.7 10.4 0 0 0.3 -0.1 32.7 -0.3 0L1584.1 300.4zM1584.7 267.9l-0.1 32 9.3 0 0.1-32L1584.7 267.9z"/>
  <polygon fill="#E3E5E5" points="1265.8 295.7 1349.6 294.3 1348.2 213.3 1264.4 214.8 "/>
  <polygon fill="#191817" points="1262.1 296.1 1260.7 216.3 1260.9 216.3 1344.6 214.9 1344.6 215.1 1345.9 292.7 1345.5 292.7 1344.2 215.3 1261.2 216.7 1262.5 296 "/>
  <path fill="#191817" d="M1330.8 227.4l-0.1-5.8 6.9-0.1 0.1 5.8L1330.8 227.4zM1331.1 222.1l0.1 5 6.1-0.1 -0.1-5L1331.1 222.1z"/>
  <path fill="#191817" d="M1309.9 227.8l-0.1-5.8 6.9-0.1 0.1 5.8L1309.9 227.8zM1310.2 222.4l0.1 5 6.1-0.1 -0.1-5L1310.2 222.4z"/>
  <path fill="#191817" d="M1331 237.4l-0.1-5.8 6.9-0.1 0.1 5.8L1331 237.4zM1331.3 232l0.1 5 6.1-0.1 -0.1-5L1331.3 232z"/>
  <path fill="#191817" d="M1310 237.8l-0.1-5.8 6.9-0.1 0.1 5.8L1310 237.8zM1310.3 232.4l0.1 5 6.1-0.1 -0.1-5L1310.3 232.4z"/>
  <path fill="#191817" d="M1331.2 247.4l-0.1-5.8 6.9-0.1 0.1 5.8L1331.2 247.4zM1331.5 242l0.1 5 6.1-0.1 -0.1-5L1331.5 242z"/>
  <path fill="#191817" d="M1310.2 247.8l0-0.2 -0.1-5.6 0.2 0 6.7-0.1 0.1 5.8L1310.2 247.8zM1310.5 242.4l0.1 5 6.1-0.1 -0.1-5L1310.5 242.4z"/>
  <path fill="#191817" d="M1331.3 257.4l-0.1-5.8 6.9-0.1 0.1 5.8L1331.3 257.4zM1331.6 252l0.1 5 6.1-0.1 -0.1-5L1331.6 252z"/>
  <path fill="#191817" d="M1310.4 257.7l-0.1-5.8 6.9-0.1 0.1 5.8L1310.4 257.7zM1310.7 252.3l0.1 5 6.1-0.1 -0.1-5L1310.7 252.3z"/>
  <path fill="#191817" d="M1331.5 267.3l-0.1-5.8 6.9-0.1 0.1 5.8 -0.2 0L1331.5 267.3zM1331.8 261.9l0.1 5 6.1-0.1 -0.1-5L1331.8 261.9z"/>
  <path fill="#191817" d="M1310.5 267.7l-0.1-5.8 6.9-0.1 0.1 5.8L1310.5 267.7zM1310.9 262.3l0.1 5 6.1-0.1 -0.1-5L1310.9 262.3z"/>
  <path fill="#191817" d="M1331.7 277.3l-0.1-5.8 0.2 0 6.7-0.1 0.1 5.8L1331.7 277.3zM1332 271.9l0.1 5 6.1-0.1 -0.1-5L1332 271.9z"/>
  <path fill="#191817" d="M1310.7 277.7l-0.1-5.8 6.9-0.1 0.1 5.8L1310.7 277.7zM1311 272.3l0.1 5 6.1-0.1 -0.1-5L1311 272.3z"/>
  <path fill="#191817" d="M1289.7 228l-0.1-5.8 6.9-0.1 0.1 5.8L1289.7 228zM1290 222.7l0.1 5 6.1-0.1 -0.1-5L1290 222.7z"/>
  <path fill="#191817" d="M1268.8 228.4l-0.1-5.8 6.9-0.1 0.1 5.8L1268.8 228.4zM1269.1 223l0.1 5 6.1-0.1 -0.1-5L1269.1 223z"/>
  <path fill="#191817" d="M1289.9 238l-0.1-5.8 6.9-0.1 0.1 5.8 -0.2 0L1289.9 238zM1290.2 232.6l0.1 5 6.1-0.1 -0.1-5L1290.2 232.6z"/>
  <path fill="#191817" d="M1268.9 238.4l-0.1-5.8 0.2 0 6.7-0.1 0.1 5.8L1268.9 238.4zM1269.3 233l0.1 5 6.1-0.1 -0.1-5L1269.3 233z"/>
  <path fill="#191817" d="M1290.1 248l-0.1-5.8 6.9-0.1 0.1 5.8L1290.1 248zM1290.4 242.6l0.1 5 6.1-0.1 -0.1-5L1290.4 242.6z"/>
  <path fill="#191817" d="M1269.1 248.4l-0.1-5.8 0.2 0 6.7-0.1 0.1 5.8L1269.1 248.4zM1269.4 243l0.1 5 6.1-0.1 -0.1-5L1269.4 243z"/>
  <path fill="#191817" d="M1290.3 258l-0.1-5.8 6.9-0.1 0.1 5.8L1290.3 258zM1290.6 252.6l0.1 5 6.1-0.1 -0.1-5L1290.6 252.6z"/>
  <path fill="#191817" d="M1269.3 258.3l-0.1-5.8 6.9-0.1 0.1 5.8L1269.3 258.3zM1269.6 252.9l0.1 5 6.1-0.1 -0.1-5L1269.6 252.9z"/>
  <path fill="#191817" d="M1290.4 267.9l-0.1-5.8 6.9-0.1 0.1 5.8 -0.2 0L1290.4 267.9zM1290.7 262.5l0.1 5 6.1-0.1 -0.1-5L1290.7 262.5z"/>
  <path fill="#191817" d="M1269.5 268.3l-0.1-5.8 6.9-0.1 0.1 5.8L1269.5 268.3zM1269.8 262.9l0.1 5 6.1-0.1 -0.1-5L1269.8 262.9z"/>
  <path fill="#191817" d="M1290.6 277.9l-0.1-5.8 6.9-0.1 0.1 5.8L1290.6 277.9zM1290.9 272.5l0.1 5 6.1-0.1 -0.1-5L1290.9 272.5z"/>
  <path fill="#191817" d="M1269.6 278.3l-0.1-5.8 6.9-0.1 0.1 5.8L1269.6 278.3zM1269.9 272.9l0.1 5 6.1-0.1 -0.1-5L1269.9 272.9z"/>
  <path fill="#191817" d="M1297.2 297.2l0-0.2 -0.3-15.7 0.2 0 12.2-0.2 0 0.2 0.3 15.7 -0.2 0L1297.2 297.2zM1297.4 281.7l0.3 15.1 11.6-0.2 -0.3-15.1L1297.4 281.7z"/>
  <path fill="#35291D" d="M673.1 294.5c-2.1-5.2-7.1-16.5-6.8-25.2 0.3-8.6-0.2-12.9-0.2-12.9l-13.8 1.7c0 0 4 5.5 3.7 13.9 -0.3 8.3-5.1 25.7-5.1 25.7L673.1 294.5z"/>
  <path fill="#798E3F" d="M632.9 224.7c-0.2-0.9-0.3-1.9-0.2-2.9 0.5-4.1 3.8-7.2 7.8-7.4 0.3-0.9 0.7-1.8 1.3-2.6 2.4-3.3 6.9-4.3 10.4-2.5 0.7-0.7 1.5-1.2 2.4-1.6 3.8-1.6 8.1-0.3 10.3 3 0.9-0.2 1.9-0.3 2.9-0.2 4.1 0.5 7.2 3.8 7.4 7.8 0.9 0.3 1.8 0.7 2.6 1.3 3.3 2.4 4.3 6.9 2.5 10.4 0.7 0.7 1.2 1.5 1.6 2.4 1.7 3.8 0.3 8.1-3 10.3 0.2 0.9 0.3 1.9 0.2 2.9 -0.5 4.1-3.8 7.2-7.8 7.4 -0.3 0.9-0.7 1.8-1.3 2.6 -2.4 3.3-6.9 4.3-10.4 2.5 -0.7 0.7-1.5 1.2-2.4 1.6 -3.8 1.6-8.1 0.3-10.3-3 -0.9 0.2-1.9 0.3-2.9 0.2 -4.1-0.5-7.2-3.8-7.4-7.8 -0.9-0.3-1.8-0.7-2.6-1.3 -3.3-2.4-4.3-6.9-2.5-10.4 -0.7-0.7-1.2-1.5-1.6-2.4C628.3 231.3 629.6 226.9 632.9 224.7z"/>
  <path fill="#191817" d="M648.5 297.8l0.1-0.3c0-0.2 4.8-17.5 5.1-25.7 0.2-4.8-1.1-8.6-2.2-11 -0.7 0.1-1.4 0-2.1-0.1 -2.3-0.4-4.3-1.7-5.6-3.5 -0.9 0.2-1.9 0.3-2.8 0.2 -0.2 0-0.4 0-0.5-0.1 -3.9-0.7-6.7-3.9-7.1-7.8 -0.9-0.3-1.8-0.7-2.6-1.3 -3.3-2.4-4.4-6.9-2.7-10.6 -0.7-0.7-1.2-1.5-1.6-2.4 -1.7-3.8-0.4-8.1 3-10.5 -0.2-0.9-0.3-1.9-0.2-2.9 0.5-4.1 3.7-7.3 7.8-7.6 0.3-0.9 0.7-1.8 1.3-2.6 1.9-2.6 5.2-3.9 8.4-3.4 0.8 0.1 1.5 0.4 2.2 0.7 0.7-0.7 1.5-1.2 2.4-1.6 1.6-0.7 3.3-0.9 4.9-0.6 2.3 0.4 4.3 1.7 5.6 3.6 1-0.2 1.9-0.3 2.9-0.2 4.1 0.5 7.3 3.8 7.6 7.8 0.9 0.3 1.8 0.7 2.6 1.3 3.3 2.4 4.4 6.9 2.7 10.6 0.7 0.7 1.2 1.5 1.6 2.4 1.6 3.8 0.4 8.2-3 10.5 0.2 1 0.3 1.9 0.2 2.9 -0.5 4.1-3.7 7.3-7.8 7.6 -0.3 0.9-0.7 1.8-1.3 2.6 -0.8 1-1.7 1.9-2.9 2.5 0.1 2.2 0.2 5.7 0 10.8 -0.3 7.8 3.9 18 6.1 23.4 0.2 0.6 0.5 1.1 0.7 1.6l0.1 0.3 -0.3 0L648.5 297.8zM651.8 260.3l0.1 0.1c1.1 2.5 2.5 6.4 2.3 11.4 -0.3 7.6-4.4 23-5 25.5l21.5-3.1c-0.2-0.4-0.4-0.9-0.6-1.4 -2.2-5.5-6.4-15.8-6.1-23.6 0.2-5.2 0.1-8.8 0-10.9l0-0.1 0.1-0.1c1.2-0.6 2.2-1.4 2.9-2.4 0.6-0.8 1-1.6 1.3-2.6l0-0.2 0.2 0c3.9-0.2 7.1-3.3 7.6-7.2 0.1-0.9 0-1.9-0.2-2.8l0-0.2 0.1-0.1c3.3-2.2 4.5-6.4 3-10 -0.4-0.9-0.9-1.7-1.6-2.4l-0.1-0.1 0.1-0.1c1.8-3.5 0.7-7.8-2.5-10.2 -0.8-0.6-1.6-1-2.6-1.3l-0.1 0 0-0.2c-0.2-3.9-3.3-7.1-7.2-7.6 -0.9-0.1-1.9 0-2.9 0.2l-0.2 0 -0.1-0.1c-1.2-1.8-3.2-3.1-5.4-3.5 -1.6-0.3-3.2-0.1-4.7 0.6 -0.9 0.4-1.7 0.9-2.4 1.6l-0.1 0.1 -0.1-0.1c-0.7-0.3-1.4-0.6-2.2-0.7 -3.1-0.5-6.1 0.7-8 3.2 -0.6 0.8-1 1.6-1.3 2.6l0 0.1 -0.2 0c-3.9 0.3-7.1 3.3-7.6 7.2 -0.1 0.9 0 1.9 0.2 2.8l0 0.2L630 225c-3.3 2.2-4.5 6.4-3 10 0.4 0.9 0.9 1.7 1.6 2.4l0.1 0.1 -0.1 0.1c-1.8 3.5-0.7 7.8 2.5 10.2 0.8 0.6 1.6 1 2.6 1.3l0.1 0 0 0.2c0.2 3.9 3.2 7.1 7.2 7.6 0.9 0.1 1.9 0 2.8-0.2l0.1 0 0.1 0.1c1.2 1.8 3.2 3.1 5.4 3.5 0.7 0.1 1.4 0.2 2.2 0.1L651.8 260.3z"/>
  <path fill="#798E3F" d="M1500 294.9c2.8-0.2 5.4-0.8 5-4.8 -0.4-4.1-2.2-7.3-2.4-9.7 -0.2-2.4-3.8-10.8-8.6-9.6 -4.8 1.1-6.2 3.9-10.4 5.1 -4.2 1.2-10.6 1.3-11.9 4.3 -1.4 3-3.7 7.4-0.4 9.4 3.4 2 6.8 2 9.7 4.4C1483.9 296.3 1497.9 295 1500 294.9z"/>
  <path fill="#191817" d="M1481.7 295.6C1481.7 295.6 1481.7 295.6 1481.7 295.6c-0.5-0.2-0.9-0.4-1.2-0.6 -1.3-1.1-2.6-1.6-3.8-2.1 -0.5-0.2-1-0.3-1.5-0.5 -0.5-0.2-1-0.3-1.5-0.5 -1.2-0.4-2-0.8-2.9-1.3 -3.3-1.9-1.3-6 0.1-9l0.3-0.6c1-2.2 4.6-2.9 8.1-3.5 1.3-0.2 2.7-0.5 3.9-0.8 1.9-0.6 3.3-1.4 4.7-2.4 1.6-1 3.2-2.1 5.8-2.7 0.8-0.2 1.6-0.1 2.3 0.1 3.7 1.4 6.3 7.7 6.4 9.6 0.1 1 0.5 2.2 0.9 3.6 0.6 1.8 1.3 3.8 1.5 6.1 0.1 1.5-0.1 2.6-0.8 3.4 -1 1.2-2.7 1.4-4.4 1.6C1495.6 296.4 1485.7 297 1481.7 295.6zM1476.8 292.7c1.2 0.4 2.6 1 3.9 2.1 0.3 0.2 0.6 0.4 1.1 0.6 0 0 0 0 0 0 3.9 1.4 13.8 0.8 17.8 0.4 1.6-0.1 3.3-0.4 4.2-1.5 0.6-0.7 0.8-1.8 0.7-3.2 -0.2-2.3-0.9-4.3-1.5-6 -0.5-1.4-0.9-2.6-0.9-3.7 -0.2-1.8-2.6-8-6.2-9.3 -0.7-0.3-1.4-0.3-2.2-0.1 -2.5 0.6-4.1 1.7-5.7 2.7 -1.4 0.9-2.8 1.8-4.8 2.4 -1.2 0.3-2.6 0.6-3.9 0.8 -3.4 0.6-7 1.3-7.9 3.3l-0.3 0.6c-1.4 2.9-3.2 6.8-0.2 8.6 0.8 0.5 1.7 0.9 2.8 1.3 0.5 0.2 1 0.4 1.5 0.5C1475.9 292.3 1476.4 292.5 1476.8 292.7z"/>
  <path fill="#798E3F" d="M1457 289c-0.2 2.4 0 4.7 4 5.9 4 1.2 7.5 0.8 9.9 1.5 2.4 0.7 11.1 0.8 10.6-3.6 -0.4-4.4-3-6.6-3.5-10.5 -0.6-3.9 0.2-9.2-2.5-11.4 -2.7-2.2-6.7-5.8-9.1-3.7 -2.4 2.1-2.9 4.9-5.7 6.4C1457.9 275.2 1457.1 287.2 1457 289z"/>
  <path fill="#191817" d="M1459.3 294.2c-3.4-1.2-3.5-3.5-3.4-5.8 0.3-5.2 1.3-14.1 3.7-15.5 1.5-0.8 2.4-2.1 3.2-3.4 0.7-1 1.4-2.1 2.4-3 0.9-0.7 2-0.9 3.4-0.3 1.8 0.7 3.8 2.3 5.4 3.6l0.5 0.4c2 1.6 2.1 4.9 2.3 8 0.1 1.2 0.1 2.4 0.3 3.5 0.3 1.8 0.9 3.2 1.7 4.7 0.8 1.7 1.6 3.4 1.9 5.7 0.1 1-0.3 1.9-1.1 2.5 -2.4 2-8 1.8-9.8 1.2 -1-0.3-2.2-0.4-3.7-0.5 -1.8-0.2-3.9-0.3-6.2-1C1459.8 294.3 1459.6 294.2 1459.3 294.2zM1468.6 266.4c-1.3-0.5-2.3-0.4-3.1 0.3 -1 0.9-1.7 1.9-2.4 2.9 -0.9 1.4-1.7 2.6-3.3 3.5 -1.7 0.9-3 6.5-3.6 15.2 -0.1 2.3 0 4.4 3.2 5.5l0 0c0.2 0.1 0.5 0.2 0.7 0.2 2.2 0.6 4.3 0.8 6.1 1 1.4 0.1 2.7 0.2 3.7 0.5 1.8 0.5 7.3 0.6 9.5-1.2 0.7-0.6 1-1.4 1-2.3 -0.2-2.3-1.1-4-1.8-5.6 -0.7-1.5-1.4-3-1.7-4.8 -0.2-1.1-0.2-2.4-0.3-3.6 -0.1-3.1-0.3-6.2-2.2-7.8l-0.5-0.4C1472.3 268.7 1470.3 267.1 1468.6 266.4z"/>
  <polygon fill="#798E3F" points="1638.4 295.1 1638.8 295.1 1638.6 283.5 1638.2 283.5 "/>
  <path fill="#798E3F" d="M1636.3 290.4c0.7 2.7 2.3 4.6 2.3 4.6s0.4-2.5-0.3-5.2c-0.7-2.7-2.3-4.6-2.3-4.6S1635.6 287.7 1636.3 290.4z"/>
  <path fill="#89152C" d="M1636 282.6c0.3 1.3 1.3 2 2.2 1.7 0.9-0.3 1.5-1.6 1.2-2.9 -0.3-1.3-2.2-1.7-2.2-1.7S1635.7 281.3 1636 282.6z"/>
  <path fill="#89152C" d="M1640.7 282.5c-0.2 1.3-1.2 2.1-2.2 1.8 -0.9-0.3-1.5-1.6-1.3-2.8 0.2-1.3 2.2-1.8 2.2-1.8S1641 281.2 1640.7 282.5z"/>
  <path fill="#AA1A2F" d="M1636.6 282c0 1.3 0.8 2.3 1.8 2.3 1 0 1.8-1.1 1.7-2.4 0-1.3-1.8-2.3-1.8-2.3S1636.6 280.7 1636.6 282z"/>
  <rect x="1643.3" y="283.3" transform="matrix(-0.9997 2.238960e-02 -2.238960e-02 -0.9997 3293.1689 541.2175)" fill="#798E3F" width="0.4" height="11.6"/>
  <path fill="#798E3F" d="M1641.4 290.2c0.7 2.7 2.3 4.6 2.3 4.6s0.4-2.5-0.3-5.2c-0.7-2.7-2.3-4.6-2.3-4.6S1640.6 287.5 1641.4 290.2z"/>
  <path fill="#89152C" d="M1641.1 282.3c0.3 1.3 1.3 2 2.2 1.7 0.9-0.3 1.5-1.6 1.2-2.9 -0.3-1.3-2.2-1.7-2.2-1.7S1640.8 281.1 1641.1 282.3z"/>
  <path fill="#89152C" d="M1645.8 282.2c-0.2 1.3-1.2 2.1-2.2 1.8 -0.9-0.3-1.5-1.6-1.3-2.8 0.2-1.3 2.2-1.8 2.2-1.8S1646.1 281 1645.8 282.2z"/>
  <path fill="#AA1A2F" d="M1641.7 281.8c0 1.3 0.8 2.4 1.8 2.3 1 0 1.7-1.1 1.7-2.4 0-1.3-1.8-2.3-1.8-2.3S1641.6 280.5 1641.7 281.8z"/>
  <rect x="1648.4" y="282.9" transform="matrix(-0.9998 1.819549e-02 -1.819549e-02 -0.9998 3302.303 547.2217)" fill="#798E3F" width="0.4" height="11.6"/>
  <path fill="#798E3F" d="M1646.5 289.7c0.7 2.7 2.3 4.6 2.3 4.6s0.4-2.5-0.3-5.2c-0.7-2.7-2.3-4.6-2.3-4.6S1645.8 287 1646.5 289.7z"/>
  <path fill="#89152C" d="M1646.2 281.9c0.3 1.3 1.3 2 2.2 1.7 0.9-0.3 1.5-1.6 1.2-2.9 -0.3-1.3-2.2-1.7-2.2-1.7S1645.9 280.7 1646.2 281.9z"/>
  <path fill="#89152C" d="M1650.9 281.8c-0.2 1.3-1.2 2.1-2.2 1.8 -0.9-0.3-1.5-1.6-1.3-2.8 0.2-1.3 2.2-1.8 2.2-1.8S1651.2 280.6 1650.9 281.8z"/>
  <path fill="#AA1A2F" d="M1646.8 281.4c0 1.3 0.8 2.3 1.8 2.3 1 0 1.7-1.1 1.7-2.4 0-1.3-1.8-2.3-1.8-2.3S1646.7 280 1646.8 281.4z"/>
  <rect x="1653.7" y="283" transform="matrix(-0.9998 2.017972e-02 -2.017972e-02 -0.9998 3313.2366 544.1514)" fill="#798E3F" width="0.4" height="11.6"/>
  <path fill="#798E3F" d="M1651.7 289.9c0.7 2.7 2.3 4.6 2.3 4.6s0.4-2.5-0.3-5.2c-0.7-2.7-2.3-4.6-2.3-4.6S1651 287.2 1651.7 289.9z"/>
  <path fill="#89152C" d="M1651.4 282.1c0.3 1.3 1.3 2 2.2 1.7 0.9-0.3 1.5-1.6 1.2-2.9 -0.3-1.3-2.2-1.7-2.2-1.7S1651.1 280.8 1651.4 282.1z"/>
  <path fill="#89152C" d="M1656.1 282c-0.2 1.3-1.2 2.1-2.2 1.8 -0.9-0.3-1.5-1.6-1.3-2.8 0.2-1.3 2.2-1.8 2.2-1.8S1656.4 280.7 1656.1 282z"/>
  <path fill="#AA1A2F" d="M1652 281.5c0 1.3 0.8 2.3 1.8 2.3 1 0 1.8-1.1 1.7-2.4 0-1.3-1.8-2.3-1.8-2.3S1651.9 280.2 1652 281.5z"/>
  <polygon fill="#3D423C" points="1060.4 153.5 1053.9 296.8 1070.8 297 1064.3 153.5 "/>
  <path fill="#020202" d="M1072.7 297.5l-17.9-0.2 6.6-144.2 4.7 0.1 0 0.4L1072.7 297.5zM1055.8 296.4l16 0.2 -6.4-142.6 -3 0L1055.8 296.4z"/>
  <path fill="#DCD4AE" d="M1063.2 152.1c5.2-5.3 9.1-14.8 34-17.7 11.7-1.4 24.7-8.1 27.7-11.3 3-3.2 2.2 2.6-3.7 10.3 -5.9 7.7-14.5 18.3-31.1 21.9C1073.5 159.1 1058 157.4 1063.2 152.1z"/>
  <path fill="#DCD4AE" d="M1060.4 153.6c-7.2-1.8-17.3-0.5-32.3-20.6 -7-9.4-19.4-17.4-23.6-18.3 -4.3-1 1.2-3.2 10.8-1.9 9.6 1.3 23.1 3.4 34.5 16C1061.3 141.2 1067.6 155.4 1060.4 153.6z"/>
  <path fill="#DCD4AE" d="M1063.1 155.3c2 7.1 8.3 15.2-1.7 38.2 -4.7 10.8-5.4 25.5-4.1 29.6 1.3 4.2-3.4 0.6-7.1-8.4 -3.7-9-8.6-21.7-3.4-37.9C1051.9 160.7 1061.1 148.1 1063.1 155.3z"/>
  <path fill="#020202" d="M1074 157.1c-3.5 0-9.6-0.5-10.7-3 -0.4-0.9 0-1.9 1-3 0.8-0.8 1.5-1.7 2.3-2.7 4.5-5.3 10.6-12.7 31.9-15.2 11.7-1.4 24.6-8.1 27.4-11.1 0.7-0.7 1.2-1 1.6-1 0.3 0 0.6 0.2 0.7 0.5 0.6 1.3-1.2 6.1-5.4 11.5 -5.3 6.8-14.1 18.3-31.3 22.1C1085.5 156.4 1079.3 157.1 1074 157.1zM1127.5 121.9c0 0-0.3 0.2-0.9 0.8 -2.9 3.1-16.1 10-28 11.4 -20.9 2.4-26.9 9.6-31.3 14.8 -0.8 1-1.6 1.9-2.4 2.7 -0.8 0.8-1 1.5-0.8 2 0.5 1.1 3.3 2.4 9.8 2.5 5.2 0.1 11.4-0.6 17.4-2 16.9-3.7 25.6-15 30.8-21.8C1126.8 126.6 1127.8 122.5 1127.5 121.9z"/>
  <path fill="#020202" d="M1063 153.4c-0.4 0-0.8-0.1-1.2-0.2 -1.1-0.3-2.2-0.5-3.5-0.7 -6.9-1.2-16.3-2.9-29.1-20 -7-9.5-19.3-17.3-23.4-18.2 -0.5-0.1-1.9-0.4-1.8-1.4 0.2-1.4 4-1.9 7.7-1.9 1.6 0 3.3 0.2 5.1 0.4 8.6 1.2 22.9 3.1 34.8 16.1 8.9 9.7 15.1 21 13.5 24.6C1064.9 152.8 1064.3 153.5 1063 153.4zM1005 113.1c0.1 0 0.3 0.2 1.1 0.4 4.2 0.9 16.7 8.9 23.9 18.5 12.6 16.9 21.8 18.5 28.5 19.7 1.3 0.2 2.4 0.4 3.6 0.7 0.4 0.1 0.7 0.1 1 0.1 0.9 0 1.2-0.4 1.3-0.7 1.3-2.9-3.9-13.3-13.3-23.6 -11.7-12.8-25.8-14.7-34.3-15.8 -1.7-0.2-3.4-0.4-5-0.4C1007.2 112 1005.2 112.8 1005 113.1z"/>
  <path fill="#020202" d="M1058.6 224.6c-1.5 0-4.8-4.2-7.3-10.4 -3.3-8-8.8-21.4-3.5-38.2 4.1-13.1 10.9-24 14.8-24 0.8 0 1.8 0.4 2.3 2.4 0.3 1.1 0.7 2.2 1.1 3.4 2.4 6.6 5.7 15.5-2.8 35.2 -4.7 10.8-5.3 25.3-4.1 29.3 0.3 1 0.3 1.6 0 2C1059.1 224.5 1058.9 224.6 1058.6 224.6zM1062.6 152.9c-3.1 0-9.7 9.9-13.9 23.3 -5.2 16.5 0.2 29.7 3.4 37.6 2.8 6.7 5.7 9.7 6.5 9.8 0-0.1 0-0.4-0.2-1.2 -1.3-4.1-0.7-18.9 4.1-29.9 8.3-19.3 5.1-28.1 2.8-34.5 -0.4-1.2-0.8-2.3-1.2-3.4C1063.8 153.5 1063.3 152.9 1062.6 152.9z"/>
  <path fill="#3D423C" d="M1065.1 153.3c0 1.5-1.3 2.7-2.8 2.7 -1.5 0-2.7-1.3-2.7-2.8 0-1.5 1.3-2.7 2.8-2.7C1063.9 150.5 1065.2 151.8 1065.1 153.3z"/>
  <polygon fill="#3D423C" points="592.2 206.4 596.5 296.5 585.9 296.7 589.8 206.4 "/>
  <path fill="#020202" d="M588.6 206.4l0-0.3 3-0.1 4.3 90.7 -11.2 0.2L588.6 206.4zM591 206.7l-1.9 0 -3.9 89.7 10-0.2L591 206.7z"/>
  <path fill="#BFB795" d="M590.5 205.5c-3.3-3.3-5.7-9.3-21.4-11.1 -7.3-0.8-15.6-5.1-17.4-7.1 -1.9-2-1.4 1.7 2.3 6.5 3.7 4.8 9.2 11.5 19.6 13.8C584 209.9 593.7 208.9 590.5 205.5z"/>
  <path fill="#BFB795" d="M592.2 206.5c4.5-1.2 10.9-0.3 20.3-13 4.4-5.9 12.2-11 14.8-11.6 2.7-0.6-0.7-2-6.8-1.2 -6.1 0.8-14.5 2.2-21.7 10.1C591.6 198.7 587.7 207.6 592.2 206.5z"/>
  <path fill="#BFB795" d="M590.5 207.5c-1.2 4.5-5.2 9.6 1.1 24.1 2.9 6.8 3.4 16 2.6 18.6 -0.8 2.6 2.1 0.4 4.4-5.3 2.3-5.7 5.4-13.7 2.1-23.8C597.6 210.9 591.8 203 590.5 207.5z"/>
  <path fill="#020202" d="M572.6 207.4c-10.8-2.4-16.4-9.6-19.8-13.9 -2.6-3.4-3.8-6.4-3.4-7.2 0.1-0.2 0.3-0.3 0.4-0.3 0.3 0 0.6 0.2 1 0.7 1.8 1.9 9.9 6.1 17.3 7 13.4 1.5 17.2 6.1 20.1 9.5 0.5 0.6 1 1.2 1.5 1.7 0.7 0.7 0.9 1.3 0.6 1.9 -0.7 1.6-4.5 1.9-6.7 1.9C580.4 208.7 576.4 208.3 572.6 207.4zM553.3 193.2c3.3 4.2 8.8 11.3 19.4 13.7 3.8 0.8 7.7 1.3 11 1.2 4.1-0.1 5.9-0.9 6.2-1.6 0.1-0.3 0-0.8-0.5-1.3 -0.5-0.5-1-1.1-1.5-1.7 -2.8-3.3-6.6-7.8-19.7-9.3 -7.5-0.9-15.8-5.2-17.6-7.2 -0.4-0.4-0.5-0.5-0.6-0.5C549.8 187 550.4 189.5 553.3 193.2z"/>
  <path fill="#020202" d="M589.2 205.6c-1-2.2 2.9-9.3 8.4-15.5 7.5-8.2 16.5-9.4 21.9-10.2 1.1-0.1 2.2-0.2 3.2-0.3 2.3 0 4.7 0.3 4.8 1.2 0.1 0.6-0.8 0.8-1.1 0.9 -2.6 0.6-10.3 5.5-14.7 11.5 -8 10.8-13.9 11.9-18.2 12.6 -0.8 0.1-1.5 0.3-2.2 0.4 -0.3 0.1-0.5 0.1-0.7 0.1C589.8 206.4 589.4 205.9 589.2 205.6zM622.8 180.2c-1 0-2 0.1-3.1 0.2 -5.3 0.7-14.2 1.9-21.5 10 -5.9 6.5-9.2 13.1-8.3 14.9 0.1 0.2 0.3 0.5 0.8 0.4 0.2 0 0.4 0 0.6-0.1 0.7-0.2 1.4-0.3 2.2-0.5 4.2-0.8 10-1.8 17.9-12.4 4.5-6.1 12.4-11.1 15-11.7 0.5-0.1 0.7-0.2 0.7-0.2C626.9 180.7 625.6 180.2 622.8 180.2z"/>
  <path fill="#020202" d="M593 250.9c-0.2-0.2-0.2-0.6 0-1.3 0.8-2.5 0.4-11.6-2.6-18.4 -5.4-12.3-3.3-18-1.8-22.1 0.3-0.7 0.5-1.4 0.7-2.1 0.3-1.2 1-1.5 1.5-1.5 2.5 0 6.7 6.9 9.3 15.1 3.4 10.6-0.1 19-2.1 24 -1.6 3.9-3.7 6.5-4.6 6.5C593.3 251.1 593.1 251 593 250.9zM589.9 207.1c-0.2 0.7-0.5 1.4-0.7 2.2 -1.5 4-3.5 9.6 1.8 21.7 3 6.9 3.4 16.3 2.6 18.8 -0.2 0.5-0.1 0.7-0.1 0.7 0.5 0 2.3-2 4.1-6.2 2-5 5.4-13.3 2.1-23.7 -2.7-8.4-6.9-14.7-8.8-14.7C590.4 206 590.1 206.4 589.9 207.1z"/>
  <path fill="#3D423C" d="M589.2 206.3c0 1 0.8 1.7 1.7 1.7 1 0 1.7-0.8 1.7-1.8 0-0.9-0.8-1.7-1.8-1.7C590 204.5 589.2 205.3 589.2 206.3z"/>
  <polygon fill="#3D423C" points="1450.6 223.5 1455.9 294.5 1447.6 294.8 1448.7 223.6 "/>
  <path fill="#020202" d="M1447.7 223.6l0-0.2 2.3-0.1 5.4 71.4 -8.8 0.4L1447.7 223.6zM1449.6 223.8l-1.5 0.1 -1.1 70.8 7.9-0.3L1449.6 223.8z"/>
  <path fill="#BFB795" d="M1449.2 222.9c-2.6-2.5-4.7-7.2-17.1-8.3 -5.8-0.5-12.4-3.6-13.9-5.2 -1.5-1.5-1.1 1.3 2 5.1 3.1 3.7 7.5 8.8 15.7 10.4C1444.2 226.5 1451.8 225.4 1449.2 222.9z"/>
  <path fill="#BFB795" d="M1450.6 223.6c3.5-1 8.6-0.5 15.7-10.7 3.3-4.8 9.3-8.9 11.4-9.4 2.1-0.5-0.6-1.6-5.4-0.8 -4.8 0.8-11.4 2-16.9 8.4C1450 217.4 1447 224.6 1450.6 223.6z"/>
  <path fill="#BFB795" d="M1449.3 224.4c-0.9 3.6-3.9 7.7 1.4 18.9 2.5 5.3 3 12.5 2.5 14.6 -0.6 2.1 1.7 0.3 3.4-4.3 1.7-4.5 3.9-10.9 1.2-18.8C1454.9 227 1450.2 220.9 1449.3 224.4z"/>
  <path fill="#020202" d="M1435.1 224.8c-8.6-1.6-13.1-7.2-15.9-10.5 -2.1-2.6-3.1-4.9-2.8-5.6 0.1-0.1 0.2-0.2 0.3-0.2 0.2 0 0.5 0.1 0.8 0.5 1.4 1.5 7.9 4.6 13.8 5.1 10.6 0.9 13.7 4.5 16 7 0.4 0.5 0.8 0.9 1.2 1.3 0.5 0.5 0.7 1 0.5 1.5 -0.5 1.3-3.5 1.6-5.2 1.7C1441.3 225.6 1438.2 225.3 1435.1 224.8zM1419.6 214c2.7 3.3 7.2 8.7 15.6 10.3 3 0.6 6.1 0.8 8.7 0.7 3.2-0.1 4.6-0.8 4.8-1.4 0.1-0.3 0-0.6-0.4-1 -0.4-0.4-0.8-0.8-1.2-1.3 -2.3-2.5-5.3-6-15.7-6.9 -5.9-0.5-12.6-3.7-14-5.3 -0.3-0.3-0.4-0.3-0.4-0.4C1416.7 209.1 1417.3 211.1 1419.6 214z"/>
  <path fill="#020202" d="M1448.2 222.9c-0.8-1.8 2-7.4 6.3-12.4 5.7-6.6 12.8-7.8 17-8.5 0.9-0.1 1.7-0.2 2.5-0.3 1.8-0.1 3.7 0.1 3.8 0.8 0.1 0.5-0.6 0.6-0.9 0.7 -2 0.5-8 4.6-11.3 9.4 -6.1 8.7-10.7 9.7-14.1 10.4 -0.6 0.1-1.2 0.2-1.7 0.4 -0.2 0.1-0.4 0.1-0.6 0.1C1448.7 223.5 1448.4 223.2 1448.2 222.9zM1474.1 202.2c-0.8 0-1.6 0.1-2.5 0.3 -4.2 0.7-11.1 1.8-16.8 8.3 -4.5 5.3-6.9 10.5-6.3 11.9 0.1 0.2 0.2 0.4 0.7 0.3 0.1 0 0.3 0 0.5-0.1 0.5-0.2 1.1-0.3 1.7-0.4 3.3-0.7 7.9-1.6 13.8-10.2 3.4-4.9 9.5-9 11.6-9.5 0.4-0.1 0.5-0.2 0.5-0.2C1477.3 202.5 1476.4 202.1 1474.1 202.2z"/>
  <path fill="#020202" d="M1452.2 258.6c-0.1-0.2-0.2-0.5 0-1 0.6-2 0-9.2-2.4-14.5 -4.5-9.6-3-14.1-1.9-17.4 0.2-0.6 0.4-1.1 0.5-1.7 0.2-1 0.7-1.2 1.1-1.2 1.9-0.1 5.5 5.3 7.7 11.7 2.9 8.3 0.4 15-1.1 19 -1.2 3.1-2.7 5.2-3.5 5.3C1452.4 258.7 1452.3 258.7 1452.2 258.6zM1448.8 224.1c-0.1 0.6-0.3 1.1-0.5 1.7 -1.1 3.2-2.5 7.6 1.9 17.1 2.5 5.4 3 12.7 2.5 14.8 -0.1 0.4-0.1 0.5-0.1 0.6 0.4-0.1 1.8-1.6 3.1-5 1.5-4 4-10.6 1.1-18.7 -2.3-6.6-5.7-11.4-7.3-11.4C1449.1 223.3 1448.9 223.6 1448.8 224.1z"/>
  <path fill="#3D423C" d="M1448.2 223.5c0 0.7 0.7 1.3 1.4 1.3 0.7 0 1.3-0.7 1.3-1.4 0-0.7-0.7-1.3-1.4-1.3C1448.8 222.1 1448.2 222.7 1448.2 223.5z"/>
  <path fill="#35291D" d="M802.8 297.3c2.3-8 8-25.8 6.2-38.7 -1.8-12.9-1.7-19.4-1.7-19.4l20.8 0.4c0 0-5.1 8.9-3.4 21.3 1.7 12.4 11.7 37.7 11.7 37.7L802.8 297.3z"/>
  <path fill="#405122" d="M853.7 186.3c0.2-1.4 0.2-2.9-0.2-4.4 -1.3-6.1-6.8-10.1-12.8-9.9 -0.5-1.3-1.3-2.6-2.3-3.7 -4.2-4.6-10.9-5.4-16-2.2 -1.1-0.9-2.4-1.6-3.9-2.1 -5.9-1.9-12.1 0.8-14.9 6.1 -1.4-0.2-2.9-0.2-4.4 0.2 -6 1.3-10.1 6.8-9.9 12.8 -1.3 0.5-2.6 1.3-3.7 2.3 -4.6 4.2-5.4 10.9-2.2 16 -0.9 1.1-1.6 2.4-2.1 3.9 -1.9 5.9 0.8 12.2 6.1 14.9 -0.2 1.4-0.2 2.9 0.2 4.4 1.3 6 6.8 10.1 12.8 9.9 0.5 1.3 1.3 2.6 2.3 3.7 4.2 4.6 10.9 5.4 16 2.2 1.1 0.9 2.4 1.6 3.9 2.1 5.9 1.9 12.1-0.8 14.9-6.1 1.4 0.2 2.9 0.2 4.4-0.2 6.1-1.3 10.1-6.8 9.9-12.8 1.3-0.5 2.6-1.3 3.7-2.3 4.6-4.2 5.4-10.9 2.2-16 0.9-1.1 1.6-2.4 2.1-3.9C861.7 195.4 859 189.1 853.7 186.3z"/>
  <path fill="#191817" d="M842.5 298.6l-36.1-1.5 1-3.6c2.5-8.5 7.1-24.3 5.5-35.8 -1-7.3-1.4-12.6-1.6-15.9 -1.8-0.8-3.4-1.9-4.7-3.3 -0.9-1-1.7-2.2-2.3-3.4 -6.3 0-11.7-4.4-13.1-10.6 -0.3-1.3-0.4-2.7-0.2-4.1 -5.4-3.2-7.9-9.7-6-15.7 0.4-1.3 1-2.5 1.8-3.7 -3.1-5.5-2-12.3 2.6-16.6 1-0.9 2.2-1.7 3.4-2.3 0-6.3 4.4-11.7 10.6-13.1 1.4-0.3 2.7-0.4 4.1-0.2 2.1-3.6 5.9-6.1 10.1-6.6 1.9-0.2 3.8 0 5.6 0.5 1.3 0.4 2.5 1 3.7 1.8 1.6-0.9 3.3-1.5 5.1-1.7 4.3-0.5 8.6 1.1 11.5 4.3 0.9 1 1.7 2.2 2.3 3.4 6.3 0 11.7 4.4 13.1 10.6 0.3 1.3 0.4 2.7 0.2 4.1 5.4 3.2 7.9 9.7 6 15.7 -0.4 1.3-1 2.5-1.8 3.7 3.1 5.4 2 12.3-2.6 16.6 -1 0.9-2.2 1.7-3.4 2.3 0 6.3-4.4 11.7-10.6 13.1 -1.3 0.3-2.7 0.4-4.1 0.2 -2.2 3.8-6.3 6.4-10.8 6.6 -1.2 3.7-2.4 9.4-1.4 16.2 1.7 12.2 11.5 37.2 11.6 37.5L842.5 298.6zM808.8 295.4l31 1.3c-2.1-5.4-9.7-25.7-11.2-36.6 -1-7.5 0.4-13.7 1.7-17.6l0.2-0.6 0.6 0c4.3 0 8.2-2.5 10.2-6.2l0.3-0.6 0.6 0.1c1.4 0.2 2.7 0.2 4.1-0.1 5.5-1.2 9.4-6.2 9.2-11.8l0-0.6 0.6-0.2c1.3-0.5 2.5-1.3 3.5-2.2 4.2-3.8 5-10.1 2-14.8l-0.3-0.5 0.4-0.5c0.9-1.1 1.5-2.3 1.9-3.6 1.7-5.4-0.7-11.2-5.7-13.9l-0.6-0.3 0.1-0.6c0.2-1.4 0.1-2.7-0.2-4.1 -1.2-5.5-6.2-9.4-11.9-9.2l-0.6 0 -0.2-0.6c-0.5-1.3-1.2-2.5-2.2-3.5 -2.5-2.8-6.2-4.2-10-3.7 -1.8 0.2-3.4 0.8-4.9 1.7l-0.5 0.3 -0.5-0.4c-1.1-0.9-2.3-1.5-3.6-1.9 -1.6-0.5-3.2-0.7-4.9-0.5 -3.8 0.4-7.2 2.7-9 6.2l-0.3 0.6 -0.6-0.1c-1.4-0.2-2.7-0.2-4.1 0.1 -5.5 1.2-9.4 6.2-9.2 11.9l0 0.6 -0.6 0.2c-1.3 0.5-2.5 1.3-3.5 2.2 -4.2 3.8-5 10.1-2 14.8l0.3 0.5 -0.4 0.5c-0.9 1.1-1.5 2.3-1.9 3.6 -1.7 5.4 0.7 11.2 5.7 13.9l0.6 0.3 -0.1 0.6c-0.2 1.4-0.1 2.8 0.1 4.1 1.2 5.5 6.2 9.4 11.9 9.2l0.6 0 0.2 0.6c0.5 1.3 1.3 2.5 2.2 3.5 1.2 1.3 2.7 2.3 4.5 3l0.6 0.2 0 0.6c0.1 3.2 0.5 8.6 1.6 16.3 1.7 11.9-3 27.9-5.5 36.6L808.8 295.4z"/>
  <polygon fill="#3D423C" points="196.2 90.6 176 299.6 200.7 301.2 201.9 91 "/>
  <path fill="#020202" d="M203.4 302l-26.1-1.7L197.7 90l6.9 0.4 0 0.6L203.4 302zM178.8 299.1l23.3 1.5 1.2-208.9 -4.4-0.3L178.8 299.1z"/>
  <path fill="#DCD4AE" d="M200.4 88.8c7.9-7.3 14.3-20.9 50.9-23.3 17.1-1.1 36.8-10 41.3-14.4 4.6-4.4 3.1 4-6.2 14.8 -9.3 10.8-22.6 25.6-47.1 29.7C214.9 99.7 192.4 96.2 200.4 88.8z"/>
  <path fill="#DCD4AE" d="M196.2 90.8c-10.3-3.2-25.3-2-45.7-32.5 -9.5-14.3-27-26.8-33.2-28.6 -6.1-1.7 1.9-4.7 15.9-2 14 2.6 33.5 6.7 49.3 25.9C198.4 72.7 206.5 94 196.2 90.8z"/>
  <path fill="#DCD4AE" d="M199.9 93.4c2.4 10.6 11 22.9-5.3 55.8 -7.6 15.4-9.7 36.8-8.2 43 1.6 6.2-5 0.7-9.7-12.8 -4.7-13.4-10.9-32.4-2.2-55.6C183.2 100.5 197.6 82.8 199.9 93.4z"/>
  <path fill="#020202" d="M215.8 96.8c-5.2-0.3-14-1.5-15.4-5.2 -0.5-1.4 0.1-2.8 1.7-4.3 1.2-1.1 2.4-2.4 3.6-3.7 6.9-7.5 16.5-17.7 47.7-19.8 17.2-1.1 36.5-10 40.9-14.2 1-1 1.8-1.4 2.5-1.4 0.5 0 0.8 0.3 1 0.7 0.8 2-2.2 8.8-8.7 16.4 -8.2 9.6-22 25.7-47.5 30C232.7 96.8 223.5 97.3 215.8 96.8zM296.6 49.5c0 0.1-0.5 0.2-1.3 1.1 -4.5 4.4-24.2 13.5-41.7 14.6 -30.7 2-40 12-46.8 19.4 -1.3 1.4-2.5 2.6-3.7 3.8 -1.2 1.1-1.6 2.1-1.3 2.9 0.6 1.7 4.6 3.7 14.2 4.3 7.6 0.5 16.7-0.1 25.6-1.6 25-4.2 38.6-20.1 46.7-29.5C295.2 56.2 297 50.3 296.6 49.5z"/>
  <path fill="#020202" d="M199.9 90.7c-0.5 0-1.1-0.1-1.7-0.3 -1.6-0.5-3.3-0.9-5-1.3 -9.9-2.3-23.6-5.4-41-31.4 -9.6-14.4-26.9-26.7-32.8-28.3 -0.7-0.2-2.8-0.8-2.5-2.1 0.3-2 6-2.5 11.4-2.1 2.4 0.2 4.8 0.5 7.4 0.9 12.4 2.3 33.2 6.2 49.7 26.1 12.3 14.9 20.5 31.8 17.9 36.9C202.7 89.9 201.8 90.8 199.9 90.7zM118.1 27.4c0.1 0 0.4 0.3 1.6 0.6 6 1.7 23.8 14.3 33.5 28.8 17.1 25.6 30.4 28.7 40.2 30.9 1.8 0.4 3.5 0.8 5.1 1.3 0.5 0.2 1 0.3 1.4 0.3 1.3 0.1 1.8-0.5 2-0.9 2.1-4.1-4.7-19.7-17.7-35.5 -16.1-19.5-36.7-23.4-48.9-25.7 -2.5-0.5-4.9-0.8-7.2-0.9C121.5 25.9 118.5 27 118.1 27.4z"/>
  <path fill="#020202" d="M188.3 194.3c-2.2-0.1-6.7-6.5-9.9-15.7 -4.2-11.9-11.2-31.9-2.2-56.1 7-18.8 17.7-34.3 23.4-33.9 1.1 0.1 2.6 0.8 3.2 3.6 0.4 1.6 0.9 3.2 1.4 5 3 9.8 7.1 23.1-6.7 51.2 -7.6 15.5-9.6 36.6-8.1 42.6 0.4 1.5 0.3 2.4-0.1 2.9C189 194.2 188.6 194.4 188.3 194.3zM199.5 89.9c-4.5-0.3-14.9 13.8-22.1 33.1 -8.9 23.7-1.9 43.4 2.2 55.2 3.5 10 7.7 14.7 8.7 14.8 0-0.1 0.1-0.5-0.2-1.7 -1.6-6.1 0.4-27.7 8.2-43.5 13.6-27.6 9.6-40.7 6.7-50.2 -0.6-1.8-1.1-3.5-1.4-5.1C201.1 90.8 200.4 90 199.5 89.9z"/>
  <path fill="#3D423C" d="M203.1 90.6c-0.1 2.2-2.1 3.9-4.3 3.7 -2.2-0.1-3.9-2.1-3.7-4.3 0.1-2.2 2.1-3.9 4.3-3.7C201.6 86.5 203.2 88.4 203.1 90.6z"/>
  <polygon fill="#3D423C" points="1656.2 90.6 1636 299.6 1660.7 301.2 1661.9 91 "/>
  <path fill="#020202" d="M1663.4 302l-26.1-1.7L1657.7 90l6.9 0.4 0 0.6L1663.4 302zM1638.8 299.1l23.3 1.5 1.2-208.9 -4.4-0.3L1638.8 299.1z"/>
  <path fill="#DCD4AE" d="M1660.4 88.8c7.9-7.3 14.3-20.9 50.9-23.3 17.1-1.1 36.8-10 41.3-14.4 4.6-4.4 3.1 4-6.2 14.8 -9.3 10.8-22.6 25.6-47.1 29.7C1674.9 99.7 1652.4 96.2 1660.4 88.8z"/>
  <path fill="#DCD4AE" d="M1656.2 90.8c-10.3-3.2-25.3-2-45.7-32.5 -9.5-14.3-27-26.8-33.2-28.6 -6.1-1.7 1.9-4.7 15.9-2 14 2.6 33.5 6.7 49.3 25.9C1658.4 72.7 1666.5 94 1656.2 90.8z"/>
  <path fill="#DCD4AE" d="M1659.9 93.4c2.4 10.6 11 22.9-5.3 55.8 -7.6 15.4-9.7 36.8-8.2 43 1.6 6.2-5 0.7-9.7-12.8 -4.7-13.4-10.9-32.4-2.2-55.6C1643.2 100.5 1657.6 82.8 1659.9 93.4z"/>
  <path fill="#020202" d="M1675.8 96.8c-5.2-0.3-14-1.5-15.4-5.2 -0.5-1.4 0.1-2.8 1.7-4.3 1.2-1.1 2.4-2.4 3.6-3.7 6.9-7.5 16.5-17.7 47.7-19.8 17.2-1.1 36.5-10 40.9-14.2 1-1 1.8-1.4 2.5-1.4 0.5 0 0.8 0.3 1 0.7 0.8 2-2.2 8.8-8.7 16.4 -8.2 9.6-22 25.7-47.5 30C1692.7 96.8 1683.5 97.3 1675.8 96.8zM1756.6 49.5c0 0.1-0.5 0.2-1.3 1.1 -4.5 4.4-24.2 13.5-41.7 14.6 -30.7 2-40 12-46.8 19.4 -1.3 1.4-2.5 2.6-3.7 3.8 -1.2 1.1-1.6 2.1-1.3 2.9 0.6 1.7 4.6 3.7 14.2 4.3 7.6 0.5 16.7-0.1 25.6-1.6 25-4.2 38.6-20.1 46.7-29.5C1755.2 56.2 1757 50.3 1756.6 49.5z"/>
  <path fill="#020202" d="M1659.9 90.7c-0.5 0-1.1-0.1-1.7-0.3 -1.6-0.5-3.3-0.9-5-1.3 -9.9-2.3-23.6-5.4-41-31.4 -9.6-14.4-26.9-26.7-32.8-28.3 -0.7-0.2-2.8-0.8-2.5-2.1 0.3-2 6-2.5 11.4-2.1 2.4 0.2 4.8 0.5 7.4 0.9 12.4 2.3 33.2 6.2 49.7 26.1 12.3 14.9 20.5 31.8 17.9 36.9C1662.7 89.9 1661.8 90.8 1659.9 90.7zM1578.1 27.4c0.1 0 0.4 0.3 1.6 0.6 6 1.7 23.8 14.3 33.5 28.8 17.1 25.6 30.4 28.7 40.2 30.9 1.8 0.4 3.5 0.8 5.1 1.3 0.5 0.2 1 0.3 1.4 0.3 1.3 0.1 1.8-0.5 2-0.9 2.1-4.1-4.7-19.7-17.7-35.5 -16.1-19.5-36.7-23.4-48.9-25.7 -2.5-0.5-4.9-0.8-7.2-0.9C1581.5 25.9 1578.5 27 1578.1 27.4z"/>
  <path fill="#020202" d="M1648.3 194.3c-2.2-0.1-6.7-6.5-9.9-15.7 -4.2-11.9-11.2-31.9-2.2-56.1 7-18.8 17.7-34.3 23.4-33.9 1.1 0.1 2.6 0.8 3.2 3.6 0.4 1.6 0.9 3.2 1.4 5 3 9.8 7.1 23.1-6.7 51.2 -7.6 15.5-9.6 36.6-8.1 42.6 0.4 1.5 0.3 2.4-0.1 2.9C1649 194.2 1648.6 194.4 1648.3 194.3zM1659.5 89.9c-4.5-0.3-14.9 13.8-22.1 33.1 -8.9 23.7-1.9 43.4 2.2 55.2 3.5 10 7.7 14.7 8.7 14.8 0-0.1 0.1-0.5-0.2-1.7 -1.6-6.1 0.4-27.7 8.2-43.5 13.6-27.6 9.6-40.7 6.7-50.2 -0.6-1.8-1.1-3.5-1.4-5.1C1661.1 90.8 1660.4 90 1659.5 89.9z"/>
  <path fill="#3D423C" d="M1663.1 90.6c-0.1 2.2-2.1 3.9-4.3 3.7 -2.2-0.1-3.9-2.1-3.7-4.3 0.1-2.2 2.1-3.9 4.3-3.7C1661.6 86.5 1663.2 88.4 1663.1 90.6z"/>
  <path fill="#798E3F" d="M1070.8 293.3c-1.2-0.5-2.3-1.1-1.6-2.8 0.7-1.7 2-2.9 2.4-4 0.4-1 3.2-4.2 5.1-3.1 2 1.2 2.2 2.6 3.9 3.7 1.7 1.1 4.5 2 4.7 3.5 0.2 1.5 0.6 3.8-1.1 4.2 -1.8 0.4-3.3 0-4.9 0.6C1077.8 296.2 1071.8 293.7 1070.8 293.3z"/>
  <path fill="#191817" d="M1078.4 296.3c-2-0.1-5.6-1.5-7.6-2.3 -0.8-0.3-1.5-0.7-1.8-1.3 -0.2-0.5-0.1-1 0.1-1.7 0.4-1 1-1.8 1.5-2.5 0.4-0.5 0.7-1 0.9-1.5 0.4-0.9 2.5-3.5 4.5-3.4 0.3 0 0.6 0.1 0.9 0.3 1.1 0.6 1.6 1.3 2.2 2 0.5 0.6 1 1.2 1.7 1.7 0.5 0.3 1 0.6 1.6 0.9 1.5 0.8 3 1.6 3.2 2.7l0 0.3c0.2 1.5 0.5 3.7-1.3 4.1 -0.8 0.2-1.5 0.2-2.2 0.2 -0.9 0-1.8 0-2.7 0.4C1079.2 296.2 1078.9 296.3 1078.4 296.3zM1076 283.9c-1.8-0.1-3.8 2.4-4.2 3.2 -0.2 0.5-0.5 1-0.9 1.5 -0.5 0.7-1.1 1.5-1.5 2.5 -0.2 0.6-0.3 1.1-0.1 1.4 0.2 0.6 0.9 0.9 1.6 1.2 2 0.8 5.5 2.2 7.5 2.3 0.4 0 0.7 0 0.9-0.1 0.9-0.4 1.8-0.4 2.8-0.4 0.7 0 1.4 0 2.2-0.2 1.5-0.4 1.3-2.2 1-3.7l0-0.3c-0.1-1-1.6-1.8-3-2.5 -0.6-0.3-1.1-0.6-1.6-0.9 -0.8-0.5-1.3-1.1-1.8-1.7 -0.5-0.7-1.1-1.4-2.1-2C1076.5 284 1076.3 283.9 1076 283.9z"/>
  <path fill="#798E3F" d="M1090.7 296.7c-0.3 1.1-0.6 2.1-2.6 2.1 -1.9 0-3.4-0.7-4.6-0.7 -1.1 0-5-1.2-4.2-3.1 0.8-1.9 2.2-2.5 3-4.1 0.8-1.6 1.2-4.1 2.7-4.7 1.5-0.6 3.8-1.6 4.5-0.4 0.8 1.2 0.6 2.6 1.6 3.6C1092.2 290.4 1090.9 295.8 1090.7 296.7z"/>
  <path fill="#191817" d="M1088.2 298.7c-1-0.1-1.8-0.2-2.5-0.4 -0.6-0.1-1.2-0.3-1.7-0.3 0 0-0.1 0-0.1 0 -0.9-0.1-3.4-0.7-4.1-2 -0.3-0.4-0.3-0.9-0.1-1.3 0.4-1 1-1.7 1.6-2.3 0.5-0.6 1-1.1 1.4-1.8 0.2-0.5 0.4-1 0.6-1.5 0.5-1.4 1-2.8 2.2-3.3l0.3-0.1c1-0.4 2.3-0.9 3.2-0.9 0.6 0 1 0.3 1.2 0.7 0.3 0.6 0.5 1.1 0.7 1.7 0.2 0.7 0.4 1.4 0.9 1.9 0.9 1 0.1 5.1-0.5 7.4 -0.3 1.1-0.7 2.2-2.7 2.2C1088.5 298.7 1088.4 298.7 1088.2 298.7zM1084.2 297.7c0.5 0 1 0.1 1.6 0.3 0.8 0.2 1.8 0.4 2.8 0.4 1.8 0 2.2-0.8 2.4-1.9 0.9-3.9 1.1-6.5 0.5-7.2 -0.6-0.6-0.8-1.3-1-2.1 -0.2-0.5-0.3-1.1-0.6-1.6 -0.2-0.3-0.5-0.5-1-0.5 -0.9-0.1-2.1 0.4-3.1 0.8l-0.3 0.1c-1 0.4-1.5 1.8-2 3.1 -0.2 0.5-0.4 1.1-0.6 1.5 -0.4 0.8-0.9 1.4-1.4 1.9 -0.6 0.6-1.2 1.3-1.6 2.2 -0.2 0.4-0.1 0.7 0.1 1 0.7 1.1 3.1 1.8 4 1.8C1084.1 297.7 1084.1 297.7 1084.2 297.7z"/>
  <path fill="#798E3F" d="M496.4 295.3c-1.5-0.6-2.9-1.3-1.9-3.5 0.9-2.2 2.5-3.7 3-5 0.5-1.3 3.9-5.3 6.4-3.8 2.4 1.4 2.8 3.2 4.9 4.6 2.1 1.4 5.6 2.5 5.9 4.4 0.3 1.9 0.8 4.7-1.4 5.2 -2.2 0.5-4.1-0.1-6.1 0.8C505.1 298.8 497.6 295.7 496.4 295.3z"/>
  <path fill="#191817" d="M505.9 298.9c-2.5-0.2-7-1.8-9.5-2.8 -0.9-0.4-1.9-0.8-2.2-1.7 -0.2-0.6-0.2-1.3 0.2-2.1 0.5-1.2 1.2-2.2 1.9-3.1 0.5-0.7 0.9-1.3 1.1-1.8 0.5-1.1 3.1-4.4 5.6-4.3 0.4 0 0.8 0.1 1.1 0.3 1.3 0.8 2 1.7 2.7 2.5 0.6 0.8 1.2 1.5 2.2 2.1 0.6 0.4 1.3 0.8 2 1.1 1.8 1 3.8 2 3.9 3.4l0 0.4c0.3 1.9 0.6 4.6-1.6 5.1 -1 0.2-1.9 0.2-2.8 0.3 -1.1 0-2.2 0-3.3 0.5C506.9 298.9 506.4 299 505.9 298.9zM502.9 283.5c-2.2-0.1-4.8 3-5.2 4 -0.2 0.6-0.7 1.2-1.2 1.9 -0.6 0.9-1.3 1.9-1.8 3.1 -0.3 0.7-0.4 1.3-0.2 1.8 0.3 0.7 1.2 1.1 2 1.5 2.5 1 6.9 2.7 9.4 2.8 0.5 0 0.9 0 1.2-0.1 1.2-0.5 2.3-0.5 3.5-0.5 0.9 0 1.8 0 2.7-0.2 1.9-0.4 1.6-2.8 1.3-4.7l0-0.4c-0.2-1.2-2-2.2-3.7-3.1 -0.7-0.4-1.4-0.8-2-1.1 -1-0.7-1.6-1.4-2.2-2.2 -0.7-0.8-1.4-1.7-2.6-2.4C503.5 283.6 503.2 283.5 502.9 283.5z"/>
  <path fill="#798E3F" d="M521.2 299.5c-0.3 1.3-0.8 2.6-3.2 2.6 -2.4-0.1-4.3-0.8-5.7-0.8 -1.4 0-6.2-1.5-5.3-3.8 1-2.3 2.8-3.1 3.8-5.2 1-2.1 1.5-5.1 3.3-5.9 1.9-0.8 4.7-2 5.7-0.5 1 1.6 0.8 3.2 2 4.5C523.1 291.7 521.4 298.4 521.2 299.5z"/>
  <path fill="#191817" d="M518.1 302c-1.2-0.1-2.2-0.3-3.2-0.5 -0.8-0.2-1.5-0.3-2.1-0.3 0 0-0.1 0-0.1 0 -1.1-0.1-4.2-0.9-5.2-2.4 -0.3-0.5-0.4-1.1-0.1-1.6 0.5-1.3 1.3-2.1 2-2.9 0.7-0.7 1.3-1.4 1.7-2.3 0.3-0.6 0.5-1.2 0.8-1.9 0.6-1.7 1.3-3.5 2.7-4.1l0.4-0.1c1.3-0.5 2.8-1.1 4-1.1 0.7 0 1.2 0.3 1.5 0.8 0.4 0.7 0.6 1.4 0.8 2.1 0.3 0.9 0.5 1.7 1.2 2.4 1.2 1.2 0.1 6.3-0.6 9.3 -0.3 1.4-0.9 2.8-3.4 2.7C518.4 302 518.3 302 518.1 302zM513.1 300.8c0.6 0 1.2 0.2 2 0.3 1 0.2 2.2 0.5 3.5 0.5 2.3 0.1 2.7-1.1 3-2.4 1.2-4.8 1.4-8.2 0.7-8.9 -0.7-0.8-1-1.7-1.3-2.6 -0.2-0.7-0.4-1.3-0.8-2 -0.2-0.4-0.6-0.6-1.2-0.6 -1.1-0.1-2.6 0.6-3.9 1l-0.4 0.1c-1.3 0.5-1.9 2.2-2.5 3.9 -0.2 0.7-0.5 1.3-0.8 1.9 -0.5 1-1.1 1.7-1.8 2.4 -0.7 0.8-1.5 1.6-2 2.8 -0.2 0.4-0.2 0.9 0.1 1.3 0.9 1.4 3.8 2.2 5 2.3C513 300.8 513 300.8 513.1 300.8z"/>
  <rect x="1024.1" y="286.3" transform="matrix(0.9914 0.1311 -0.1311 0.9914 46.9654 -131.7276)" fill="#798E3F" width="0.4" height="9.3"/>
  <path fill="#798E3F" d="M1025.9 292c-0.8 2.1-2.2 3.5-2.2 3.5s-0.1-2 0.7-4.1c0.8-2.1 2.2-3.5 2.2-3.5S1026.7 289.9 1025.9 292z"/>
  <path fill="#89152C" d="M1026.8 285.8c-0.3 1-1.2 1.5-1.9 1.2 -0.7-0.3-1-1.4-0.7-2.4 0.3-1 1.9-1.2 1.9-1.2S1027.1 284.8 1026.8 285.8z"/>
  <path fill="#89152C" d="M1023 285.3c0.1 1 0.8 1.7 1.6 1.6 0.8-0.2 1.3-1.1 1.3-2.1 -0.1-1-1.6-1.6-1.6-1.6S1022.9 284.3 1023 285.3z"/>
  <path fill="#AA1A2F" d="M1026.4 285.3c-0.1 1-0.9 1.8-1.6 1.7 -0.8-0.1-1.3-1-1.2-2.1 0.1-1 1.6-1.7 1.6-1.7S1026.5 284.3 1026.4 285.3z"/>
  <rect x="1020.1" y="285.7" transform="matrix(0.9922 0.1245 -0.1245 0.9922 44.0799 -124.7589)" fill="#798E3F" width="0.4" height="9.3"/>
  <path fill="#798E3F" d="M1021.9 291.4c-0.8 2.1-2.2 3.5-2.2 3.5s-0.1-2 0.7-4.1c0.8-2.1 2.2-3.5 2.2-3.5S1022.7 289.3 1021.9 291.4z"/>
  <path fill="#89152C" d="M1022.8 285.2c-0.3 1-1.2 1.5-1.9 1.2 -0.7-0.3-1-1.4-0.7-2.4 0.3-1 1.9-1.2 1.9-1.2S1023.1 284.2 1022.8 285.2z"/>
  <path fill="#89152C" d="M1019 284.7c0.1 1 0.8 1.7 1.6 1.6 0.8-0.2 1.3-1.1 1.3-2.1 -0.1-1-1.6-1.6-1.6-1.6S1018.9 283.7 1019 284.7z"/>
  <path fill="#AA1A2F" d="M1022.4 284.7c-0.1 1-0.9 1.8-1.6 1.7 -0.8-0.1-1.3-1-1.2-2.1 0.1-1 1.6-1.7 1.6-1.7S1022.5 283.6 1022.4 284.7z"/>
  <rect x="1016" y="284.9" transform="matrix(0.9912 0.1327 -0.1327 0.9912 47.4036 -132.2752)" fill="#798E3F" width="0.4" height="9.3"/>
  <path fill="#798E3F" d="M1017.8 290.6c-0.8 2.1-2.2 3.5-2.2 3.5s-0.1-2 0.7-4.1c0.8-2.1 2.2-3.5 2.2-3.5S1018.6 288.5 1017.8 290.6z"/>
  <path fill="#89152C" d="M1018.8 284.4c-0.3 1-1.2 1.5-1.9 1.2 -0.7-0.3-1-1.4-0.7-2.4 0.3-1 1.9-1.2 1.9-1.2S1019.1 283.4 1018.8 284.4z"/>
  <path fill="#89152C" d="M1015 283.9c0.1 1 0.8 1.7 1.6 1.6 0.8-0.2 1.3-1.1 1.3-2.1 -0.1-1-1.6-1.6-1.6-1.6S1014.9 282.9 1015 283.9z"/>
  <path fill="#AA1A2F" d="M1018.3 283.9c-0.1 1-0.9 1.8-1.6 1.7 -0.8-0.1-1.3-1-1.2-2.1 0.1-1 1.6-1.7 1.6-1.7S1018.5 282.9 1018.3 283.9z"/>
  <rect x="1011.8" y="284.6" transform="matrix(0.9922 0.125 -0.125 0.9922 44.1039 -124.2647)" fill="#798E3F" width="0.4" height="9.3"/>
  <path fill="#798E3F" d="M1013.7 290.3c-0.8 2.1-2.2 3.5-2.2 3.5s-0.1-2 0.7-4.1c0.8-2.1 2.2-3.5 2.2-3.5S1014.5 288.2 1013.7 290.3z"/>
  <path fill="#89152C" d="M1014.6 284.1c-0.3 1-1.2 1.5-1.9 1.2 -0.7-0.3-1-1.4-0.7-2.4 0.3-1 1.9-1.2 1.9-1.2S1014.9 283.1 1014.6 284.1z"/>
  <path fill="#89152C" d="M1010.8 283.6c0.1 1 0.8 1.7 1.6 1.6 0.8-0.2 1.3-1.1 1.3-2.1 -0.1-1-1.6-1.6-1.6-1.6S1010.7 282.6 1010.8 283.6z"/>
  <path fill="#AA1A2F" d="M1014.2 283.6c-0.1 1-0.9 1.8-1.6 1.7 -0.8-0.1-1.3-1-1.2-2.1 0.1-1 1.6-1.7 1.6-1.7S1014.3 282.5 1014.2 283.6z"/>
  <polygon fill="#54392D" points="241.3 298.2 236.2 298.3 236 271.8 238.5 268.8 241.1 271.8 "/>
  <polygon fill="#54392D" points="247.7 298.6 242.6 298.6 242.7 272.1 245.3 269.1 247.8 272.1 "/>
  <polygon fill="#54392D" points="227.7 298.2 222.6 298.2 222.4 271.7 224.9 268.7 227.4 271.7 "/>
  <polygon fill="#54392D" points="234.1 298.5 229 298.5 229.1 272 231.7 269.1 234.2 272.1 "/>
  <polygon fill="#54392D" points="254.5 298.9 249.5 298.8 250 272.3 252.6 269.3 255.1 272.4 "/>
  <polygon fill="#54392D" points="261.3 299 256.2 298.9 257.1 272.4 259.7 269.5 262.2 272.6 "/>
  <polygon fill="#54392D" points="267.8 299.3 262.7 299.1 263.6 272.6 266.3 269.7 268.7 272.8 "/>
  <polygon fill="#54392D" points="274.1 299.2 269 299 270.3 272.5 273 269.7 275.4 272.8 "/>
  <polygon fill="#54392D" points="280.9 299.8 275.8 299.4 277.6 273 280.3 270.2 282.6 273.3 "/>
  <polygon fill="#54392D" points="287.6 300.2 282.6 299.8 284.7 273.4 287.4 270.7 289.7 273.8 "/>
  <g id="house">
    <rect x="46.7" y="215.7" transform="matrix(0.9999 1.175669e-02 -1.175669e-02 0.9999 2.9969 -0.9936)" fill="#E3E5E5" width="78.6" height="77.3"/>
    <polygon fill="#191817" points="128.7 297.3 127.4 297.3 128.4 218.5 51.3 217.6 50.4 294.4 49.2 294.4 50.1 216.4 129.6 217.3 "/>
    <path fill="#191817" d="M97.7 294.2l-21.3-0.2 0.3-28.1 21.3 0.2L97.7 294.2zM77.7 292.7l18.8 0.2 0.3-25.6L78 267.1 77.7 292.7z"/>
    <path fill="#191817" d="M77.4 256.2l-21.3-0.3 0.3-21.9 21.3 0.3L77.4 256.2zM57.3 254.7l18.8 0.2 0.2-19.4 -18.8-0.2L57.3 254.7z"/>
    <rect x="66.3" y="234.8" transform="matrix(0.9999 1.393688e-02 -1.393688e-02 0.9999 3.4228 -0.9082)" fill="#191817" width="1.2" height="20.7"/>
    <rect x="56.8" y="244.5" transform="matrix(0.9999 1.169018e-02 -1.169018e-02 0.9999 2.8702 -0.765)" fill="#191817" width="20.1" height="1.2"/>
    <path fill="#191817" d="M118.9 256.7l-21.3-0.3 0.3-21.9 21.3 0.2L118.9 256.7zM98.9 255.2l18.8 0.2 0.2-19.4 -18.8-0.2L98.9 255.2z"/>
    <rect x="107.8" y="235.3" transform="matrix(1 9.202477e-03 -9.202477e-03 1 2.2649 -0.9872)" fill="#191817" width="1.2" height="20.7"/>
    <rect x="98.4" y="245" transform="matrix(0.9999 1.178141e-02 -1.178141e-02 0.9999 2.9012 -1.26)" fill="#191817" width="20.1" height="1.2"/>
    <path fill="#191817" d="M103.3 296l-31.4-0.4 0-2 31.4 0.4L103.3 296zM72.4 295.2l30.4 0.4 0-1 -30.4-0.4L72.4 295.2z"/>
    <path fill="#191817" d="M104.9 297.5l-34.7-0.4 0-2 34.7 0.4L104.9 297.5zM70.7 296.6l33.7 0.4 0-1 -33.7-0.4L70.7 296.6z"/>
    <path fill="#191817" d="M106.1 299L69 298.6l0-2 37.2 0.4L106.1 299zM69.5 298.1l36.2 0.4 0-1 -36.2-0.4L69.5 298.1z"/>
    <defs>
      <path id="SVGID_1_" d="M142.4 223.5l-107.6-1.3 54.5-63.9L142.4 223.5z"/>
    </defs>
    <clipPath id="SVGID_2_">
      <use xlink:href="#SVGID_1_" overflow="visible"/>
    </clipPath>
    <g clip-path="url(#SVGID_2_)">
      <path fill="#230303" d="M50.1 221.6c2.3 0 4.2-4.8 4.3-10.8l-8.3-0.1C46 216.7 47.8 221.6 50.1 221.6z"/>
      <path fill="#230303" d="M42.1 221.5c2.3 0 4.2-4.8 4.3-10.8l-8.3-0.1C38 216.6 39.8 221.5 42.1 221.5z"/>
      <path fill="#230303" d="M64.1 221.8c2.3 0 4.2-4.8 4.3-10.8l-8.3-0.1C60 216.8 61.8 221.7 64.1 221.8z"/>
      <path fill="#230303" d="M57.1 221.7c2.3 0 4.2-4.8 4.3-10.8l-8.3-0.1C53 216.8 54.8 221.6 57.1 221.7z"/>
      <path fill="#230303" d="M71.1 221.8c2.3 0 4.2-4.8 4.3-10.8l-8.3-0.1C67 216.9 68.8 221.8 71.1 221.8z"/>
      <path fill="#230303" d="M85.1 222c2.3 0 4.2-4.8 4.3-10.8l-8.3-0.1C81 217.1 82.8 222 85.1 222z"/>
      <path fill="#230303" d="M78.1 221.9c2.3 0 4.2-4.8 4.3-10.8l-8.3-0.1C74 217 75.8 221.9 78.1 221.9z"/>
      <path fill="#230303" d="M92.1 222.1c2.3 0 4.2-4.8 4.3-10.8l-8.3-0.1C88 217.2 89.8 222.1 92.1 222.1z"/>
      <path fill="#230303" d="M106.1 222.3c2.3 0 4.2-4.8 4.3-10.8l-8.3-0.1C102 217.3 103.8 222.2 106.1 222.3z"/>
      <path fill="#230303" d="M99.1 222.2c2.3 0 4.2-4.8 4.3-10.8l-8.3-0.1C95 217.2 96.8 222.1 99.1 222.2z"/>
      <path fill="#230303" d="M113.1 222.3c2.3 0 4.2-4.8 4.3-10.8l-8.3-0.1C109 217.4 110.8 222.3 113.1 222.3z"/>
      <path fill="#230303" d="M127.1 222.5c2.3 0 4.2-4.8 4.3-10.8l-8.3-0.1C123 217.6 124.8 222.5 127.1 222.5z"/>
      <path fill="#230303" d="M120.1 222.4c2.3 0 4.2-4.8 4.3-10.8l-8.3-0.1C116 217.5 117.8 222.4 120.1 222.4z"/>
      <path fill="#380404" d="M50 218.2c2.3 0 4.2-4.8 4.3-10.8l-8.3-0.1C45.9 213.3 47.7 218.1 50 218.2z"/>
      <path fill="#380404" d="M42.1 218.1c2.3 0 4.2-4.8 4.3-10.8l-8.3-0.1C38 213.2 39.8 218.1 42.1 218.1z"/>
      <path fill="#380404" d="M64 218.3c2.3 0 4.2-4.8 4.3-10.8l-8.3-0.1C59.9 213.4 61.7 218.3 64 218.3z"/>
      <path fill="#380404" d="M57 218.3c2.3 0 4.2-4.8 4.3-10.8l-8.3-0.1C52.9 213.3 54.7 218.2 57 218.3z"/>
      <path fill="#380404" d="M71.1 218.4c2.3 0 4.2-4.8 4.3-10.8l-8.3-0.1C67 213.5 68.8 218.4 71.1 218.4z"/>
      <path fill="#380404" d="M85.1 218.6c2.3 0 4.2-4.8 4.3-10.8l-8.3-0.1C81 213.7 82.8 218.6 85.1 218.6z"/>
      <path fill="#380404" d="M78.1 218.5c2.3 0 4.2-4.8 4.3-10.8l-8.3-0.1C74 213.6 75.8 218.5 78.1 218.5z"/>
      <path fill="#380404" d="M92.2 218.7c2.3 0 4.2-4.8 4.3-10.8l-8.3-0.1C88.1 213.7 89.9 218.6 92.2 218.7z"/>
      <path fill="#380404" d="M106.2 218.8c2.3 0 4.2-4.8 4.3-10.8l-8.3-0.1C102.1 213.9 103.9 218.8 106.2 218.8z"/>
      <path fill="#380404" d="M99.2 218.8c2.3 0 4.2-4.8 4.3-10.8l-8.3-0.1C95.1 213.8 96.9 218.7 99.2 218.8z"/>
      <path fill="#380404" d="M113.3 218.9c2.3 0 4.2-4.8 4.3-10.8l-8.3-0.1C109.2 214 111 218.9 113.3 218.9z"/>
      <path fill="#380404" d="M127.3 219.1c2.3 0 4.2-4.8 4.3-10.8l-8.3-0.1C123.2 214.2 125 219.1 127.3 219.1z"/>
      <path fill="#380404" d="M120.3 219c2.3 0 4.2-4.8 4.3-10.8l-8.3-0.1C116.2 214.1 118 219 120.3 219z"/>
      <path fill="#230303" d="M54.2 214.2c2.1 0 3.8-4.3 3.8-9.7l-7.4-0.1C50.5 209.8 52.1 214.2 54.2 214.2z"/>
      <path fill="#230303" d="M46.7 214.2c2.1 0 3.8-4.3 3.8-9.7l-7.5-0.1C43 209.7 44.7 214.1 46.7 214.2z"/>
      <path fill="#230303" d="M66.7 214.4c2.1 0 3.8-4.3 3.8-9.7l-7.4-0.1C63.1 210 64.7 214.4 66.7 214.4z"/>
      <path fill="#230303" d="M60.4 214.3c2.1 0 3.8-4.3 3.8-9.7l-7.4-0.1C56.8 209.9 58.4 214.3 60.4 214.3z"/>
      <path fill="#230303" d="M73 214.5c2.1 0 3.8-4.3 3.8-9.7l-7.4-0.1C69.3 210.1 71 214.4 73 214.5z"/>
      <path fill="#230303" d="M85.6 214.6c2.1 0 3.8-4.3 3.8-9.7l-7.4-0.1C81.9 210.2 83.5 214.6 85.6 214.6z"/>
      <path fill="#230303" d="M79.3 214.5c2.1 0 3.8-4.3 3.8-9.7l-7.4-0.1C75.6 210.1 77.2 214.5 79.3 214.5z"/>
      <path fill="#230303" d="M91.8 214.7c2.1 0 3.8-4.3 3.8-9.7l-7.4-0.1C88.2 210.3 89.8 214.7 91.8 214.7z"/>
      <path fill="#230303" d="M104.4 214.8c2.1 0 3.8-4.3 3.8-9.7l-7.4-0.1C100.7 210.4 102.3 214.8 104.4 214.8z"/>
      <path fill="#230303" d="M98.1 214.8c2.1 0 3.8-4.3 3.8-9.7l-7.4-0.1C94.4 210.3 96.1 214.7 98.1 214.8z"/>
      <path fill="#230303" d="M110.7 214.9c2.1 0 3.8-4.3 3.8-9.7l-7.4-0.1C107 210.5 108.6 214.9 110.7 214.9z"/>
      <path fill="#230303" d="M123.2 215.1c2.1 0 3.8-4.3 3.8-9.7l-7.4-0.1C119.6 210.6 121.2 215 123.2 215.1z"/>
      <path fill="#230303" d="M117 215c2.1 0 3.8-4.3 3.8-9.7l-7.4-0.1C113.3 210.6 114.9 215 117 215z"/>
      <path fill="#380404" d="M54.1 210.8c2.1 0 3.8-4.3 3.8-9.7l-7.5-0.1C50.4 206.4 52 210.8 54.1 210.8z"/>
      <path fill="#380404" d="M46.8 210.7c2.1 0 3.8-4.3 3.8-9.7l-7.4-0.1C43.1 206.3 44.7 210.7 46.8 210.7z"/>
      <path fill="#380404" d="M66.7 211c2.1 0 3.8-4.3 3.8-9.7l-7.4-0.1C63 206.6 64.6 210.9 66.7 211z"/>
      <path fill="#380404" d="M60.4 210.9c2 0 3.8-4.3 3.8-9.7l-7.4-0.1C56.7 206.5 58.3 210.9 60.4 210.9z"/>
      <path fill="#380404" d="M73 211c2.1 0 3.8-4.3 3.8-9.7l-7.4-0.1C69.3 206.6 70.9 211 73 211z"/>
      <path fill="#380404" d="M85.6 211.2c2.1 0 3.8-4.3 3.8-9.7l-7.4-0.1C81.9 206.8 83.5 211.2 85.6 211.2z"/>
      <path fill="#380404" d="M79.3 211.1c2.1 0 3.8-4.3 3.8-9.7l-7.4-0.1C75.6 206.7 77.2 211.1 79.3 211.1z"/>
      <path fill="#380404" d="M91.9 211.3c2.1 0 3.8-4.3 3.8-9.7l-7.4-0.1C88.2 206.9 89.8 211.2 91.9 211.3z"/>
      <path fill="#380404" d="M104.5 211.4c2.1 0 3.8-4.3 3.8-9.7l-7.4-0.1C100.8 207 102.4 211.4 104.5 211.4z"/>
      <path fill="#380404" d="M98.2 211.3c2.1 0 3.8-4.3 3.8-9.7l-7.4-0.1C94.5 206.9 96.1 211.3 98.2 211.3z"/>
      <path fill="#380404" d="M110.8 211.5c2.1 0 3.8-4.3 3.8-9.7l-7.4-0.1C107.1 207.1 108.7 211.5 110.8 211.5z"/>
      <path fill="#380404" d="M123.4 211.6c2.1 0 3.8-4.3 3.8-9.7l-7.4-0.1C119.7 207.2 121.4 211.6 123.4 211.6z"/>
      <path fill="#380404" d="M117.1 211.6c2.1 0 3.8-4.3 3.8-9.7l-7.4-0.1C113.4 207.2 115 211.5 117.1 211.6z"/>
      <path fill="#230303" d="M59.8 206.7c1.7 0 3.2-3.6 3.2-8.2l-6.3-0.1C56.7 203 58 206.7 59.8 206.7z"/>
      <path fill="#230303" d="M70.3 206.8c1.7 0 3.2-3.6 3.2-8.2l-6.3-0.1C67.2 203.1 68.6 206.8 70.3 206.8z"/>
      <path fill="#230303" d="M65 206.8c1.7 0 3.2-3.6 3.2-8.2l-6.3-0.1C62 203.1 63.3 206.7 65 206.8z"/>
      <path fill="#230303" d="M75.6 206.9c1.7 0 3.2-3.6 3.2-8.2l-6.3-0.1C72.5 203.2 73.9 206.9 75.6 206.9z"/>
      <path fill="#230303" d="M86.1 207c1.7 0 3.2-3.6 3.2-8.2l-6.3-0.1C83.1 203.3 84.4 207 86.1 207z"/>
      <path fill="#230303" d="M80.9 206.9c1.7 0 3.2-3.6 3.2-8.2l-6.3-0.1C77.8 203.2 79.1 206.9 80.9 206.9z"/>
      <path fill="#230303" d="M91.4 207.1c1.7 0 3.2-3.6 3.2-8.2l-6.3-0.1C88.3 203.4 89.7 207.1 91.4 207.1z"/>
      <path fill="#230303" d="M102 207.2c1.7 0 3.2-3.6 3.2-8.2l-6.3-0.1C98.9 203.5 100.2 207.2 102 207.2z"/>
      <path fill="#230303" d="M96.7 207.1c1.7 0 3.2-3.6 3.2-8.2l-6.3-0.1C93.6 203.4 95 207.1 96.7 207.1z"/>
      <path fill="#230303" d="M107.3 207.3c1.7 0 3.2-3.6 3.2-8.2l-6.3-0.1C104.2 203.5 105.5 207.2 107.3 207.3z"/>
      <path fill="#230303" d="M117.8 207.4c1.7 0 3.2-3.6 3.2-8.2l-6.3-0.1C114.7 203.7 116.1 207.4 117.8 207.4z"/>
      <path fill="#230303" d="M112.5 207.3c1.7 0 3.2-3.6 3.2-8.2l-6.3-0.1C109.4 203.6 110.8 207.3 112.5 207.3z"/>
      <path fill="#380404" d="M59.7 203.3c1.7 0 3.2-3.6 3.2-8.2l-6.3-0.1C56.6 199.6 58 203.3 59.7 203.3z"/>
      <path fill="#230303" d="M54.2 206.6c1.7 0 3.2-3.6 3.2-8.2l-6.3-0.1C51.1 202.9 52.4 206.6 54.2 206.6z"/>
      <path fill="#380404" d="M54.1 203.2c1.7 0 3.2-3.6 3.2-8.2l-6.3-0.1C51 199.5 52.4 203.2 54.1 203.2z"/>
      <path fill="#380404" d="M70.3 203.4c1.7 0 3.2-3.6 3.2-8.2l-6.3-0.1C67.2 199.7 68.6 203.4 70.3 203.4z"/>
      <path fill="#380404" d="M65 203.3c1.7 0 3.2-3.6 3.2-8.2l-6.3-0.1C61.9 199.6 63.3 203.3 65 203.3z"/>
      <path fill="#380404" d="M75.6 203.5c1.7 0 3.2-3.6 3.2-8.2l-6.3-0.1C72.5 199.8 73.9 203.4 75.6 203.5z"/>
      <path fill="#380404" d="M86.2 203.6c1.7 0 3.2-3.6 3.2-8.2l-6.3-0.1C83.1 199.9 84.5 203.6 86.2 203.6z"/>
      <path fill="#380404" d="M80.9 203.5c1.7 0 3.2-3.6 3.2-8.2l-6.3-0.1C77.8 199.8 79.2 203.5 80.9 203.5z"/>
      <path fill="#380404" d="M91.5 203.7c1.7 0 3.2-3.6 3.2-8.2l-6.3-0.1C88.4 199.9 89.7 203.6 91.5 203.7z"/>
      <path fill="#380404" d="M102.1 203.8c1.7 0 3.2-3.6 3.2-8.2l-6.3-0.1C99 200.1 100.3 203.8 102.1 203.8z"/>
      <path fill="#380404" d="M96.8 203.7c1.7 0 3.2-3.6 3.2-8.2l-6.3-0.1C93.7 200 95 203.7 96.8 203.7z"/>
      <path fill="#380404" d="M107.4 203.8c1.7 0 3.2-3.6 3.2-8.2l-6.3-0.1C104.3 200.1 105.6 203.8 107.4 203.8z"/>
      <path fill="#380404" d="M118 204c1.7 0 3.2-3.6 3.2-8.2l-6.3-0.1C114.9 200.3 116.2 203.9 118 204z"/>
      <path fill="#230303" d="M132.9 222.6c2.3 0 4.2-4.8 4.3-10.8l-8.3-0.1C128.8 217.6 130.6 222.5 132.9 222.6z"/>
      <path fill="#380404" d="M133.1 219.1c2.3 0 4.2-4.8 4.3-10.8l-8.3-0.1C129 214.2 130.8 219.1 133.1 219.1z"/>
      <path fill="#230303" d="M129 215.1c2.1 0 3.8-4.3 3.8-9.7l-7.4-0.1C125.3 210.7 126.9 215.1 129 215.1z"/>
      <path fill="#380404" d="M129.2 211.7c2.1 0 3.8-4.3 3.8-9.7l-7.4-0.1C125.5 207.3 127.1 211.7 129.2 211.7z"/>
      <path fill="#230303" d="M123.6 207.4c1.7 0 3.2-3.6 3.2-8.2l-6.3-0.1C120.5 203.7 121.8 207.4 123.6 207.4z"/>
      <path fill="#380404" d="M123.7 204c1.7 0 3.2-3.6 3.2-8.2l-6.3-0.1C120.6 200.3 122 204 123.7 204z"/>
      <path fill="#380404" d="M112.7 203.9c1.7 0 3.2-3.6 3.2-8.2l-6.3-0.1C109.6 200.2 110.9 203.9 112.7 203.9z"/>
      <path fill="#230303" d="M63.4 199.4c1.5 0 2.8-3.2 2.8-7.2l-5.5-0.1C60.7 196.2 61.9 199.4 63.4 199.4z"/>
      <path fill="#230303" d="M72.7 199.5c1.5 0 2.8-3.2 2.8-7.2l-5.5-0.1C70 196.3 71.2 199.5 72.7 199.5z"/>
      <path fill="#230303" d="M68.1 199.5c1.5 0 2.8-3.2 2.8-7.2l-5.5-0.1C65.4 196.2 66.5 199.4 68.1 199.5z"/>
      <path fill="#230303" d="M77.3 199.6c1.5 0 2.8-3.2 2.8-7.1l-5.5-0.1C74.6 196.3 75.8 199.5 77.3 199.6z"/>
      <path fill="#230303" d="M86.6 199.7c1.5 0 2.8-3.2 2.8-7.2l-5.5-0.1C83.9 196.4 85 199.7 86.6 199.7z"/>
      <path fill="#230303" d="M81.9 199.6c1.5 0 2.8-3.2 2.8-7.2l-5.5-0.1C79.2 196.4 80.4 199.6 81.9 199.6z"/>
      <path fill="#230303" d="M91.2 199.7c1.5 0 2.8-3.2 2.8-7.2l-5.5-0.1C88.5 196.5 89.7 199.7 91.2 199.7z"/>
      <path fill="#230303" d="M100.4 199.8c1.5 0 2.8-3.2 2.8-7.2l-5.5-0.1C97.7 196.6 98.9 199.8 100.4 199.8z"/>
      <path fill="#230303" d="M95.8 199.8c1.5 0 2.8-3.2 2.8-7.2l-5.5-0.1C93.1 196.5 94.3 199.8 95.8 199.8z"/>
      <path fill="#230303" d="M105.1 199.9c1.5 0 2.8-3.2 2.8-7.2l-5.5-0.1C102.4 196.6 103.5 199.9 105.1 199.9z"/>
      <path fill="#230303" d="M114.3 200c1.5 0 2.8-3.2 2.8-7.2l-5.5-0.1C111.6 196.8 112.8 200 114.3 200z"/>
      <path fill="#230303" d="M109.7 199.9c1.5 0 2.8-3.2 2.8-7.2l-5.5-0.1C107 196.7 108.2 199.9 109.7 199.9z"/>
      <path fill="#380404" d="M63.4 196c1.5 0 2.8-3.2 2.8-7.1l-5.5-0.1C60.7 192.7 61.9 196 63.4 196z"/>
      <path fill="#230303" d="M58.1 199.3c1.5 0 2.8-3.2 2.8-7.2l-5.5-0.1C55.4 196.1 56.6 199.3 58.1 199.3z"/>
      <path fill="#380404" d="M58.1 195.9c1.5 0 2.8-3.2 2.8-7.2l-5.5-0.1C55.4 192.7 56.5 195.9 58.1 195.9z"/>
      <path fill="#380404" d="M72.7 196.1c1.5 0 2.8-3.2 2.8-7.1l-5.5-0.1C70 192.8 71.1 196.1 72.7 196.1z"/>
      <path fill="#380404" d="M68 196c1.5 0 2.8-3.2 2.8-7.2l-5.5-0.1C65.3 192.8 66.5 196 68 196z"/>
      <path fill="#380404" d="M77.3 196.1c1.5 0 2.8-3.2 2.8-7.1l-5.5-0.1C74.6 192.9 75.8 196.1 77.3 196.1z"/>
      <path fill="#380404" d="M86.6 196.3c1.5 0 2.8-3.2 2.8-7.2l-5.5-0.1C83.9 193 85.1 196.2 86.6 196.3z"/>
      <path fill="#380404" d="M81.9 196.2c1.5 0 2.8-3.2 2.8-7.2l-5.5-0.1C79.2 193 80.4 196.2 81.9 196.2z"/>
      <path fill="#380404" d="M91.2 196.3c1.5 0 2.8-3.2 2.8-7.1l-5.5-0.1C88.5 193.1 89.7 196.3 91.2 196.3z"/>
      <path fill="#380404" d="M100.5 196.4c1.5 0 2.8-3.2 2.8-7.1l-5.5-0.1C97.8 193.2 99 196.4 100.5 196.4z"/>
      <path fill="#380404" d="M95.9 196.4c1.5 0 2.8-3.2 2.8-7.1l-5.5-0.1C93.2 193.1 94.4 196.4 95.9 196.4z"/>
      <path fill="#380404" d="M105.2 196.5c1.5 0 2.8-3.2 2.8-7.2l-5.5-0.1C102.5 193.2 103.7 196.5 105.2 196.5z"/>
      <path fill="#380404" d="M114.5 196.6c1.5 0 2.8-3.2 2.8-7.1l-5.5-0.1C111.8 193.3 112.9 196.6 114.5 196.6z"/>
      <path fill="#230303" d="M119.1 200.1c1.5 0 2.8-3.2 2.8-7.2l-5.5-0.1C116.4 196.8 117.6 200 119.1 200.1z"/>
      <path fill="#380404" d="M119.3 196.6c1.5 0 2.8-3.2 2.8-7.2l-5.5-0.1C116.6 193.4 117.7 196.6 119.3 196.6z"/>
      <path fill="#380404" d="M109.8 196.5c1.5 0 2.8-3.2 2.8-7.1l-5.5-0.1C107.1 193.3 108.3 196.5 109.8 196.5z"/>
      <path fill="#230303" d="M65.3 192.3c1.4 0 2.6-3 2.6-6.6l-5.1-0.1C62.8 189.3 63.9 192.3 65.3 192.3z"/>
      <path fill="#230303" d="M73.9 192.4c1.4 0 2.6-3 2.6-6.6l-5.1-0.1C71.4 189.4 72.5 192.4 73.9 192.4z"/>
      <path fill="#230303" d="M69.6 192.4c1.4 0 2.6-3 2.6-6.6l-5.1-0.1C67.1 189.4 68.2 192.4 69.6 192.4z"/>
      <path fill="#230303" d="M78.2 192.5c1.4 0 2.6-3 2.6-6.7l-5.1-0.1C75.7 189.5 76.8 192.5 78.2 192.5z"/>
      <path fill="#230303" d="M86.8 192.6c1.4 0 2.6-3 2.6-6.6l-5.1-0.1C84.3 189.6 85.4 192.6 86.8 192.6z"/>
      <path fill="#230303" d="M82.5 192.5c1.4 0 2.6-3 2.6-6.7l-5.1-0.1C80 189.5 81.1 192.5 82.5 192.5z"/>
      <path fill="#230303" d="M91.1 192.6c1.4 0 2.6-3 2.6-6.7l-5.1-0.1C88.6 189.6 89.7 192.6 91.1 192.6z"/>
      <path fill="#230303" d="M99.7 192.7c1.4 0 2.6-3 2.6-6.7l-5.1-0.1C97.2 189.7 98.3 192.7 99.7 192.7z"/>
      <path fill="#230303" d="M95.4 192.7c1.4 0 2.6-3 2.6-6.7l-5.1-0.1C92.9 189.7 94 192.7 95.4 192.7z"/>
      <path fill="#230303" d="M104 192.8c1.4 0 2.6-3 2.6-6.7l-5.1-0.1C101.5 189.8 102.6 192.8 104 192.8z"/>
      <path fill="#230303" d="M112.6 192.9c1.4 0 2.6-3 2.6-6.7l-5.1-0.1C110.1 189.9 111.2 192.9 112.6 192.9z"/>
      <path fill="#230303" d="M108.3 192.8c1.4 0 2.6-3 2.6-6.7l-5.1-0.1C105.8 189.8 106.9 192.8 108.3 192.8z"/>
      <path fill="#380404" d="M69.6 188.4c1.2 0 2.1-2.4 2.2-5.4l-4.2 0C67.5 186 68.4 188.4 69.6 188.4z"/>
      <path fill="#380404" d="M76.6 188.5c1.2 0 2.1-2.4 2.1-5.4l-4.2 0C74.6 186.1 75.5 188.5 76.6 188.5z"/>
      <path fill="#380404" d="M73.1 188.5c1.2 0 2.1-2.4 2.2-5.4l-4.2 0C71.1 186 72 188.5 73.1 188.5z"/>
      <path fill="#380404" d="M80.2 188.6c1.2 0 2.1-2.4 2.2-5.4l-4.2 0C78.1 186.1 79 188.6 80.2 188.6z"/>
      <path fill="#380404" d="M87.2 188.7c1.2 0 2.1-2.4 2.1-5.4l-4.2 0C85.2 186.2 86.1 188.6 87.2 188.7z"/>
      <path fill="#380404" d="M83.7 188.6c1.2 0 2.1-2.4 2.2-5.4l-4.2 0C81.6 186.1 82.6 188.6 83.7 188.6z"/>
      <path fill="#380404" d="M90.8 188.7c1.2 0 2.1-2.4 2.2-5.4l-4.2 0C88.7 186.2 89.6 188.7 90.8 188.7z"/>
      <path fill="#380404" d="M97.8 188.8c1.2 0 2.1-2.4 2.2-5.4l-4.2 0C95.8 186.3 96.7 188.8 97.8 188.8z"/>
      <path fill="#380404" d="M94.3 188.7c1.2 0 2.1-2.4 2.2-5.4l-4.2 0C92.2 186.3 93.2 188.7 94.3 188.7z"/>
      <path fill="#380404" d="M101.4 188.8c1.2 0 2.1-2.4 2.1-5.4l-4.2 0C99.3 186.3 100.2 188.8 101.4 188.8z"/>
      <path fill="#380404" d="M108.4 188.9c1.2 0 2.1-2.4 2.1-5.4l-4.2 0C106.4 186.4 107.3 188.9 108.4 188.9z"/>
      <path fill="#380404" d="M104.9 188.9c1.2 0 2.1-2.4 2.2-5.4l-4.2 0C102.8 186.4 103.7 188.8 104.9 188.9z"/>
      <path fill="#230303" d="M72.6 185.3c1 0 1.8-2.1 1.8-4.6l-3.5 0C70.8 183.2 71.6 185.3 72.6 185.3z"/>
      <path fill="#380404" d="M66.2 188.4c1.2 0 2.1-2.4 2.2-5.4l-4.2 0C64.1 185.9 65 188.4 66.2 188.4z"/>
      <path fill="#230303" d="M69.2 185.3c1 0 1.8-2.1 1.8-4.6l-3.5 0C67.4 183.2 68.2 185.3 69.2 185.3z"/>
      <path fill="#230303" d="M78.6 185.4c1 0 1.8-2.1 1.8-4.6l-3.5 0C76.8 183.3 77.6 185.4 78.6 185.4z"/>
      <path fill="#230303" d="M75.6 185.4c1 0 1.8-2.1 1.8-4.6l-3.6 0C73.8 183.3 74.6 185.4 75.6 185.4z"/>
      <path fill="#230303" d="M81.6 185.4c1 0 1.8-2.1 1.8-4.6l-3.5 0C79.8 183.3 80.6 185.4 81.6 185.4z"/>
      <path fill="#230303" d="M87.5 185.5c1 0 1.8-2.1 1.8-4.6l-3.5 0C85.8 183.4 86.6 185.5 87.5 185.5z"/>
      <path fill="#230303" d="M84.6 185.5c1 0 1.8-2.1 1.8-4.6l-3.5 0C82.8 183.4 83.6 185.5 84.6 185.5z"/>
      <path fill="#230303" d="M90.5 185.5c1 0 1.8-2.1 1.8-4.6l-3.5 0C88.8 183.4 89.6 185.5 90.5 185.5z"/>
      <path fill="#230303" d="M96.5 185.6c1 0 1.8-2.1 1.8-4.6l-3.6 0C94.8 183.5 95.5 185.6 96.5 185.6z"/>
      <path fill="#230303" d="M93.5 185.6c1 0 1.8-2.1 1.8-4.6l-3.5 0C91.8 183.5 92.6 185.6 93.5 185.6z"/>
      <path fill="#230303" d="M99.5 185.7c1 0 1.8-2.1 1.8-4.6l-3.5 0C97.8 183.5 98.5 185.6 99.5 185.7z"/>
      <path fill="#230303" d="M105.5 185.7c1 0 1.8-2.1 1.8-4.6l-3.6 0C103.7 183.6 104.5 185.7 105.5 185.7z"/>
      <path fill="#230303" d="M102.5 185.7c1 0 1.8-2.1 1.8-4.6l-3.5 0C100.8 183.6 101.5 185.7 102.5 185.7z"/>
      <path fill="#380404" d="M74.3 183.1c0.9 0 1.6-1.8 1.6-4.1l-3.2 0C72.8 181.2 73.4 183.1 74.3 183.1z"/>
      <path fill="#380404" d="M79.7 183.1c0.9 0 1.6-1.8 1.6-4.1l-3.2 0C78.1 181.3 78.8 183.1 79.7 183.1z"/>
      <path fill="#380404" d="M77 183.1c0.9 0 1.6-1.8 1.6-4.1l-3.2 0C75.4 181.2 76.1 183.1 77 183.1z"/>
      <path fill="#380404" d="M82.4 183.2c0.9 0 1.6-1.8 1.6-4.1l-3.2 0C80.8 181.3 81.5 183.2 82.4 183.2z"/>
      <path fill="#380404" d="M87.7 183.2c0.9 0 1.6-1.8 1.6-4.1l-3.2 0C86.2 181.4 86.9 183.2 87.7 183.2z"/>
      <path fill="#380404" d="M85 183.2c0.9 0 1.6-1.8 1.6-4.1l-3.2 0C83.5 181.3 84.2 183.2 85 183.2z"/>
      <path fill="#380404" d="M90.4 183.3c0.9 0 1.6-1.8 1.6-4.1l-3.2 0C88.8 181.4 89.5 183.3 90.4 183.3z"/>
      <path fill="#380404" d="M95.8 183.3c0.9 0 1.6-1.8 1.6-4.1l-3.2 0C94.2 181.5 94.9 183.3 95.8 183.3z"/>
      <path fill="#380404" d="M93.1 183.3c0.9 0 1.6-1.8 1.6-4.1l-3.2 0C91.5 181.4 92.2 183.3 93.1 183.3z"/>
      <path fill="#380404" d="M98.5 183.4c0.9 0 1.6-1.8 1.6-4.1l-3.2 0C96.9 181.5 97.6 183.4 98.5 183.4z"/>
      <path fill="#380404" d="M103.8 183.4c0.9 0 1.6-1.8 1.6-4.1l-3.2 0C102.3 181.6 102.9 183.4 103.8 183.4z"/>
      <path fill="#230303" d="M108.4 185.8c1 0 1.8-2.1 1.8-4.6l-3.6 0C106.6 183.7 107.4 185.7 108.4 185.8z"/>
      <path fill="#380404" d="M106.7 183.5c0.9 0 1.6-1.8 1.6-4.1l-3.2 0C105.1 181.6 105.8 183.5 106.7 183.5z"/>
      <path fill="#380404" d="M101.1 183.4c0.9 0 1.6-1.8 1.6-4.1l-3.2 0C99.6 181.5 100.3 183.4 101.1 183.4z"/>
      <path fill="#230303" d="M75.6 181.1c0.8 0 1.5-1.7 1.5-3.8l-2.9 0C74.1 179.3 74.8 181.1 75.6 181.1z"/>
      <path fill="#380404" d="M71.7 183.1c0.9 0 1.6-1.8 1.6-4.1l-3.2 0C70.2 181.2 70.8 183 71.7 183.1z"/>
      <path fill="#230303" d="M73 181c0.8 0 1.5-1.7 1.5-3.8l-2.9 0C71.5 179.3 72.2 181 73 181z"/>
      <path fill="#230303" d="M80.5 181.1c0.8 0 1.5-1.7 1.5-3.8l-2.9 0C79.1 179.4 79.7 181.1 80.5 181.1z"/>
      <path fill="#230303" d="M78 181.1c0.8 0 1.5-1.7 1.5-3.8l-2.9 0C76.6 179.4 77.2 181.1 78 181.1z"/>
      <path fill="#230303" d="M82.9 181.2c0.8 0 1.5-1.7 1.5-3.8l-2.9 0C81.5 179.4 82.1 181.1 82.9 181.2z"/>
      <path fill="#230303" d="M87.9 181.2c0.8 0 1.5-1.7 1.5-3.8l-2.9 0C86.4 179.5 87.1 181.2 87.9 181.2z"/>
      <path fill="#230303" d="M85.4 181.2c0.8 0 1.5-1.7 1.5-3.8l-2.9 0C84 179.5 84.6 181.2 85.4 181.2z"/>
      <path fill="#230303" d="M90.3 181.2c0.8 0 1.5-1.7 1.5-3.8l-2.9 0C88.9 179.5 89.5 181.2 90.3 181.2z"/>
      <path fill="#230303" d="M95.2 181.3c0.8 0 1.5-1.7 1.5-3.8l-2.9 0C93.8 179.6 94.4 181.3 95.2 181.3z"/>
      <path fill="#230303" d="M92.8 181.3c0.8 0 1.5-1.7 1.5-3.8l-2.9 0C91.3 179.5 92 181.3 92.8 181.3z"/>
      <path fill="#230303" d="M97.7 181.3c0.8 0 1.5-1.7 1.5-3.8l-2.9 0C96.3 179.6 96.9 181.3 97.7 181.3z"/>
      <path fill="#230303" d="M102.6 181.4c0.8 0 1.5-1.7 1.5-3.8l-2.9 0C101.2 179.7 101.8 181.4 102.6 181.4z"/>
      <path fill="#230303" d="M100.2 181.4c0.8 0 1.5-1.7 1.5-3.8l-2.9 0C98.7 179.6 99.3 181.3 100.2 181.4z"/>
      <path fill="#380404" d="M75.8 179.6c0.8 0 1.5-2.1 1.5-4.7l-2.9 0C74.4 177.4 75 179.6 75.8 179.6z"/>
      <path fill="#380404" d="M80.6 179.6c0.8 0 1.5-2.1 1.5-4.7l-2.9 0C79.2 177.5 79.8 179.6 80.6 179.6z"/>
      <path fill="#380404" d="M78.2 179.6c0.8 0 1.5-2.1 1.5-4.7l-2.9 0C76.8 177.5 77.4 179.6 78.2 179.6z"/>
      <path fill="#380404" d="M83 179.6c0.8 0 1.5-2.1 1.5-4.7l-2.9 0C81.6 177.5 82.3 179.6 83 179.6z"/>
      <path fill="#380404" d="M87.9 179.7c0.8 0 1.5-2.1 1.5-4.7l-2.9 0C86.5 177.6 87.1 179.7 87.9 179.7z"/>
      <path fill="#380404" d="M85.5 179.7c0.8 0 1.5-2.1 1.5-4.7l-2.9 0C84.1 177.5 84.7 179.7 85.5 179.7z"/>
      <path fill="#380404" d="M90.3 179.7c0.8 0 1.5-2.1 1.5-4.7l-2.9 0C88.9 177.6 89.5 179.7 90.3 179.7z"/>
      <path fill="#380404" d="M95.2 179.8c0.8 0 1.5-2.1 1.5-4.7l-2.9 0C93.8 177.7 94.4 179.8 95.2 179.8z"/>
      <path fill="#380404" d="M92.7 179.8c0.8 0 1.5-2.1 1.5-4.7l-2.9 0C91.3 177.6 92 179.7 92.7 179.8z"/>
      <path fill="#380404" d="M97.6 179.8c0.8 0 1.5-2.1 1.5-4.7l-2.9 0C96.2 177.7 96.8 179.8 97.6 179.8z"/>
      <path fill="#380404" d="M102.4 179.9c0.8 0 1.5-2.1 1.5-4.7l-2.9 0C101 177.7 101.7 179.9 102.4 179.9z"/>
      <path fill="#230303" d="M105.2 181.4c0.8 0 1.5-1.7 1.5-3.8l-2.9 0C103.8 179.7 104.4 181.4 105.2 181.4z"/>
      <path fill="#380404" d="M105 179.9c0.8 0 1.5-2.1 1.5-4.7l-2.9 0C103.6 177.8 104.2 179.9 105 179.9z"/>
      <path fill="#380404" d="M100 179.8c0.8 0 1.5-2.1 1.5-4.7l-2.9 0C98.6 177.7 99.2 179.8 100 179.8z"/>
      <path fill="#230303" d="M77.1 177.2c0.7 0 1.3-1.5 1.3-3.4l-2.6 0C75.8 175.7 76.3 177.2 77.1 177.2z"/>
      <path fill="#230303" d="M81.4 177.3c0.7 0 1.3-1.5 1.3-3.4l-2.6 0C80.2 175.7 80.7 177.3 81.4 177.3z"/>
      <path fill="#230303" d="M79.3 177.2c0.7 0 1.3-1.5 1.3-3.4l-2.6 0C78 175.7 78.5 177.2 79.3 177.2z"/>
      <path fill="#230303" d="M83.6 177.3c0.7 0 1.3-1.5 1.3-3.4l-2.6 0C82.4 175.7 82.9 177.3 83.6 177.3z"/>
      <path fill="#230303" d="M88 177.3c0.7 0 1.3-1.5 1.3-3.4l-2.6 0C86.7 175.8 87.3 177.3 88 177.3z"/>
      <path fill="#230303" d="M85.8 177.3c0.7 0 1.3-1.5 1.3-3.4l-2.6 0C84.6 175.8 85.1 177.3 85.8 177.3z"/>
      <path fill="#230303" d="M90.2 177.4c0.7 0 1.3-1.5 1.3-3.4l-2.6 0C88.9 175.8 89.5 177.4 90.2 177.4z"/>
      <path fill="#230303" d="M94.6 177.4c0.7 0 1.3-1.5 1.3-3.4l-2.6 0C93.3 175.9 93.9 177.4 94.6 177.4z"/>
      <path fill="#230303" d="M92.4 177.4c0.7 0 1.3-1.5 1.3-3.4l-2.6 0C91.1 175.8 91.7 177.4 92.4 177.4z"/>
      <path fill="#230303" d="M96.8 177.4c0.7 0 1.3-1.5 1.3-3.4l-2.6 0C95.5 175.9 96.1 177.4 96.8 177.4z"/>
      <path fill="#230303" d="M101.2 177.5c0.7 0 1.3-1.5 1.3-3.4l-2.6 0C99.9 175.9 100.5 177.5 101.2 177.5z"/>
      <path fill="#230303" d="M99 177.5c0.7 0 1.3-1.5 1.3-3.4l-2.6 0C97.7 175.9 98.3 177.5 99 177.5z"/>
      <path fill="#380404" d="M78.2 175.4c0.7 0 1.2-1.4 1.2-3.1l-2.4 0C77 174 77.5 175.3 78.2 175.4z"/>
      <path fill="#380404" d="M82.2 175.4c0.7 0 1.2-1.4 1.2-3.1l-2.4 0C81 174 81.5 175.4 82.2 175.4z"/>
      <path fill="#380404" d="M80.2 175.4c0.7 0 1.2-1.4 1.2-3.1l-2.4 0C79 174 79.5 175.4 80.2 175.4z"/>
      <path fill="#380404" d="M84.2 175.4c0.7 0 1.2-1.4 1.2-3.1l-2.4 0C83 174 83.5 175.4 84.2 175.4z"/>
      <path fill="#380404" d="M88.2 175.5c0.7 0 1.2-1.4 1.2-3.1l-2.4 0C87 174.1 87.5 175.5 88.2 175.5z"/>
      <path fill="#380404" d="M86.2 175.5c0.7 0 1.2-1.4 1.2-3.1l-2.4 0C85 174.1 85.5 175.4 86.2 175.5z"/>
      <path fill="#380404" d="M90.2 175.5c0.7 0 1.2-1.4 1.2-3.1l-2.4 0C89 174.1 89.5 175.5 90.2 175.5z"/>
      <path fill="#380404" d="M94.2 175.5c0.6 0 1.2-1.4 1.2-3.1l-2.4 0C93 174.1 93.5 175.5 94.2 175.5z"/>
      <path fill="#380404" d="M92.2 175.5c0.7 0 1.2-1.4 1.2-3.1l-2.4 0C91 174.1 91.5 175.5 92.2 175.5z"/>
      <path fill="#380404" d="M96.2 175.6c0.7 0 1.2-1.4 1.2-3.1l-2.4 0C95 174.2 95.5 175.6 96.2 175.6z"/>
      <path fill="#380404" d="M100.2 175.6c0.7 0 1.2-1.4 1.2-3.1l-2.4 0C99 174.2 99.5 175.6 100.2 175.6z"/>
      <path fill="#380404" d="M98.2 175.6c0.7 0 1.2-1.4 1.2-3.1l-2.4 0C97 174.2 97.5 175.6 98.2 175.6z"/>
      <path fill="#230303" d="M79.2 173.5c0.6 0 1.1-1.2 1.1-2.8l-2.1 0C78.2 172.2 78.6 173.5 79.2 173.5z"/>
      <path fill="#230303" d="M82.8 173.6c0.6 0 1.1-1.2 1.1-2.8l-2.2 0C81.8 172.3 82.2 173.5 82.8 173.6z"/>
      <path fill="#230303" d="M81 173.5c0.6 0 1.1-1.2 1.1-2.8l-2.1 0C80 172.3 80.4 173.5 81 173.5z"/>
      <path fill="#230303" d="M84.6 173.6c0.6 0 1.1-1.2 1.1-2.8l-2.1 0C83.6 172.3 84.1 173.6 84.6 173.6z"/>
      <path fill="#230303" d="M88.3 173.6c0.6 0 1.1-1.2 1.1-2.8l-2.1 0C87.2 172.3 87.7 173.6 88.3 173.6z"/>
      <path fill="#230303" d="M86.5 173.6c0.6 0 1.1-1.3 1.1-2.8l-2.2 0C85.4 172.3 85.9 173.6 86.5 173.6z"/>
      <path fill="#230303" d="M90.1 173.6c0.6 0 1.1-1.2 1.1-2.8l-2.1 0C89 172.4 89.5 173.6 90.1 173.6z"/>
      <path fill="#230303" d="M93.7 173.7c0.6 0 1.1-1.2 1.1-2.8l-2.2 0C92.7 172.4 93.1 173.7 93.7 173.7z"/>
      <path fill="#230303" d="M91.9 173.7c0.6 0 1.1-1.3 1.1-2.8l-2.2 0C90.8 172.4 91.3 173.7 91.9 173.7z"/>
      <path fill="#230303" d="M95.5 173.7c0.6 0 1.1-1.2 1.1-2.8l-2.1 0C94.5 172.4 94.9 173.7 95.5 173.7z"/>
      <path fill="#230303" d="M99.1 173.7c0.6 0 1.1-1.2 1.1-2.8l-2.1 0C98.1 172.5 98.6 173.7 99.1 173.7z"/>
      <path fill="#230303" d="M97.3 173.7c0.6 0 1.1-1.2 1.1-2.8l-2.1 0C96.3 172.5 96.7 173.7 97.3 173.7z"/>
      <path fill="#380404" d="M80.1 172c0.5 0 1-1.3 1-2.8l-2 0C79.1 170.7 79.6 172 80.1 172z"/>
      <path fill="#380404" d="M83.4 172c0.5 0 1-1.3 1-2.8l-2 0C82.4 170.7 82.9 172 83.4 172z"/>
      <path fill="#380404" d="M81.7 172c0.5 0 1-1.3 1-2.8l-2 0C80.8 170.7 81.2 172 81.7 172z"/>
      <path fill="#380404" d="M85.1 172c0.5 0 1-1.3 1-2.8l-2 0C84.1 170.8 84.5 172 85.1 172z"/>
      <path fill="#380404" d="M88.4 172.1c0.5 0 1-1.3 1-2.8l-2 0C87.4 170.8 87.8 172.1 88.4 172.1z"/>
      <path fill="#380404" d="M86.7 172c0.5 0 1-1.3 1-2.8l-2 0C85.8 170.8 86.2 172 86.7 172z"/>
      <path fill="#380404" d="M90 172.1c0.5 0 1-1.3 1-2.8l-2 0C89.1 170.8 89.5 172.1 90 172.1z"/>
      <path fill="#380404" d="M93.3 172.1c0.5 0 1-1.3 1-2.8l-2 0C92.4 170.9 92.8 172.1 93.3 172.1z"/>
      <path fill="#380404" d="M91.7 172.1c0.5 0 1-1.3 1-2.8l-2 0C90.7 170.8 91.1 172.1 91.7 172.1z"/>
      <path fill="#380404" d="M95 172.1c0.5 0 1-1.3 1-2.8l-2 0C94 170.9 94.4 172.1 95 172.1z"/>
      <path fill="#380404" d="M98.3 172.2c0.5 0 1-1.3 1-2.8l-2 0C97.3 170.9 97.8 172.2 98.3 172.2z"/>
      <path fill="#380404" d="M96.6 172.2c0.5 0 1-1.3 1-2.8l-2 0C95.7 170.9 96.1 172.2 96.6 172.2z"/>
      <path fill="#230303" d="M80.7 170.4c0.5 0 0.9-1.1 0.9-2.4l-1.8 0C79.7 169.3 80.1 170.4 80.7 170.4z"/>
      <path fill="#230303" d="M83.8 170.4c0.5 0 0.9-1.1 0.9-2.4l-1.8 0C82.9 169.3 83.3 170.4 83.8 170.4z"/>
      <path fill="#230303" d="M82.2 170.4c0.5 0 0.9-1.1 1-2.4l-1.8 0C81.3 169.3 81.7 170.4 82.2 170.4z"/>
      <path fill="#230303" d="M85.3 170.4c0.5 0 0.9-1.1 0.9-2.4l-1.8 0C84.4 169.3 84.8 170.4 85.3 170.4z"/>
      <path fill="#230303" d="M88.4 170.5c0.5 0 0.9-1.1 0.9-2.4l-1.8 0C87.5 169.4 87.9 170.5 88.4 170.5z"/>
      <path fill="#230303" d="M86.9 170.4c0.5 0 0.9-1.1 1-2.4l-1.8 0C86 169.3 86.4 170.4 86.9 170.4z"/>
      <path fill="#230303" d="M90 170.5c0.5 0 0.9-1.1 1-2.4l-1.8 0C89.1 169.4 89.5 170.5 90 170.5z"/>
      <path fill="#230303" d="M93.1 170.5c0.5 0 0.9-1.1 0.9-2.4l-1.8 0C92.2 169.4 92.6 170.5 93.1 170.5z"/>
      <path fill="#230303" d="M91.6 170.5c0.5 0 0.9-1.1 1-2.4l-1.8 0C90.6 169.4 91 170.5 91.6 170.5z"/>
      <path fill="#230303" d="M94.7 170.5c0.5 0 0.9-1.1 1-2.4l-1.8 0C93.8 169.4 94.2 170.5 94.7 170.5z"/>
      <path fill="#230303" d="M97.8 170.6c0.5 0 0.9-1.1 0.9-2.4l-1.8 0C96.9 169.5 97.3 170.6 97.8 170.6z"/>
      <path fill="#230303" d="M96.2 170.5c0.5 0 0.9-1.1 0.9-2.4l-1.8 0C95.3 169.5 95.7 170.5 96.2 170.5z"/>
      <path fill="#380404" d="M81.2 169.2c0.5 0 0.9-1.1 0.9-2.5l-1.7 0C80.4 168 80.7 169.2 81.2 169.2z"/>
      <path fill="#380404" d="M84.1 169.2c0.5 0 0.9-1.1 0.9-2.5l-1.7 0C83.3 168.1 83.7 169.2 84.1 169.2z"/>
      <path fill="#380404" d="M82.7 169.2c0.5 0 0.9-1.1 0.9-2.5l-1.7 0C81.8 168.1 82.2 169.2 82.7 169.2z"/>
      <path fill="#380404" d="M85.6 169.2c0.5 0 0.9-1.1 0.9-2.5l-1.7 0C84.7 168.1 85.1 169.2 85.6 169.2z"/>
      <path fill="#380404" d="M88.5 169.2c0.5 0 0.9-1.1 0.9-2.5l-1.7 0C87.7 168.1 88 169.2 88.5 169.2z"/>
      <path fill="#380404" d="M87 169.2c0.5 0 0.9-1.1 0.9-2.5l-1.7 0C86.2 168.1 86.6 169.2 87 169.2z"/>
      <path fill="#380404" d="M90 169.3c0.5 0 0.9-1.1 0.9-2.5l-1.7 0C89.1 168.1 89.5 169.3 90 169.3z"/>
      <path fill="#380404" d="M92.9 169.3c0.5 0 0.9-1.1 0.9-2.5l-1.7 0C92 168.2 92.4 169.3 92.9 169.3z"/>
      <path fill="#380404" d="M91.4 169.3c0.5 0 0.9-1.1 0.9-2.5l-1.7 0C90.6 168.2 90.9 169.3 91.4 169.3z"/>
      <path fill="#380404" d="M94.3 169.3c0.5 0 0.9-1.1 0.9-2.5l-1.7 0C93.5 168.2 93.9 169.3 94.3 169.3z"/>
      <path fill="#380404" d="M97.2 169.4c0.5 0 0.9-1.1 0.9-2.5l-1.7 0C96.4 168.2 96.8 169.3 97.2 169.4z"/>
      <path fill="#380404" d="M95.8 169.3c0.5 0 0.9-1.1 0.9-2.5l-1.7 0C94.9 168.2 95.3 169.3 95.8 169.3z"/>
      <path fill="#230303" d="M81.7 167.7c0.4 0 0.8-0.9 0.8-2.1l-1.6 0C80.9 166.8 81.3 167.7 81.7 167.7z"/>
      <path fill="#230303" d="M84.4 167.8c0.4 0 0.8-0.9 0.8-2.1l-1.6 0C83.6 166.8 84 167.8 84.4 167.8z"/>
      <path fill="#230303" d="M83.1 167.8c0.5 0 0.8-0.9 0.8-2.1l-1.6 0C82.3 166.8 82.6 167.8 83.1 167.8z"/>
      <path fill="#230303" d="M85.8 167.8c0.5 0 0.8-0.9 0.8-2.1l-1.6 0C85 166.8 85.4 167.8 85.8 167.8z"/>
      <path fill="#230303" d="M88.6 167.8c0.4 0 0.8-0.9 0.8-2.1l-1.6 0C87.8 166.9 88.1 167.8 88.6 167.8z"/>
      <path fill="#230303" d="M87.2 167.8c0.4 0 0.8-0.9 0.8-2.1l-1.6 0C86.4 166.9 86.7 167.8 87.2 167.8z"/>
      <path fill="#230303" d="M89.9 167.8c0.5 0 0.8-0.9 0.8-2.1l-1.6 0C89.1 166.9 89.5 167.8 89.9 167.8z"/>
      <path fill="#230303" d="M92.7 167.9c0.4 0 0.8-0.9 0.8-2.1l-1.6 0C91.9 166.9 92.2 167.9 92.7 167.9z"/>
      <path fill="#230303" d="M91.3 167.9c0.4 0 0.8-0.9 0.8-2.1l-1.6 0C90.5 166.9 90.9 167.9 91.3 167.9z"/>
      <path fill="#230303" d="M94 167.9c0.4 0 0.8-0.9 0.8-2.1l-1.6 0C93.2 166.9 93.6 167.9 94 167.9z"/>
      <path fill="#230303" d="M96.8 167.9c0.5 0 0.8-0.9 0.8-2.1l-1.6 0C96 167 96.3 167.9 96.8 167.9z"/>
      <path fill="#230303" d="M95.4 167.9c0.4 0 0.8-0.9 0.8-2.1l-1.6 0C94.6 166.9 95 167.9 95.4 167.9z"/>
      <path fill="#380404" d="M83.7 166.4c0.3 0 0.6-0.8 0.6-1.7l-1.2 0C83.1 165.6 83.3 166.4 83.7 166.4z"/>
      <path fill="#380404" d="M85.7 166.4c0.3 0 0.6-0.8 0.6-1.7l-1.2 0C85.1 165.6 85.4 166.4 85.7 166.4z"/>
      <path fill="#380404" d="M84.7 166.4c0.3 0 0.6-0.8 0.6-1.7l-1.2 0C84.1 165.6 84.3 166.4 84.7 166.4z"/>
      <path fill="#380404" d="M86.7 166.4c0.3 0 0.6-0.8 0.6-1.7l-1.2 0C86.1 165.6 86.4 166.4 86.7 166.4z"/>
      <path fill="#380404" d="M88.8 166.4c0.3 0 0.6-0.8 0.6-1.7l-1.2 0C88.2 165.6 88.4 166.4 88.8 166.4z"/>
      <path fill="#380404" d="M87.7 166.4c0.3 0 0.6-0.8 0.6-1.7l-1.2 0C87.1 165.6 87.4 166.4 87.7 166.4z"/>
      <path fill="#380404" d="M89.8 166.4c0.3 0 0.6-0.8 0.6-1.7l-1.2 0C89.2 165.7 89.4 166.4 89.8 166.4z"/>
      <path fill="#380404" d="M91.8 166.5c0.3 0 0.6-0.8 0.6-1.7l-1.2 0C91.2 165.7 91.5 166.5 91.8 166.5z"/>
      <path fill="#380404" d="M90.8 166.5c0.3 0 0.6-0.8 0.6-1.7l-1.2 0C90.2 165.7 90.5 166.5 90.8 166.5z"/>
      <path fill="#380404" d="M92.8 166.5c0.3 0 0.6-0.8 0.6-1.7l-1.2 0C92.2 165.7 92.5 166.5 92.8 166.5z"/>
      <path fill="#380404" d="M94.9 166.5c0.3 0 0.6-0.8 0.6-1.7l-1.2 0C94.3 165.7 94.5 166.5 94.9 166.5z"/>
      <path fill="#380404" d="M93.9 166.5c0.3 0 0.6-0.8 0.6-1.7l-1.2 0C93.3 165.7 93.5 166.5 93.9 166.5z"/>
      <path fill="#230303" d="M84 165.4c0.3 0 0.6-0.7 0.6-1.5l-1.1 0C83.4 164.7 83.7 165.4 84 165.4z"/>
      <path fill="#230303" d="M85.9 165.4c0.3 0 0.6-0.7 0.6-1.5l-1.1 0C85.4 164.7 85.6 165.4 85.9 165.4z"/>
      <path fill="#230303" d="M85 165.4c0.3 0 0.6-0.7 0.6-1.5l-1.1 0C84.4 164.7 84.6 165.4 85 165.4z"/>
      <path fill="#230303" d="M86.9 165.4c0.3 0 0.6-0.7 0.6-1.5l-1.1 0C86.3 164.7 86.6 165.4 86.9 165.4z"/>
      <path fill="#230303" d="M88.8 165.4c0.3 0 0.6-0.7 0.6-1.5l-1.1 0C88.2 164.8 88.5 165.4 88.8 165.4z"/>
      <path fill="#230303" d="M87.8 165.4c0.3 0 0.6-0.7 0.6-1.5l-1.1 0C87.3 164.8 87.5 165.4 87.8 165.4z"/>
      <path fill="#230303" d="M89.8 165.5c0.3 0 0.6-0.7 0.6-1.5l-1.1 0C89.2 164.8 89.4 165.4 89.8 165.5z"/>
      <path fill="#230303" d="M91.7 165.5c0.3 0 0.6-0.7 0.6-1.5l-1.1 0C91.1 164.8 91.4 165.5 91.7 165.5z"/>
      <path fill="#230303" d="M90.7 165.5c0.3 0 0.6-0.7 0.6-1.5l-1.1 0C90.2 164.8 90.4 165.5 90.7 165.5z"/>
      <path fill="#230303" d="M92.6 165.5c0.3 0 0.6-0.7 0.6-1.5l-1.1 0C92.1 164.8 92.3 165.5 92.6 165.5z"/>
      <path fill="#230303" d="M94.6 165.5c0.3 0 0.6-0.7 0.6-1.5l-1.1 0C94 164.8 94.2 165.5 94.6 165.5z"/>
      <path fill="#230303" d="M93.6 165.5c0.3 0 0.6-0.7 0.6-1.5l-1.1 0C93 164.8 93.3 165.5 93.6 165.5z"/>
      <path fill="#380404" d="M85.4 164.5c0.2 0 0.4-0.5 0.4-1.2l-0.8 0C84.9 164 85.1 164.5 85.4 164.5z"/>
      <path fill="#380404" d="M86.8 164.5c0.2 0 0.4-0.5 0.4-1.2l-0.8 0C86.4 164 86.6 164.5 86.8 164.5z"/>
      <path fill="#380404" d="M86.1 164.5c0.2 0 0.4-0.5 0.4-1.2l-0.8 0C85.7 164 85.8 164.5 86.1 164.5z"/>
      <path fill="#380404" d="M87.5 164.6c0.2 0 0.4-0.5 0.4-1.2l-0.8 0C87.1 164 87.3 164.6 87.5 164.6z"/>
      <path fill="#380404" d="M88.9 164.6c0.2 0 0.4-0.5 0.4-1.2l-0.8 0C88.5 164 88.7 164.6 88.9 164.6z"/>
      <path fill="#380404" d="M88.2 164.6c0.2 0 0.4-0.5 0.4-1.2l-0.8 0C87.8 164 88 164.6 88.2 164.6z"/>
      <path fill="#380404" d="M89.6 164.6c0.2 0 0.4-0.5 0.4-1.2l-0.8 0C89.2 164 89.4 164.6 89.6 164.6z"/>
      <path fill="#380404" d="M91.1 164.6c0.2 0 0.4-0.5 0.4-1.2l-0.8 0C90.7 164 90.8 164.6 91.1 164.6z"/>
      <path fill="#380404" d="M90.4 164.6c0.2 0 0.4-0.5 0.4-1.2l-0.8 0C89.9 164 90.1 164.6 90.4 164.6z"/>
      <path fill="#380404" d="M91.8 164.6c0.2 0 0.4-0.5 0.4-1.2l-0.8 0C91.4 164.1 91.5 164.6 91.8 164.6z"/>
      <path fill="#380404" d="M93.2 164.6c0.2 0 0.4-0.5 0.4-1.2l-0.8 0C92.8 164.1 93 164.6 93.2 164.6z"/>
      <path fill="#380404" d="M92.5 164.6c0.2 0 0.4-0.5 0.4-1.2l-0.8 0C92.1 164.1 92.3 164.6 92.5 164.6z"/>
      <path fill="#230303" d="M85.6 163.8c0.2 0 0.4-0.5 0.4-1l-0.8 0C85.2 163.4 85.4 163.8 85.6 163.8z"/>
      <path fill="#230303" d="M86.9 163.9c0.2 0 0.4-0.5 0.4-1l-0.8 0C86.6 163.4 86.7 163.9 86.9 163.9z"/>
      <path fill="#230303" d="M86.3 163.8c0.2 0 0.4-0.5 0.4-1l-0.8 0C85.9 163.4 86.1 163.8 86.3 163.8z"/>
      <path fill="#230303" d="M87.6 163.9c0.2 0 0.4-0.5 0.4-1l-0.8 0C87.2 163.4 87.4 163.9 87.6 163.9z"/>
      <path fill="#230303" d="M89 163.9c0.2 0 0.4-0.5 0.4-1l-0.8 0C88.6 163.4 88.7 163.9 89 163.9z"/>
      <path fill="#230303" d="M88.3 163.9c0.2 0 0.4-0.5 0.4-1l-0.8 0C87.9 163.4 88.1 163.9 88.3 163.9z"/>
      <path fill="#230303" d="M89.6 163.9c0.2 0 0.4-0.5 0.4-1l-0.8 0C89.2 163.4 89.4 163.9 89.6 163.9z"/>
      <path fill="#230303" d="M91 163.9c0.2 0 0.4-0.5 0.4-1l-0.8 0C90.6 163.4 90.8 163.9 91 163.9z"/>
      <path fill="#230303" d="M90.3 163.9c0.2 0 0.4-0.5 0.4-1l-0.8 0C89.9 163.4 90.1 163.9 90.3 163.9z"/>
      <path fill="#230303" d="M91.6 163.9c0.2 0 0.4-0.5 0.4-1l-0.8 0C91.3 163.4 91.4 163.9 91.6 163.9z"/>
      <path fill="#230303" d="M93 163.9c0.2 0 0.4-0.5 0.4-1l-0.8 0C92.6 163.4 92.8 163.9 93 163.9z"/>
      <path fill="#230303" d="M92.3 163.9c0.2 0 0.4-0.5 0.4-1l-0.8 0C91.9 163.4 92.1 163.9 92.3 163.9z"/>
      <path fill="#380404" d="M86.6 163.2c0.2 0 0.3-0.4 0.3-0.8l-0.6 0C86.3 162.8 86.4 163.2 86.6 163.2z"/>
      <path fill="#380404" d="M87.6 163.2c0.2 0 0.3-0.4 0.3-0.8l-0.6 0C87.3 162.8 87.4 163.2 87.6 163.2z"/>
      <path fill="#380404" d="M87.1 163.2c0.2 0 0.3-0.4 0.3-0.8l-0.6 0C86.8 162.8 86.9 163.2 87.1 163.2z"/>
      <path fill="#380404" d="M88.1 163.2c0.2 0 0.3-0.4 0.3-0.8l-0.6 0C87.8 162.8 87.9 163.2 88.1 163.2z"/>
      <path fill="#380404" d="M89.1 163.2c0.2 0 0.3-0.4 0.3-0.8l-0.6 0C88.8 162.8 88.9 163.2 89.1 163.2z"/>
      <path fill="#380404" d="M88.6 163.2c0.2 0 0.3-0.4 0.3-0.8l-0.6 0C88.3 162.8 88.4 163.2 88.6 163.2z"/>
      <path fill="#380404" d="M89.5 163.2c0.2 0 0.3-0.4 0.3-0.8l-0.6 0C89.3 162.8 89.4 163.2 89.5 163.2z"/>
      <path fill="#380404" d="M90.6 163.2c0.2 0 0.3-0.4 0.3-0.8l-0.6 0C90.3 162.8 90.4 163.2 90.6 163.2z"/>
      <path fill="#380404" d="M90 163.2c0.2 0 0.3-0.4 0.3-0.8l-0.6 0C89.8 162.8 89.9 163.2 90 163.2z"/>
      <path fill="#380404" d="M91 163.2c0.2 0 0.3-0.4 0.3-0.8l-0.6 0C90.8 162.8 90.9 163.2 91 163.2z"/>
      <path fill="#380404" d="M92 163.2c0.2 0 0.3-0.4 0.3-0.8l-0.6 0C91.8 162.9 91.9 163.2 92 163.2z"/>
      <path fill="#380404" d="M91.5 163.2c0.2 0 0.3-0.4 0.3-0.8l-0.6 0C91.3 162.8 91.4 163.2 91.5 163.2z"/>
      <path fill="#230303" d="M86.7 162.7c0.2 0 0.3-0.3 0.3-0.7l-0.6 0C86.5 162.4 86.6 162.7 86.7 162.7z"/>
      <path fill="#230303" d="M87.7 162.7c0.2 0 0.3-0.3 0.3-0.7l-0.6 0C87.4 162.4 87.5 162.7 87.7 162.7z"/>
      <path fill="#230303" d="M87.2 162.7c0.2 0 0.3-0.3 0.3-0.7l-0.6 0C86.9 162.4 87 162.7 87.2 162.7z"/>
      <path fill="#230303" d="M88.1 162.7c0.2 0 0.3-0.3 0.3-0.7l-0.6 0C87.9 162.4 88 162.7 88.1 162.7z"/>
      <path fill="#230303" d="M89.1 162.7c0.2 0 0.3-0.3 0.3-0.7l-0.6 0C88.8 162.4 88.9 162.7 89.1 162.7z"/>
      <path fill="#230303" d="M88.6 162.7c0.2 0 0.3-0.3 0.3-0.7l-0.6 0C88.3 162.4 88.5 162.7 88.6 162.7z"/>
      <path fill="#230303" d="M89.5 162.7c0.2 0 0.3-0.3 0.3-0.7l-0.6 0C89.3 162.4 89.4 162.7 89.5 162.7z"/>
      <path fill="#230303" d="M90.5 162.7c0.2 0 0.3-0.3 0.3-0.7l-0.6 0C90.2 162.4 90.3 162.7 90.5 162.7z"/>
      <path fill="#230303" d="M90 162.7c0.2 0 0.3-0.3 0.3-0.7l-0.6 0C89.7 162.4 89.9 162.7 90 162.7z"/>
      <path fill="#230303" d="M91 162.7c0.2 0 0.3-0.3 0.3-0.7l-0.6 0C90.7 162.4 90.8 162.7 91 162.7z"/>
      <path fill="#230303" d="M91.9 162.8c0.2 0 0.3-0.3 0.3-0.7l-0.6 0C91.6 162.4 91.7 162.8 91.9 162.8z"/>
      <path fill="#230303" d="M91.4 162.7c0.2 0 0.3-0.3 0.3-0.7l-0.6 0C91.1 162.4 91.3 162.7 91.4 162.7z"/>
      <path fill="#380404" d="M86.6 162.2c0.2 0 0.3-0.4 0.3-0.8l-0.6 0C86.3 161.8 86.4 162.2 86.6 162.2z"/>
      <path fill="#380404" d="M87.6 162.2c0.2 0 0.3-0.4 0.3-0.8l-0.6 0C87.3 161.8 87.4 162.2 87.6 162.2z"/>
      <path fill="#380404" d="M87.1 162.2c0.2 0 0.3-0.4 0.3-0.8l-0.6 0C86.8 161.8 86.9 162.2 87.1 162.2z"/>
      <path fill="#380404" d="M88.1 162.2c0.2 0 0.3-0.4 0.3-0.8l-0.6 0C87.8 161.8 87.9 162.2 88.1 162.2z"/>
      <path fill="#380404" d="M89.1 162.2c0.2 0 0.3-0.4 0.3-0.8l-0.6 0C88.8 161.8 88.9 162.2 89.1 162.2z"/>
      <path fill="#380404" d="M88.6 162.2c0.2 0 0.3-0.4 0.3-0.8l-0.6 0C88.3 161.8 88.4 162.2 88.6 162.2z"/>
      <path fill="#380404" d="M89.6 162.2c0.2 0 0.3-0.4 0.3-0.8l-0.6 0C89.3 161.8 89.4 162.2 89.6 162.2z"/>
      <path fill="#380404" d="M90.6 162.2c0.2 0 0.3-0.4 0.3-0.8l-0.6 0C90.3 161.8 90.4 162.2 90.6 162.2z"/>
      <path fill="#380404" d="M90.1 162.2c0.2 0 0.3-0.4 0.3-0.8l-0.6 0C89.8 161.8 89.9 162.2 90.1 162.2z"/>
      <path fill="#380404" d="M91.1 162.2c0.2 0 0.3-0.4 0.3-0.8l-0.6 0C90.8 161.8 90.9 162.2 91.1 162.2z"/>
      <path fill="#380404" d="M92.1 162.2c0.2 0 0.3-0.4 0.3-0.8l-0.6 0C91.8 161.8 91.9 162.2 92.1 162.2z"/>
      <path fill="#380404" d="M91.6 162.2c0.2 0 0.3-0.4 0.3-0.8l-0.6 0C91.3 161.8 91.4 162.2 91.6 162.2z"/>
      <path fill="#230303" d="M86.7 161.7c0.2 0 0.3-0.3 0.3-0.7l-0.6 0C86.5 161.3 86.6 161.7 86.7 161.7z"/>
      <path fill="#230303" d="M87.7 161.7c0.2 0 0.3-0.3 0.3-0.7l-0.6 0C87.4 161.4 87.5 161.7 87.7 161.7z"/>
      <path fill="#230303" d="M87.2 161.7c0.2 0 0.3-0.3 0.3-0.7l-0.6 0C86.9 161.4 87.1 161.7 87.2 161.7z"/>
      <path fill="#230303" d="M88.1 161.7c0.2 0 0.3-0.3 0.3-0.7l-0.6 0C87.9 161.4 88 161.7 88.1 161.7z"/>
      <path fill="#230303" d="M89.1 161.7c0.2 0 0.3-0.3 0.3-0.7l-0.6 0C88.8 161.4 88.9 161.7 89.1 161.7z"/>
      <path fill="#230303" d="M88.6 161.7c0.2 0 0.3-0.3 0.3-0.7l-0.6 0C88.3 161.4 88.5 161.7 88.6 161.7z"/>
      <path fill="#230303" d="M89.6 161.7c0.2 0 0.3-0.3 0.3-0.7l-0.6 0C89.3 161.4 89.4 161.7 89.6 161.7z"/>
      <path fill="#230303" d="M90.5 161.7c0.2 0 0.3-0.3 0.3-0.7l-0.6 0C90.2 161.4 90.3 161.7 90.5 161.7z"/>
      <path fill="#230303" d="M90 161.7c0.2 0 0.3-0.3 0.3-0.7l-0.6 0C89.7 161.4 89.9 161.7 90 161.7z"/>
      <path fill="#230303" d="M91 161.7c0.2 0 0.3-0.3 0.3-0.7l-0.6 0C90.7 161.4 90.8 161.7 91 161.7z"/>
      <path fill="#230303" d="M91.9 161.7c0.2 0 0.3-0.3 0.3-0.7l-0.6 0C91.6 161.4 91.7 161.7 91.9 161.7z"/>
      <path fill="#230303" d="M91.4 161.7c0.2 0 0.3-0.3 0.3-0.7l-0.6 0C91.2 161.4 91.3 161.7 91.4 161.7z"/>
    </g>
    <path fill="#191817" d="M138.8 217.1l-100-1.2 50.7-59.5L138.8 217.1zM41.5 214.6l94.4 1.1 -46.6-57.2L41.5 214.6z"/>
  </g>
  <path fill="#C8C9C6" d="M498.2 298.9l-11.9-63.1 -0.4 3.5 -3.2-10.4 1 8.4 -3.2-4.9 -2.6 10.9 -1.1-14.6c0 0-3.5 10.8-3.4 10.3 0.1-0.4-0.2-9-0.3-14.2l-19.6 72.3L498.2 298.9z"/>
  <path fill="#FFFFFF" d="M473.4 239c-0.2 0.5 3.4-10.3 3.4-10.3l1.1 14.6 2.6-10.9 3.2 4.9 -1-8.4 3.2 10.4 0.4-3.5 -6.7-35.2 -6.6 24.3C473.2 230 473.5 238.6 473.4 239z"/>
  <path fill="#C8C9C6" d="M425.5 296.8l-16.2-62.1 -0.1 3.5 -3.9-10.1 1.5 8.3 -3.6-4.7 -1.8 11 -2.1-14.4c0 0-2.8 11.1-2.7 10.5 0.1-0.4-0.8-9-1.3-14.1l-14.6 73.5L425.5 296.8z"/>
  <path fill="#FFFFFF" d="M396.7 238.8c-0.1 0.5 2.7-10.5 2.7-10.5l2.1 14.4 1.8-11 3.6 4.7 -1.5-8.3 3.9 10.1 0.1-3.5 -9-34.7 -4.9 24.7C395.9 229.8 396.8 238.4 396.7 238.8z"/>
  <path fill="#C8C9C6" d="M463.2 295.6l-16.3-42.1 -0.3 2.4 -4.1-6.9 1.4 5.6 -3.9-3.3 -2.5 7.4 -1.9-9.7c0 0-3.7 7.3-3.5 7 0.1-0.2-0.5-6-0.9-9.5l-19.8 48.9L463.2 295.6z"/>
  <path fill="#FFFFFF" d="M432.1 255.8c-0.2 0.4 3.5-7 3.5-7l1.9 9.7 2.5-7.4 3.9 3.3 -1.4-5.6 4.1 6.9 0.3-2.4 -9.1-23.5 -6.6 16.4C431.5 249.8 432.2 255.6 432.1 255.8z"/>
  <polygon fill="none" stroke="#011101" stroke-width="0.71" stroke-miterlimit="10" points="501.2 298.6 489.3 235.5 482.6 200.3 476.1 224.6 460.7 281.2 449.9 253.2 440.8 229.6 434.1 246.1 422.7 274.2 412.4 234.4 403.3 199.7 398.4 224.4 383.8 297.9 428.5 296.5 428.2 295.1 456.9 295.2 456.5 296.9 "/>
  <polygon fill="#F6ECDE" points="1175 251 1175.6 218.6 1108.2 217.2 1106.5 297.9 1171.8 299.3 1174 299.3 1225.2 300.4 1226.2 252.1 "/>
  <rect x="1178.4" y="259.5" transform="matrix(-0.9998 -2.063024e-02 2.063024e-02 -0.9998 2393.2502 584.0089)" fill="#7B5D58" width="42.4" height="40.4"/>
  <rect x="1179.8" y="257.1" transform="matrix(-0.9998 -2.062976e-02 2.062976e-02 -0.9998 2396.0879 579.3251)" fill="none" stroke="#011101" stroke-width="0.71" stroke-miterlimit="10" width="42.4" height="40.4"/>
  <polygon fill="#83CCBD" points="1168.2 249.9 1153.5 249.6 1154 226 1168.7 226.3 "/>
  <rect x="1118.1" y="225.4" transform="matrix(0.9998 2.040787e-02 -2.040787e-02 0.9998 5.0758 -22.919)" fill="#83CCBD" width="14.7" height="23.6"/>
  <rect x="1153" y="265.2" transform="matrix(0.9998 2.066177e-02 -2.066177e-02 0.9998 5.8499 -23.9184)" fill="#83CCBD" width="14.7" height="11.8"/>
  <rect x="1117.4" y="264.5" transform="matrix(0.9998 2.066687e-02 -2.066687e-02 0.9998 5.8287 -23.1881)" fill="#83CCBD" width="14.7" height="11.8"/>
  <polygon fill="none" stroke="#011101" stroke-width="0.71" stroke-miterlimit="10" points="1169.5 249.2 1154.8 248.9 1155.3 225.3 1170 225.6 "/>
  <rect x="1119.4" y="224.7" transform="matrix(0.9998 2.040787e-02 -2.040787e-02 0.9998 5.0612 -22.9453)" fill="none" stroke="#011101" stroke-width="0.71" stroke-miterlimit="10" width="14.7" height="23.6"/>
  <rect x="1154.3" y="264.5" transform="matrix(0.9998 2.066161e-02 -2.066161e-02 0.9998 5.8351 -23.9449)" fill="none" stroke="#011101" stroke-width="0.71" stroke-miterlimit="10" width="14.7" height="11.8"/>
  <rect x="1118.7" y="263.8" transform="matrix(0.9998 2.057892e-02 -2.057892e-02 0.9998 5.7881 -23.1162)" fill="none" stroke="#011101" stroke-width="0.71" stroke-miterlimit="10" width="14.7" height="11.8"/>
  <polygon fill="#1B0D06" points="1100.6 217.1 1184.1 218.8 1142.8 197.8 "/>
  <polygon fill="none" stroke="#011101" stroke-width="0.71" stroke-miterlimit="10" points="1229.2 249.7 1177.9 248.7 1178.6 216.2 1187.1 216.4 1145.7 195.4 1103.5 214.7 1111.2 214.8 1109.5 295.6 1174.7 296.9 1177 296.9 1181 297 1181 297 1198.8 297.4 1228.2 298 "/>
  <polygon fill="#EFE4D0" points="353.4 267.7 354.4 244.1 328.8 243 326.5 298.3 349.7 299.3 352 299.4 386.3 300.9 387.6 269.2 "/>
  <rect x="333.4" y="248.4" transform="matrix(0.9991 4.255238e-02 -4.255238e-02 0.9991 11.2298 -14.2604)" fill="#6BC6B3" width="14.3" height="16.5"/>
  <rect x="332.1" y="274.8" transform="matrix(0.9991 4.255269e-02 -4.255269e-02 0.9991 12.5128 -14.1784)" fill="#6C524B" width="14.3" height="24"/>
  <rect x="356.9" y="276.1" transform="matrix(0.9991 4.256066e-02 -4.256066e-02 0.9991 12.5996 -15.5003)" fill="#764E4D" width="26.9" height="24"/>
  <rect x="283" y="242.1" transform="matrix(-0.9991 -4.256551e-02 4.256551e-02 -0.9991 598.9437 552.2001)" fill="#EDCA87" width="44.6" height="55.3"/>
  <rect x="289.1" y="246.5" transform="matrix(0.9991 4.254569e-02 -4.254569e-02 0.9991 11.1076 -12.3746)" fill="#6BC6B3" width="14.3" height="16.5"/>
  <rect x="309.2" y="247.4" transform="matrix(0.9991 4.253599e-02 -4.253599e-02 0.9991 11.1594 -13.2233)" fill="#6BC6B3" width="14.3" height="16.5"/>
  <rect x="288.3" y="269.3" transform="matrix(0.9991 4.262280e-02 -4.262280e-02 0.9991 11.9746 -12.3424)" fill="#6BC6B3" width="14.3" height="10.7"/>
  <rect x="308.3" y="270.2" transform="matrix(0.9991 4.261585e-02 -4.261585e-02 0.9991 12.0271 -13.1935)" fill="#6BC6B3" width="14.3" height="10.7"/>
  <polygon fill="#230A11" points="281.4 241 357.7 244.3 320.1 229.6 "/>
  <polygon fill="#230A11" points="353.4 267.7 390.9 269.3 371.7 255.3 "/>
</svg>
