
<svg version="1.1" id="Objects" xmlns="http://www.w3.org/2000/svg" xmlns:xlink="http://www.w3.org/1999/xlink" x="0px" y="0px"
	 viewBox="0 335 724.6 168.5" enable-background="new 0 335 724.6 168.5" xml:space="preserve">
<linearGradient id="plane_1_" gradientUnits="userSpaceOnUse" x1="24.2" y1="740.7401" x2="628.4" y2="740.7401" gradientTransform="matrix(0.7994 0 0 -0.7994 0 1000.9893)">
	<stop  offset="0" style="stop-color:#FFBA66"/>
	<stop  offset="1" style="stop-color:#CC3333"/>
</linearGradient>
<path id="plane" fill="url(#plane_1_)" d="M502.3,411.3l-314.1,36.9l0,0 M186.2,373.7l-59,34.8c-7.9-0.9-32-3.7-38.6-4.8
	c-8.1-1.4-13.2-1.8-13.2-1.8l-6.6-42.5l-2.3-1.6l-0.9-8.9h1.7c0,0-1.2-7-2.6-7.8c-1.4-0.8-13.7-0.6-14.5,0.6c-0.6,1-2.3,37.6-3,52.4
	c-1.2-0.2-2.8-0.4-4.2-0.4c-2.5,0-4.5,0.1-4.5,1.4s2.5,2.2,3.9,2.2c1.4,0,2.9,0,2.9,0l1.7,1.7c0,0.9-0.1,1.4-0.1,1.4
	s-14.4-0.2-18.1-0.3c-2.2-0.1-2.6,3-2.6,5.5c-0.2-0.2-0.5-0.2-0.8-0.2c0.3-3.4,0.6-8.6-0.6-9.4c-1.8-1.2-2.6-0.1-4.2,2.2
	c-1,1.7,0.7,6.4,1.8,8.9c-0.2,0.2-0.4,0.3-0.6,0.6c-0.2-0.2-0.3-0.2-0.6-0.2c-0.4,0-0.7,0.2-0.9,0.6c-0.1-0.1-0.2-0.1-0.3-0.1
	c-0.3,0-0.6,0.2-0.6,0.6v0.9c0,0.3,0.2,0.6,0.6,0.6c0.1,0,0.2,0,0.3-0.1c0.2,0.3,0.5,0.6,0.9,0.6c0.2,0,0.4-0.1,0.6-0.2
	c0.1,0.2,0.3,0.4,0.6,0.6c-1,2.5-2.9,7.2-1.8,8.9c1.4,2.3,2.3,3.4,4.2,2.2c1.2-0.8,0.9-6,0.6-9.4c0.3,0,0.6-0.1,0.8-0.2
	c0,2.6,0.4,5.5,2.6,5.5c3.8-0.2,18.1-0.3,18.1-0.3s0,0.5,0.1,1.4l-1.7,1.7c0,0-1.4,0-2.9,0c-1.4,0-3.9,0.9-3.9,2.2
	c0,1.3,2.1,1.4,4.5,1.4c1.4,0,3-0.2,4.2-0.4c0.6,14.8,2.4,51.3,3,52.4c0.8,1.3,13.1,1.4,14.5,0.6c1.4-0.8,2.6-7.8,2.6-7.8h-1.7
	l0.9-8.9l2.3-1.6l6.6-42.5c0,0,5.2-0.5,13.2-1.8c6.8-1.2,31.7-4,39.1-4.9l58.5,36.6 M129.9,408.7l56.3-33.2v68.3L129.9,408.7z
	 M125.3,410.5c0.9,0.5,1.8,0.8,1.8,0.8l-1.6,24.1h-10l-3.8-23.3C116.9,411.5,121.8,410.9,125.3,410.5z M125.3,407.1
	c-3.4-0.4-8.4-1-13.6-1.6l3.8-23.3h10l1.6,24.1C127,406.3,126.1,406.6,125.3,407.1z"/>
<g id="banner">
	
		<linearGradient id="SVGID_1_" gradientUnits="userSpaceOnUse" x1="460.8262" y1="687.5339" x2="-149.3929" y2="687.5339" gradientTransform="matrix(-0.8151 0 0 -0.7994 597.2711 1000.9893)">
		<stop  offset="0.13" style="stop-color:#FAAC18"/>
		<stop  offset="0.5" style="stop-color:#FFCA05"/>
		<stop  offset="1" style="stop-color:#FFE7A3"/>
	</linearGradient>
	<polygon fill="url(#SVGID_1_)" points="668,497.7 719,405.7 221.7,405.1 264.7,497.6 	"/>
	
		<linearGradient id="SVGID_2_" gradientUnits="userSpaceOnUse" x1="373.237" y1="647.936" x2="411.1519" y2="713.5998" gradientTransform="matrix(-0.8151 0 0 -0.7994 597.2711 1000.9893)">
		<stop  offset="0" style="stop-color:#FFE7A3"/>
		<stop  offset="0.5" style="stop-color:#FFCA05"/>
		<stop  offset="1" style="stop-color:#FAAC18"/>
	</linearGradient>
	<polygon fill="url(#SVGID_2_)" points="308.6,445.4 238.1,444.2 264.7,499.1 	"/>
	
		<linearGradient id="SVGID_3_" gradientUnits="userSpaceOnUse" x1="291.9661" y1="740.24" x2="470.1557" y2="740.24" gradientTransform="matrix(-0.8151 0 0 -0.7994 546.6135 1000.9893)">
		<stop  offset="0" style="stop-color:#FFE7A3"/>
		<stop  offset="0.5" style="stop-color:#FFCA05"/>
		<stop  offset="1" style="stop-color:#FAAC18"/>
	</linearGradient>
	<polyline fill="url(#SVGID_3_)" points="308.6,445.4 291.4,374.1 163.4,372.9 183.4,445.6 308.6,445.4 	"/>
</g>
<g id="startquizconquest">
	<linearGradient id="SVGID_4_" gradientUnits="userSpaceOnUse" x1="309.4863" y1="450.4799" x2="342.0869" y2="450.4799">
		<stop  offset="0" style="stop-color:#FF3333"/>
		<stop  offset="1" style="stop-color:#963333"/>
	</linearGradient>
	<path fill="url(#SVGID_4_)" d="M333.4,434.2h3c2.1,1.5,3.1,3.7,3.1,6.6c0,1-0.2,1.9-0.5,2.8c-1.8-1.9-3.4-3-4.6-3.4
		c-1.2-0.4-2.3-0.6-3.2-0.6c-0.6,0-1,0-1.2,0.1c-0.1,0.1-0.2,0.3-0.3,0.8c-0.1,0.5-0.1,0.9-0.1,1.2c0,0.5,0.1,1.2,0.4,2
		c0.2,0.9,0.6,1.4,1.2,1.6c0.6,0.2,1.2,0.5,2.1,0.7c0.8,0.2,2.1,0.5,3.7,0.7c1.1,0.1,1.9,0.3,2.3,0.4c0.3,0.1,0.7,0.4,1.1,0.8
		c0.4,0.4,0.9,1.3,1.6,2.5c-1.9,7.1-7.5,12.4-17,16.1l-1.9,0.1c-1.9,0-3.9-0.7-6-2.1c-2.1-1.4-4.6-3.8-7.8-7.2l0.2-3.4
		c4.5,1.4,9.5,3.8,15,7c1.4,0.8,2.1,1.2,2.4,1.2c1.4,0,3-0.6,4.9-1.8c1.9-1.2,2.8-2.7,2.8-4.4c0-0.8-0.3-1.3-0.8-1.7
		c-0.5-0.3-1.5-0.6-3-0.9c-2.4-0.4-4.2-1.2-5.3-2.6c-1.2-1.3-1.7-2.7-1.7-4.2c0-1.8,0.9-4.2,2.6-7.2
		C328.4,436.6,330.7,434.8,333.4,434.2z"/>
	<linearGradient id="SVGID_5_" gradientUnits="userSpaceOnUse" x1="343.3486" y1="450.1923" x2="354.834" y2="450.1923">
		<stop  offset="0" style="stop-color:#FF3333"/>
		<stop  offset="1" style="stop-color:#963333"/>
	</linearGradient>
	<path fill="url(#SVGID_5_)" d="M345.3,442.8l0-1.5c0.1,0,0.7-0.1,1.8-0.2c1.7-0.2,3-0.3,3.9-0.5c0,0.2,0,0.4,0,0.6
		c0,0.4,0,1.1-0.1,2c0.4,0,1.2,0.1,2.4,0.1c0.8,0,1.3,0,1.6-0.1c-0.3,2-0.6,3.2-0.6,3.5c-0.8,0.1-2,0.2-3.4,0.3
		c-0.1,1.8-0.1,3.1-0.1,3.7c0,1.1,0.3,1.9,0.8,2.6c0.5,0.6,1.4,1.1,2.6,1.5l-3.2,4.9c-4-1.1-6.1-3.2-6.1-6.3c0-0.5,0.1-1.5,0.3-2.9
		c0.2-1.5,0.3-2.5,0.3-3c-0.6,0-1.2,0.1-1.9,0.2l2-3.4V444L345.3,442.8z"/>
	<linearGradient id="SVGID_6_" gradientUnits="userSpaceOnUse" x1="356.2441" y1="451.5375" x2="372.3682" y2="451.5375">
		<stop  offset="0" style="stop-color:#FF3333"/>
		<stop  offset="1" style="stop-color:#963333"/>
	</linearGradient>
	<path fill="url(#SVGID_6_)" d="M362,443c0.2,0,1.3,0.3,3.4,0.6c1.9,0.3,3.1,0.6,3.7,0.8c0.6,0.2,1.1,0.5,1.7,1
		c0.5,0.5,0.9,1.1,1.2,1.9c0.3,0.8,0.4,1.9,0.4,3.3l-0.1,5.5c0,0.6,0.1,1.4,0.2,2.3c-1.2,0.2-3.3,0.7-6.3,1.6c0.2-1.7,0.3-4,0.3-7
		c-0.2,0.3-0.8,1.1-1.8,2.2c-1,1.1-2.5,2.6-4.3,4.6c-1.4-0.4-2.6-0.8-3.3-1.1c0-0.5-0.1-1.2-0.3-2.2c-0.2-1.5-0.3-2.9-0.3-4.2
		c0-1.8,0.4-3.3,1.1-4.6C358.1,446.5,359.7,444.9,362,443z M362,447.5l0.4,7.3c0.7-0.8,1.4-1.6,2-2.6c0.7-0.9,1.2-1.8,1.7-2.7
		C365.4,448.6,364,447.9,362,447.5z"/>
	<linearGradient id="SVGID_7_" gradientUnits="userSpaceOnUse" x1="375.7266" y1="450.8788" x2="388.6221" y2="450.8788">
		<stop  offset="0" style="stop-color:#FF3333"/>
		<stop  offset="1" style="stop-color:#963333"/>
	</linearGradient>
	<path fill="url(#SVGID_7_)" d="M375.8,448.5l0.1-5.3l5.6,0.5l0.3,4.3c0.3-0.8,0.6-1.7,0.8-2.4c0.2-0.7,0.4-1.2,0.6-1.5
		c0.2-0.3,0.5-0.6,1.1-0.9c0.5-0.3,1.1-0.4,1.7-0.4c0.8,0,1.6,0.2,2.5,0.5l-0.6,2.4c-0.3,1.3-0.7,2.7-1.2,4.2c-1.5-1-2.5-1.5-3-1.7
		c-1,1.3-1.6,2.3-1.8,3c0.1,1.1,0.2,2,0.2,2.6c1.1,0.4,2.1,0.6,3,0.6c-0.5,1.5-1.2,3.1-1.9,4.8c-2.6,0-4.2-0.2-4.7-0.5
		c-0.6-0.3-1.2-0.8-1.9-1.5c-0.7-0.7-1-2.1-1-4.2C375.7,451.6,375.8,450.1,375.8,448.5z"/>
	<linearGradient id="SVGID_8_" gradientUnits="userSpaceOnUse" x1="389.2715" y1="450.1923" x2="400.7568" y2="450.1923">
		<stop  offset="0" style="stop-color:#FF3333"/>
		<stop  offset="1" style="stop-color:#963333"/>
	</linearGradient>
	<path fill="url(#SVGID_8_)" d="M391.3,442.8l0-1.5c0.1,0,0.7-0.1,1.8-0.2c1.7-0.2,3-0.3,3.9-0.5c0,0.2,0,0.4,0,0.6
		c0,0.4,0,1.1-0.1,2c0.4,0,1.2,0.1,2.4,0.1c0.8,0,1.3,0,1.6-0.1c-0.3,2-0.6,3.2-0.6,3.5c-0.8,0.1-2,0.2-3.4,0.3
		c-0.1,1.8-0.1,3.1-0.1,3.7c0,1.1,0.3,1.9,0.8,2.6c0.5,0.6,1.4,1.1,2.6,1.5l-3.2,4.9c-4-1.1-6.1-3.2-6.1-6.3c0-0.5,0.1-1.5,0.3-2.9
		c0.2-1.5,0.3-2.5,0.3-3c-0.6,0-1.2,0.1-1.9,0.2l2-3.4V444L391.3,442.8z"/>
	<linearGradient id="SVGID_9_" gradientUnits="userSpaceOnUse" x1="414.5059" y1="451.2035" x2="453.9717" y2="451.2035">
		<stop  offset="0" style="stop-color:#FF3333"/>
		<stop  offset="1" style="stop-color:#963333"/>
	</linearGradient>
	<path fill="url(#SVGID_9_)" d="M423.1,442.8l-3.2-1.1c8.8-5,16.4-7.6,22.6-7.6c4.1,0,7,0.9,8.8,2.8c1.8,1.9,2.7,4,2.7,6.3
		c0,2.5-0.7,5.2-2.2,8c-1.5,2.9-3.2,5.3-5.4,7.3c1.1,1,2.4,2.4,3.9,4.4l-2.8,4.7c-1.8-1.3-4-2.7-6.6-4.2c-2.7,1.6-5.7,2.8-8.8,3.6
		c-3.2,0.8-5.6,1.2-7.2,1.2c-1.4,0-3.1-0.4-5-1.2c-1.9-0.8-3.3-2-4.1-3.4c-0.9-1.5-1.3-3-1.3-4.6c0-3.8,1.7-7.4,5.1-10.9
		c3.4-3.4,7.8-5.9,13.4-7.4l-0.6,2.5c-3,1.1-5.7,2.6-8.1,4.5c-2.4,1.9-4,3.8-4.9,5.8c2.7,6.2,7,9.3,12.7,9.3c1.6,0,3.5-0.3,5.6-1
		c-3.4-1.4-6.3-2.3-8.9-2.6c1.3-1.3,2.6-2.4,3.8-3.4c1.2-1,2.2-1.8,3-2.3c1.6,0,3.2,0.3,4.5,0.9c1.4,0.6,2.9,1.5,4.3,2.5
		c0.9-2.4,1.3-4.9,1.3-7.3c0-3.7-0.8-6.5-2.5-8.4c-1.7-1.9-3.9-2.8-6.7-2.8C432.5,438.4,428.1,439.8,423.1,442.8z"/>
	<linearGradient id="SVGID_10_" gradientUnits="userSpaceOnUse" x1="456.2168" y1="451.1107" x2="472.6748" y2="451.1107">
		<stop  offset="0" style="stop-color:#FF3333"/>
		<stop  offset="1" style="stop-color:#963333"/>
	</linearGradient>
	<path fill="url(#SVGID_10_)" d="M456.7,444.1c1.5-0.1,3.7-0.6,6.7-1.5c-0.2,0.4-0.3,1.3-0.5,2.5c-0.1,0.8-0.3,1.6-0.4,2.6
		c-0.2,1-0.3,1.9-0.3,2.7c0,0.8,0.2,1.6,0.5,2.3c0.3,0.8,0.8,1.8,1.3,2.8c1.2-0.9,2-1.7,2.5-2.4c0-0.4,0-1.1,0-2.1
		c0-3.5-0.2-6-0.5-7.6c0.5,0.1,0.9,0.1,1.3,0.1c1.5,0,3.3-0.2,5.4-0.5c-0.1,1.9-0.2,4.2-0.2,7c0,1.6,0.1,4.3,0.2,8.1
		c-0.7,0.1-2.1,0.4-4.1,0.8l-2.6,0.5c0.2-1.2,0.3-2.3,0.3-3.2c-1,0.5-2.5,1.5-4.8,3c-1.7-0.4-2.8-0.8-3.3-1.1
		c-0.5-0.3-0.9-0.8-1.4-1.6c-0.4-0.8-0.7-2-0.7-3.6C456.2,449.9,456.4,447,456.7,444.1z"/>
	<linearGradient id="SVGID_11_" gradientUnits="userSpaceOnUse" x1="474.957" y1="447.1307" x2="484.4199" y2="447.1307">
		<stop  offset="0" style="stop-color:#FF3333"/>
		<stop  offset="1" style="stop-color:#963333"/>
	</linearGradient>
	<path fill="url(#SVGID_11_)" d="M475,448.3l0.5-2.3c2.5-0.4,5.3-1.4,8.6-2.9v3.3l-0.1,1.4c0,0.2,0,0.4,0,0.5c0,0.4,0,1,0,1.7
		c0,0.3,0,0.6,0,0.8l0.1,3.3c0,0.7,0.1,2.3,0.3,4.8c-2.5,0.4-4.8,0.8-6.6,1c0.2-1.6,0.3-3.9,0.3-7l-0.1-4.7
		c-0.5,0.2-1.1,0.3-1.7,0.3C475.8,448.4,475.4,448.3,475,448.3z M480.4,434.6c0.9,0,1.7,0.3,2.4,1c0.7,0.6,1,1.5,1,2.4
		c0,0.9-0.3,1.7-1,2.4c-0.7,0.7-1.5,1-2.4,1s-1.7-0.3-2.4-1c-0.7-0.7-1-1.5-1-2.4s0.3-1.7,1-2.4
		C478.7,434.9,479.5,434.6,480.4,434.6z"/>
	<linearGradient id="SVGID_12_" gradientUnits="userSpaceOnUse" x1="487.3516" y1="452.7714" x2="503.1973" y2="452.7714">
		<stop  offset="0" style="stop-color:#FF3333"/>
		<stop  offset="1" style="stop-color:#963333"/>
	</linearGradient>
	<path fill="url(#SVGID_12_)" d="M487.4,450.1l1.4-7.1c1,0.4,2.9,0.6,5.9,0.8l8,0.4l-1.5,4.9c-2.2,0.9-4.5,2.4-6.8,4.6
		c0.9-0.3,1.8-0.4,2.7-0.4c1.4,0,2.9,0.2,4.5,0.6c0.6,1.2,1.2,2.3,1.7,3.5c-0.4,0.8-1.3,2.5-2.8,5.1c-0.6-1.2-1.2-2.2-1.7-3l-2-0.3
		c-2.5-0.3-4.6-0.5-6.2-0.5c-0.9,0-1.8,0.1-3,0.2l6.4-8.9l-1-0.1c-1.2,0-2.2-0.1-2.9-0.1C489.1,449.9,488.2,450,487.4,450.1z"/>
	<linearGradient id="SVGID_13_" gradientUnits="userSpaceOnUse" x1="518.4678" y1="451.3983" x2="551.7363" y2="451.3983">
		<stop  offset="0" style="stop-color:#FF3333"/>
		<stop  offset="1" style="stop-color:#963333"/>
	</linearGradient>
	<path fill="url(#SVGID_13_)" d="M546.1,434.6l1.1,4.1c-0.3,2.3-1,5.5-2.2,9.5c-0.9-2.2-1.9-4.1-2.9-5.9c-2.4-1-4.9-1.5-7.2-1.5
		c-3.9,0-6.9,1.1-9,3.4c-2.2,2.3-3.3,5-3.3,8c0,1.7,0.5,3.1,1.4,4.3c0.9,1.2,2.6,2.3,5.2,3.3c2.6,1,5.8,1.8,9.6,2.3
		c1.3,0.2,2.6,0.3,4,0.4c1.3,0.1,2.8,0.2,4.4,0.3c1.6,0.1,3.1,0.1,4.5,0.1l-3.3,4.3c-4.8,0.9-9.4,1.4-13.7,1.4
		c-5.7,0-9.8-1.1-12.4-3.2c-2.6-2.2-4-4.9-4-8.4c0-3.8,1.1-7.6,3.3-11.2c2.2-3.7,5.1-6.5,8.9-8.6c3.8-2,7.6-3.1,11.3-3.1
		C543.3,434.1,544.6,434.3,546.1,434.6z"/>
	<linearGradient id="SVGID_14_" gradientUnits="userSpaceOnUse" x1="550.9941" y1="451.4633" x2="568.0459" y2="451.4633">
		<stop  offset="0" style="stop-color:#FF3333"/>
		<stop  offset="1" style="stop-color:#963333"/>
	</linearGradient>
	<path fill="url(#SVGID_14_)" d="M565.9,443.5l-1,1.7c0.9,0.3,1.7,0.9,2.3,1.8c0.6,0.9,0.9,2.1,0.9,3.4c0,1.3-0.3,2.5-0.8,3.7
		c-0.5,1.1-1.1,1.9-1.7,2.4c-0.6,0.5-1.6,1.2-3.1,1.9c-0.3,0.1-0.6,0.4-1.1,0.7c-0.4,0.3-0.7,0.5-0.9,0.6c-2.4,0-4.6-0.7-6.6-2
		c-2-1.3-3-3-3-5c0-3.3,2.3-6.4,6.8-9.4c2.1,0.2,3.8,0.3,5.3,0.3C564.1,443.5,565,443.5,565.9,443.5z M557.9,446.5
		c-0.7,1.1-1,2.2-1,3.4c0,3.2,1.6,5.2,4.9,5.9c0.3-1.2,0.5-2.4,0.5-3.6c0-1.9-0.5-3.3-1.4-4.1C560.1,447.2,559.1,446.7,557.9,446.5z
		"/>
	<linearGradient id="SVGID_15_" gradientUnits="userSpaceOnUse" x1="570.2725" y1="451.6581" x2="585.9141" y2="451.6581">
		<stop  offset="0" style="stop-color:#FF3333"/>
		<stop  offset="1" style="stop-color:#963333"/>
	</linearGradient>
	<path fill="url(#SVGID_15_)" d="M574.8,443.5l1.8-0.5v2.4c0.3-0.2,1-0.6,1.9-1.1c0.3-0.2,0.6-0.3,0.9-0.5l1.6-0.9
		c1.2,0.2,2,0.4,2.6,0.6c0.6,0.2,1.1,0.6,1.4,1.1c0.4,0.5,0.6,0.9,0.8,1.4c0.1,0.4,0.2,1.1,0.2,2.1c0,1.2-0.1,2.5-0.3,4.1
		c-0.2,1.7-0.4,3.1-0.4,4.3l-3.4,2.2l-0.5,0.4c-1,0.7-1.8,1.1-2.4,1.4c0.7-3.4,1.1-6.1,1.1-8.1c0-2.3-0.5-4.4-1.5-6.2
		c0,0-0.3,0.3-0.7,0.7l-0.3,0.4l-0.8,0.8l0.1,10.7c-2,0.1-4.1,0.4-6.3,0.9c0-0.6,0-1.1,0-1.3c0-0.8,0-1.2,0-1.4v-0.4
		c0-0.5-0.1-0.9-0.1-1.1V451c0-2.2,0-4.2-0.1-6c0.2,0,0.3-0.1,0.6-0.2c0.2-0.1,0.4-0.1,0.7-0.2c0.3-0.1,0.5-0.2,0.8-0.3L574.8,443.5
		z"/>
	<linearGradient id="SVGID_16_" gradientUnits="userSpaceOnUse" x1="588.0664" y1="455.6752" x2="603.875" y2="455.6752">
		<stop  offset="0" style="stop-color:#FF3333"/>
		<stop  offset="1" style="stop-color:#963333"/>
	</linearGradient>
	<path fill="url(#SVGID_16_)" d="M595.4,442.6c1.2,0.2,2.3,0.5,3.3,0.9c1,0.3,1.8,0.8,2.5,1.2c0.8,0.5,1.3,1,1.7,1.5
		c0.4,0.5,0.6,0.9,0.6,1.2c0.1,0.3,0.1,1.7,0.2,4.1c0.1,2.3,0.1,3.9,0.1,4.9c0,4.3-0.1,7.8-0.3,10.4c-2.8,0.8-4.8,1.4-5.9,1.9
		c0.3-5.3,0.4-9,0.4-10.9c0-3.7-0.3-6.3-0.8-7.8c-0.5-1.5-1.9-2.7-4.2-3.8c0,0.5,0,0.8,0,0.9c0,3.1,1.1,5.6,3.3,7.4
		c-0.1,0.4-0.6,1.2-1.3,2.4c-0.8,1.3-1.3,2.1-1.6,2.5c-1.2-0.4-2.2-0.8-2.8-1.3c-0.6-0.5-1.2-1.3-1.8-2.6c-0.6-1.2-0.9-2.7-0.9-4.4
		c0-1.1,0.2-2.5,0.5-4.1c0.5-0.4,1-0.8,1.6-1.2c0.6-0.4,1.1-0.8,1.7-1.2c0.6-0.4,1.1-0.7,1.7-1.1C594.1,443.3,594.7,443,595.4,442.6
		z"/>
	<linearGradient id="SVGID_17_" gradientUnits="userSpaceOnUse" x1="607.2148" y1="451.1107" x2="623.6729" y2="451.1107">
		<stop  offset="0" style="stop-color:#FF3333"/>
		<stop  offset="1" style="stop-color:#963333"/>
	</linearGradient>
	<path fill="url(#SVGID_17_)" d="M607.7,444.1c1.5-0.1,3.7-0.6,6.7-1.5c-0.2,0.4-0.3,1.3-0.5,2.5c-0.1,0.8-0.3,1.6-0.4,2.6
		c-0.2,1-0.3,1.9-0.3,2.7c0,0.8,0.2,1.6,0.5,2.3c0.3,0.8,0.8,1.8,1.3,2.8c1.2-0.9,2-1.7,2.5-2.4c0-0.4,0-1.1,0-2.1
		c0-3.5-0.2-6-0.5-7.6c0.5,0.1,0.9,0.1,1.3,0.1c1.5,0,3.3-0.2,5.4-0.5c-0.1,1.9-0.2,4.2-0.2,7c0,1.6,0.1,4.3,0.2,8.1
		c-0.7,0.1-2.1,0.4-4.1,0.8l-2.6,0.5c0.2-1.2,0.3-2.3,0.3-3.2c-1,0.5-2.5,1.5-4.8,3c-1.7-0.4-2.8-0.8-3.3-1.1
		c-0.5-0.3-0.9-0.8-1.4-1.6c-0.4-0.8-0.7-2-0.7-3.6C607.2,449.9,607.4,447,607.7,444.1z"/>
	<linearGradient id="SVGID_18_" gradientUnits="userSpaceOnUse" x1="626.9199" y1="451.1849" x2="640.7432" y2="451.1849">
		<stop  offset="0" style="stop-color:#FF3333"/>
		<stop  offset="1" style="stop-color:#963333"/>
	</linearGradient>
	<path fill="url(#SVGID_18_)" d="M627.1,446.5l4.2-3.5l5,0.4c1.6,0.1,2.7,0.5,3.4,1.2c0.7,0.7,1,1.4,1,2.3c0,0.4,0,0.8-0.1,1.4
		c-0.1,0.7-0.3,1.7-0.4,3c-1.7,0.9-3,1.4-3.9,1.5c-0.9,0.1-1.7,0.2-2.6,0.2c-0.3,0-0.7,0-1.2-0.1c1.2,1.5,2.4,2.3,3.5,2.3
		c1.4,0,2.6-0.5,3.7-1.5h0.1c-1.2,3.9-3.5,5.8-6.9,5.8c-1.7,0-3-0.2-3.8-0.7s-1.4-1.2-1.8-2.1c-0.4-0.9-0.6-2.6-0.6-5.1l0.1-3.2
		L627.1,446.5z M632.7,446.7l-0.5,4.5c1.1,0,2.2,0,3.5-0.1c0-0.8,0-1.2,0-1.2c0-1.1-0.3-1.8-0.8-2.4
		C634.3,447,633.6,446.8,632.7,446.7z"/>
	<linearGradient id="SVGID_19_" gradientUnits="userSpaceOnUse" x1="642.6729" y1="451.1478" x2="659.5762" y2="451.1478">
		<stop  offset="0" style="stop-color:#FF3333"/>
		<stop  offset="1" style="stop-color:#963333"/>
	</linearGradient>
	<path fill="url(#SVGID_19_)" d="M648.1,442.9c0.1,0,1.1,0.1,3.2,0.2c2.2,0.1,4.3,0.2,6.4,0.2c0,0-0.1,0.5-0.4,1.4
		c-0.4,1.4-0.7,2.5-0.7,3.2c-1.4-0.6-4.3-1-8.4-1.4c0.6,1.8,2.5,2.6,5.8,2.6c1.7,0,2.9,0.1,3.6,0.2c0.6,0.1,1.1,0.5,1.5,0.9
		c0.3,0.5,0.5,1.1,0.5,2c0,0.9-0.2,1.8-0.6,2.7c-0.4,0.9-0.9,1.6-1.5,2.2c-0.6,0.6-1.6,1.1-3,1.5c-1.4,0.4-2.9,0.7-4.5,0.7
		c-2.7,0-5-0.6-6.8-1.7c0.2-0.7,0.6-1.7,1-2.7c1.9,0.8,4.1,1.3,6.5,1.3c1.3,0,2.5-0.4,3.6-1.1c-0.8-0.5-1.6-0.8-2.5-0.8
		c-0.2,0-0.4,0-0.7,0c-0.6,0-1,0-1.1,0c-2.4,0-4.3-0.4-5.6-1.1c-1.3-0.7-1.9-2-1.9-3.7c0-1.4,0.4-2.6,1.2-3.5
		C644.6,445.1,646,444.1,648.1,442.9z"/>
	<linearGradient id="SVGID_20_" gradientUnits="userSpaceOnUse" x1="661.5801" y1="450.1923" x2="673.0654" y2="450.1923">
		<stop  offset="0" style="stop-color:#FF3333"/>
		<stop  offset="1" style="stop-color:#963333"/>
	</linearGradient>
	<path fill="url(#SVGID_20_)" d="M663.6,442.8l0-1.5c0.1,0,0.7-0.1,1.8-0.2c1.7-0.2,3-0.3,3.9-0.5c0,0.2,0,0.4,0,0.6
		c0,0.4,0,1.1-0.1,2c0.4,0,1.2,0.1,2.4,0.1c0.8,0,1.3,0,1.6-0.1c-0.3,2-0.6,3.2-0.6,3.5c-0.8,0.1-2,0.2-3.4,0.3
		c-0.1,1.8-0.1,3.1-0.1,3.7c0,1.1,0.3,1.9,0.8,2.6c0.5,0.6,1.4,1.1,2.6,1.5l-3.2,4.9c-4-1.1-6.1-3.2-6.1-6.3c0-0.5,0.1-1.5,0.3-2.9
		c0.2-1.5,0.3-2.5,0.3-3c-0.6,0-1.2,0.1-1.9,0.2l2-3.4V444L663.6,442.8z"/>
</g>
</svg>
